<?xml version="1.0" encoding="utf-8"?>
<svg xmlns="http://www.w3.org/2000/svg" xmlns:xlink="http://www.w3.org/1999/xlink" viewBox="150 0 150 200">
  <path d="M172.566 128.85h70v-20h-70z" fill="#ccc"/>
  <path d="M167.566 123.85h70v-20h-70z" fill="#8080ff"/>
  <symbol id="a">
    <path d="M.449.494v.217h-.03C.412.685.404.677.387.677a.133.133 0 0 0-.042.011.337.337 0 0 1-.117.022C.092.71.009.633.009.507.009.419.061.356.18.299L.247.267C.335.225.359.199.359.147.359.078.31.033.233.033a.18.18 0 0 0-.146.074.348.348 0 0 0-.058.14H0V0h.029c.006.025.014.034.03.034A.159.159 0 0 0 .1.024.379.379 0 0 1 .23 0c.148 0 .248.085.248.211a.21.21 0 0 1-.11.182L.221.466C.14.506.118.531.118.579c0 .062.042.1.11.1A.17.17 0 0 0 .351.623a.272.272 0 0 0 .07-.129h.028z"/>
  </symbol>
  <symbol id="b">
    <path d="M.226.487C.099.487 0 .382 0 .246 0 .103.095 0 .226 0c.129 0 .225.104.225.243 0 .14-.096.244-.225.244M.227.456C.285.456.304.401.304.237.304.083.284.031.226.031.167.031.147.082.147.228c0 .176.018.228.08.228z"/>
  </symbol>
  <symbol id="c">
    <path d="M.327.001a.495.495 0 0 0 .132.026l.062.007v.023C.477.059.465.072.465.115v.36H.264V.451C.314.447.326.435.326.392V.109C.293.076.272.065.244.065c-.041 0-.056.02-.056.071v.339H0V.451C.041.443.049.434.049.392V.14c0-.088.05-.14.133-.14.052 0 .087.016.145.066V.001z"/>
  </symbol>
  <symbol id="d">
    <path d="M.285.473H.191v.169H.166A.878.878 0 0 0 0 .456V.429h.052V.105C.052.04.095 0 .164 0c.067 0 .107.03.148.112L.287.123C.267.085.251.071.23.071.202.071.191.088.191.128v.301h.094v.044z"/>
  </symbol>
  <symbol id="e">
    <path d="M.192.676H0V.652C.046.643.053.635.053.594v-.51C.053.042.045.033 0 .024V0h.241v.024C.204.029.192.044.192.081v.267c0 .004.007.014.017.023.022.023.046.035.069.035C.313.406.33.379.33.323V.081C.33.044.317.028.283.024V0h.235v.024C.482.027.469.042.469.084v.248c0 .086-.053.141-.135.141-.053 0-.09-.02-.142-.078v.281z"/>
  </symbol>
  <symbol id="f">
    <path d="M.194.69H0V.666C.046.657.055.648.055.608V.001h.012l.079.056C.192.016.228 0 .278 0c.133 0 .226.104.226.253 0 .138-.077.234-.188.234A.157.157 0 0 1 .194.431V.69m0-.316c.017.043.037.059.07.059.062 0 .093-.067.093-.198C.357.097.327.032.263.032.221.032.194.063.194.111v.263z"/>
  </symbol>
  <symbol id="g">
    <path d="M.189.461H0V.437C.043.431.054.418.054.378V.084C.054.043.044.032 0 .024V0h.266v.024C.205.028.193.041.193.103v.189c0 .052.028.095.061.095C.262.387.271.38.282.364.301.337.316.328.342.328c.037 0 .063.028.063.067C.405.44.371.473.324.473.274.473.236.446.189.379v.082z"/>
  </symbol>
  <symbol id="h">
    <path d="M.192.461H0V.437C.044.428.053.419.053.378V.084C.053.043.046.035 0 .024V0h.239v.024C.204.029.192.043.192.081v.38m-.07.23A.078.078 0 0 1 .044.614c0-.045.033-.078.077-.078s.078.033.078.077a.077.077 0 0 1-.077.078z"/>
  </symbol>
  <symbol id="i">
    <path d="M.314.001a.687.687 0 0 0 .133.025l.062.008v.023C.463.06.45.073.45.115V.69H.235V.666C.302.661.311.654.311.608V.425C.268.471.238.487.192.487.082.487 0 .38 0 .235 0 .099.076 0 .181 0c.053 0 .086.016.133.066V.001M.311.126C.311.12.301.103.289.09.269.067.248.056.226.056c-.053 0-.078.06-.078.187 0 .129.027.188.085.188.033 0 .064-.024.078-.062V.126z"/>
  </symbol>
  <symbol id="j">
    <path d="M.454.604v.053h-.13a.293.293 0 0 1-.112.022C.093.679.009.613.009.518A.15.15 0 0 1 .045.423.216.216 0 0 1 .133.366C.054.339.014.301.014.249.014.208.032.19.096.167.033.158 0 .133 0 .092 0 .034.075 0 .201 0c.166 0 .254.052.254.151 0 .077-.062.123-.164.123H.226c-.08 0-.1.007-.1.035 0 .03.028.052.068.052L.239.36a.18.18 0 0 1 .106.026.13.13 0 0 1 .068.12c0 .04-.012.07-.04.098h.081M.296.154c.054 0 .08-.017.08-.05C.376.058.321.032.222.032.134.032.088.055.088.099c0 .021.007.032.035.055h.173M.212.648C.259.648.278.61.278.517S.259.388.212.388C.164.388.146.424.146.517c0 .094.019.131.066.131z"/>
  </symbol>
  <symbol id="k">
    <path d="M.377.139C.337.09.306.072.263.072a.098.098 0 0 0-.089.053.284.284 0 0 0-.03.134h.252C.39.343.375.39.343.428a.169.169 0 0 1-.134.059C.084.487 0 .388 0 .242S.082 0 .206 0c.081 0 .13.032.195.125L.377.139M.139.296c.003.12.021.16.07.16C.237.456.256.44.264.409A.515.515 0 0 0 .273.311V.296H.139z"/>
  </symbol>
  <use xlink:href="#a" transform="matrix(9.9626 0 0 -9.9626 176.618 116.012)"/>
  <use xlink:href="#b" transform="matrix(9.9626 0 0 -9.9626 182.058 115.962)"/>
  <use xlink:href="#c" transform="matrix(9.9626 0 0 -9.9626 186.95 115.962)"/>
  <use xlink:href="#d" transform="matrix(9.9626 0 0 -9.9626 192.529 115.943)"/>
  <use xlink:href="#e" transform="matrix(9.9626 0 0 -9.9626 195.806 115.823)"/>
  <use xlink:href="#f" transform="matrix(9.9626 0 0 -9.9626 201.355 115.962)"/>
  <use xlink:href="#g" transform="matrix(9.9626 0 0 -9.9626 207.014 115.823)"/>
  <use xlink:href="#h" transform="matrix(9.9626 0 0 -9.9626 211.308 115.823)"/>
  <use xlink:href="#i" transform="matrix(9.9626 0 0 -9.9626 214.167 115.962)"/>
  <use xlink:href="#j" transform="matrix(9.9626 0 0 -9.9626 219.736 117.875)"/>
  <use xlink:href="#k" transform="matrix(9.9626 0 0 -9.9626 224.688 115.962)"/>
  <path stroke-width=".5" stroke-linecap="round" stroke-linejoin="round" fill="none" stroke="#000" d="M237.566 113.85h10"/>
  <path d="m243.87 115.38 3.696-1.53-3.696-1.53z"/>
  <path stroke-width=".5" stroke-linecap="round" stroke-linejoin="round" fill="none" stroke="#000" d="m243.87 115.38 3.696-1.53-3.696-1.53z"/>
  <path d="m241.261 112.32-3.695 1.53 3.695 1.53z"/>
  <path stroke-width=".5" stroke-linecap="round" stroke-linejoin="round" fill="none" stroke="#000" d="m241.261 112.32-3.695 1.53 3.695 1.53z"/>
  <symbol id="l">
    <path d="M.577.676H0V.651C.069.647.088.631.088.58V.096C.088.044.074.033 0 .025V0h.585l.04.208H.597A.294.294 0 0 0 .51.084.265.265 0 0 0 .333.031C.269.031.25.044.25.087v.242C.359.329.4.29.412.174h.026v.338H.412C.397.398.358.362.25.363v.232c0 .038.013.047.065.047.163 0 .212-.034.237-.167h.025v.201z"/>
  </symbol>
  <symbol id="m">
    <path d="M.191.461H0V.437C.044.43.053.42.053.378V.084C.053.042.045.033 0 .024V0h.241v.024C.204.029.192.044.192.081v.267c0 .004.007.014.017.023.022.023.046.035.069.035C.313.406.33.379.33.323V.081C.33.044.317.028.283.024V0h.235v.024C.479.027.469.039.469.081v.251c0 .086-.053.141-.135.141C.274.473.228.445.191.386v.075z"/>
  </symbol>
  <use xlink:href="#l" transform="matrix(9.9626 0 0 -9.9626 249.825 116.611)"/>
  <use xlink:href="#d" transform="matrix(9.9626 0 0 -9.9626 256.51 116.73)"/>
  <use xlink:href="#e" transform="matrix(9.9626 0 0 -9.9626 259.788 116.611)"/>
  <use xlink:href="#k" transform="matrix(9.9626 0 0 -9.9626 265.417 116.75)"/>
  <use xlink:href="#g" transform="matrix(9.9626 0 0 -9.9626 269.88 116.611)"/>
  <use xlink:href="#m" transform="matrix(9.9626 0 0 -9.9626 274.074 116.611)"/>
  <use xlink:href="#k" transform="matrix(9.9626 0 0 -9.9626 279.653 116.75)"/>
  <use xlink:href="#d" transform="matrix(9.9626 0 0 -9.9626 284.027 116.73)"/>
  <path d="M172.566 98.85h70v-20h-70z" fill="#ccc"/>
  <path d="M167.566 93.85h70v-20h-70z" fill="#660"/>
  <path stroke-width=".5" stroke-linecap="round" stroke-linejoin="round" fill="none" stroke="#000" d="M202.566 103.85v-10"/>
  <path d="m204.096 97.545-1.53-3.695-1.531 3.695z"/>
  <path stroke-width=".5" stroke-linecap="round" stroke-linejoin="round" fill="none" stroke="#000" d="m204.096 97.545-1.53-3.695-1.531 3.695z"/>
  <path d="m201.035 100.155 1.53 3.695 1.531-3.695z"/>
  <path stroke-width=".5" stroke-linecap="round" stroke-linejoin="round" fill="none" stroke="#000" d="m201.035 100.155 1.53 3.695 1.531-3.695z"/>
  <symbol id="n">
    <path d="M.214.694H.003V.669C.023.669.04.654.088.597V.123C.088.066.073.052 0 .043V.018h.227v.025C.15.052.132.071.132.142v.402L.579 0h.028v.589c0 .057.013.07.078.08v.025H.47V.669C.544.662.563.641.563.57V.265L.214.694z"/>
  </symbol>
  <use xlink:href="#n" transform="matrix(9.9626 0 0 -9.9626 176.16 86.002)" fill="#fff"/>
  <use xlink:href="#b" transform="matrix(9.9626 0 0 -9.9626 183.443 85.962)" fill="#fff"/>
  <use xlink:href="#g" transform="matrix(9.9626 0 0 -9.9626 188.464 85.823)" fill="#fff"/>
  <use xlink:href="#d" transform="matrix(9.9626 0 0 -9.9626 192.798 85.943)" fill="#fff"/>
  <use xlink:href="#e" transform="matrix(9.9626 0 0 -9.9626 196.075 85.823)" fill="#fff"/>
  <use xlink:href="#f" transform="matrix(9.9626 0 0 -9.9626 201.624 85.962)" fill="#fff"/>
  <use xlink:href="#g" transform="matrix(9.9626 0 0 -9.9626 207.283 85.823)" fill="#fff"/>
  <use xlink:href="#h" transform="matrix(9.9626 0 0 -9.9626 211.577 85.823)" fill="#fff"/>
  <use xlink:href="#i" transform="matrix(9.9626 0 0 -9.9626 214.436 85.962)" fill="#fff"/>
  <use xlink:href="#j" transform="matrix(9.9626 0 0 -9.9626 220.005 87.875)" fill="#fff"/>
  <use xlink:href="#k" transform="matrix(9.9626 0 0 -9.9626 224.957 85.962)" fill="#fff"/>
  <path stroke-width=".5" stroke-linecap="round" stroke-linejoin="round" fill="none" stroke="#000" d="M157.566 83.85h10"/>
  <path d="m163.87 85.38 3.696-1.53-3.696-1.53z"/>
  <path stroke-width=".5" stroke-linecap="round" stroke-linejoin="round" fill="none" stroke="#000" d="m163.87 85.38 3.696-1.53-3.696-1.53z"/>
  <path d="m161.261 82.32-3.695 1.53 3.695 1.53z"/>
  <path stroke-width=".5" stroke-linecap="round" stroke-linejoin="round" fill="none" stroke="#000" d="m161.261 82.32-3.695 1.53 3.695 1.53z"/>
  <symbol id="o">
    <path d="M.689.025a.048.048 0 0 0-.041.019L.447.329a.27.27 0 0 1 .112.057.15.15 0 0 1 .045.112c0 .115-.099.178-.282.178H0V.651C.074.646.088.631.088.559V.117C.088.044.078.034 0 .025V0h.338v.025C.26.035.25.046.25.117v.196h.027L.484 0h.205v.025M.25.6a.09.09 0 0 0 .007.027c.006.01.022.015.047.015.092 0 .129-.043.129-.148C.433.43.418.391.386.37.36.353.326.346.25.345V.6z"/>
  </symbol>
  <symbol id="p">
    <path d="M.68.025H.676C.637.025.621.046.571.164L.348.69H.32L.098.142C.06.049.048.034 0 .025V0h.203v.025C.144.029.121.04.121.066c0 .013.008.038.029.092l.015.039H.39A.431.431 0 0 0 .436.061C.436.04.423.03.388.028A.286.286 0 0 1 .356.025V0H.68v.025m-.5.211.094.243.101-.243H.18z"/>
  </symbol>
  <symbol id="q">
    <path d="M.664.609V.1C.664.044.65.032.575.025V0h.332v.025C.829.035.819.046.819.117v.442c0 .072.015.087.088.092v.025H.655l-.2-.472-.2.472H.002V.651C.075.645.091.632.091.58V.105C.091.045.078.033 0 .025V0h.234v.025C.152.031.133.05.133.124v.47L.385 0h.027l.252.609z"/>
  </symbol>
  <use xlink:href="#o" transform="matrix(9.9626 0 0 -9.9626 131.934 86.75)"/>
  <use xlink:href="#p" transform="matrix(9.9626 0 0 -9.9626 138.957 86.75)"/>
  <use xlink:href="#q" transform="matrix(9.9626 0 0 -9.9626 146.2 86.75)"/>
  <path d="M190.066 66.85h35v-20h-35z" fill="#ccc"/>
  <path d="M185.066 61.85h35v-20h-35z" fill="#ff9973"/>
  <symbol id="r">
    <path d="M.608.171a.357.357 0 0 0-.14-.105.245.245 0 0 0-.09-.018.183.183 0 0 0-.158.087.468.468 0 0 0-.043.225c0 .207.064.317.184.317.047 0 .09-.018.133-.056A.39.39 0 0 0 .595.473H.62v.234H.593C.579.672.568.661.549.661a.127.127 0 0 0-.046.014.403.403 0 0 1-.155.035A.345.345 0 0 1 0 .352.34.34 0 0 1 .354 0c.071 0 .13.017.185.054a.511.511 0 0 1 .099.092l-.03.025z"/>
  </symbol>
  <symbol id="s">
    <path d="M.246.303c.135.001.169.004.213.022.081.031.125.092.125.169C.584.61.489.676.322.676H0V.651C.07.645.084.629.084.559V.117C.084.055.071.035.024.029L0 .025V0h.334v.025C.255.035.246.044.246.117v.186m0 .303c0 .023.017.035.05.035.083 0 .116-.044.116-.152C.412.426.4.388.374.365.35.345.317.338.246.338v.268z"/>
  </symbol>
  <symbol id="t">
    <path d="M.607.585c0 .059.014.075.078.085v.025h-.22V.67C.543.664.563.644.563.571V.266C.563.118.507.049.388.049.286.049.241.108.241.244v.334c0 .04.006.062.021.076.012.01.028.014.076.016v.025H0V.67C.07.663.082.65.082.578V.244c0-.098.021-.147.082-.191A.311.311 0 0 1 .349 0c.074 0 .144.022.187.059.045.038.071.114.071.207v.319z"/>
  </symbol>
  <use xlink:href="#r" transform="matrix(9.9626 0 0 -9.9626 192.818 55.855)"/>
  <use xlink:href="#s" transform="matrix(9.9626 0 0 -9.9626 199.682 55.666)"/>
  <use xlink:href="#t" transform="matrix(9.9626 0 0 -9.9626 205.77 55.855)"/>
  <path stroke-width=".5" stroke-linecap="round" stroke-linejoin="round" fill="none" stroke="#000" d="M202.566 61.85v12"/>
  <path d="m201.035 70.155 1.53 3.695 1.531-3.695z"/>
  <path stroke-width=".5" stroke-linecap="round" stroke-linejoin="round" fill="none" stroke="#000" d="m201.035 70.155 1.53 3.695 1.531-3.695z"/>
  <path d="m204.096 65.545-1.53-3.695-1.531 3.695z"/>
  <path stroke-width=".5" stroke-linecap="round" stroke-linejoin="round" fill="none" stroke="#000" d="m204.096 65.545-1.53-3.695-1.531 3.695z"/>
  <path stroke-width="2.5" stroke-linecap="round" stroke-linejoin="round" fill="none" stroke="#000" d="M247.566 108.85c-20.502 0-45 3.133-45-15"/>
  <path d="M204.511 97.345c-.736-.99-1.388-2.148-1.945-3.495-.558 1.347-.917 2.627-1.096 3.847z"/>
  <path stroke-width="2.5" stroke-linecap="round" stroke-linejoin="round" fill="none" stroke="#000" d="M204.511 97.345c-.736-.99-1.388-2.148-1.945-3.495-.558 1.347-.917 2.627-1.096 3.847z"/>
  <path stroke-width="2" stroke-linecap="round" stroke-linejoin="round" fill="none" stroke="#973207" d="M247.566 108.85c-20.502 0-45 3.133-45-15"/>
  <path d="M204.511 97.345c-.736-.99-1.388-2.148-1.945-3.495-.558 1.347-.917 2.627-1.096 3.847z" fill="#973207"/>
  <path stroke-width="2" stroke-linecap="round" stroke-linejoin="round" fill="none" stroke="#973207" d="M204.511 97.345c-.736-.99-1.388-2.148-1.945-3.495-.558 1.347-.917 2.627-1.096 3.847z"/>
  <symbol id="u">
    <path d="M.247.853a.506.506 0 0 1-.141-.12A.464.464 0 0 1 0 .429C0 .302.037.204.125.102A.428.428 0 0 1 .244 0l.012.016C.176.079.148.114.121.189a.706.706 0 0 0-.035.243c0 .105.013.187.04.249a.382.382 0 0 0 .13.156L.247.853z"/>
  </symbol>
  <symbol id="v">
    <path d="M.405.076C.388.062.376.057.361.057c-.023 0-.03.014-.03.058V.31c0 .052-.005.081-.02.105C.289.451.246.47.187.47.093.47.019.421.019.358c0-.023.02-.043.043-.043.024 0 .045.02.045.042L.105.373a.112.112 0 0 0-.003.024c0 .027.032.049.072.049C.223.446.25.417.25.363V.302C.096.24.079.232.036.194A.121.121 0 0 1 0 .107C0 .044.044 0 .105 0 .149 0 .19.021.251.073.256.021.274 0 .315 0c.034 0 .055.012.09.05v.026M.25.133C.25.102.245.093.224.081A.158.158 0 0 0 .151.058C.116.058.088.092.088.135v.004c0 .059.041.095.162.139V.133z"/>
  </symbol>
  <symbol id="w">
    <path d="M.009 0A.506.506 0 0 1 .15.12a.464.464 0 0 1 .106.304.464.464 0 0 1-.125.327.428.428 0 0 1-.119.102L0 .837A.339.339 0 0 0 .135.664.706.706 0 0 0 .17.421.626.626 0 0 0 .13.173.378.378 0 0 0 0 .016L.009 0z"/>
  </symbol>
  <symbol id="x">
    <path d="M.088.109C.088.037.076.024 0 .019V0h.284C.4 0 .505.033.567.089a.328.328 0 0 1 .102.245c0 .09-.03.168-.085.223C.516.626.407.662.27.662H0V.643C.079.636.088.627.088.553V.109M.19.586c0 .031.011.039.052.039a.337.337 0 0 0 .199-.05A.286.286 0 0 0 .56.327C.56.209.519.125.438.078A.376.376 0 0 0 .242.037C.202.037.19.046.19.078v.508z"/>
  </symbol>
  <symbol id="y">
    <path d="M.662.573V.12C.662.037.65.024.571.019V0h.28v.019C.778.024.764.038.764.109v.444c0 .071.013.084.087.09v.019H.652L.431.157.2.662H.002V.643C.084.638.097.626.097.553V.147C.097.044.083.025 0 .019V0h.235v.019C.158.023.141.046.141.147V.55L.392 0h.014l.256.573z"/>
  </symbol>
  <symbol id="z">
    <path d="M.691.019C.646.022.636.032.601.106L.352.674h-.02L.124.183C.06.037.048.021 0 .019V0h.198v.019C.15.019.13.032.13.06c0 .012.003.026.008.039l.046.117h.262L.487.12A.198.198 0 0 0 .506.053C.506.028.489.02.436.019V0h.255v.019m-.49.238.115.275.116-.275H.201z"/>
  </symbol>
  <symbol id="A">
    <path d="M.097.109C.097.034.084.022 0 .019V0h.297v.019C.215.022.199.036.199.109v.444c0 .073.014.086.098.09v.019H0V.643C.085.638.097.627.097.553V.109z"/>
  </symbol>
  <symbol id="B">
    <path d="M0 .398a.067.067 0 0 0 .027.004C.055.402.064.387.064.338V.09C.064.033.053.019.002.015V0h.212v.015C.163.019.148.031.148.067v.281c.048.045.07.057.103.057C.3.405.324.374.324.308V.099C.324.036.311.019.261.015V0h.208v.015C.42.02.408.032.408.081V.31C.408.404.364.46.29.46.244.46.213.443.145.379v.079L.138.46A1.866 1.866 0 0 0 0 .415V.398z"/>
  </symbol>
  <symbol id="C">
    <path d="M.159.46.004.405V.39l.008.001a.224.224 0 0 0 .034.003C.07.394.079.378.079.334V.102C.079.03.069.019 0 .015V0h.237v.015C.171.02.163.03.163.102v.355L.159.46M.112.683a.051.051 0 0 1-.05-.051.05.05 0 0 1 .05-.051.05.05 0 0 1 .052.051.051.051 0 0 1-.052.051z"/>
  </symbol>
  <symbol id="D">
    <path d="M.242.46H.141v.116c0 .01-.001.013-.007.013L.114.561A.362.362 0 0 0 .017.454C.006.447 0 .44 0 .435 0 .432.001.43.004.428h.053V.127C.057.043.087 0 .146 0c.049 0 .087.024.12.076L.253.087C.232.062.215.052.193.052c-.037 0-.052.027-.052.09v.286h.101V.46z"/>
  </symbol>
  <symbol id="E">
    <path d="M.383.174C.335.098.292.069.228.069c-.057 0-.1.029-.129.086a.299.299 0 0 0-.027.132H.38C.372.352.362.381.337.413A.164.164 0 0 1 .209.47.2.2 0 0 1 .074.418C.027.377 0 .306 0 .224 0 .086.072 0 .187 0c.095 0 .17.059.212.167L.383.174M.074.319C.085.397.119.434.18.434S.265.406.278.319H.074z"/>
  </symbol>
  <symbol id="F">
    <path d="m.317 0 .147.052v.016L.441.067C.405.067.397.078.397.124v.567L.392.693A1.702 1.702 0 0 0 .245.649V.633a.162.162 0 0 0 .022.001c.037 0 .046-.01.046-.051V.427C.275.459.248.47.208.47.093.47 0 .357 0 .215 0 .087.075 0 .185 0c.056 0 .094.02.128.067V.003L.317 0M.313.112C.313.105.306.093.296.082a.094.094 0 0 0-.072-.03c-.083 0-.138.08-.138.203 0 .113.049.187.125.187a.105.105 0 0 0 .102-.1v-.23z"/>
  </symbol>
  <use xlink:href="#u" transform="matrix(7.9701 0 0 -7.9701 181.063 140.87)"/>
  <use xlink:href="#v" transform="matrix(7.9701 0 0 -7.9701 183.629 139.54)"/>
  <use xlink:href="#w" transform="matrix(7.9701 0 0 -7.9701 187.104 140.87)"/>
  <use xlink:href="#x" transform="matrix(7.9701 0 0 -7.9701 191.647 139.46)"/>
  <use xlink:href="#y" transform="matrix(7.9701 0 0 -7.9701 197.37 139.46)"/>
  <use xlink:href="#z" transform="matrix(7.9701 0 0 -7.9701 204.479 139.46)"/>
  <use xlink:href="#A" transform="matrix(7.9701 0 0 -7.9701 212.25 139.46)"/>
  <use xlink:href="#B" transform="matrix(7.9701 0 0 -7.9701 214.888 139.46)"/>
  <use xlink:href="#C" transform="matrix(7.9701 0 0 -7.9701 218.873 139.46)"/>
  <use xlink:href="#D" transform="matrix(7.9701 0 0 -7.9701 221.064 139.54)"/>
  <use xlink:href="#C" transform="matrix(7.9701 0 0 -7.9701 223.304 139.46)"/>
  <use xlink:href="#v" transform="matrix(7.9701 0 0 -7.9701 225.687 139.54)"/>
  <use xlink:href="#D" transform="matrix(7.9701 0 0 -7.9701 229.035 139.54)"/>
  <use xlink:href="#E" transform="matrix(7.9701 0 0 -7.9701 231.346 139.54)"/>
  <use xlink:href="#F" transform="matrix(7.9701 0 0 -7.9701 234.9 139.54)"/>
  <path d="M348.49 128.85h70v-20h-70z" fill="#ccc"/>
  <path d="M343.49 123.85h70v-20h-70z" fill="#8080ff"/>
  <use xlink:href="#a" transform="matrix(9.9626 0 0 -9.9626 352.543 116.012)"/>
  <use xlink:href="#b" transform="matrix(9.9626 0 0 -9.9626 357.983 115.962)"/>
  <use xlink:href="#c" transform="matrix(9.9626 0 0 -9.9626 362.875 115.962)"/>
  <use xlink:href="#d" transform="matrix(9.9626 0 0 -9.9626 368.454 115.943)"/>
  <use xlink:href="#e" transform="matrix(9.9626 0 0 -9.9626 371.731 115.823)"/>
  <use xlink:href="#f" transform="matrix(9.9626 0 0 -9.9626 377.28 115.962)"/>
  <use xlink:href="#g" transform="matrix(9.9626 0 0 -9.9626 382.94 115.823)"/>
  <use xlink:href="#h" transform="matrix(9.9626 0 0 -9.9626 387.233 115.823)"/>
  <use xlink:href="#i" transform="matrix(9.9626 0 0 -9.9626 390.092 115.962)"/>
  <use xlink:href="#j" transform="matrix(9.9626 0 0 -9.9626 395.662 117.875)"/>
  <use xlink:href="#k" transform="matrix(9.9626 0 0 -9.9626 400.613 115.962)"/>
  <path stroke-width=".5" stroke-linecap="round" stroke-linejoin="round" fill="none" stroke="#000" d="M413.49 113.85h10"/>
  <path d="m419.795 115.38 3.696-1.53-3.696-1.53z"/>
  <path stroke-width=".5" stroke-linecap="round" stroke-linejoin="round" fill="none" stroke="#000" d="m419.795 115.38 3.696-1.53-3.696-1.53z"/>
  <path d="m417.186 112.32-3.695 1.53 3.695 1.53z"/>
  <path stroke-width=".5" stroke-linecap="round" stroke-linejoin="round" fill="none" stroke="#000" d="m417.186 112.32-3.695 1.53 3.695 1.53z"/>
  <use xlink:href="#l" transform="matrix(9.9626 0 0 -9.9626 425.75 116.611)"/>
  <use xlink:href="#d" transform="matrix(9.9626 0 0 -9.9626 432.435 116.73)"/>
  <use xlink:href="#e" transform="matrix(9.9626 0 0 -9.9626 435.713 116.611)"/>
  <use xlink:href="#k" transform="matrix(9.9626 0 0 -9.9626 441.342 116.75)"/>
  <use xlink:href="#g" transform="matrix(9.9626 0 0 -9.9626 445.805 116.611)"/>
  <use xlink:href="#m" transform="matrix(9.9626 0 0 -9.9626 450 116.611)"/>
  <use xlink:href="#k" transform="matrix(9.9626 0 0 -9.9626 455.578 116.75)"/>
  <use xlink:href="#d" transform="matrix(9.9626 0 0 -9.9626 459.952 116.73)"/>
  <path d="M348.49 98.85h70v-20h-70z" fill="#ccc"/>
  <path d="M343.49 93.85h70v-20h-70z" fill="#660"/>
  <path stroke-width=".5" stroke-linecap="round" stroke-linejoin="round" fill="none" stroke="#000" d="M378.49 103.85v-10"/>
  <path d="m380.021 97.545-1.53-3.695-1.531 3.695z"/>
  <path stroke-width=".5" stroke-linecap="round" stroke-linejoin="round" fill="none" stroke="#000" d="m380.021 97.545-1.53-3.695-1.531 3.695z"/>
  <path d="m376.96 100.155 1.53 3.695 1.531-3.695z"/>
  <path stroke-width=".5" stroke-linecap="round" stroke-linejoin="round" fill="none" stroke="#000" d="m376.96 100.155 1.53 3.695 1.531-3.695z"/>
  <use xlink:href="#n" transform="matrix(9.9626 0 0 -9.9626 352.085 86.002)" fill="#fff"/>
  <use xlink:href="#b" transform="matrix(9.9626 0 0 -9.9626 359.368 85.962)" fill="#fff"/>
  <use xlink:href="#g" transform="matrix(9.9626 0 0 -9.9626 364.389 85.823)" fill="#fff"/>
  <use xlink:href="#d" transform="matrix(9.9626 0 0 -9.9626 368.723 85.943)" fill="#fff"/>
  <use xlink:href="#e" transform="matrix(9.9626 0 0 -9.9626 372 85.823)" fill="#fff"/>
  <use xlink:href="#f" transform="matrix(9.9626 0 0 -9.9626 377.55 85.962)" fill="#fff"/>
  <use xlink:href="#g" transform="matrix(9.9626 0 0 -9.9626 383.208 85.823)" fill="#fff"/>
  <use xlink:href="#h" transform="matrix(9.9626 0 0 -9.9626 387.502 85.823)" fill="#fff"/>
  <use xlink:href="#i" transform="matrix(9.9626 0 0 -9.9626 390.361 85.962)" fill="#fff"/>
  <use xlink:href="#j" transform="matrix(9.9626 0 0 -9.9626 395.93 87.875)" fill="#fff"/>
  <use xlink:href="#k" transform="matrix(9.9626 0 0 -9.9626 400.882 85.962)" fill="#fff"/>
  <path stroke-width=".5" stroke-linecap="round" stroke-linejoin="round" fill="none" stroke="#000" d="M333.49 83.85h10"/>
  <path d="m339.795 85.38 3.696-1.53-3.696-1.53z"/>
  <path stroke-width=".5" stroke-linecap="round" stroke-linejoin="round" fill="none" stroke="#000" d="m339.795 85.38 3.696-1.53-3.696-1.53z"/>
  <path d="m337.186 82.32-3.695 1.53 3.695 1.53z"/>
  <path stroke-width=".5" stroke-linecap="round" stroke-linejoin="round" fill="none" stroke="#000" d="m337.186 82.32-3.695 1.53 3.695 1.53z"/>
  <use xlink:href="#o" transform="matrix(9.9626 0 0 -9.9626 307.86 86.75)"/>
  <use xlink:href="#p" transform="matrix(9.9626 0 0 -9.9626 314.883 86.75)"/>
  <use xlink:href="#q" transform="matrix(9.9626 0 0 -9.9626 322.126 86.75)"/>
  <path d="M365.99 66.85h35v-20h-35z" fill="#ccc"/>
  <path d="M360.99 61.85h35v-20h-35z" fill="#ff9973"/>
  <use xlink:href="#r" transform="matrix(9.9626 0 0 -9.9626 368.743 55.855)"/>
  <use xlink:href="#s" transform="matrix(9.9626 0 0 -9.9626 375.607 55.666)"/>
  <use xlink:href="#t" transform="matrix(9.9626 0 0 -9.9626 381.694 55.855)"/>
  <path stroke-width=".5" stroke-linecap="round" stroke-linejoin="round" fill="none" stroke="#000" d="M378.49 61.85v12"/>
  <path d="m376.96 70.155 1.53 3.695 1.531-3.695z"/>
  <path stroke-width=".5" stroke-linecap="round" stroke-linejoin="round" fill="none" stroke="#000" d="m376.96 70.155 1.53 3.695 1.531-3.695z"/>
  <path d="m380.021 65.545-1.53-3.695-1.531 3.695z"/>
  <path stroke-width=".5" stroke-linecap="round" stroke-linejoin="round" fill="none" stroke="#000" d="m380.021 65.545-1.53-3.695-1.531 3.695z"/>
  <path stroke-width="2.5" stroke-linecap="round" stroke-linejoin="round" fill="none" stroke="#000" d="M378.49 93.85c0-18.133-24.498-15-45-15"/>
  <path d="M337.173 77.29a277.064 277.064 0 0 1-3.682 1.56c1.218.505 2.457 1.004 3.707 1.5z"/>
  <path stroke-width="2.5" stroke-linecap="round" stroke-linejoin="round" fill="none" stroke="#000" d="M337.173 77.29a277.064 277.064 0 0 1-3.682 1.56c1.218.505 2.457 1.004 3.707 1.5z"/>
  <path stroke-width="2" stroke-linecap="round" stroke-linejoin="round" fill="none" stroke="#973207" d="M378.49 93.85c0-18.133-24.498-15-45-15"/>
  <path d="M337.173 77.29a277.064 277.064 0 0 1-3.682 1.56c1.218.505 2.457 1.004 3.707 1.5z" fill="#973207"/>
  <path stroke-width="2" stroke-linecap="round" stroke-linejoin="round" fill="none" stroke="#973207" d="M337.173 77.29a277.064 277.064 0 0 1-3.682 1.56c1.218.505 2.457 1.004 3.707 1.5z"/>
  <path stroke-width="2.5" stroke-linecap="round" stroke-linejoin="round" fill="none" stroke="#000" d="M378.49 93.85v-35"/>
  <path d="m380.021 62.546-1.53-3.696-1.531 3.696z"/>
  <path stroke-width="2.5" stroke-linecap="round" stroke-linejoin="round" fill="none" stroke="#000" d="m380.021 62.546-1.53-3.696-1.531 3.696z"/>
  <path stroke-width="2" stroke-linecap="round" stroke-linejoin="round" fill="none" stroke="#973207" d="M378.49 93.85v-35"/>
  <path d="m380.021 62.546-1.53-3.696-1.531 3.696z" fill="#973207"/>
  <path stroke-width="2" stroke-linecap="round" stroke-linejoin="round" fill="none" stroke="#973207" d="m380.021 62.546-1.53-3.696-1.531 3.696z"/>
  <symbol id="G">
    <path d="M.15.691.145.693A1.45 1.45 0 0 0 .029.657L0 .649V.633l.017.001c.04 0 .049-.009.049-.051V.064C.066.033.151 0 .231 0c.132 0 .234.11.234.253C.465.376.389.47.289.47.228.47.17.434.15.385v.306m0-.359c0 .039.047.075.099.075.078 0 .128-.078.128-.2C.377.096.329.032.247.032.195.032.15.055.15.08v.252z"/>
  </symbol>
  <symbol id="H">
    <path d="M.592.464.583.69H.562C.556.669.54.657.52.657a.117.117 0 0 0-.039.009.475.475 0 0 1-.146.024.347.347 0 0 1-.227-.086A.344.344 0 0 1 0 .339C0 .246.03.16.081.103A.341.341 0 0 1 .332 0c.113 0 .212.046.273.127L.587.145C.513.074.447.044.364.044a.24.24 0 0 0-.162.058C.147.151.116.241.116.352c0 .181.093.298.238.298A.207.207 0 0 0 .503.589.249.249 0 0 0 .569.464h.023z"/>
  </symbol>
  <symbol id="I">
    <path d="M.585.169H.557C.507.061.464.037.321.037H.294C.245.037.203.042.196.049.191.052.189.063.189.08v.247h.154C.425.327.44.314.453.231h.023v.232H.453C.446.422.442.407.431.393.418.376.39.368.343.368H.189V.59c0 .028.006.034.033.034h.135C.47.624.492.609.509.519h.025L.531.662H0V.643C.074.637.087.623.087.553V.109C.087.039.073.024 0 .019V0h.54l.045.169z"/>
  </symbol>
  <symbol id="J">
    <path d="M.261 0h.201v.015C.431.015.411.031.38.075L.252.271l.083.12a.103.103 0 0 0 .081.044V.45H.258V.435c.03-.002.04-.008.04-.022C.298.401.286.379.261.348a.703.703 0 0 1-.03-.044l-.014.02a.268.268 0 0 0-.046.089c0 .014.013.021.043.022V.45H.007V.435h.009c.03 0 .046-.013.077-.06L.187.231.073.066C.043.025.033.018 0 .015V0h.145v.015c-.028 0-.04.005-.04.018 0 .006.007.021.02.041l.079.123.091-.14A.032.032 0 0 0 .301.039C.301.021.294.017.261.015V0z"/>
  </symbol>
  <symbol id="K">
    <path d="M.373.166C.325.096.289.072.232.072c-.091 0-.155.08-.155.195 0 .103.055.174.136.174C.249.441.262.43.272.393L.278.371C.286.343.304.325.325.325c.026 0 .048.019.048.042C.373.423.303.47.219.47.17.47.119.45.078.414A.249.249 0 0 1 0 .223C0 .093.079 0 .19 0a.18.18 0 0 1 .121.047.335.335 0 0 1 .076.11L.373.166z"/>
  </symbol>
  <symbol id="L">
    <path d="M.47.06H.465C.419.06.408.071.408.117V.46H.25V.443C.312.44.324.43.324.38V.145C.324.117.319.103.305.092A.141.141 0 0 0 .217.058C.178.058.146.092.146.134V.46H0V.446C.048.443.062.428.062.382V.13C.062.051.11 0 .183 0a.15.15 0 0 1 .103.043l.043.043V.003L.333.001c.05.02.086.031.137.045V.06z"/>
  </symbol>
  <use xlink:href="#u" transform="matrix(7.9701 0 0 -7.9701 339.119 140.87)"/>
  <use xlink:href="#G" transform="matrix(7.9701 0 0 -7.9701 341.414 139.54)"/>
  <use xlink:href="#w" transform="matrix(7.9701 0 0 -7.9701 345.606 140.87)"/>
  <use xlink:href="#x" transform="matrix(7.9701 0 0 -7.9701 350.15 139.46)"/>
  <use xlink:href="#y" transform="matrix(7.9701 0 0 -7.9701 355.872 139.46)"/>
  <use xlink:href="#z" transform="matrix(7.9701 0 0 -7.9701 362.981 139.46)"/>
  <use xlink:href="#v" transform="matrix(7.9701 0 0 -7.9701 370.903 139.54)"/>
  <use xlink:href="#B" transform="matrix(7.9701 0 0 -7.9701 374.275 139.46)"/>
  <use xlink:href="#F" transform="matrix(7.9701 0 0 -7.9701 378.347 139.54)"/>
  <use xlink:href="#x" transform="matrix(7.9701 0 0 -7.9701 384.237 139.46)"/>
  <use xlink:href="#H" transform="matrix(7.9701 0 0 -7.9701 390.087 139.572)"/>
  <use xlink:href="#z" transform="matrix(7.9701 0 0 -7.9701 395.3 139.46)"/>
  <use xlink:href="#I" transform="matrix(7.9701 0 0 -7.9701 403.023 139.46)"/>
  <use xlink:href="#J" transform="matrix(7.9701 0 0 -7.9701 407.932 139.46)"/>
  <use xlink:href="#E" transform="matrix(7.9701 0 0 -7.9701 411.862 139.54)"/>
  <use xlink:href="#K" transform="matrix(7.9701 0 0 -7.9701 415.4 139.54)"/>
  <use xlink:href="#L" transform="matrix(7.9701 0 0 -7.9701 418.812 139.54)"/>
  <use xlink:href="#D" transform="matrix(7.9701 0 0 -7.9701 422.829 139.54)"/>
  <use xlink:href="#E" transform="matrix(7.9701 0 0 -7.9701 425.14 139.54)"/>
  <use xlink:href="#F" transform="matrix(7.9701 0 0 -7.9701 428.695 139.54)"/>
  
</svg>
