<?xml version="1.0" encoding="utf-8"?>
<svg xmlns="http://www.w3.org/2000/svg" xmlns:xlink="http://www.w3.org/1999/xlink"  viewBox="0 30 350 140">
  <path d="M108.019 162.888h60v-20h-60z" fill="#ccc"/>
  <path d="M103.019 157.888h60v-20h-60z" fill="#b3ff73"/>
  <path stroke-width=".5" stroke-linecap="round" stroke-linejoin="round" fill="none" stroke="#000" d="M163.019 147.888h20"/>
  <path d="m179.324 149.419 3.695-1.531-3.695-1.53z"/>
  <path stroke-width=".5" stroke-linecap="round" stroke-linejoin="round" fill="none" stroke="#000" d="m179.324 149.419 3.695-1.531-3.695-1.53z"/>
  <path d="m166.714 146.357-3.695 1.531 3.695 1.53z"/>
  <path stroke-width=".5" stroke-linecap="round" stroke-linejoin="round" fill="none" stroke="#000" d="m166.714 146.357-3.695 1.531 3.695 1.53z"/>
  <path d="M188.019 162.888h60v-20h-60z" fill="#ccc"/>
  <path d="M183.019 157.888h60v-20h-60z" fill="#ff9973"/>
  <symbol id="a">
    <path d="M.619.227H.59A.348.348 0 0 0 .502.086C.461.049.405.031.328.031c-.061 0-.08.013-.08.056v.472c0 .075.014.088.101.092v.025H0V.651C.068.647.086.631.086.58V.096C.086.045.073.034 0 .025V0h.578l.041.227z"/>
  </symbol>
  <symbol id="b">
    <path d="M.252.688 0 .579V.553a.114.114 0 0 1 .02.008c.027.01.052.017.065.017C.11.578.121.556.121.509V.124c0-.082-.02-.099-.119-.1V0h.375v.024C.286.026.269.041.269.118v.57H.252z"/>
  </symbol>
  <symbol id="c">
    <path d="M.314.001a.687.687 0 0 0 .133.025l.062.008v.023C.463.06.45.073.45.115V.69H.235V.666C.302.661.311.654.311.608V.425C.268.471.238.487.192.487.082.487 0 .38 0 .235 0 .099.076 0 .181 0c.053 0 .086.016.133.066V.001M.311.126C.311.12.301.103.289.09.269.067.248.056.226.056c-.053 0-.078.06-.078.187 0 .129.027.188.085.188.033 0 .064-.024.078-.062V.126z"/>
  </symbol>
  <symbol id="d">
    <path d="M.608.171a.357.357 0 0 0-.14-.105.245.245 0 0 0-.09-.018.183.183 0 0 0-.158.087.468.468 0 0 0-.043.225c0 .207.064.317.184.317.047 0 .09-.018.133-.056A.39.39 0 0 0 .595.473H.62v.234H.593C.579.672.568.661.549.661a.127.127 0 0 0-.046.014.403.403 0 0 1-.155.035A.345.345 0 0 1 0 .352.34.34 0 0 1 .354 0c.071 0 .13.017.185.054a.511.511 0 0 1 .099.092l-.03.025z"/>
  </symbol>
  <symbol id="e">
    <path d="m.448.078-.01-.01C.435.065.432.064.427.064.413.064.406.073.406.089V.35C.406.434.33.487.208.487.095.487.019.436.019.361.019.32.043.295.084.295c.04 0 .068.024.068.058C.152.367.146.38.134.396.125.406.122.412.122.418c0 .021.028.037.063.037.058 0 .084-.027.084-.088V.294A.757.757 0 0 1 .064.213C.021.183 0 .149 0 .106 0 .045.047 0 .111 0c.057 0 .103.02.158.07C.28.019.302 0 .351 0c.043 0 .074.016.112.057L.448.078m-.18.036C.241.083.221.071.197.071c-.03 0-.051.027-.051.067 0 .058.042.1.122.121V.114z"/>
  </symbol>
  <symbol id="f">
    <path d="M.387.123C.35.081.324.067.283.067.196.067.141.154.141.29c0 .103.032.166.084.166.016 0 .031-.008.037-.019C.267.428.267.428.267.386.268.337.286.314.323.314c.042 0 .068.024.068.063 0 .062-.067.11-.155.11C.1.487 0 .381 0 .237 0 .099.09 0 .214 0c.077 0 .133.031.191.105L.387.123z"/>
  </symbol>
  <symbol id="g">
    <path d="M.192.676H0V.652C.046.643.053.635.053.594v-.51C.053.042.045.033 0 .024V0h.241v.024C.204.029.192.044.192.081v.267c0 .004.007.014.017.023.022.023.046.035.069.035C.313.406.33.379.33.323V.081C.33.044.317.028.283.024V0h.235v.024C.482.027.469.042.469.084v.248c0 .086-.053.141-.135.141-.053 0-.09-.02-.142-.078v.281z"/>
  </symbol>
  <symbol id="h">
    <path d="M.377.139C.337.09.306.072.263.072a.098.098 0 0 0-.089.053.284.284 0 0 0-.03.134h.252C.39.343.375.39.343.428a.169.169 0 0 1-.134.059C.084.487 0 .388 0 .242S.082 0 .206 0c.081 0 .13.032.195.125L.377.139M.139.296c.003.12.021.16.07.16C.237.456.256.44.264.409A.515.515 0 0 0 .273.311V.296H.139z"/>
  </symbol>
  <symbol id="i">
    <path d="M.246.303c.135.001.169.004.213.022.081.031.125.092.125.169C.584.61.489.676.322.676H0V.651C.07.645.084.629.084.559V.117C.084.055.071.035.024.029L0 .025V0h.334v.025C.255.035.246.044.246.117v.186m0 .303c0 .023.017.035.05.035.083 0 .116-.044.116-.152C.412.426.4.388.374.365.35.345.317.338.246.338v.268z"/>
  </symbol>
  <symbol id="j">
    <path d="M.607.585c0 .059.014.075.078.085v.025h-.22V.67C.543.664.563.644.563.571V.266C.563.118.507.049.388.049.286.049.241.108.241.244v.334c0 .04.006.062.021.076.012.01.028.014.076.016v.025H0V.67C.07.663.082.65.082.578V.244c0-.098.021-.147.082-.191A.311.311 0 0 1 .349 0c.074 0 .144.022.187.059.045.038.071.114.071.207v.319z"/>
  </symbol>
  <symbol id="k">
    <path d="M.226.487C.099.487 0 .382 0 .246 0 .103.095 0 .226 0c.129 0 .225.104.225.243 0 .14-.096.244-.225.244M.227.456C.285.456.304.401.304.237.304.083.284.031.226.031.167.031.147.082.147.228c0 .176.018.228.08.228z"/>
  </symbol>
  <symbol id="l">
    <path d="M.189.461H0V.437C.043.431.054.418.054.378V.084C.054.043.044.032 0 .024V0h.266v.024C.205.028.193.041.193.103v.189c0 .052.028.095.061.095C.262.387.271.38.282.364.301.337.316.328.342.328c.037 0 .063.028.063.067C.405.44.371.473.324.473.274.473.236.446.189.379v.082z"/>
  </symbol>
  <use xlink:href="#a" transform="matrix(9.9626 0 0 -9.9626 110.1 151.228)"/>
  <use xlink:href="#b" transform="matrix(9.9626 0 0 -9.9626 117.203 151.228)"/>
  <use xlink:href="#c" transform="matrix(9.9626 0 0 -9.9626 121.785 151.368)"/>
  <use xlink:href="#d" transform="matrix(9.9626 0 0 -9.9626 130.054 151.417)"/>
  <use xlink:href="#e" transform="matrix(9.9626 0 0 -9.9626 137.008 151.368)"/>
  <use xlink:href="#f" transform="matrix(9.9626 0 0 -9.9626 141.99 151.368)"/>
  <use xlink:href="#g" transform="matrix(9.9626 0 0 -9.9626 146.323 151.228)"/>
  <use xlink:href="#h" transform="matrix(9.9626 0 0 -9.9626 151.952 151.368)"/>
  <use xlink:href="#d" transform="matrix(9.9626 0 0 -9.9626 191.603 151.417)"/>
  <use xlink:href="#i" transform="matrix(9.9626 0 0 -9.9626 198.468 151.228)"/>
  <use xlink:href="#j" transform="matrix(9.9626 0 0 -9.9626 204.555 151.417)"/>
  <use xlink:href="#d" transform="matrix(9.9626 0 0 -9.9626 214.567 151.417)"/>
  <use xlink:href="#k" transform="matrix(9.9626 0 0 -9.9626 221.521 151.368)"/>
  <use xlink:href="#l" transform="matrix(9.9626 0 0 -9.9626 226.542 151.228)"/>
  <use xlink:href="#h" transform="matrix(9.9626 0 0 -9.9626 230.746 151.368)"/>
  <path d="M108.019 131.888h60v-20h-60z" fill="#ccc"/>
  <path d="M103.019 126.888h60v-20h-60z" fill="#7db350"/>
  <path stroke-width=".5" stroke-linecap="round" stroke-linejoin="round" fill="none" stroke="#000" d="M163.019 116.888h20"/>
  <path d="m179.324 118.419 3.695-1.531-3.695-1.53z"/>
  <path stroke-width=".5" stroke-linecap="round" stroke-linejoin="round" fill="none" stroke="#000" d="m179.324 118.419 3.695-1.531-3.695-1.53z"/>
  <path d="m166.714 115.357-3.695 1.531 3.695 1.53z"/>
  <path stroke-width=".5" stroke-linecap="round" stroke-linejoin="round" fill="none" stroke="#000" d="m166.714 115.357-3.695 1.531 3.695 1.53z"/>
  <path d="M188.019 131.888h60v-20h-60z" fill="#ccc"/>
  <path d="M183.019 126.888h60v-20h-60z" fill="#b3ff73"/>
  <symbol id="m">
    <path d="M.461.211H.437C.408.139.396.133.294.133H.143l.162.154c.079.075.114.142.114.218a.177.177 0 0 1-.185.183.185.185 0 0 1-.133-.056.355.355 0 0 1-.087-.148h.028c.031.062.068.09.122.09A.11.11 0 0 0 .263.519a.156.156 0 0 0 .02-.072.29.29 0 0 0-.051-.148A1.806 1.806 0 0 0 0 .023V0h.416l.045.211z"/>
  </symbol>
  <symbol id="n">
    <path d="M.192.461H0V.437C.044.428.053.419.053.378V.084C.053.043.046.035 0 .024V0h.239v.024C.204.029.192.043.192.081v.38m-.07.23A.078.078 0 0 1 .044.614c0-.045.033-.078.077-.078s.078.033.078.077a.077.077 0 0 1-.077.078z"/>
  </symbol>
  <use xlink:href="#a" transform="matrix(9.9626 0 0 -9.9626 112.87 120.228)"/>
  <use xlink:href="#m" transform="matrix(9.9626 0 0 -9.9626 119.494 120.228)"/>
  <use xlink:href="#d" transform="matrix(9.9626 0 0 -9.9626 127.285 120.417)"/>
  <use xlink:href="#e" transform="matrix(9.9626 0 0 -9.9626 134.24 120.368)"/>
  <use xlink:href="#f" transform="matrix(9.9626 0 0 -9.9626 139.22 120.368)"/>
  <use xlink:href="#g" transform="matrix(9.9626 0 0 -9.9626 143.554 120.228)"/>
  <use xlink:href="#h" transform="matrix(9.9626 0 0 -9.9626 149.183 120.368)"/>
  <use xlink:href="#a" transform="matrix(9.9626 0 0 -9.9626 191.484 120.228)"/>
  <use xlink:href="#b" transform="matrix(9.9626 0 0 -9.9626 198.588 120.228)"/>
  <use xlink:href="#n" transform="matrix(9.9626 0 0 -9.9626 203.08 120.228)"/>
  <use xlink:href="#d" transform="matrix(9.9626 0 0 -9.9626 208.67 120.417)"/>
  <use xlink:href="#e" transform="matrix(9.9626 0 0 -9.9626 215.624 120.368)"/>
  <use xlink:href="#f" transform="matrix(9.9626 0 0 -9.9626 220.605 120.368)"/>
  <use xlink:href="#g" transform="matrix(9.9626 0 0 -9.9626 224.939 120.228)"/>
  <use xlink:href="#h" transform="matrix(9.9626 0 0 -9.9626 230.567 120.368)"/>
  <path stroke-width=".5" stroke-linecap="round" stroke-linejoin="round" fill="none" stroke="#000" d="M133.019 137.888v-11"/>
  <path d="m134.55 130.583-1.531-3.695-1.53 3.695z"/>
  <path stroke-width=".5" stroke-linecap="round" stroke-linejoin="round" fill="none" stroke="#000" d="m134.55 130.583-1.531-3.695-1.53 3.695z"/>
  <path d="m131.488 134.193 1.531 3.695 1.53-3.695z"/>
  <path stroke-width=".5" stroke-linecap="round" stroke-linejoin="round" fill="none" stroke="#000" d="m131.488 134.193 1.531 3.695 1.53-3.695zM213.019 137.888v-11"/>
  <path d="m214.55 130.583-1.531-3.695-1.53 3.695z"/>
  <path stroke-width=".5" stroke-linecap="round" stroke-linejoin="round" fill="none" stroke="#000" d="m214.55 130.583-1.531-3.695-1.53 3.695z"/>
  <path d="m211.488 134.193 1.531 3.695 1.53-3.695z"/>
  <path stroke-width=".5" stroke-linecap="round" stroke-linejoin="round" fill="none" stroke="#000" d="m211.488 134.193 1.531 3.695 1.53-3.695z"/>
  <path d="M108.019 100.888h60v-20h-60z" fill="#ccc"/>
  <path d="M103.019 95.888h60v-20h-60z" fill="#577d38"/>
  <path stroke-width=".5" stroke-linecap="round" stroke-linejoin="round" fill="none" stroke="#000" d="M133.019 106.888v-11"/>
  <path d="m134.55 99.583-1.531-3.695-1.53 3.695z"/>
  <path stroke-width=".5" stroke-linecap="round" stroke-linejoin="round" fill="none" stroke="#000" d="m134.55 99.583-1.531-3.695-1.53 3.695z"/>
  <path d="m131.488 103.193 1.531 3.695 1.53-3.695z"/>
  <path stroke-width=".5" stroke-linecap="round" stroke-linejoin="round" fill="none" stroke="#000" d="m131.488 103.193 1.531 3.695 1.53-3.695z"/>
  <symbol id="o">
    <path d="M.042.537C.08.598.113.621.165.621c.063 0 .102-.04.102-.103C.267.452.232.417.137.387V.37A.368.368 0 0 0 .289.29.167.167 0 0 0 .338.168C.338.096.3.05.24.05.216.05.197.061.164.093.125.132.095.148.065.148.027.148 0 .124 0 .09 0 .036.061 0 .153 0 .32 0 .452.114.452.26a.192.192 0 0 1-.044.124.192.192 0 0 1-.078.054c.064.039.083.068.083.127C.413.651.352.702.25.702.151.702.076.652.021.549L.042.537z"/>
  </symbol>
  <use xlink:href="#a" transform="matrix(9.9626 0 0 -9.9626 112.87 89.228)" fill="#fff"/>
  <use xlink:href="#o" transform="matrix(9.9626 0 0 -9.9626 119.484 89.368)" fill="#fff"/>
  <use xlink:href="#d" transform="matrix(9.9626 0 0 -9.9626 127.285 89.417)" fill="#fff"/>
  <use xlink:href="#e" transform="matrix(9.9626 0 0 -9.9626 134.24 89.368)" fill="#fff"/>
  <use xlink:href="#f" transform="matrix(9.9626 0 0 -9.9626 139.22 89.368)" fill="#fff"/>
  <use xlink:href="#g" transform="matrix(9.9626 0 0 -9.9626 143.554 89.228)" fill="#fff"/>
  <use xlink:href="#h" transform="matrix(9.9626 0 0 -9.9626 149.183 89.368)" fill="#fff"/>
  <path stroke-width="2" stroke-linecap="round" stroke-linejoin="round" fill="none" stroke="#000" d="M103.019 63.888h140"/>
  <path d="m239.324 65.418 3.695-1.53-3.695-1.53z"/>
  <path stroke-width="2" stroke-linecap="round" stroke-linejoin="round" fill="none" stroke="#000" d="m239.324 65.418 3.695-1.53-3.695-1.53z"/>
  <path d="m106.714 62.358-3.695 1.53 3.695 1.53z"/>
  <path stroke-width="2" stroke-linecap="round" stroke-linejoin="round" fill="none" stroke="#000" d="m106.714 62.358-3.695 1.53 3.695 1.53z"/>
  <symbol id="p">
    <path d="M0 .676V.651C.069.647.088.631.088.58V.096C.088.045.073.033 0 .025V0h.322c.169 0 .281.075.281.188a.154.154 0 0 1-.054.117.277.277 0 0 1-.139.06C.526.399.569.44.569.516c0 .103-.093.16-.26.16H0M.248.343h.03C.381.343.431.289.431.179.431.082.39.032.309.032.265.032.248.049.248.093v.25m0 .254c0 .036.015.049.054.049.07 0 .102-.043.102-.137C.404.404.371.376.248.373v.224z"/>
  </symbol>
  <symbol id="q">
    <path d="M.327.001a.495.495 0 0 0 .132.026l.062.007v.023C.477.059.465.072.465.115v.36H.264V.451C.314.447.326.435.326.392V.109C.293.076.272.065.244.065c-.041 0-.056.02-.056.071v.339H0V.451C.041.443.049.434.049.392V.14c0-.088.05-.14.133-.14.052 0 .087.016.145.066V.001z"/>
  </symbol>
  <symbol id="r">
    <path d="M.315.34v.145H.293C.287.47.281.465.269.465a.123.123 0 0 0-.032.007.24.24 0 0 1-.078.015C.068.487.002.425.002.341c0-.066.041-.112.142-.155C.212.156.24.131.24.099.24.06.21.034.165.034c-.07 0-.116.045-.137.132H0V.001h.025c.011.021.017.028.026.028A.07.07 0 0 0 .074.023.342.342 0 0 1 .182 0c.091 0 .154.062.154.152 0 .071-.039.114-.138.156C.13.337.102.362.102.396c0 .033.028.058.066.058A.11.11 0 0 0 .243.422.174.174 0 0 0 .29.34h.025z"/>
  </symbol>
  <use xlink:href="#p" transform="matrix(9.9626 0 0 -9.9626 225.018 59.648)"/>
  <use xlink:href="#q" transform="matrix(9.9626 0 0 -9.9626 231.663 59.787)"/>
  <use xlink:href="#r" transform="matrix(9.9626 0 0 -9.9626 237.292 59.787)"/>
  <path stroke-width=".5" stroke-linecap="round" stroke-linejoin="round" fill="none" stroke="#000" d="M133.019 75.888v-11"/>
  <path d="m134.55 68.583-1.531-3.695-1.53 3.695z"/>
  <path stroke-width=".5" stroke-linecap="round" stroke-linejoin="round" fill="none" stroke="#000" d="m134.55 68.583-1.531-3.695-1.53 3.695z"/>
  <path d="m131.488 72.193 1.531 3.695 1.53-3.695z"/>
  <path stroke-width=".5" stroke-linecap="round" stroke-linejoin="round" fill="none" stroke="#000" d="m131.488 72.193 1.531 3.695 1.53-3.695z"/>
  <path d="M140.019 56.888h76v-20h-76z" fill="#ccc"/>
  <path d="M135.019 51.888h76v-20h-76z" fill="#1a8cff"/>
  <symbol id="s">
    <path d="M.664.609V.1C.664.044.65.032.575.025V0h.332v.025C.829.035.819.046.819.117v.442c0 .072.015.087.088.092v.025H.655l-.2-.472-.2.472H.002V.651C.075.645.091.632.091.58V.105C.091.045.078.033 0 .025V0h.234v.025C.152.031.133.05.133.124v.47L.385 0h.027l.252.609z"/>
  </symbol>
  <symbol id="t">
    <path d="M.191.461H0V.437C.044.43.053.42.053.378V.084C.053.042.045.033 0 .024V0h.241v.024C.204.029.192.044.192.081v.267c0 .004.007.014.017.023.022.023.046.035.069.035C.313.406.33.379.33.323V.081C.33.044.317.028.283.024V0h.235v.024C.479.027.469.039.469.081v.251c0 .086-.053.141-.135.141C.274.473.228.445.191.386v.075z"/>
  </symbol>
  <symbol id="u">
    <path d="M.191.461H0V.437C.044.431.055.419.055.378V.084C.055.043.044.032 0 .024V0h.24v.024C.205.029.194.043.194.081v.267c0 .006.016.025.029.035.021.016.038.023.055.023.039 0 .054-.023.054-.083V.081C.332.04.321.027.284.024V0h.234v.024C.483.028.471.043.471.081v.267c0 .005.016.024.029.034.022.017.039.024.056.024.038 0 .053-.024.053-.083V.081C.609.039.598.027.56.024V0h.238v.024C.759.026.748.038.748.081v.251c0 .086-.053.141-.135.141C.556.473.518.45.466.386.436.449.401.473.338.473S.229.446.191.386v.075z"/>
  </symbol>
  <symbol id="v">
    <path d="M.464.666H.313V.642C.356.64.368.633.368.609A.125.125 0 0 0 .357.564L.289.372.217.557c-.02.051-.02.051-.02.059 0 .014.012.023.037.025L.25.642v.024H0V.642C.023.639.029.636.035.627.038.627.083.529.1.487L.22.192.202.139C.185.089.159.057.136.057a.018.018 0 0 0-.017.017L.12.08l.002.014c0 .029-.024.049-.058.049A.061.061 0 0 1 0 .079C0 .033.04 0 .097 0 .131 0 .16.012.181.033A.507.507 0 0 1 .257.19l.149.397c.017.042.027.052.058.055v.024z"/>
  </symbol>
  <use xlink:href="#s" transform="matrix(9.9626 0 0 -9.9626 142.31 44.306)" fill="#fff"/>
  <use xlink:href="#e" transform="matrix(9.9626 0 0 -9.9626 151.824 44.446)" fill="#fff"/>
  <use xlink:href="#n" transform="matrix(9.9626 0 0 -9.9626 156.715 44.306)" fill="#fff"/>
  <use xlink:href="#t" transform="matrix(9.9626 0 0 -9.9626 159.535 44.306)" fill="#fff"/>
  <use xlink:href="#s" transform="matrix(9.9626 0 0 -9.9626 167.495 44.306)" fill="#fff"/>
  <use xlink:href="#h" transform="matrix(9.9626 0 0 -9.9626 177.01 44.446)" fill="#fff"/>
  <use xlink:href="#u" transform="matrix(9.9626 0 0 -9.9626 181.343 44.306)" fill="#fff"/>
  <use xlink:href="#k" transform="matrix(9.9626 0 0 -9.9626 189.731 44.446)" fill="#fff"/>
  <use xlink:href="#l" transform="matrix(9.9626 0 0 -9.9626 194.753 44.306)" fill="#fff"/>
  <use xlink:href="#v" transform="matrix(9.9626 0 0 -9.9626 199.046 46.348)" fill="#fff"/>
  <path stroke-width=".5" stroke-linecap="round" stroke-linejoin="round" fill="none" stroke="#000" d="M173.019 62.888v-11"/>
  <path d="m174.55 55.583-1.531-3.695-1.53 3.695z"/>
  <path stroke-width=".5" stroke-linecap="round" stroke-linejoin="round" fill="none" stroke="#000" d="m174.55 55.583-1.531-3.695-1.53 3.695z"/>
  <path d="m171.488 59.193 1.531 3.695 1.53-3.695z"/>
  <path stroke-width=".5" stroke-linecap="round" stroke-linejoin="round" fill="none" stroke="#000" d="m171.488 59.193 1.531 3.695 1.53-3.695z"/>
  <symbol id="w">
    <path d="M.467.231v.232H.444C.432.383.414.368.334.368H.189V.59c0 .028.005.034.032.034h.136C.47.624.492.609.509.519h.025L.531.662H0V.643C.074.637.087.623.087.553V.12C.087.037.076.024 0 .019V0h.28v.019C.203.023.189.037.189.109v.218h.145c.081 0 .098-.015.11-.096h.023z"/>
  </symbol>
  <symbol id="x">
    <path d="M.159.46.004.405V.39l.008.001a.224.224 0 0 0 .034.003C.07.394.079.378.079.334V.102C.079.03.069.019 0 .015V0h.237v.015C.171.02.163.03.163.102v.355L.159.46M.112.683a.051.051 0 0 1-.05-.051.05.05 0 0 1 .05-.051.05.05 0 0 1 .052.051.051.051 0 0 1-.052.051z"/>
  </symbol>
  <symbol id="y">
    <path d="M.442.606v.039H.365a.152.152 0 0 0-.055.01L.288.663a.23.23 0 0 1-.08.015.164.164 0 0 1-.167-.163c0-.063.027-.101.093-.134a1.636 1.636 0 0 0-.043-.04C.058.312.045.292.045.272c0-.021.012-.033.053-.053C.027.167 0 .134 0 .097 0 .044.078 0 .173 0c.075 0 .153.026.205.068.038.031.055.063.055.101 0 .062-.047.104-.121.107L.183.282C.13.284.105.293.105.309c0 .02.033.055.06.063L.184.37A.169.169 0 0 1 .33.409c.033.028.048.063.048.113a.192.192 0 0 1-.019.084h.083M.119.216C.152.209.232.203.281.203.372.203.405.19.405.154.405.096.329.057.216.057.128.057.07.086.07.13c0 .023.007.036.049.086m.005.34c0 .059.028.094.074.094C.229.65.255.633.271.603a.28.28 0 0 0 .03-.12C.301.427.272.392.226.392c-.06 0-.102.065-.102.161v.003z"/>
  </symbol>
  <symbol id="z">
    <path d="M.47.06H.465C.419.06.408.071.408.117V.46H.25V.443C.312.44.324.43.324.38V.145C.324.117.319.103.305.092A.141.141 0 0 0 .217.058C.178.058.146.092.146.134V.46H0V.446C.048.443.062.428.062.382V.13C.062.051.11 0 .183 0a.15.15 0 0 1 .103.043l.043.043V.003L.333.001c.05.02.086.031.137.045V.06z"/>
  </symbol>
  <symbol id="A">
    <path d="M.002.39a.15.15 0 0 0 .035.004c.025 0 .034-.016.034-.06v-.25C.071.034.064.027 0 .015V0h.24v.015C.172.018.155.033.155.09v.225c0 .032.043.082.07.082C.231.397.24.392.251.382c.016-.014.027-.02.04-.02.024 0 .039.017.039.045C.33.44.309.46.275.46.233.46.204.437.155.366v.092L.15.46A1.697 1.697 0 0 0 .002.406V.39z"/>
  </symbol>
  <symbol id="B">
    <path d="M.383.174C.335.098.292.069.228.069c-.057 0-.1.029-.129.086a.299.299 0 0 0-.027.132H.38C.372.352.362.381.337.413A.164.164 0 0 1 .209.47.2.2 0 0 1 .074.418C.027.377 0 .306 0 .224 0 .086.072 0 .187 0c.095 0 .17.059.212.167L.383.174M.074.319C.085.397.119.434.18.434S.265.406.278.319H.074z"/>
  </symbol>
  <symbol id="C">
    <path d="M.11.344A.287.287 0 0 0 .216.333.152.152 0 0 0 .317.185C.317.101.26.036.186.036.159.036.139.043.102.067.072.085.055.092.038.092.015.092 0 .078 0 .057 0 .022.043 0 .113 0 .19 0 .269.026.316.067a.215.215 0 0 1 .073.166.19.19 0 0 1-.045.129.208.208 0 0 1-.083.053C.33.462.355.499.355.553.355.634.291.69.199.69a.191.191 0 0 1-.13-.049C.039.614.024.588.002.528L.017.524C.058.597.103.63.166.63c.065 0 .11-.044.11-.107a.14.14 0 0 0-.04-.097A.29.29 0 0 0 .11.357V.344z"/>
  </symbol>
  <symbol id="D">
    <path d="M.055.111A.057.057 0 0 1 0 .054C0 .025.025 0 .054 0c.031 0 .057.025.057.054a.057.057 0 0 1-.056.057z"/>
  </symbol>
  <symbol id="E">
    <path d="M.445.137.432.142C.395.085.382.076.337.076H.098l.168.176c.089.093.128.169.128.247 0 .1-.081.177-.185.177A.195.195 0 0 1 .065.614C.033.58.018.548.001.477L.022.472c.04.098.076.13.145.13A.134.134 0 0 0 .308.461C.308.383.262.29.178.201L0 .012V0h.39l.055.137z"/>
  </symbol>
  <symbol id="F">
    <path d="M.055.47A.057.057 0 0 1 0 .413C0 .384.025.359.054.359c.031 0 .057.025.057.054A.057.057 0 0 1 .055.47m0-.359A.057.057 0 0 1 0 .054C0 .025.025 0 .054 0c.031 0 .057.025.057.054a.057.057 0 0 1-.056.057z"/>
  </symbol>
  <symbol id="G">
    <path d="M.186.291A.796.796 0 0 1 .255.288.35.35 0 0 1 .43.322a.18.18 0 0 1 .096.159c0 .042-.014.08-.041.109C.445.634.358.662.264.662H0V.643C.074.635.084.625.084.553V.12C.084.036.076.026 0 .019V0h.28v.019C.201.022.186.036.186.109v.182m0 .3c0 .027.007.034.034.034.135 0 .197-.047.197-.15C.417.378.358.328.243.328a.59.59 0 0 0-.057.003v.26z"/>
  </symbol>
  <symbol id="H">
    <path d="M.221.47C.091.47 0 .374 0 .236 0 .101.093 0 .219 0s.222.106.222.244C.441.375.349.47.221.47M.208.442C.292.442.351.346.351.209.351.096.306.028.231.028a.112.112 0 0 0-.097.064.42.42 0 0 0-.044.193c0 .095.047.157.118.157z"/>
  </symbol>
  <symbol id="I">
    <path d="M.373.166C.325.096.289.072.232.072c-.091 0-.155.08-.155.195 0 .103.055.174.136.174C.249.441.262.43.272.393L.278.371C.286.343.304.325.325.325c.026 0 .048.019.048.042C.373.423.303.47.219.47.17.47.119.45.078.414A.249.249 0 0 1 0 .223C0 .093.079 0 .19 0a.18.18 0 0 1 .121.047.335.335 0 0 1 .076.11L.373.166z"/>
  </symbol>
  <symbol id="J">
    <path d="M.264.324.26.46H.249L.247.458C.238.451.237.45.233.45a.071.071 0 0 0-.027.007.198.198 0 0 1-.07.012C.057.469 0 .418 0 .346 0 .29.032.25.117.202L.175.169C.21.149.227.125.227.094.227.05.195.022.144.022A.11.11 0 0 0 .06.057C.039.082.03.105.017.162H.001V.006h.013c.007.01.011.012.023.012A.196.196 0 0 0 .083.01.39.39 0 0 1 .156 0c.077 0 .141.058.141.128 0 .05-.024.083-.084.119L.105.311a.078.078 0 0 0-.043.068c0 .04.031.068.077.068.057 0 .087-.034.11-.123h.015z"/>
  </symbol>
  <symbol id="K">
    <path d="M.55.464V.449C.584.442.594.435.594.418A.199.199 0 0 0 .577.352L.487.13.403.354C.386.4.386.4.386.413c0 .022.011.029.058.036v.015H.241V.449C.278.445.29.434.31.38L.33.324.239.125.14.386a.08.08 0 0 0-.006.03c0 .021.012.029.046.033v.015H0V.449C.023.447.031.437.053.386L.188.044C.2.014.208 0 .214 0c.005 0 .013.013.025.039l.112.24.091-.236C.456.006.46 0 .466 0c.007 0 .012.009.028.049l.138.346C.65.437.653.442.673.449v.015H.55z"/>
  </symbol>
  <symbol id="L">
    <path d="M.242.46H.141v.116c0 .01-.001.013-.007.013L.114.561A.362.362 0 0 0 .017.454C.006.447 0 .44 0 .435 0 .432.001.43.004.428h.053V.127C.057.043.087 0 .146 0c.049 0 .087.024.12.076L.253.087C.232.062.215.052.193.052c-.037 0-.052.027-.052.09v.286h.101V.46z"/>
  </symbol>
  <symbol id="M">
    <path d="M.148.343C.19.389.22.406.259.406.309.406.334.37.334.3V.102C.334.034.324.021.266.015V0h.212v.015c-.054.01-.06.018-.06.087v.199C.418.406.376.46.295.46.236.46.194.436.148.376V.68L.143.683A1.724 1.724 0 0 0 .028.647L.001.639V.623a.045.045 0 0 0 .012.001C.056.624.064.616.064.573V.102C.064.032.058.023 0 .015V0h.216v.015C.158.021.148.033.148.102v.241z"/>
  </symbol>
  <symbol id="N">
    <path d="M.561.174A.3.3 0 0 0 .515.096C.48.057.425.039.342.039H.275C.202.039.189.045.189.08v.473c0 .071.014.085.093.09v.019H0V.643C.074.637.087.623.087.553V.109C.087.039.073.024 0 .019V0h.538l.048.174H.561z"/>
  </symbol>
  <symbol id="O">
    <path d="M.458.464H.319V.449C.351.446.366.436.366.417A.08.08 0 0 0 .36.387L.261.128.159.384A.103.103 0 0 0 .15.421c0 .018.011.025.046.028v.015H0V.449C.038.447.045.437.091.334l.12-.287.008-.021C.225.008.231 0 .237 0 .243 0 .25.013.265.05l.128.321c.029.068.035.075.065.078v.015z"/>
  </symbol>
  <symbol id="P">
    <path d="M0 .623h.006a.398.398 0 0 0 .031.002C.069.625.079.611.079.564V.087C.079.033.065.02.002.015V0h.236v.015C.175.019.163.029.163.084v.597L.159.683A1.99 1.99 0 0 0 0 .639V.623z"/>
  </symbol>
  <symbol id="Q">
    <path d="M.592.464.583.69H.562C.556.669.54.657.52.657a.117.117 0 0 0-.039.009.475.475 0 0 1-.146.024.347.347 0 0 1-.227-.086A.344.344 0 0 1 0 .339C0 .246.03.16.081.103A.341.341 0 0 1 .332 0c.113 0 .212.046.273.127L.587.145C.513.074.447.044.364.044a.24.24 0 0 0-.162.058C.147.151.116.241.116.352c0 .181.093.298.238.298A.207.207 0 0 0 .503.589.249.249 0 0 0 .569.464h.023z"/>
  </symbol>
  <symbol id="R">
    <path d="M.405.076C.388.062.376.057.361.057c-.023 0-.03.014-.03.058V.31c0 .052-.005.081-.02.105C.289.451.246.47.187.47.093.47.019.421.019.358c0-.023.02-.043.043-.043.024 0 .045.02.045.042L.105.373a.112.112 0 0 0-.003.024c0 .027.032.049.072.049C.223.446.25.417.25.363V.302C.096.24.079.232.036.194A.121.121 0 0 1 0 .107C0 .044.044 0 .105 0 .149 0 .19.021.251.073.256.021.274 0 .315 0c.034 0 .055.012.09.05v.026M.25.133C.25.102.245.093.224.081A.158.158 0 0 0 .151.058C.116.058.088.092.088.135v.004c0 .059.041.095.162.139V.133z"/>
  </symbol>
  
</svg>
