<?xml version="1.0" encoding="utf-8"?>
<svg xmlns="http://www.w3.org/2000/svg" xmlns:xlink="http://www.w3.org/1999/xlink" viewBox="100 0 400 150">

<symbol id="b">
    <path d="M.608.171a.357.357 0 0 0-.14-.105.245.245 0 0 0-.09-.018.183.183 0 0 0-.158.087.468.468 0 0 0-.043.225c0 .207.064.317.184.317.047 0 .09-.018.133-.056A.39.39 0 0 0 .595.473H.62v.234H.593C.579.672.568.661.549.661a.127.127 0 0 0-.046.014.403.403 0 0 1-.155.035A.345.345 0 0 1 0 .352.34.34 0 0 1 .354 0c.071 0 .13.017.185.054a.511.511 0 0 1 .099.092l-.03.025z"/>
  </symbol>
  <symbol id="c">
    <path d="M.226.487C.099.487 0 .382 0 .246 0 .103.095 0 .226 0c.129 0 .225.104.225.243 0 .14-.096.244-.225.244M.227.456C.285.456.304.401.304.237.304.083.284.031.226.031.167.031.147.082.147.228c0 .176.018.228.08.228z"/>
  </symbol>
  <symbol id="e">
    <path d="M.314.001a.687.687 0 0 0 .133.025l.062.008v.023C.463.06.45.073.45.115V.69H.235V.666C.302.661.311.654.311.608V.425C.268.471.238.487.192.487.082.487 0 .38 0 .235 0 .099.076 0 .181 0c.053 0 .086.016.133.066V.001M.311.126C.311.12.301.103.289.09.269.067.248.056.226.056c-.053 0-.078.06-.078.187 0 .129.027.188.085.188.033 0 .064-.024.078-.062V.126z"/>
  </symbol>
  <symbol id="f">
    <path d="M.192.461H0V.437C.044.428.053.419.053.378V.084C.053.043.046.035 0 .024V0h.239v.024C.204.029.192.043.192.081v.38m-.07.23A.078.078 0 0 1 .044.614c0-.045.033-.078.077-.078s.078.033.078.077a.077.077 0 0 1-.077.078z"/>
  </symbol>
  <symbol id="g">
    <path d="M.285.473H.191v.169H.166A.878.878 0 0 0 0 .456V.429h.052V.105C.052.04.095 0 .164 0c.067 0 .107.03.148.112L.287.123C.267.085.251.071.23.071.202.071.191.088.191.128v.301h.094v.044z"/>
  </symbol>
  <symbol id="k">
    <path d="M.189.461H0V.437C.043.431.054.418.054.378V.084C.054.043.044.032 0 .024V0h.266v.024C.205.028.193.041.193.103v.189c0 .052.028.095.061.095C.262.387.271.38.282.364.301.337.316.328.342.328c.037 0 .063.028.063.067C.405.44.371.473.324.473.274.473.236.446.189.379v.082z"/>
  </symbol>
  <symbol id="m">
    <path d="M.377.139C.337.09.306.072.263.072a.098.098 0 0 0-.089.053.284.284 0 0 0-.03.134h.252C.39.343.375.39.343.428a.169.169 0 0 1-.134.059C.084.487 0 .388 0 .242S.082 0 .206 0c.081 0 .13.032.195.125L.377.139M.139.296c.003.12.021.16.07.16C.237.456.256.44.264.409A.515.515 0 0 0 .273.311V.296H.139z"/>
  </symbol>
  <symbol id="n">
    <path d="M.222.117C.222.043.211.032.125.025V0h.357v.025C.395.031.384.041.384.117v.527C.507.64.559.594.576.475h.029L.603.676h-.6L0 .475h.029C.046.594.098.64.222.644V.117z"/>
  </symbol>
  
  <path d="M145.737 115.693h70v-20h-70z" fill="#ccc"/>
  <path d="M140.737 110.693h70v-20h-70z" fill="#8080ff"/>
  <symbol id="ar">
    <path d="M.449.494v.217h-.03C.412.685.404.677.387.677a.133.133 0 0 0-.042.011.337.337 0 0 1-.117.022C.092.71.009.633.009.507.009.419.061.356.18.299L.247.267C.335.225.359.199.359.147.359.078.31.033.233.033a.18.18 0 0 0-.146.074.348.348 0 0 0-.058.14H0V0h.029c.006.025.014.034.03.034A.159.159 0 0 0 .1.024.379.379 0 0 1 .23 0c.148 0 .248.085.248.211a.21.21 0 0 1-.11.182L.221.466C.14.506.118.531.118.579c0 .062.042.1.11.1A.17.17 0 0 0 .351.623a.272.272 0 0 0 .07-.129h.028z"/>
  </symbol>
  <symbol id="as">
    <path d="M.327.001a.495.495 0 0 0 .132.026l.062.007v.023C.477.059.465.072.465.115v.36H.264V.451C.314.447.326.435.326.392V.109C.293.076.272.065.244.065c-.041 0-.056.02-.056.071v.339H0V.451C.041.443.049.434.049.392V.14c0-.088.05-.14.133-.14.052 0 .087.016.145.066V.001z"/>
  </symbol>
  <symbol id="at">
    <path d="M.192.676H0V.652C.046.643.053.635.053.594v-.51C.053.042.045.033 0 .024V0h.241v.024C.204.029.192.044.192.081v.267c0 .004.007.014.017.023.022.023.046.035.069.035C.313.406.33.379.33.323V.081C.33.044.317.028.283.024V0h.235v.024C.482.027.469.042.469.084v.248c0 .086-.053.141-.135.141-.053 0-.09-.02-.142-.078v.281z"/>
  </symbol>
  <symbol id="au">
    <path d="M.194.69H0V.666C.046.657.055.648.055.608V.001h.012l.079.056C.192.016.228 0 .278 0c.133 0 .226.104.226.253 0 .138-.077.234-.188.234A.157.157 0 0 1 .194.431V.69m0-.316c.017.043.037.059.07.059.062 0 .093-.067.093-.198C.357.097.327.032.263.032.221.032.194.063.194.111v.263z"/>
  </symbol>
  <symbol id="av">
    <path d="M.454.604v.053h-.13a.293.293 0 0 1-.112.022C.093.679.009.613.009.518A.15.15 0 0 1 .045.423.216.216 0 0 1 .133.366C.054.339.014.301.014.249.014.208.032.19.096.167.033.158 0 .133 0 .092 0 .034.075 0 .201 0c.166 0 .254.052.254.151 0 .077-.062.123-.164.123H.226c-.08 0-.1.007-.1.035 0 .03.028.052.068.052L.239.36a.18.18 0 0 1 .106.026.13.13 0 0 1 .068.12c0 .04-.012.07-.04.098h.081M.296.154c.054 0 .08-.017.08-.05C.376.058.321.032.222.032.134.032.088.055.088.099c0 .021.007.032.035.055h.173M.212.648C.259.648.278.61.278.517S.259.388.212.388C.164.388.146.424.146.517c0 .094.019.131.066.131z"/>
  </symbol>
  
  <use xlink:href="#ar" transform="matrix(9.9626 0 0 -9.9626 149.79 102.855)"/>
  <use xlink:href="#c" transform="matrix(9.9626 0 0 -9.9626 155.23 102.806)"/>
  <use xlink:href="#as" transform="matrix(9.9626 0 0 -9.9626 160.12 102.806)"/>
  <use xlink:href="#g" transform="matrix(9.9626 0 0 -9.9626 165.7 102.786)"/>
  <use xlink:href="#at" transform="matrix(9.9626 0 0 -9.9626 168.978 102.666)"/>
  <use xlink:href="#au" transform="matrix(9.9626 0 0 -9.9626 174.527 102.806)"/>
  <use xlink:href="#k" transform="matrix(9.9626 0 0 -9.9626 180.186 102.666)"/>
  <use xlink:href="#f" transform="matrix(9.9626 0 0 -9.9626 184.48 102.666)"/>
  <use xlink:href="#e" transform="matrix(9.9626 0 0 -9.9626 187.339 102.806)"/>
  <use xlink:href="#av" transform="matrix(9.9626 0 0 -9.9626 192.908 104.718)"/>
  <use xlink:href="#m" transform="matrix(9.9626 0 0 -9.9626 197.86 102.806)"/>
  <path stroke-width=".5" stroke-linecap="round" stroke-linejoin="round" fill="none" stroke="#000" d="M130.737 100.693h10"/>
  <path d="m137.042 102.224 3.695-1.531-3.695-1.53z"/>
  <path stroke-width=".5" stroke-linecap="round" stroke-linejoin="round" fill="none" stroke="#000" d="m137.042 102.224 3.695-1.531-3.695-1.53z"/>
  <path d="m134.432 99.162-3.695 1.531 3.695 1.53z"/>
  <path stroke-width=".5" stroke-linecap="round" stroke-linejoin="round" fill="none" stroke="#000" d="m134.432 99.162-3.695 1.531 3.695 1.53z"/>
  <symbol id="aw">
    <path d="M.246.303c.135.001.169.004.213.022.081.031.125.092.125.169C.584.61.489.676.322.676H0V.651C.07.645.084.629.084.559V.117C.084.055.071.035.024.029L0 .025V0h.334v.025C.255.035.246.044.246.117v.186m0 .303c0 .023.017.035.05.035.083 0 .116-.044.116-.152C.412.426.4.388.374.365.35.345.317.338.246.338v.268z"/>
  </symbol>
  <symbol id="ax">
    <path d="M.093.096C.093.046.075.032 0 .025V0h.35v.025C.274.03.255.044.255.096V.58c0 .052.021.068.095.071v.025H0V.651C.072.646.093.631.093.58V.096z"/>
  </symbol>
  <symbol id="ay">
    <path d="M.243.116H0V0h.243v.116z"/>
  </symbol>
  <symbol id="az">
    <path d="M.577.676H0V.651C.069.647.088.631.088.58V.096C.088.044.074.033 0 .025V0h.585l.04.208H.597A.294.294 0 0 0 .51.084.265.265 0 0 0 .333.031C.269.031.25.044.25.087v.242C.359.329.4.29.412.174h.026v.338H.412C.397.398.358.362.25.363v.232c0 .038.013.047.065.047.163 0 .212-.034.237-.167h.025v.201z"/>
  </symbol>
  <use xlink:href="#aw" transform="matrix(9.9626 0 0 -9.9626 101.678 103.409)"/>
  <use xlink:href="#b" transform="matrix(9.9626 0 0 -9.9626 108.094 103.598)"/>
  <use xlink:href="#ax" transform="matrix(9.9626 0 0 -9.9626 114.998 103.409)"/>
  <use xlink:href="#ay" transform="matrix(9.9626 0 0 -9.9626 119.113 101.705)"/>
  <use xlink:href="#az" transform="matrix(9.9626 0 0 -9.9626 122.152 103.409)"/>
  <path stroke-width=".5" stroke-linecap="round" stroke-linejoin="round" fill="none" stroke="#000" d="M210.737 95.693h10"/>
  <path d="m217.042 97.224 3.695-1.531-3.695-1.53z"/>
  <path stroke-width=".5" stroke-linecap="round" stroke-linejoin="round" fill="none" stroke="#000" d="m217.042 97.224 3.695-1.531-3.695-1.53z"/>
  <path d="m214.432 94.162-3.695 1.531 3.695 1.53z"/>
  <path stroke-width=".5" stroke-linecap="round" stroke-linejoin="round" fill="none" stroke="#000" d="m214.432 94.162-3.695 1.531 3.695 1.53z"/>
  <symbol id="aA">
    <path d="M.68.025H.676C.637.025.621.046.571.164L.348.69H.32L.098.142C.06.049.048.034 0 .025V0h.203v.025C.144.029.121.04.121.066c0 .013.008.038.029.092l.015.039H.39A.431.431 0 0 0 .436.061C.436.04.423.03.388.028A.286.286 0 0 1 .356.025V0H.68v.025m-.5.211.094.243.101-.243H.18z"/>
  </symbol>
  <use xlink:href="#ar" transform="matrix(9.9626 0 0 -9.9626 223.186 98.598)"/>
  <use xlink:href="#aA" transform="matrix(9.9626 0 0 -9.9626 228.466 98.409)"/>
  <use xlink:href="#n" transform="matrix(9.9626 0 0 -9.9626 234.932 98.409)"/>
  <use xlink:href="#aA" transform="matrix(9.9626 0 0 -9.9626 240.46 98.409)"/>
  <path stroke-width=".5" stroke-linecap="round" stroke-linejoin="round" fill="none" stroke="#000" d="M210.737 105.693h10"/>
  <path d="m217.042 107.224 3.695-1.531-3.695-1.53z"/>
  <path stroke-width=".5" stroke-linecap="round" stroke-linejoin="round" fill="none" stroke="#000" d="m217.042 107.224 3.695-1.531-3.695-1.53z"/>
  <path d="m214.432 104.162-3.695 1.531 3.695 1.53z"/>
  <path stroke-width=".5" stroke-linecap="round" stroke-linejoin="round" fill="none" stroke="#000" d="m214.432 104.162-3.695 1.531 3.695 1.53z"/>
  <symbol id="aB">
    <path d="M.607.585c0 .059.014.075.078.085v.025h-.22V.67C.543.664.563.644.563.571V.266C.563.118.507.049.388.049.286.049.241.108.241.244v.334c0 .04.006.062.021.076.012.01.028.014.076.016v.025H0V.67C.07.663.082.65.082.578V.244c0-.098.021-.147.082-.191A.311.311 0 0 1 .349 0c.074 0 .144.022.187.059.045.038.071.114.071.207v.319z"/>
  </symbol>
  <symbol id="aC">
    <path d="M0 .676V.651C.069.647.088.631.088.58V.096C.088.045.073.033 0 .025V0h.322c.169 0 .281.075.281.188a.154.154 0 0 1-.054.117.277.277 0 0 1-.139.06C.526.399.569.44.569.516c0 .103-.093.16-.26.16H0M.248.343h.03C.381.343.431.289.431.179.431.082.39.032.309.032.265.032.248.049.248.093v.25m0 .254c0 .036.015.049.054.049.07 0 .102-.043.102-.137C.404.404.371.376.248.373v.224z"/>
  </symbol>
  <use xlink:href="#aB" transform="matrix(9.9626 0 0 -9.9626 222.996 108.598)"/>
  <use xlink:href="#ar" transform="matrix(9.9626 0 0 -9.9626 230.379 108.598)"/>
  <use xlink:href="#aC" transform="matrix(9.9626 0 0 -9.9626 235.729 108.409)"/>
  <path d="M145.737 85.693h70v-20h-70z" fill="#ccc"/>
  <path d="M140.737 80.693h70v-20h-70z" fill="#660"/>
  <path stroke-width=".5" stroke-linecap="round" stroke-linejoin="round" fill="none" stroke="#000" d="M175.737 90.693v-10"/>
  <path d="m177.268 84.388-1.531-3.695-1.53 3.695z"/>
  <path stroke-width=".5" stroke-linecap="round" stroke-linejoin="round" fill="none" stroke="#000" d="m177.268 84.388-1.531-3.695-1.53 3.695z"/>
  <path d="m174.206 86.998 1.531 3.695 1.53-3.695z"/>
  <path stroke-width=".5" stroke-linecap="round" stroke-linejoin="round" fill="none" stroke="#000" d="m174.206 86.998 1.531 3.695 1.53-3.695z"/>
  <symbol id="aD">
    <path d="M.214.694H.003V.669C.023.669.04.654.088.597V.123C.088.066.073.052 0 .043V.018h.227v.025C.15.052.132.071.132.142v.402L.579 0h.028v.589c0 .057.013.07.078.08v.025H.47V.669C.544.662.563.641.563.57V.265L.214.694z"/>
  </symbol>
  <use xlink:href="#aD" transform="matrix(9.9626 0 0 -9.9626 149.331 72.845)" fill="#fff"/>
  <use xlink:href="#c" transform="matrix(9.9626 0 0 -9.9626 156.614 72.805)" fill="#fff"/>
  <use xlink:href="#k" transform="matrix(9.9626 0 0 -9.9626 161.635 72.666)" fill="#fff"/>
  <use xlink:href="#g" transform="matrix(9.9626 0 0 -9.9626 165.969 72.786)" fill="#fff"/>
  <use xlink:href="#at" transform="matrix(9.9626 0 0 -9.9626 169.247 72.666)" fill="#fff"/>
  <use xlink:href="#au" transform="matrix(9.9626 0 0 -9.9626 174.796 72.805)" fill="#fff"/>
  <use xlink:href="#k" transform="matrix(9.9626 0 0 -9.9626 180.455 72.666)" fill="#fff"/>
  <use xlink:href="#f" transform="matrix(9.9626 0 0 -9.9626 184.748 72.666)" fill="#fff"/>
  <use xlink:href="#e" transform="matrix(9.9626 0 0 -9.9626 187.608 72.805)" fill="#fff"/>
  <use xlink:href="#av" transform="matrix(9.9626 0 0 -9.9626 193.177 74.718)" fill="#fff"/>
  <use xlink:href="#m" transform="matrix(9.9626 0 0 -9.9626 198.128 72.805)" fill="#fff"/>
  <path stroke-width=".5" stroke-linecap="round" stroke-linejoin="round" fill="none" stroke="#000" d="M130.737 70.693h10"/>
  <path d="m137.042 72.224 3.695-1.531-3.695-1.53z"/>
  <path stroke-width=".5" stroke-linecap="round" stroke-linejoin="round" fill="none" stroke="#000" d="m137.042 72.224 3.695-1.531-3.695-1.53z"/>
  <path d="m134.432 69.162-3.695 1.531 3.695 1.53z"/>
  <path stroke-width=".5" stroke-linecap="round" stroke-linejoin="round" fill="none" stroke="#000" d="m134.432 69.162-3.695 1.531 3.695 1.53z"/>
  <symbol id="aE">
    <path d="M.689.025a.048.048 0 0 0-.041.019L.447.329a.27.27 0 0 1 .112.057.15.15 0 0 1 .045.112c0 .115-.099.178-.282.178H0V.651C.074.646.088.631.088.559V.117C.088.044.078.034 0 .025V0h.338v.025C.26.035.25.046.25.117v.196h.027L.484 0h.205v.025M.25.6a.09.09 0 0 0 .007.027c.006.01.022.015.047.015.092 0 .129-.043.129-.148C.433.43.418.391.386.37.36.353.326.346.25.345V.6z"/>
  </symbol>
  <symbol id="aF">
    <path d="M.664.609V.1C.664.044.65.032.575.025V0h.332v.025C.829.035.819.046.819.117v.442c0 .072.015.087.088.092v.025H.655l-.2-.472-.2.472H.002V.651C.075.645.091.632.091.58V.105C.091.045.078.033 0 .025V0h.234v.025C.152.031.133.05.133.124v.47L.385 0h.027l.252.609z"/>
  </symbol>
  <use xlink:href="#aE" transform="matrix(9.9626 0 0 -9.9626 105.105 73.593)"/>
  <use xlink:href="#aA" transform="matrix(9.9626 0 0 -9.9626 112.129 73.593)"/>
  <use xlink:href="#aF" transform="matrix(9.9626 0 0 -9.9626 119.371 73.593)"/>
  <path d="M140.737 53.693h35v-20h-35z" fill="#ccc"/>
  <path d="M135.737 48.693h35v-20h-35z" fill="#ff9973"/>
  <use xlink:href="#b" transform="matrix(9.9626 0 0 -9.9626 140.753 41.387)"/>
  <use xlink:href="#aw" transform="matrix(9.9626 0 0 -9.9626 147.617 41.198)"/>
  <use xlink:href="#aB" transform="matrix(9.9626 0 0 -9.9626 153.705 41.387)"/>
  <symbol id="aG">
    <path d="M.226.636c0 .027-.002.028-.03.028C.132.601.041.6 0 .6V.564c.024 0 .09 0 .145.028v-.51c0-.033 0-.046-.1-.046H.007V0l.178.004L.364 0v.036H.326c-.1 0-.1.013-.1.046v.554z"/>
  </symbol>
  <use xlink:href="#aG" transform="matrix(6.9738 0 0 -6.9738 161.5 42.693)"/>
  <path d="M185.737 53.693h35v-20h-35z" fill="#ccc"/>
  <path d="M180.737 48.693h35v-20h-35z" fill="#ff9973"/>
  <use xlink:href="#b" transform="matrix(9.9626 0 0 -9.9626 185.753 41.387)"/>
  <use xlink:href="#aw" transform="matrix(9.9626 0 0 -9.9626 192.617 41.198)"/>
  <use xlink:href="#aB" transform="matrix(9.9626 0 0 -9.9626 198.705 41.387)"/>
  <symbol id="aH">
    <path d="M.442.182H.408C.405.16.395.101.382.091.374.085.297.085.283.085H.099a3.5 3.5 0 0 0 .2.168c.074.059.143.121.143.216C.442.59.336.664.208.664.084.664 0 .577 0 .485 0 .434.043.429.053.429c.024 0 .053.017.053.053C.106.5.099.535.047.535a.157.157 0 0 0 .146.093c.1 0 .152-.078.152-.159C.345.382.283.313.251.277L.01.039C0 .03 0 .028 0 0h.412l.03.182z"/>
  </symbol>
  <use xlink:href="#aH" transform="matrix(6.9738 0 0 -6.9738 206.178 42.693)"/>
  <path stroke-width=".5" stroke-linecap="round" stroke-linejoin="round" fill="none" stroke="#000" d="M152.737 54.693v-6"/>
  <path d="m154.268 52.389-1.531-3.696-1.53 3.696z"/>
  <path stroke-width=".5" stroke-linecap="round" stroke-linejoin="round" fill="none" stroke="#000" d="m154.268 52.389-1.531-3.696-1.53 3.696zM197.737 464.693v-6"/>
  <path d="m199.268 52.389-1.531-3.696-1.53 3.696z"/>
  <path stroke-width=".5" stroke-linecap="round" stroke-linejoin="round" fill="none" stroke="#000" d="m199.268 52.389-1.531-3.696-1.53 3.696zM175.737 464.693v6"/>
  <path d="m174.206 56.997 1.531 3.696 1.53-3.696z"/>
  <path stroke-width=".5" stroke-linecap="round" stroke-linejoin="round" fill="none" stroke="#000" d="m174.206 56.997 1.531 3.696 1.53-3.696z"/>
  <path stroke-linecap="round" stroke-linejoin="round" fill="none" stroke="#000" d="M152.737 54.693h45"/>
  <symbol id="aI">
    <path d="M.567.676H0V.651C.069.647.088.632.088.58V.096C.088.044.074.033 0 .025V0h.36v.025C.268.029.25.041.25.096v.233C.352.327.389.29.403.174h.025v.338H.403C.385.398.35.363.25.363v.232c0 .037.013.047.064.047C.406.642.465.625.496.59.518.565.529.538.543.475h.024v.201z"/>
  </symbol>
  <use xlink:href="#aI" transform="matrix(7.9701 0 0 -7.9701 200.864 57.365)"/>
  <use xlink:href="#ar" transform="matrix(7.9701 0 0 -7.9701 205.886 57.516)"/>
  <use xlink:href="#aC" transform="matrix(7.9701 0 0 -7.9701 210.166 57.365)"/>

  <use xlink:href="#aB" transform="matrix(12 0 0 -12 160 135.593)"/>
  <use xlink:href="#aF" transform="matrix(12 0 0 -12 170 135.593)"/>
  <use xlink:href="#aA" transform="matrix(12 0 0 -12 182 135.593)"/>


  <symbol id="_O">
    <path d="M.449.494v.217h-.03C.412.685.404.677.387.677a.133.133 0 0 0-.042.011.337.337 0 0 1-.117.022C.092.71.009.633.009.507.009.419.061.356.18.299L.247.267C.335.225.359.199.359.147.359.078.31.033.233.033a.18.18 0 0 0-.146.074.348.348 0 0 0-.058.14H0V0h.029c.006.025.014.034.03.034A.159.159 0 0 0 .1.024.379.379 0 0 1 .23 0c.148 0 .248.085.248.211a.21.21 0 0 1-.11.182L.221.466C.14.506.118.531.118.579c0 .062.042.1.11.1A.17.17 0 0 0 .351.623a.272.272 0 0 0 .07-.129h.028z"/>
  </symbol>
  <symbol id="_P">
    <path d="M.226.487C.099.487 0 .382 0 .246 0 .103.095 0 .226 0c.129 0 .225.104.225.243 0 .14-.096.244-.225.244M.227.456C.285.456.304.401.304.237.304.083.284.031.226.031.167.031.147.082.147.228c0 .176.018.228.08.228z"/>
  </symbol>
  <symbol id="_Q">
    <path d="M.327.001a.495.495 0 0 0 .132.026l.062.007v.023C.477.059.465.072.465.115v.36H.264V.451C.314.447.326.435.326.392V.109C.293.076.272.065.244.065c-.041 0-.056.02-.056.071v.339H0V.451C.041.443.049.434.049.392V.14c0-.088.05-.14.133-.14.052 0 .087.016.145.066V.001z"/>
  </symbol>
  <symbol id="_R">
    <path d="M.285.473H.191v.169H.166A.878.878 0 0 0 0 .456V.429h.052V.105C.052.04.095 0 .164 0c.067 0 .107.03.148.112L.287.123C.267.085.251.071.23.071.202.071.191.088.191.128v.301h.094v.044z"/>
  </symbol>
  <symbol id="_S">
    <path d="M.192.676H0V.652C.046.643.053.635.053.594v-.51C.053.042.045.033 0 .024V0h.241v.024C.204.029.192.044.192.081v.267c0 .004.007.014.017.023.022.023.046.035.069.035C.313.406.33.379.33.323V.081C.33.044.317.028.283.024V0h.235v.024C.482.027.469.042.469.084v.248c0 .086-.053.141-.135.141-.053 0-.09-.02-.142-.078v.281z"/>
  </symbol>
  <symbol id="_T">
    <path d="M.194.69H0V.666C.046.657.055.648.055.608V.001h.012l.079.056C.192.016.228 0 .278 0c.133 0 .226.104.226.253 0 .138-.077.234-.188.234A.157.157 0 0 1 .194.431V.69m0-.316c.017.043.037.059.07.059.062 0 .093-.067.093-.198C.357.097.327.032.263.032.221.032.194.063.194.111v.263z"/>
  </symbol>
  <symbol id="_U">
    <path d="M.189.461H0V.437C.043.431.054.418.054.378V.084C.054.043.044.032 0 .024V0h.266v.024C.205.028.193.041.193.103v.189c0 .052.028.095.061.095C.262.387.271.38.282.364.301.337.316.328.342.328c.037 0 .063.028.063.067C.405.44.371.473.324.473.274.473.236.446.189.379v.082z"/>
  </symbol>
  <symbol id="_V">
    <path d="M.192.461H0V.437C.044.428.053.419.053.378V.084C.053.043.046.035 0 .024V0h.239v.024C.204.029.192.043.192.081v.38m-.07.23A.078.078 0 0 1 .044.614c0-.045.033-.078.077-.078s.078.033.078.077a.077.077 0 0 1-.077.078z"/>
  </symbol>
  <symbol id="_W">
    <path d="M.314.001a.687.687 0 0 0 .133.025l.062.008v.023C.463.06.45.073.45.115V.69H.235V.666C.302.661.311.654.311.608V.425C.268.471.238.487.192.487.082.487 0 .38 0 .235 0 .099.076 0 .181 0c.053 0 .086.016.133.066V.001M.311.126C.311.12.301.103.289.09.269.067.248.056.226.056c-.053 0-.078.06-.078.187 0 .129.027.188.085.188.033 0 .064-.024.078-.062V.126z"/>
  </symbol>
  <symbol id="_X">
    <path d="M.454.604v.053h-.13a.293.293 0 0 1-.112.022C.093.679.009.613.009.518A.15.15 0 0 1 .045.423.216.216 0 0 1 .133.366C.054.339.014.301.014.249.014.208.032.19.096.167.033.158 0 .133 0 .092 0 .034.075 0 .201 0c.166 0 .254.052.254.151 0 .077-.062.123-.164.123H.226c-.08 0-.1.007-.1.035 0 .03.028.052.068.052L.239.36a.18.18 0 0 1 .106.026.13.13 0 0 1 .068.12c0 .04-.012.07-.04.098h.081M.296.154c.054 0 .08-.017.08-.05C.376.058.321.032.222.032.134.032.088.055.088.099c0 .021.007.032.035.055h.173M.212.648C.259.648.278.61.278.517S.259.388.212.388C.164.388.146.424.146.517c0 .094.019.131.066.131z"/>
  </symbol>
  <symbol id="_Y">
    <path d="M.377.139C.337.09.306.072.263.072a.098.098 0 0 0-.089.053.284.284 0 0 0-.03.134h.252C.39.343.375.39.343.428a.169.169 0 0 1-.134.059C.084.487 0 .388 0 .242S.082 0 .206 0c.081 0 .13.032.195.125L.377.139M.139.296c.003.12.021.16.07.16C.237.456.256.44.264.409A.515.515 0 0 0 .273.311V.296H.139z"/>
  </symbol>
  <symbol id="_Z">
    <path d="M.246.303c.135.001.169.004.213.022.081.031.125.092.125.169C.584.61.489.676.322.676H0V.651C.07.645.084.629.084.559V.117C.084.055.071.035.024.029L0 .025V0h.334v.025C.255.035.246.044.246.117v.186m0 .303c0 .023.017.035.05.035.083 0 .116-.044.116-.152C.412.426.4.388.374.365.35.345.317.338.246.338v.268z"/>
  </symbol>
  <symbol id="_aa">
    <path d="M.608.171a.357.357 0 0 0-.14-.105.245.245 0 0 0-.09-.018.183.183 0 0 0-.158.087.468.468 0 0 0-.043.225c0 .207.064.317.184.317.047 0 .09-.018.133-.056A.39.39 0 0 0 .595.473H.62v.234H.593C.579.672.568.661.549.661a.127.127 0 0 0-.046.014.403.403 0 0 1-.155.035A.345.345 0 0 1 0 .352.34.34 0 0 1 .354 0c.071 0 .13.017.185.054a.511.511 0 0 1 .099.092l-.03.025z"/>
  </symbol>
  <symbol id="_ab">
    <path d="M.093.096C.093.046.075.032 0 .025V0h.35v.025C.274.03.255.044.255.096V.58c0 .052.021.068.095.071v.025H0V.651C.072.646.093.631.093.58V.096z"/>
  </symbol>
  <symbol id="_ac">
    <path d="M.243.116H0V0h.243v.116z"/>
  </symbol>
  <symbol id="_ad">
    <path d="M.577.676H0V.651C.069.647.088.631.088.58V.096C.088.044.074.033 0 .025V0h.585l.04.208H.597A.294.294 0 0 0 .51.084.265.265 0 0 0 .333.031C.269.031.25.044.25.087v.242C.359.329.4.29.412.174h.026v.338H.412C.397.398.358.362.25.363v.232c0 .038.013.047.065.047.163 0 .212-.034.237-.167h.025v.201z"/>
  </symbol>
  <symbol id="_ae">
    <path d="M.68.025H.676C.637.025.621.046.571.164L.348.69H.32L.098.142C.06.049.048.034 0 .025V0h.203v.025C.144.029.121.04.121.066c0 .013.008.038.029.092l.015.039H.39A.431.431 0 0 0 .436.061C.436.04.423.03.388.028A.286.286 0 0 1 .356.025V0H.68v.025m-.5.211.094.243.101-.243H.18z"/>
  </symbol>
  <symbol id="_af">
    <path d="M.222.117C.222.043.211.032.125.025V0h.357v.025C.395.031.384.041.384.117v.527C.507.64.559.594.576.475h.029L.603.676h-.6L0 .475h.029C.046.594.098.64.222.644V.117z"/>
  </symbol>
  <symbol id="_ag">
    <path d="M.607.585c0 .059.014.075.078.085v.025h-.22V.67C.543.664.563.644.563.571V.266C.563.118.507.049.388.049.286.049.241.108.241.244v.334c0 .04.006.062.021.076.012.01.028.014.076.016v.025H0V.67C.07.663.082.65.082.578V.244c0-.098.021-.147.082-.191A.311.311 0 0 1 .349 0c.074 0 .144.022.187.059.045.038.071.114.071.207v.319z"/>
  </symbol>
  <symbol id="_ah">
    <path d="M0 .676V.651C.069.647.088.631.088.58V.096C.088.045.073.033 0 .025V0h.322c.169 0 .281.075.281.188a.154.154 0 0 1-.054.117.277.277 0 0 1-.139.06C.526.399.569.44.569.516c0 .103-.093.16-.26.16H0M.248.343h.03C.381.343.431.289.431.179.431.082.39.032.309.032.265.032.248.049.248.093v.25m0 .254c0 .036.015.049.054.049.07 0 .102-.043.102-.137C.404.404.371.376.248.373v.224z"/>
  </symbol>
  <symbol id="_aj">
    <path d="M.664.609V.1C.664.044.65.032.575.025V0h.332v.025C.829.035.819.046.819.117v.442c0 .072.015.087.088.092v.025H.655l-.2-.472-.2.472H.002V.651C.075.645.091.632.091.58V.105C.091.045.078.033 0 .025V0h.234v.025C.152.031.133.05.133.124v.47L.385 0h.027l.252.609z"/>
  </symbol>
  <symbol id="_al">
    <path d="M.689.025a.048.048 0 0 0-.041.019L.447.329a.27.27 0 0 1 .112.057.15.15 0 0 1 .045.112c0 .115-.099.178-.282.178H0V.651C.074.646.088.631.088.559V.117C.088.044.078.034 0 .025V0h.338v.025C.26.035.25.046.25.117v.196h.027L.484 0h.205v.025M.25.6a.09.09 0 0 0 .007.027c.006.01.022.015.047.015.092 0 .129-.043.129-.148C.433.43.418.391.386.37.36.353.326.346.25.345V.6z"/>
  </symbol>
  <symbol id="_ap">
    <path d="M.226.636c0 .027-.002.028-.03.028C.132.601.041.6 0 .6V.564c.024 0 .09 0 .145.028v-.51c0-.033 0-.046-.1-.046H.007V0l.178.004L.364 0v.036H.326c-.1 0-.1.013-.1.046v.554z"/>
  </symbol>
  <symbol id="_aq">
    <path d="M.442.182H.408C.405.16.395.101.382.091.374.085.297.085.283.085H.099a3.5 3.5 0 0 0 .2.168c.074.059.143.121.143.216C.442.59.336.664.208.664.084.664 0 .577 0 .485 0 .434.043.429.053.429c.024 0 .053.017.053.053C.106.5.099.535.047.535a.157.157 0 0 0 .146.093c.1 0 .152-.078.152-.159C.345.382.283.313.251.277L.01.039C0 .03 0 .028 0 0h.412l.03.182z"/>
  </symbol>

  <path d="M385.475 86.888h35v-20h-35z" fill="#ccc"/>
  <path d="M380.475 81.888h35v-20h-35z" fill="#ff9973"/>
  <path d="M430.475 86.888h35v-20h-35z" fill="#ccc"/>
  <path d="M425.475 81.888h35v-20h-35z" fill="#ff9973"/>
  <path d="M385.475 56.888h35v-20h-35z" fill="#ccc"/>
  <path d="M380.475 51.888h35v-20h-35z" fill="#ff9973"/>
  <path d="M430.475 56.888h35v-20h-35z" fill="#ccc"/>
  <path d="M425.475 51.888h35v-20h-35z" fill="#ff9973"/>
  <path stroke-width=".5" stroke-linecap="round" stroke-linejoin="round" fill="none" stroke="#000" d="M415.475 71.888h10"/>
  <path d="m421.78 73.419 3.695-1.531-3.695-1.53z"/>
  <path stroke-width=".5" stroke-linecap="round" stroke-linejoin="round" fill="none" stroke="#000" d="m421.78 73.419 3.695-1.531-3.695-1.53z"/>
  <path d="m419.17 70.357-3.695 1.531 3.695 1.53z"/>
  <path stroke-width=".5" stroke-linecap="round" stroke-linejoin="round" fill="none" stroke="#000" d="m419.17 70.357-3.695 1.531 3.695 1.53zM415.475 41.888h10"/>
  <path d="m421.78 43.419 3.695-1.531-3.695-1.53z"/>
  <path stroke-width=".5" stroke-linecap="round" stroke-linejoin="round" fill="none" stroke="#000" d="m421.78 43.419 3.695-1.531-3.695-1.53z"/>
  <path d="m419.17 40.357-3.695 1.531 3.695 1.53z"/>
  <path stroke-width=".5" stroke-linecap="round" stroke-linejoin="round" fill="none" stroke="#000" d="m419.17 40.357-3.695 1.531 3.695 1.53zM397.475 61.888v-10"/>
  <path d="m399.006 55.583-1.531-3.695-1.53 3.695z"/>
  <path stroke-width=".5" stroke-linecap="round" stroke-linejoin="round" fill="none" stroke="#000" d="m399.006 55.583-1.531-3.695-1.53 3.695z"/>
  <path d="m395.944 58.193 1.531 3.695 1.53-3.695z"/>
  <path stroke-width=".5" stroke-linecap="round" stroke-linejoin="round" fill="none" stroke="#000" d="m395.944 58.193 1.531 3.695 1.53-3.695zM442.475 61.888v-10"/>
  <path d="m444.006 55.583-1.531-3.695-1.53 3.695z"/>
  <path stroke-width=".5" stroke-linecap="round" stroke-linejoin="round" fill="none" stroke="#000" d="m444.006 55.583-1.531-3.695-1.53 3.695z"/>
  <path d="m440.944 58.193 1.531 3.695 1.53-3.695z"/>
  <path stroke-width=".5" stroke-linecap="round" stroke-linejoin="round" fill="none" stroke="#000" d="m440.944 58.193 1.531 3.695 1.53-3.695z"/>
  <use xlink:href="#_aa" transform="matrix(9.9626 0 0 -9.9626 385.492 74.582)"/>
  <use xlink:href="#_Z" transform="matrix(9.9626 0 0 -9.9626 392.356 74.393)"/>
  <use xlink:href="#_ag" transform="matrix(9.9626 0 0 -9.9626 398.444 74.582)"/>
  <symbol id="_aF">
    <path d="M.219.354C.297.354.353.3.353.193.353.069.281.032.223.032c-.04 0-.128.011-.17.07C.1.104.111.137.111.158a.054.054 0 0 1-.055.055C.028.213 0 .196 0 .155 0 .061.104 0 .225 0 .364 0 .46.093.46.193.46.271.396.349.286.372.391.41.429.485.429.546c0 .079-.091.138-.202.138C.116.684.031.63.031.55c0-.034.022-.053.052-.053a.05.05 0 0 1 .051.051c0 .029-.02.05-.051.052.035.044.104.055.141.055.045 0 .108-.022.108-.109a.192.192 0 0 0-.04-.119C.259.389.231.387.181.384L.149.381C.147.381.139.379.139.368c0-.014.009-.014.026-.014h.054z"/>
  </symbol>
  <use xlink:href="#_aF" transform="matrix(6.9738 0 0 -6.9738 405.854 76.027)"/>
  <use xlink:href="#_aa" transform="matrix(9.9626 0 0 -9.9626 430.492 74.582)"/>
  <use xlink:href="#_Z" transform="matrix(9.9626 0 0 -9.9626 437.356 74.393)"/>
  <use xlink:href="#_ag" transform="matrix(9.9626 0 0 -9.9626 443.444 74.582)"/>
  <symbol id="_aG">
    <path d="M.49.164V.2H.379v.446c0 .021 0 .028-.022.028-.012 0-.016 0-.026-.014L0 .2V.164h.294V.082c0-.034 0-.046-.081-.046H.186V0l.15.004L.487 0v.036H.46C.379.036.379.048.379.082v.082H.49M.301.566V.2H.037l.264.366z"/>
  </symbol>
  <use xlink:href="#_aG" transform="matrix(6.9738 0 0 -6.9738 450.749 75.888)"/>
  <use xlink:href="#_aa" transform="matrix(9.9626 0 0 -9.9626 385.492 44.582)"/>
  <use xlink:href="#_Z" transform="matrix(9.9626 0 0 -9.9626 392.356 44.393)"/>
  <use xlink:href="#_ag" transform="matrix(9.9626 0 0 -9.9626 398.444 44.582)"/>
  <use xlink:href="#_ap" transform="matrix(6.9738 0 0 -6.9738 406.237 45.888)"/>
  <use xlink:href="#_aa" transform="matrix(9.9626 0 0 -9.9626 430.492 44.582)"/>
  <use xlink:href="#_Z" transform="matrix(9.9626 0 0 -9.9626 437.356 44.393)"/>
  <use xlink:href="#_ag" transform="matrix(9.9626 0 0 -9.9626 443.444 44.582)"/>
  <use xlink:href="#_aq" transform="matrix(6.9738 0 0 -6.9738 450.916 45.888)"/>
  <path stroke-width=".5" stroke-linecap="round" stroke-linejoin="round" fill="none" stroke="#000" d="M370.475 71.888h10"/>
  <path d="m376.78 73.419 3.695-1.531-3.695-1.53z"/>
  <path stroke-width=".5" stroke-linecap="round" stroke-linejoin="round" fill="none" stroke="#000" d="m376.78 73.419 3.695-1.531-3.695-1.53z"/>
  <path d="m374.17 70.357-3.695 1.531 3.695 1.53z"/>
  <path stroke-width=".5" stroke-linecap="round" stroke-linejoin="round" fill="none" stroke="#000" d="m374.17 70.357-3.695 1.531 3.695 1.53zM460.475 71.888h10"/>
  <path d="m466.78 73.419 3.695-1.531-3.695-1.53z"/>
  <path stroke-width=".5" stroke-linecap="round" stroke-linejoin="round" fill="none" stroke="#000" d="m466.78 73.419 3.695-1.531-3.695-1.53z"/>
  <path d="m464.17 70.357-3.695 1.531 3.695 1.53z"/>
  <path stroke-width=".5" stroke-linecap="round" stroke-linejoin="round" fill="none" stroke="#000" d="m464.17 70.357-3.695 1.531 3.695 1.53zM370.475 41.888h10"/>
  <path d="m376.78 43.419 3.695-1.531-3.695-1.53z"/>
  <path stroke-width=".5" stroke-linecap="round" stroke-linejoin="round" fill="none" stroke="#000" d="m376.78 43.419 3.695-1.531-3.695-1.53z"/>
  <path d="m374.17 40.357-3.695 1.531 3.695 1.53z"/>
  <path stroke-width=".5" stroke-linecap="round" stroke-linejoin="round" fill="none" stroke="#000" d="m374.17 40.357-3.695 1.531 3.695 1.53zM460.475 41.888h10"/>
  <path d="m466.78 43.419 3.695-1.531-3.695-1.53z"/>
  <path stroke-width=".5" stroke-linecap="round" stroke-linejoin="round" fill="none" stroke="#000" d="m466.78 43.419 3.695-1.531-3.695-1.53z"/>
  <path d="m464.17 40.357-3.695 1.531 3.695 1.53z"/>
  <path stroke-width=".5" stroke-linecap="round" stroke-linejoin="round" fill="none" stroke="#000" d="m464.17 40.357-3.695 1.531 3.695 1.53z"/>
  <use xlink:href="#_al" transform="matrix(8.9663 0 0 -8.9663 348.196 74.788)"/>
  <use xlink:href="#_ae" transform="matrix(8.9663 0 0 -8.9663 354.517 74.788)"/>
  <use xlink:href="#_aj" transform="matrix(8.9663 0 0 -8.9663 361.036 74.788)"/>
  <use xlink:href="#_al" transform="matrix(8.9663 0 0 -8.9663 348.196 44.788)"/>
  <use xlink:href="#_ae" transform="matrix(8.9663 0 0 -8.9663 354.517 44.788)"/>
  <use xlink:href="#_aj" transform="matrix(8.9663 0 0 -8.9663 361.036 44.788)"/>
  <use xlink:href="#_al" transform="matrix(8.9663 0 0 -8.9663 471.808 74.788)"/>
  <use xlink:href="#_ae" transform="matrix(8.9663 0 0 -8.9663 478.13 74.788)"/>
  <use xlink:href="#_aj" transform="matrix(8.9663 0 0 -8.9663 484.648 74.788)"/>
  <use xlink:href="#_al" transform="matrix(8.9663 0 0 -8.9663 471.808 44.788)"/>
  <use xlink:href="#_ae" transform="matrix(8.9663 0 0 -8.9663 478.13 44.788)"/>
  <use xlink:href="#_aj" transform="matrix(8.9663 0 0 -8.9663 484.648 44.788)"/>
  <path d="M390.475 116.888h70v-20h-70z" fill="#ccc"/>
  <path d="M385.475 111.888h70v-20h-70z" fill="#8080ff"/>
  <use xlink:href="#_O" transform="matrix(9.9626 0 0 -9.9626 394.528 104.05)"/>
  <use xlink:href="#_P" transform="matrix(9.9626 0 0 -9.9626 399.967 104)"/>
  <use xlink:href="#_Q" transform="matrix(9.9626 0 0 -9.9626 404.859 104)"/>
  <use xlink:href="#_R" transform="matrix(9.9626 0 0 -9.9626 410.438 103.98)"/>
  <use xlink:href="#_S" transform="matrix(9.9626 0 0 -9.9626 413.716 103.86)"/>
  <use xlink:href="#_T" transform="matrix(9.9626 0 0 -9.9626 419.265 104)"/>
  <use xlink:href="#_U" transform="matrix(9.9626 0 0 -9.9626 424.924 103.86)"/>
  <use xlink:href="#_V" transform="matrix(9.9626 0 0 -9.9626 429.217 103.86)"/>
  <use xlink:href="#_W" transform="matrix(9.9626 0 0 -9.9626 432.077 104)"/>
  <use xlink:href="#_X" transform="matrix(9.9626 0 0 -9.9626 437.646 105.912)"/>
  <use xlink:href="#_Y" transform="matrix(9.9626 0 0 -9.9626 442.597 104)"/>
  <path stroke-width=".5" stroke-linecap="round" stroke-linejoin="round" fill="none" stroke="#000" d="M397.475 91.888v-10"/>
  <path d="m399.006 85.583-1.531-3.695-1.53 3.695z"/>
  <path stroke-width=".5" stroke-linecap="round" stroke-linejoin="round" fill="none" stroke="#000" d="m399.006 85.583-1.531-3.695-1.53 3.695z"/>
  <path d="m395.944 88.193 1.531 3.695 1.53-3.695z"/>
  <path stroke-width=".5" stroke-linecap="round" stroke-linejoin="round" fill="none" stroke="#000" d="m395.944 88.193 1.531 3.695 1.53-3.695zM375.475 101.888h10"/>
  <path d="m381.78 103.419 3.695-1.531-3.695-1.53z"/>
  <path stroke-width=".5" stroke-linecap="round" stroke-linejoin="round" fill="none" stroke="#000" d="m381.78 103.419 3.695-1.531-3.695-1.53z"/>
  <path d="m379.17 100.357-3.695 1.531 3.695 1.53z"/>
  <path stroke-width=".5" stroke-linecap="round" stroke-linejoin="round" fill="none" stroke="#000" d="m379.17 100.357-3.695 1.531 3.695 1.53z"/>
  <use xlink:href="#_Z" transform="matrix(9.9626 0 0 -9.9626 346.416 104.603)"/>
  <use xlink:href="#_aa" transform="matrix(9.9626 0 0 -9.9626 352.832 104.792)"/>
  <use xlink:href="#_ab" transform="matrix(9.9626 0 0 -9.9626 359.736 104.603)"/>
  <use xlink:href="#_ac" transform="matrix(9.9626 0 0 -9.9626 363.851 102.9)"/>
  <use xlink:href="#_ad" transform="matrix(9.9626 0 0 -9.9626 366.89 104.603)"/>
  <path stroke-width=".5" stroke-linecap="round" stroke-linejoin="round" fill="none" stroke="#000" d="M455.475 96.888h10"/>
  <path d="m461.78 98.419 3.695-1.531-3.695-1.53z"/>
  <path stroke-width=".5" stroke-linecap="round" stroke-linejoin="round" fill="none" stroke="#000" d="m461.78 98.419 3.695-1.531-3.695-1.53z"/>
  <path d="m459.17 95.357-3.695 1.531 3.695 1.53z"/>
  <path stroke-width=".5" stroke-linecap="round" stroke-linejoin="round" fill="none" stroke="#000" d="m459.17 95.357-3.695 1.531 3.695 1.53z"/>
  <use xlink:href="#_O" transform="matrix(9.9626 0 0 -9.9626 467.924 99.792)"/>
  <use xlink:href="#_ae" transform="matrix(9.9626 0 0 -9.9626 473.204 99.603)"/>
  <use xlink:href="#_af" transform="matrix(9.9626 0 0 -9.9626 479.67 99.603)"/>
  <use xlink:href="#_ae" transform="matrix(9.9626 0 0 -9.9626 485.199 99.603)"/>
  <path stroke-width=".5" stroke-linecap="round" stroke-linejoin="round" fill="none" stroke="#000" d="M455.475 106.888h10"/>
  <path d="m461.78 108.419 3.695-1.531-3.695-1.53z"/>
  <path stroke-width=".5" stroke-linecap="round" stroke-linejoin="round" fill="none" stroke="#000" d="m461.78 108.419 3.695-1.531-3.695-1.53z"/>
  <path d="m459.17 105.357-3.695 1.531 3.695 1.53z"/>
  <path stroke-width=".5" stroke-linecap="round" stroke-linejoin="round" fill="none" stroke="#000" d="m459.17 105.357-3.695 1.531 3.695 1.53z"/>
  <use xlink:href="#_ag" transform="matrix(9.9626 0 0 -9.9626 467.734 109.792)"/>
  <use xlink:href="#_O" transform="matrix(9.9626 0 0 -9.9626 475.117 109.792)"/>
  <use xlink:href="#_ah" transform="matrix(9.9626 0 0 -9.9626 480.467 109.603)"/>

  <use xlink:href="#aD" transform="matrix(12 0 0 -12 400 135.593)"/>
  <use xlink:href="#_ag" transform="matrix(12 0 0 -12 410 135.593)"/>
  <use xlink:href="#_aj" transform="matrix(12 0 0 -12 420 135.593)"/>
  <use xlink:href="#_ae" transform="matrix(12 0 0 -12 432 135.593)"/>

</svg>
