<?xml version="1.0" encoding="utf-8"?>
<svg xmlns="http://www.w3.org/2000/svg" xmlns:xlink="http://www.w3.org/1999/xlink" viewBox="70 518 200 110">

  <style> use { fill:#555 } </style>

  <symbol id="o">
    <path d="M.148.343C.19.389.22.406.259.406.309.406.334.37.334.3V.102C.334.034.324.021.266.015V0h.212v.015c-.054.01-.06.018-.06.087v.199C.418.406.376.46.295.46.236.46.194.436.148.376V.68L.143.683A1.724 1.724 0 0 0 .028.647L.001.639V.623a.045.045 0 0 0 .012.001C.056.624.064.616.064.573V.102C.064.032.058.023 0 .015V0h.216v.015C.158.021.148.033.148.102v.241z"/>
  </symbol>
  <symbol id="p">
    <path d="M.383.174C.335.098.292.069.228.069c-.057 0-.1.029-.129.086a.299.299 0 0 0-.027.132H.38C.372.352.362.381.337.413A.164.164 0 0 1 .209.47.2.2 0 0 1 .074.418C.027.377 0 .306 0 .224 0 .086.072 0 .187 0c.095 0 .17.059.212.167L.383.174M.074.319C.085.397.119.434.18.434S.265.406.278.319H.074z"/>
  </symbol>

  <symbol id="r">
    <path d="M.159.46.004.405V.39l.008.001a.224.224 0 0 0 .034.003C.07.394.079.378.079.334V.102C.079.03.069.019 0 .015V0h.237v.015C.171.02.163.03.163.102v.355L.159.46M.112.683a.051.051 0 0 1-.05-.051.05.05 0 0 1 .05-.051.05.05 0 0 1 .052.051.051.051 0 0 1-.052.051z"/>
  </symbol>
  <symbol id="s">
    <path d="M.002.39a.15.15 0 0 0 .035.004c.025 0 .034-.016.034-.06v-.25C.071.034.064.027 0 .015V0h.24v.015C.172.018.155.033.155.09v.225c0 .032.043.082.07.082C.231.397.24.392.251.382c.016-.014.027-.02.04-.02.024 0 .039.017.039.045C.33.44.309.46.275.46.233.46.204.437.155.366v.092L.15.46A1.697 1.697 0 0 0 .002.406V.39z"/>
  </symbol>

  <symbol id="t">
    <path d="M.242.46H.141v.116c0 .01-.001.013-.007.013L.114.561A.362.362 0 0 0 .017.454C.006.447 0 .44 0 .435 0 .432.001.43.004.428h.053V.127C.057.043.087 0 .146 0c.049 0 .087.024.12.076L.253.087C.232.062.215.052.193.052c-.037 0-.052.027-.052.09v.286h.101V.46z"/>
  </symbol>

  <symbol id="u">
    <path d="M.47.06H.465C.419.06.408.071.408.117V.46H.25V.443C.312.44.324.43.324.38V.145C.324.117.319.103.305.092A.141.141 0 0 0 .217.058C.178.058.146.092.146.134V.46H0V.446C.048.443.062.428.062.382V.13C.062.051.11 0 .183 0a.15.15 0 0 1 .103.043l.043.043V.003L.333.001c.05.02.086.031.137.045V.06z"/>
  </symbol>
  
  <symbol id="v">
    <path d="M.405.076C.388.062.376.057.361.057c-.023 0-.03.014-.03.058V.31c0 .052-.005.081-.02.105C.289.451.246.47.187.47.093.47.019.421.019.358c0-.023.02-.043.043-.043.024 0 .045.02.045.042L.105.373a.112.112 0 0 0-.003.024c0 .027.032.049.072.049C.223.446.25.417.25.363V.302C.096.24.079.232.036.194A.121.121 0 0 1 0 .107C0 .044.044 0 .105 0 .149 0 .19.021.251.073.256.021.274 0 .315 0c.034 0 .055.012.09.05v.026M.25.133C.25.102.245.093.224.081A.158.158 0 0 0 .151.058C.116.058.088.092.088.135v.004c0 .059.041.095.162.139V.133z"/>
  </symbol>
  <symbol id="w">
    <path d="M0 .623h.006a.398.398 0 0 0 .031.002C.069.625.079.611.079.564V.087C.079.033.065.02.002.015V0h.236v.015C.175.019.163.029.163.084v.597L.159.683A1.99 1.99 0 0 0 0 .639V.623z"/>
  </symbol>
  <symbol id="x">
    <path d="M.003.398a.127.127 0 0 0 .032.004C.061.402.07.386.07.338V.085C.07.031.056.016 0 .015V0h.222v.015C.169.017.154.028.154.067v.282c0 .002.008.012.015.019.025.023.068.04.103.04.044 0 .066-.035.066-.105V.086C.338.03.327.019.27.015V0h.224v.015C.437.016.422.033.422.095v.252c.03.043.063.061.109.061.057 0 .075-.027.075-.11V.087C.606.03.598.022.54.015V0h.219v.015L.733.017C.703.019.69.037.69.076v.206C.69.4.651.46.574.46.516.46.465.434.411.376.393.433.359.46.305.46.261.46.233.446.15.383v.075L.143.46a1.433 1.433 0 0 0-.14-.045V.398z"/>
  </symbol>
  <symbol id="y">
    <path d="M.221.47C.091.47 0 .374 0 .236 0 .101.093 0 .219 0s.222.106.222.244C.441.375.349.47.221.47M.208.442C.292.442.351.346.351.209.351.096.306.028.231.028a.112.112 0 0 0-.097.064.42.42 0 0 0-.044.193c0 .095.047.157.118.157z"/>
  </symbol>
  <symbol id="z">
    <path d="M.461.668H.326V.653C.358.653.374.644.374.628A.045.045 0 0 0 .37.611L.273.335.158.588a.102.102 0 0 0-.01.038c0 .018.015.025.058.027v.015H0V.654C.026.65.043.639.051.622L.165.376.168.368l.015-.03A.319.319 0 0 0 .227.237a.407.407 0 0 0-.04-.108C.173.103.151.084.137.084a.06.06 0 0 0-.025.007.152.152 0 0 1-.053.011.044.044 0 0 1-.043-.044C.016.025.048 0 .09 0c.067 0 .115.056.169.2l.154.408C.426.64.437.65.461.653v.015z"/>
  </symbol>
  <symbol id="A">
    <path d="M.247.853a.506.506 0 0 1-.141-.12A.464.464 0 0 1 0 .429C0 .302.037.204.125.102A.428.428 0 0 1 .244 0l.012.016C.176.079.148.114.121.189a.706.706 0 0 0-.035.243c0 .105.013.187.04.249a.382.382 0 0 0 .13.156L.247.853z"/>
  </symbol>
  <symbol id="B">
    <path d="M.681.673H.476V.654C.531.651.549.64.549.612A.23.23 0 0 0 .53.539L.383.172.232.51a.358.358 0 0 0-.041.111c0 .019.014.029.046.031l.029.002v.019H0V.654C.049.652.063.638.106.549L.352 0h.015l.222.561c.033.079.044.09.092.093v.019z"/>
  </symbol>
  <symbol id="C">
    <path d="M.662.573V.12C.662.037.65.024.571.019V0h.28v.019C.778.024.764.038.764.109v.444c0 .071.013.084.087.09v.019H.652L.431.157.2.662H.002V.643C.084.638.097.626.097.553V.147C.097.044.083.025 0 .019V0h.235v.019C.158.023.141.046.141.147V.55L.392 0h.014l.256.573z"/>
  </symbol>
  <symbol id="D">
    <path d="M.009 0A.506.506 0 0 1 .15.12a.464.464 0 0 1 .106.304.464.464 0 0 1-.125.327.428.428 0 0 1-.119.102L0 .837A.339.339 0 0 0 .135.664.706.706 0 0 0 .17.421.626.626 0 0 0 .13.173.378.378 0 0 0 0 .016L.009 0z"/>
  </symbol>
  <symbol id="E">
    <path d="M.264.324.26.46H.249L.247.458C.238.451.237.45.233.45a.071.071 0 0 0-.027.007.198.198 0 0 1-.07.012C.057.469 0 .418 0 .346 0 .29.032.25.117.202L.175.169C.21.149.227.125.227.094.227.05.195.022.144.022A.11.11 0 0 0 .06.057C.039.082.03.105.017.162H.001V.006h.013c.007.01.011.012.023.012A.196.196 0 0 0 .083.01.39.39 0 0 1 .156 0c.077 0 .141.058.141.128 0 .05-.024.083-.084.119L.105.311a.078.078 0 0 0-.043.068c0 .04.031.068.077.068.057 0 .087-.034.11-.123h.015z"/>
  </symbol>
  <symbol id="F">
    <path d="M.15.691.145.693A1.45 1.45 0 0 0 .029.657L0 .649V.633l.017.001c.04 0 .049-.009.049-.051V.064C.066.033.151 0 .231 0c.132 0 .234.11.234.253C.465.376.389.47.289.47.228.47.17.434.15.385v.306m0-.359c0 .039.047.075.099.075.078 0 .128-.078.128-.2C.377.096.329.032.247.032.195.032.15.055.15.08v.252z"/>
  </symbol>
  <symbol id="G">
    <path d="M.289.45H.166v.116c0 .058.019.089.057.089.021 0 .035-.01.053-.039C.292.59.304.58.321.58c.023 0 .042.018.042.041 0 .036-.044.062-.104.062C.197.683.144.656.118.61.092.566.084.53.083.45H.001V.418h.082V.104C.083.031.072.019 0 .015V0h.26v.015C.178.018.167.029.167.104v.314h.122V.45z"/>
  </symbol>
  <symbol id="H">
    <path d="m.004.61.025.001C.063.611.07.601.07.554V.086C.07.034.059.023 0 .017V0h.242v.018C.167.019.154.03.154.093V.25C.189.217.213.207.255.207c.118 0 .21.112.21.257 0 .124-.07.213-.167.213-.056 0-.1-.025-.144-.079v.077L.148.677A1.896 1.896 0 0 0 .004.626V.61m.15-.059c0 .03.056.066.102.066C.33.617.379.541.379.425.379.314.33.239.258.239.211.239.154.275.154.305v.246z"/>
  </symbol>
  <symbol id="I">
    <path d="M.373.166C.325.096.289.072.232.072c-.091 0-.155.08-.155.195 0 .103.055.174.136.174C.249.441.262.43.272.393L.278.371C.286.343.304.325.325.325c.026 0 .048.019.048.042C.373.423.303.47.219.47.17.47.119.45.078.414A.249.249 0 0 1 0 .223C0 .093.079 0 .19 0a.18.18 0 0 1 .121.047.335.335 0 0 1 .076.11L.373.166z"/>
  </symbol>
  <symbol id="J">
    <path d="M0 .063V0h.246v.063H0z"/>
  </symbol>
  <symbol id="K">
    <path d="M0 .398a.067.067 0 0 0 .027.004C.055.402.064.387.064.338V.09C.064.033.053.019.002.015V0h.212v.015C.163.019.148.031.148.067v.281c.048.045.07.057.103.057C.3.405.324.374.324.308V.099C.324.036.311.019.261.015V0h.208v.015C.42.02.408.032.408.081V.31C.408.404.364.46.29.46.244.46.213.443.145.379v.079L.138.46A1.866 1.866 0 0 0 0 .415V.398z"/>
  </symbol>
  <symbol id="L">
    <path d="m.317 0 .147.052v.016L.441.067C.405.067.397.078.397.124v.567L.392.693A1.702 1.702 0 0 0 .245.649V.633a.162.162 0 0 0 .022.001c.037 0 .046-.01.046-.051V.427C.275.459.248.47.208.47.093.47 0 .357 0 .215 0 .087.075 0 .185 0c.056 0 .094.02.128.067V.003L.317 0M.313.112C.313.105.306.093.296.082a.094.094 0 0 0-.072-.03c-.083 0-.138.08-.138.203 0 .113.049.187.125.187a.105.105 0 0 0 .102-.1v-.23z"/>
  </symbol>
  <symbol id="M">
    <path d="M.055.111A.057.057 0 0 1 0 .054C0 .025.025 0 .054 0c.031 0 .057.025.057.054a.057.057 0 0 1-.056.057z"/>
  </symbol>
  <symbol id="N">
    <path d="m0 .623.032.002C.065.625.075.612.075.564V.082C.075.03.072.027 0 .015V0h.234v.015l-.02.001C.174.018.159.032.159.067v.184l.14-.187L.302.06.309.051C.317.041.32.035.32.03.32.021.311.015.299.015H.28V0h.218v.015C.454.018.423.037.381.088L.228.282l.029.027a.591.591 0 0 0 .162.12.17.17 0 0 0 .046.006h.008V.45H.269V.436C.308.435.319.431.319.417.319.409.31.395.296.383L.159.261v.42L.155.683C.117.671.088.663.03.647L0 .639V.623z"/>
  </symbol>
  <symbol id="O">
    <path d="M.442.606v.039H.365a.152.152 0 0 0-.055.01L.288.663a.23.23 0 0 1-.08.015.164.164 0 0 1-.167-.163c0-.063.027-.101.093-.134a1.636 1.636 0 0 0-.043-.04C.058.312.045.292.045.272c0-.021.012-.033.053-.053C.027.167 0 .134 0 .097 0 .044.078 0 .173 0c.075 0 .153.026.205.068.038.031.055.063.055.101 0 .062-.047.104-.121.107L.183.282C.13.284.105.293.105.309c0 .02.033.055.06.063L.184.37A.169.169 0 0 1 .33.409c.033.028.048.063.048.113a.192.192 0 0 1-.019.084h.083M.119.216C.152.209.232.203.281.203.372.203.405.19.405.154.405.096.329.057.216.057.128.057.07.086.07.13c0 .023.007.036.049.086m.005.34c0 .059.028.094.074.094C.229.65.255.633.271.603a.28.28 0 0 0 .03-.12C.301.427.272.392.226.392c-.06 0-.102.065-.102.161v.003z"/>
  </symbol>
  <symbol id="P">
    <path d="M.55.464V.449C.584.442.594.435.594.418A.199.199 0 0 0 .577.352L.487.13.403.354C.386.4.386.4.386.413c0 .022.011.029.058.036v.015H.241V.449C.278.445.29.434.31.38L.33.324.239.125.14.386a.08.08 0 0 0-.006.03c0 .021.012.029.046.033v.015H0V.449C.023.447.031.437.053.386L.188.044C.2.014.208 0 .214 0c.005 0 .013.013.025.039l.112.24.091-.236C.456.006.46 0 .466 0c.007 0 .012.009.028.049l.138.346C.65.437.653.442.673.449v.015H.55z"/>
  </symbol>
  <symbol id="Q">
    <path d="M.097.109C.097.034.084.022 0 .019V0h.297v.019C.215.022.199.036.199.109v.444c0 .073.014.086.098.09v.019H0V.643C.085.638.097.627.097.553V.109z"/>
  </symbol>
  <symbol id="R">
    <path d="M.691.019C.646.022.636.032.601.106L.352.674h-.02L.124.183C.06.037.048.021 0 .019V0h.198v.019C.15.019.13.032.13.06c0 .012.003.026.008.039l.046.117h.262L.487.12A.198.198 0 0 0 .506.053C.506.028.489.02.436.019V0h.255v.019m-.49.238.115.275.116-.275H.201z"/>
  </symbol>
  <symbol id="S">
    <path d="M.597.529c0 .102.012.118.094.128v.019H.459V.657C.537.651.553.629.553.529v-.27A.281.281 0 0 0 .53.123C.503.075.439.044.364.044c-.071 0-.12.024-.147.071a.255.255 0 0 0-.025.132v.32c0 .072.011.083.091.09v.019H0V.657C.079.651.09.64.09.567V.255C.09.082.171 0 .341 0 .45 0 .525.035.564.103a.311.311 0 0 1 .033.165v.261z"/>
  </symbol>
  <symbol id="T">
    <path d="M.592.464.583.69H.562C.556.669.54.657.52.657a.117.117 0 0 0-.039.009.475.475 0 0 1-.146.024.347.347 0 0 1-.227-.086A.344.344 0 0 1 0 .339C0 .246.03.16.081.103A.341.341 0 0 1 .332 0c.113 0 .212.046.273.127L.587.145C.513.074.447.044.364.044a.24.24 0 0 0-.162.058C.147.151.116.241.116.352c0 .181.093.298.238.298A.207.207 0 0 0 .503.589.249.249 0 0 0 .569.464h.023z"/>
  </symbol>
  <symbol id="U">
    <path d="M.186.291A.796.796 0 0 1 .255.288.35.35 0 0 1 .43.322a.18.18 0 0 1 .096.159c0 .042-.014.08-.041.109C.445.634.358.662.264.662H0V.643C.074.635.084.625.084.553V.12C.084.036.076.026 0 .019V0h.28v.019C.201.022.186.036.186.109v.182m0 .3c0 .027.007.034.034.034.135 0 .197-.047.197-.15C.417.378.358.328.243.328a.59.59 0 0 0-.057.003v.26z"/>
  </symbol>
  <symbol id="V">
    <path d="M.327.69C.136.69 0 .546 0 .345 0 .251.032.16.086.102A.327.327 0 0 1 .321 0c.197 0 .333.14.333.341A.354.354 0 0 1 .57.585.32.32 0 0 1 .327.69m0-.036a.194.194 0 0 0 .128-.05C.509.555.54.461.54.342a.537.537 0 0 0-.033-.18.204.204 0 0 0-.049-.073.191.191 0 0 0-.259-.004C.147.131.114.232.114.343c0 .102.028.199.07.246a.188.188 0 0 0 .143.065z"/>
  </symbol>

  <path stroke-width=".75" stroke-linecap="round" stroke-linejoin="round" fill="none" stroke="#000" d="M167.269 614.098h29"/>
  <path d="m192.574 615.629 3.695-1.531-3.695-1.53z"/>
  <path stroke-width=".75" stroke-linecap="round" stroke-linejoin="round" fill="none" stroke="#000" d="m192.574 615.629 3.695-1.531-3.695-1.53zM112.269 544.098v20h-15v50h9"/>
  <path d="m102.574 615.629 3.695-1.531-3.695-1.53z"/>
  <path stroke-width=".75" stroke-linecap="round" stroke-linejoin="round" fill="none" stroke="#000" d="m102.574 615.629 3.695-1.531-3.695-1.53zM187.269 544.098v25h9"/>
  <path d="m192.574 570.629 3.695-1.531-3.695-1.53z"/>
  <path stroke-width=".75" stroke-linecap="round" stroke-linejoin="round" fill="none" stroke="#000" d="m192.574 570.629 3.695-1.531-3.695-1.53z"/>
  <path d="M112.269 629.098h60v-40h-60z" fill="#ccc"/>
  <path d="M107.269 624.098h60v-40h-60z" fill="#295c1f"/>
  <path d="M107.269 619.098h60v-10h-60z" fill="#eed8d8"/>
  <symbol id="au">
    <path d="M.088.109C.088.037.076.024 0 .019V0h.284C.4 0 .505.033.567.089a.328.328 0 0 1 .102.245c0 .09-.03.168-.085.223C.516.626.407.662.27.662H0V.643C.079.636.088.627.088.553V.109M.19.586c0 .031.011.039.052.039a.337.337 0 0 0 .199-.05A.286.286 0 0 0 .56.327C.56.209.519.125.438.078A.376.376 0 0 0 .242.037C.202.037.19.046.19.078v.508z"/>
  </symbol>
  <symbol id="av">
    <path d="M.585.169H.557C.507.061.464.037.321.037H.294C.245.037.203.042.196.049.191.052.189.063.189.08v.247h.154C.425.327.44.314.453.231h.023v.232H.453C.446.422.442.407.431.393.418.376.39.368.343.368H.189V.59c0 .028.006.034.033.034h.135C.47.624.492.609.509.519h.025L.531.662H0V.643C.074.637.087.623.087.553V.109C.087.039.073.024 0 .019V0h.54l.045.169z"/>
  </symbol>

  <use xlink:href="#f" transform="matrix(8.2 0 0 -8.2 103 540)"/>
  <use xlink:href="#g" transform="matrix(8.2 0 0 -8.2 106 540)"/>
  <use xlink:href="#h" transform="matrix(8.2 0 0 -8.2 110.2 540)"/>
  <use xlink:href="#b" transform="matrix(8.2 0 0 -8.2 114.2 540)"/>
  <use xlink:href="#i" transform="matrix(8.2 0 0 -8.2 117.5 540)"/>
  <symbol id="b">
    <path d="M.383.174C.335.098.292.069.228.069c-.057 0-.1.029-.129.086a.299.299 0 0 0-.027.132H.38C.372.352.362.381.337.413A.164.164 0 0 1 .209.47.2.2 0 0 1 .074.418C.027.377 0 .306 0 .224 0 .086.072 0 .187 0c.095 0 .17.059.212.167L.383.174M.074.319C.085.397.119.434.18.434S.265.406.278.319H.074z"/>
  </symbol>
  <symbol id="f">
    <path d="M.097.109C.097.034.084.022 0 .019V0h.297v.019C.215.022.199.036.199.109v.444c0 .073.014.086.098.09v.019H0V.643C.085.638.097.627.097.553V.109z"/>
  </symbol>
  <symbol id="g">
    <path d="M0 .398a.067.067 0 0 0 .027.004C.055.402.064.387.064.338V.09C.064.033.053.019.002.015V0h.212v.015C.163.019.148.031.148.067v.281c.048.045.07.057.103.057C.3.405.324.374.324.308V.099C.324.036.311.019.261.015V0h.208v.015C.42.02.408.032.408.081V.31C.408.404.364.46.29.46.244.46.213.443.145.379v.079L.138.46A1.866 1.866 0 0 0 0 .415V.398z"/>
  </symbol>
  <symbol id="h">
    <path d="m.317 0 .147.052v.016L.441.067C.405.067.397.078.397.124v.567L.392.693A1.702 1.702 0 0 0 .245.649V.633a.162.162 0 0 0 .022.001c.037 0 .046-.01.046-.051V.427C.275.459.248.47.208.47.093.47 0 .357 0 .215 0 .087.075 0 .185 0c.056 0 .094.02.128.067V.003L.317 0M.313.112C.313.105.306.093.296.082a.094.094 0 0 0-.072-.03c-.083 0-.138.08-.138.203 0 .113.049.187.125.187a.105.105 0 0 0 .102-.1v-.23z"/>
  </symbol>
  <symbol id="i">
    <path d="M.261 0h.201v.015C.431.015.411.031.38.075L.252.271l.083.12a.103.103 0 0 0 .081.044V.45H.258V.435c.03-.002.04-.008.04-.022C.298.401.286.379.261.348a.703.703 0 0 1-.03-.044l-.014.02a.268.268 0 0 0-.046.089c0 .014.013.021.043.022V.45H.007V.435h.009c.03 0 .046-.013.077-.06L.187.231.073.066C.043.025.033.018 0 .015V0h.145v.015c-.028 0-.04.005-.04.018 0 .006.007.021.02.041l.079.123.091-.14A.032.032 0 0 0 .301.039C.301.021.294.017.261.015V0z"/>
  </symbol>

  <use xlink:href="#au" transform="matrix(6.9738 0 0 -6.9738 115.399 615.721)"/>
  <use xlink:href="#r" transform="matrix(6.9738 0 0 -6.9738 120.434 615.721)"/>
  <use xlink:href="#s" transform="matrix(6.9738 0 0 -6.9738 122.296 615.721)"/>
  <use xlink:href="#p" transform="matrix(6.9738 0 0 -6.9738 124.757 615.79)"/>
  <use xlink:href="#I" transform="matrix(6.9738 0 0 -6.9738 127.854 615.79)"/>
  <use xlink:href="#t" transform="matrix(6.9738 0 0 -6.9738 130.866 615.79)"/>
  <use xlink:href="#y" transform="matrix(6.9738 0 0 -6.9738 132.917 615.79)"/>
  <use xlink:href="#s" transform="matrix(6.9738 0 0 -6.9738 136.236 615.721)"/>
  <use xlink:href="#z" transform="matrix(6.9738 0 0 -6.9738 138.621 617.241)"/>
  <use xlink:href="#av" transform="matrix(6.9738 0 0 -6.9738 143.838 615.721)"/>
  <use xlink:href="#K" transform="matrix(6.9738 0 0 -6.9738 148.127 615.721)"/>
  <use xlink:href="#t" transform="matrix(6.9738 0 0 -6.9738 151.593 615.79)"/>
  <use xlink:href="#s" transform="matrix(6.9738 0 0 -6.9738 153.476 615.721)"/>
  <use xlink:href="#z" transform="matrix(6.9738 0 0 -6.9738 155.86 617.241)"/>
  <use xlink:href="#U" transform="matrix(7.9701 0 0 -7.9701 113.443 580.953)"/>
  <use xlink:href="#v" transform="matrix(7.9701 0 0 -7.9701 117.922 581.033)"/>
  <use xlink:href="#O" transform="matrix(7.9701 0 0 -7.9701 121.389 582.69)"/>
  <use xlink:href="#p" transform="matrix(7.9701 0 0 -7.9701 125.35 581.033)"/>
  <use xlink:href="#au" transform="matrix(7.9701 0 0 -7.9701 130.81 580.953)"/>
  <use xlink:href="#r" transform="matrix(7.9701 0 0 -7.9701 136.564 580.953)"/>
  <use xlink:href="#s" transform="matrix(7.9701 0 0 -7.9701 138.692 580.953)"/>
  <use xlink:href="#p" transform="matrix(7.9701 0 0 -7.9701 141.505 581.033)"/>
  <use xlink:href="#I" transform="matrix(7.9701 0 0 -7.9701 145.044 581.033)"/>
  <use xlink:href="#t" transform="matrix(7.9701 0 0 -7.9701 148.487 581.033)"/>
  <use xlink:href="#y" transform="matrix(7.9701 0 0 -7.9701 150.83 581.033)"/>
  <use xlink:href="#s" transform="matrix(7.9701 0 0 -7.9701 154.624 580.953)"/>
  <use xlink:href="#z" transform="matrix(7.9701 0 0 -7.9701 157.35 582.69)"/>
  <path d="M202.269 619.098h60v-55h-60z" fill="#ccc"/>
  <path d="M197.269 614.098h60v-55h-60z" fill="#658ff3"/>
  <path d="M197.269 574.098h60v-10h-60z" fill="#eed8d8"/>

  <use xlink:href="#U" transform="matrix(6.9738 0 0 -6.9738 203.283 570.721)"/>
  <use xlink:href="#o" transform="matrix(6.9738 0 0 -6.9738 207.111 570.721)"/>
  <use xlink:href="#z" transform="matrix(6.9738 0 0 -6.9738 210.598 572.241)"/>
  <use xlink:href="#E" transform="matrix(6.9738 0 0 -6.9738 214.343 570.79)"/>
  <use xlink:href="#r" transform="matrix(6.9738 0 0 -6.9738 216.812 570.721)"/>
  <use xlink:href="#I" transform="matrix(6.9738 0 0 -6.9738 218.813 570.79)"/>
  <use xlink:href="#v" transform="matrix(6.9738 0 0 -6.9738 221.993 570.79)"/>
  <use xlink:href="#w" transform="matrix(6.9738 0 0 -6.9738 224.964 570.721)"/>
  <use xlink:href="#R" transform="matrix(6.9738 0 0 -6.9738 228.618 570.721)"/>
  <use xlink:href="#L" transform="matrix(6.9738 0 0 -6.9738 233.737 570.79)"/>
  <use xlink:href="#L" transform="matrix(6.9738 0 0 -6.9738 237.224 570.79)"/>
  <use xlink:href="#s" transform="matrix(6.9738 0 0 -6.9738 240.558 570.721)"/>
  <use xlink:href="#p" transform="matrix(6.9738 0 0 -6.9738 243.02 570.79)"/>
  <use xlink:href="#E" transform="matrix(6.9738 0 0 -6.9738 246.297 570.79)"/>
  <use xlink:href="#E" transform="matrix(6.9738 0 0 -6.9738 249.01 570.79)"/>
  <use xlink:href="#U" transform="matrix(7.9701 0 0 -7.9701 205.228 555.953)"/>
  <use xlink:href="#o" transform="matrix(7.9701 0 0 -7.9701 209.603 555.953)"/>
  <use xlink:href="#z" transform="matrix(7.9701 0 0 -7.9701 213.588 557.69)"/>
  <use xlink:href="#E" transform="matrix(7.9701 0 0 -7.9701 217.868 556.033)"/>
  <use xlink:href="#r" transform="matrix(7.9701 0 0 -7.9701 220.69 555.953)"/>
  <use xlink:href="#I" transform="matrix(7.9701 0 0 -7.9701 222.977 556.033)"/>
  <use xlink:href="#v" transform="matrix(7.9701 0 0 -7.9701 226.611 556.033)"/>
  <use xlink:href="#w" transform="matrix(7.9701 0 0 -7.9701 230.007 555.953)"/>
  <use xlink:href="#U" transform="matrix(7.9701 0 0 -7.9701 234.19 555.953)"/>
  <use xlink:href="#v" transform="matrix(7.9701 0 0 -7.9701 238.67 556.033)"/>
  <use xlink:href="#O" transform="matrix(7.9701 0 0 -7.9701 242.137 557.69)"/>
  <use xlink:href="#p" transform="matrix(7.9701 0 0 -7.9701 246.098 556.033)"/>
  <path stroke-width=".5" stroke-linecap="round" stroke-linejoin="round" fill="none" stroke="#000" d="M87.269 544.098h150v-15h-150zM137.269 544.098v-15"/>
  <use xlink:href="#B" transform="matrix(7.9701 0 0 -7.9701 137.29 524.858)"/>
  <use xlink:href="#r" transform="matrix(7.9701 0 0 -7.9701 142.567 524.77)"/>
  <use xlink:href="#s" transform="matrix(7.9701 0 0 -7.9701 144.695 524.77)"/>
  <use xlink:href="#t" transform="matrix(7.9701 0 0 -7.9701 147.413 524.85)"/>
  <use xlink:href="#u" transform="matrix(7.9701 0 0 -7.9701 149.596 524.85)"/>
  <use xlink:href="#v" transform="matrix(7.9701 0 0 -7.9701 153.805 524.85)"/>
  <use xlink:href="#w" transform="matrix(7.9701 0 0 -7.9701 157.2 524.77)"/>
  <use xlink:href="#R" transform="matrix(7.9701 0 0 -7.9701 161.376 524.77)"/>
  <use xlink:href="#L" transform="matrix(7.9701 0 0 -7.9701 167.226 524.85)"/>
  <use xlink:href="#L" transform="matrix(7.9701 0 0 -7.9701 171.211 524.85)"/>
  <use xlink:href="#s" transform="matrix(7.9701 0 0 -7.9701 175.021 524.77)"/>
  <use xlink:href="#p" transform="matrix(7.9701 0 0 -7.9701 177.834 524.85)"/>
  <use xlink:href="#E" transform="matrix(7.9701 0 0 -7.9701 181.58 524.85)"/>
  <use xlink:href="#E" transform="matrix(7.9701 0 0 -7.9701 184.68 524.85)"/>
  <use xlink:href="#V" transform="matrix(7.9701 0 0 -7.9701 177.681 539.872)"/>
  <use xlink:href="#G" transform="matrix(7.9701 0 0 -7.9701 183.324 539.76)"/>
  <use xlink:href="#G" transform="matrix(7.9701 0 0 -7.9701 185.779 539.76)"/>
  <use xlink:href="#E" transform="matrix(7.9701 0 0 -7.9701 188.68 539.84)"/>
  <use xlink:href="#p" transform="matrix(7.9701 0 0 -7.9701 191.573 539.84)"/>
  <use xlink:href="#t" transform="matrix(7.9701 0 0 -7.9701 195.016 539.84)"/>

</svg>
