<?xml version="1.0" encoding="utf-8"?>
<svg xmlns="http://www.w3.org/2000/svg" xmlns:xlink="http://www.w3.org/1999/xlink" x="0px" y="0px"
	 viewBox="0 0 550 380" style="enable-background:new 0 0 550 380;" xml:space="preserve">
<style type="text/css">
	.st0{fill:none;stroke:#808080;stroke-width:2.8301;stroke-miterlimit:10;}
	.st1{fill:none;stroke:#808080;stroke-width:3;stroke-miterlimit:10;}
	.st2{fill:#FFFFFF;stroke:#999999;stroke-width:2;stroke-miterlimit:10;}
	.st3{fill:#FFFFFF;stroke:#999999;stroke-width:2.143;stroke-miterlimit:10;}
	.st4{fill:#FFFFFF;stroke:#000000;stroke-width:1.06;stroke-miterlimit:10;}
	.st5{fill:#FFFFFF;stroke:#000000;stroke-width:0.5249;stroke-miterlimit:10;}
	.st6{fill:#808080;stroke:#000000;stroke-width:0.5249;stroke-miterlimit:10;}
	.st7{enable-background:new    ;}
	.st8{fill:#FFFFFF;stroke:#000000;stroke-width:1.0229;stroke-miterlimit:10;}
	.st9{fill:#FFFFFF;stroke:#000000;stroke-width:1.1016;stroke-miterlimit:10;}
	.st10{fill:#808080;}
	.st11{fill:#FFFFFF;stroke:#000000;stroke-miterlimit:10;}
	.st12{fill:#FFFFFF;stroke:#000000;stroke-width:0.788;stroke-miterlimit:10;}
	.st13{fill:none;stroke:#999999;stroke-miterlimit:10;}
	.st14{fill:#999999;}
	.st15{fill:none;stroke:#000000;stroke-width:0.5;stroke-miterlimit:10;}
	.st16{fill:none;stroke:#000000;stroke-width:0.5;stroke-miterlimit:10;stroke-dasharray:1.7595,1.7595;}
	.st17{fill:none;stroke:#000000;stroke-width:0.5;stroke-miterlimit:10;stroke-dasharray:2.8889,2.8889;}
	.st18{fill:none;stroke:#000000;stroke-width:0.5;stroke-miterlimit:10;stroke-dasharray:2.5527,2.5527;}
	.st19{fill:none;stroke:#000000;stroke-width:0.5;stroke-miterlimit:10;stroke-dasharray:2.9668,2.9668;}
	.st20{fill:none;stroke:#808080;stroke-miterlimit:10;}
</style>
<rect x="310.8" y="181" class="st0" width="221.4" height="40.2"/>
<rect x="26" y="176" class="st1" width="221.4" height="45.1"/>
<rect x="78.5" y="36.7" class="st2" width="160.5" height="106.1"/>
<rect x="25.6" y="279.7" class="st3" width="216.1" height="53.7"/>
<rect x="192" y="176" class="st4" width="55.4" height="45.1"/>
<rect x="89.2" y="58.3" class="st5" width="68.9" height="12"/>
<rect x="158.1" y="58.3" class="st5" width="68.9" height="12"/>
<rect x="89.2" y="70.3" class="st5" width="68.9" height="12"/>
<rect x="158.1" y="70.3" class="st5" width="68.9" height="12"/>
<rect x="89.2" y="82.2" class="st6" width="68.9" height="12"/>
<rect x="158.1" y="82.2" class="st6" width="68.9" height="12"/>
<rect x="89.2" y="94.2" class="st5" width="68.9" height="12"/>
<rect x="158.1" y="94.2" class="st5" width="68.9" height="12"/>
<rect x="89.2" y="106.2" class="st5" width="68.9" height="12"/>
<rect x="158.1" y="106.2" class="st5" width="68.9" height="12"/>
<rect x="89.2" y="118.1" class="st5" width="68.9" height="12"/>
<rect x="158.1" y="118.1" class="st5" width="68.9" height="12"/>
<g class="st7">
	<path d="M201.7,202.4c0-0.5,0.1-1,0.2-1.5c0.1-0.5,0.3-0.9,0.6-1.2c0.3-0.3,0.6-0.6,1-0.8c0.4-0.2,0.9-0.3,1.4-0.3
		c0.5,0,1,0.1,1.4,0.3c0.4,0.2,0.7,0.5,1,0.8c0.3,0.3,0.5,0.7,0.6,1.2c0.1,0.5,0.2,0.9,0.2,1.5c0,0.5-0.1,1-0.2,1.4
		c-0.1,0.5-0.4,0.9-0.6,1.2s-0.6,0.6-1,0.8c-0.4,0.2-0.9,0.3-1.4,0.3c-0.5,0-1-0.1-1.4-0.3s-0.7-0.5-1-0.8s-0.5-0.7-0.6-1.2
		C201.7,203.3,201.7,202.9,201.7,202.4z M202.7,202.4c0,0.4,0.1,0.7,0.1,1.1c0.1,0.3,0.2,0.6,0.4,0.9c0.2,0.3,0.4,0.5,0.7,0.6
		s0.6,0.2,0.9,0.2c0.3,0,0.6-0.1,0.9-0.2c0.3-0.2,0.5-0.4,0.7-0.6c0.2-0.3,0.3-0.6,0.4-0.9c0.1-0.3,0.2-0.7,0.2-1.1
		s-0.1-0.7-0.2-1.1c-0.1-0.3-0.2-0.6-0.4-0.9c-0.2-0.3-0.4-0.5-0.7-0.6c-0.3-0.2-0.6-0.2-0.9-0.2c-0.3,0-0.6,0.1-0.9,0.2
		c-0.3,0.2-0.5,0.4-0.7,0.6c-0.2,0.3-0.3,0.6-0.4,0.9C202.8,201.6,202.7,202,202.7,202.4z"/>
	<path d="M210.2,198.7v-1.6c0-0.2,0-0.4,0.1-0.6c0.1-0.2,0.2-0.3,0.4-0.4c0.2-0.1,0.3-0.2,0.6-0.3c0.2-0.1,0.5-0.1,0.7-0.1
		c0.2,0,0.3,0,0.5,0.1c0.2,0,0.4,0.1,0.6,0.2v0.9c-0.2-0.1-0.3-0.1-0.5-0.1s-0.3,0-0.5,0c-0.1,0-0.2,0-0.4,0c-0.1,0-0.2,0.1-0.3,0.1
		c-0.1,0.1-0.1,0.2-0.2,0.3c0,0.1-0.1,0.2-0.1,0.4v1.2h1.3v0.9h-1.3v6.3h-1.1v-6.3h-1.1v-0.9H210.2z"/>
	<path d="M214.3,198.7v-1.6c0-0.2,0-0.4,0.1-0.6c0.1-0.2,0.2-0.3,0.4-0.4c0.2-0.1,0.3-0.2,0.6-0.3c0.2-0.1,0.5-0.1,0.7-0.1
		c0.2,0,0.3,0,0.5,0.1c0.2,0,0.4,0.1,0.6,0.2v0.9c-0.2-0.1-0.3-0.1-0.5-0.1s-0.3,0-0.5,0c-0.1,0-0.2,0-0.4,0c-0.1,0-0.2,0.1-0.3,0.1
		c-0.1,0.1-0.1,0.2-0.2,0.3c0,0.1-0.1,0.2-0.1,0.4v1.2h1.3v0.9h-1.3v6.3h-1.1v-6.3h-1.1v-0.9H214.3z"/>
	<path d="M218.5,203.8c0,0.3,0,0.5,0.1,0.7c0.1,0.2,0.2,0.3,0.4,0.4c0.1,0.1,0.3,0.2,0.5,0.2c0.2,0.1,0.4,0.1,0.7,0.1
		c0.2,0,0.4,0,0.6-0.1c0.2,0,0.4-0.1,0.6-0.2c0.2-0.1,0.3-0.2,0.4-0.3c0.1-0.1,0.2-0.3,0.2-0.6c0-0.2-0.1-0.4-0.2-0.5
		c-0.1-0.1-0.3-0.3-0.5-0.4c-0.2-0.1-0.4-0.2-0.7-0.3c-0.3-0.1-0.5-0.2-0.8-0.3c-0.3-0.1-0.5-0.2-0.8-0.3c-0.3-0.1-0.5-0.2-0.7-0.4
		c-0.2-0.2-0.4-0.3-0.5-0.6c-0.1-0.2-0.2-0.5-0.2-0.8c0-0.3,0.1-0.6,0.2-0.8c0.1-0.2,0.3-0.5,0.6-0.6c0.2-0.2,0.5-0.3,0.8-0.4
		c0.3-0.1,0.6-0.1,0.9-0.1c0.4,0,0.7,0,1,0.1c0.3,0.1,0.6,0.2,0.8,0.4s0.4,0.4,0.6,0.6c0.1,0.3,0.2,0.6,0.2,0.9h-1.1
		c0-0.2-0.1-0.4-0.2-0.5c-0.1-0.1-0.2-0.3-0.3-0.4s-0.3-0.2-0.5-0.2c-0.2,0-0.4-0.1-0.6-0.1c-0.2,0-0.4,0-0.6,0.1
		c-0.2,0.1-0.3,0.1-0.4,0.2c-0.1,0.1-0.2,0.2-0.3,0.3c-0.1,0.1-0.1,0.3-0.1,0.4c0,0.2,0.1,0.3,0.2,0.5c0.1,0.1,0.3,0.3,0.5,0.4
		c0.2,0.1,0.4,0.2,0.7,0.3c0.3,0.1,0.5,0.2,0.8,0.3s0.5,0.2,0.8,0.3c0.3,0.1,0.5,0.2,0.7,0.4c0.2,0.1,0.4,0.3,0.5,0.5
		c0.1,0.2,0.2,0.4,0.2,0.7c0,0.4-0.1,0.7-0.2,1s-0.4,0.5-0.6,0.7c-0.3,0.2-0.6,0.3-0.9,0.4s-0.7,0.1-1.1,0.1c-0.4,0-0.7,0-1-0.1
		s-0.6-0.2-0.9-0.4c-0.2-0.2-0.4-0.4-0.6-0.7s-0.2-0.6-0.2-1H218.5z"/>
	<path d="M225.2,202.5c0,0.3,0.1,0.7,0.2,1c0.1,0.3,0.3,0.6,0.5,0.9s0.4,0.5,0.7,0.6c0.3,0.2,0.5,0.2,0.9,0.2c1,0,1.7-0.5,2-1.4h1
		c-0.1,0.4-0.2,0.7-0.4,1s-0.4,0.5-0.7,0.7c-0.3,0.2-0.6,0.4-0.9,0.5c-0.3,0.1-0.7,0.2-1,0.2c-0.5,0-1-0.1-1.4-0.3
		c-0.4-0.2-0.7-0.5-1-0.9c-0.3-0.4-0.5-0.8-0.7-1.2c-0.2-0.5-0.2-1-0.2-1.5c0-0.5,0.1-0.9,0.2-1.4c0.2-0.4,0.4-0.8,0.7-1.2
		c0.3-0.3,0.6-0.6,1-0.8c0.4-0.2,0.9-0.3,1.4-0.3c0.5,0,0.9,0.1,1.3,0.3s0.7,0.4,1,0.8c0.3,0.3,0.5,0.7,0.6,1.1
		c0.1,0.4,0.2,0.9,0.2,1.4v0.4H225.2z M229.4,201.7c0-0.3-0.1-0.6-0.2-0.9c-0.1-0.3-0.2-0.5-0.4-0.7c-0.2-0.2-0.4-0.4-0.7-0.5
		s-0.6-0.2-0.9-0.2c-0.3,0-0.6,0.1-0.8,0.2s-0.5,0.3-0.7,0.5c-0.2,0.2-0.3,0.4-0.4,0.7c-0.1,0.3-0.2,0.5-0.2,0.8H229.4z"/>
	<path d="M233.6,196.7v2h1.3v0.9h-1.3v4.8c0,0.2,0,0.3,0.1,0.4c0,0.1,0.1,0.2,0.2,0.3c0.1,0.1,0.2,0.1,0.2,0.1c0.1,0,0.2,0,0.3,0
		c0.1,0,0.3,0,0.4,0c0.1,0,0.3-0.1,0.4-0.1v0.9c-0.1,0-0.3,0.1-0.5,0.1c-0.2,0-0.4,0.1-0.6,0.1c-0.2,0-0.4,0-0.5-0.1
		c-0.2,0-0.3-0.1-0.5-0.2c-0.1-0.1-0.3-0.3-0.4-0.4s-0.1-0.4-0.1-0.6v-5.1h-1.1v-0.9h1.1v-2H233.6z"/>
</g>
<rect x="136.7" y="198.6" class="st8" width="55.4" height="22.6"/>
<rect x="81.3" y="198.6" class="st8" width="55.4" height="22.6"/>
<rect x="26" y="198.6" class="st8" width="55.4" height="22.6"/>
<g class="st7">
	<path d="M35.2,204.7v10h-1.1v-10H35.2z"/>
	<path d="M38,211.2c0,0.3,0.1,0.7,0.2,1c0.1,0.3,0.3,0.6,0.5,0.9s0.4,0.5,0.7,0.6c0.3,0.2,0.5,0.2,0.9,0.2c1,0,1.7-0.5,2-1.4h1
		c-0.1,0.4-0.2,0.7-0.4,1s-0.4,0.5-0.7,0.7c-0.3,0.2-0.6,0.4-0.9,0.5c-0.3,0.1-0.7,0.2-1,0.2c-0.5,0-1-0.1-1.4-0.3
		c-0.4-0.2-0.7-0.5-1-0.9c-0.3-0.4-0.5-0.8-0.7-1.2c-0.2-0.5-0.2-1-0.2-1.5c0-0.5,0.1-0.9,0.2-1.4c0.2-0.4,0.4-0.8,0.7-1.2
		c0.3-0.3,0.6-0.6,1-0.8c0.4-0.2,0.9-0.3,1.4-0.3c0.5,0,0.9,0.1,1.3,0.3s0.7,0.4,1,0.8c0.3,0.3,0.5,0.7,0.6,1.1
		c0.1,0.4,0.2,0.9,0.2,1.4v0.4H38z M42.2,210.4c0-0.3-0.1-0.6-0.2-0.9c-0.1-0.3-0.2-0.5-0.4-0.7c-0.2-0.2-0.4-0.4-0.7-0.5
		s-0.6-0.2-0.9-0.2c-0.3,0-0.6,0.1-0.8,0.2s-0.5,0.3-0.7,0.5c-0.2,0.2-0.3,0.4-0.4,0.7c-0.1,0.3-0.2,0.5-0.2,0.8H42.2z"/>
	<path d="M47.2,213.4l2.1-6h1.1l-2.6,7.3h-1.2l-2.6-7.3h1.1L47.2,213.4z"/>
	<path d="M51.9,211.2c0,0.3,0.1,0.7,0.2,1c0.1,0.3,0.3,0.6,0.5,0.9s0.4,0.5,0.7,0.6c0.3,0.2,0.5,0.2,0.9,0.2c1,0,1.7-0.5,2-1.4h1
		c-0.1,0.4-0.2,0.7-0.4,1s-0.4,0.5-0.7,0.7c-0.3,0.2-0.6,0.4-0.9,0.5c-0.3,0.1-0.7,0.2-1,0.2c-0.5,0-1-0.1-1.4-0.3
		c-0.4-0.2-0.7-0.5-1-0.9c-0.3-0.4-0.5-0.8-0.7-1.2c-0.2-0.5-0.2-1-0.2-1.5c0-0.5,0.1-0.9,0.2-1.4c0.2-0.4,0.4-0.8,0.7-1.2
		c0.3-0.3,0.6-0.6,1-0.8c0.4-0.2,0.9-0.3,1.4-0.3c0.5,0,0.9,0.1,1.3,0.3s0.7,0.4,1,0.8c0.3,0.3,0.5,0.7,0.6,1.1
		c0.1,0.4,0.2,0.9,0.2,1.4v0.4H51.9z M56.1,210.4c0-0.3-0.1-0.6-0.2-0.9c-0.1-0.3-0.2-0.5-0.4-0.7c-0.2-0.2-0.4-0.4-0.7-0.5
		s-0.6-0.2-0.9-0.2c-0.3,0-0.6,0.1-0.8,0.2s-0.5,0.3-0.7,0.5c-0.2,0.2-0.3,0.4-0.4,0.7c-0.1,0.3-0.2,0.5-0.2,0.8H56.1z"/>
	<path d="M59.9,204.7v10h-1.1v-10H59.9z"/>
	<path d="M65.3,207.7c0.1-0.4,0.2-0.7,0.3-1.1c0.2-0.3,0.4-0.6,0.6-0.9s0.6-0.5,0.9-0.6c0.4-0.2,0.8-0.2,1.2-0.2
		c0.4,0,0.8,0.1,1.2,0.2s0.6,0.3,0.9,0.5c0.2,0.2,0.4,0.5,0.6,0.8c0.1,0.3,0.2,0.6,0.2,1c0,0.5-0.1,0.9-0.4,1.3
		c-0.2,0.4-0.6,0.7-1.1,0.9c0.3,0.1,0.5,0.2,0.8,0.4c0.2,0.1,0.4,0.3,0.6,0.5c0.2,0.2,0.3,0.4,0.4,0.7c0.1,0.3,0.1,0.6,0.1,0.9
		c0,0.5-0.1,0.9-0.3,1.2s-0.4,0.6-0.7,0.9c-0.3,0.2-0.6,0.4-1,0.5c-0.4,0.1-0.8,0.2-1.2,0.2c-0.5,0-0.9-0.1-1.3-0.2s-0.7-0.3-1-0.6
		c-0.3-0.3-0.5-0.6-0.7-0.9c-0.2-0.4-0.4-0.8-0.5-1.3h1.1c0.1,0.4,0.2,0.8,0.4,1c0.2,0.3,0.4,0.5,0.6,0.7c0.2,0.2,0.4,0.3,0.7,0.4
		c0.2,0.1,0.5,0.1,0.7,0.1c0.3,0,0.5,0,0.8-0.1c0.3-0.1,0.5-0.2,0.7-0.4c0.2-0.2,0.4-0.4,0.5-0.6c0.1-0.2,0.2-0.5,0.2-0.8
		c0-0.3-0.1-0.6-0.2-0.8c-0.1-0.2-0.3-0.5-0.4-0.6s-0.4-0.3-0.7-0.4c-0.3-0.1-0.6-0.2-0.9-0.2h-0.6v-0.9h0.6c0.3,0,0.6,0,0.8-0.1
		c0.2-0.1,0.4-0.2,0.6-0.4s0.2-0.3,0.3-0.5c0.1-0.2,0.1-0.4,0.1-0.6c0-0.3,0-0.5-0.1-0.7c-0.1-0.2-0.2-0.4-0.4-0.6
		c-0.2-0.2-0.3-0.3-0.6-0.4c-0.2-0.1-0.5-0.1-0.7-0.1c-0.3,0-0.6,0.1-0.8,0.2c-0.2,0.1-0.4,0.3-0.6,0.5s-0.3,0.4-0.4,0.6
		c-0.1,0.2-0.2,0.5-0.2,0.7H65.3z"/>
</g>
<rect x="26" y="176" class="st9" width="166.1" height="22.6"/>
<path d="M98.9,186.5"/>
<g class="st7">
	<path d="M55.6,191.6l2.1-6h1.1l-2.6,7.3H55l-2.6-7.3h1.1L55.6,191.6z"/>
	<path d="M61.1,182.8v1.2h-1.1v-1.2H61.1z M61.1,185.6v7.3h-1.1v-7.3H61.1z"/>
	<path d="M63.3,185.6h1.1l0,1.2c0.2-0.4,0.5-0.7,0.8-0.9c0.3-0.2,0.7-0.3,1.1-0.3c0,0,0.1,0,0.1,0s0.1,0,0.2,0c0.1,0,0.1,0,0.2,0
		c0.1,0,0.1,0,0.1,0v1.1c-0.1,0-0.2-0.1-0.4-0.1c-0.1,0-0.2,0-0.3,0c-0.3,0-0.5,0.1-0.8,0.2c-0.2,0.1-0.4,0.2-0.6,0.4
		s-0.3,0.4-0.4,0.6c-0.1,0.2-0.1,0.5-0.1,0.7v4.3h-1.1V185.6z"/>
	<path d="M69.4,183.6v2h1.3v0.9h-1.3v4.8c0,0.2,0,0.3,0.1,0.4c0,0.1,0.1,0.2,0.2,0.3c0.1,0.1,0.2,0.1,0.2,0.1c0.1,0,0.2,0,0.3,0
		c0.1,0,0.3,0,0.4,0c0.1,0,0.3-0.1,0.4-0.1v0.9c-0.1,0-0.3,0.1-0.5,0.1c-0.2,0-0.4,0.1-0.6,0.1c-0.2,0-0.4,0-0.5-0.1
		c-0.2,0-0.3-0.1-0.5-0.2c-0.1-0.1-0.3-0.3-0.4-0.4s-0.1-0.4-0.1-0.6v-5.1h-1.1v-0.9h1.1v-2H69.4z"/>
	<path d="M78.1,192.9h-1.1v-1.3c-0.2,0.2-0.4,0.4-0.6,0.6c-0.2,0.2-0.4,0.3-0.6,0.4s-0.4,0.2-0.7,0.2s-0.4,0.1-0.7,0.1
		c-0.3,0-0.6,0-0.9-0.2c-0.3-0.1-0.5-0.2-0.7-0.4c-0.2-0.2-0.3-0.4-0.4-0.7c-0.1-0.3-0.1-0.6-0.1-0.9v-5.1h1.1v5
		c0,0.2,0,0.5,0.1,0.6c0.1,0.2,0.1,0.3,0.3,0.4s0.2,0.2,0.4,0.2c0.2,0,0.3,0.1,0.6,0.1c0.3,0,0.6-0.1,0.9-0.2
		c0.3-0.1,0.5-0.3,0.7-0.5c0.2-0.2,0.4-0.4,0.5-0.7s0.2-0.5,0.2-0.7v-4.3h1.1V192.9z"/>
	<path d="M86.2,192.9c-0.1,0-0.2,0-0.3,0.1c-0.1,0-0.2,0-0.3,0c-0.3,0-0.5-0.1-0.7-0.3c-0.2-0.2-0.3-0.6-0.3-1
		c-0.2,0.3-0.5,0.5-0.7,0.7s-0.4,0.3-0.7,0.4c-0.2,0.1-0.4,0.2-0.7,0.2c-0.2,0-0.4,0-0.7,0c-0.3,0-0.6,0-0.8-0.1s-0.5-0.2-0.7-0.4
		c-0.2-0.2-0.3-0.4-0.5-0.6c-0.1-0.2-0.2-0.5-0.2-0.8c0-0.3,0.1-0.6,0.2-0.8c0.1-0.2,0.3-0.4,0.5-0.6c0.2-0.2,0.5-0.3,0.8-0.4
		c0.3-0.1,0.6-0.2,0.9-0.3c0.3-0.1,0.6-0.2,0.9-0.2c0.3-0.1,0.5-0.2,0.8-0.3c0.2-0.1,0.4-0.2,0.5-0.3c0.1-0.1,0.2-0.3,0.2-0.5
		c0-0.2,0-0.4-0.1-0.6s-0.2-0.3-0.3-0.4c-0.1-0.1-0.3-0.2-0.5-0.3c-0.2-0.1-0.4-0.1-0.7-0.1c-0.2,0-0.4,0-0.6,0.1s-0.4,0.1-0.5,0.2
		s-0.3,0.2-0.4,0.4c-0.1,0.2-0.2,0.3-0.2,0.5h-1.1c0-0.4,0.1-0.7,0.3-0.9s0.4-0.5,0.6-0.7c0.3-0.2,0.5-0.3,0.9-0.4
		c0.3-0.1,0.7-0.1,1-0.1c0.4,0,0.7,0,1.1,0.1c0.3,0.1,0.6,0.2,0.9,0.4c0.3,0.2,0.5,0.4,0.6,0.7c0.1,0.3,0.2,0.6,0.2,1v3.8
		c0,0.2,0,0.3,0.1,0.4c0.1,0.1,0.2,0.2,0.3,0.2c0.1,0,0.1,0,0.2,0V192.9z M84.4,188.8c-0.1,0.2-0.3,0.3-0.6,0.4
		c-0.2,0.1-0.5,0.2-0.8,0.3c-0.3,0.1-0.5,0.2-0.8,0.2s-0.5,0.2-0.7,0.3c-0.2,0.1-0.4,0.2-0.5,0.4c-0.1,0.1-0.2,0.3-0.2,0.6
		c0,0.2,0,0.4,0.1,0.5c0.1,0.1,0.2,0.3,0.3,0.4s0.2,0.2,0.4,0.2c0.1,0,0.3,0.1,0.4,0.1c0.4,0,0.9-0.1,1.3-0.4s0.8-0.7,1.1-1.2V188.8
		z"/>
	<path d="M88.7,182.8v10h-1.1v-10H88.7z"/>
	<path d="M100.1,192.9c-0.1,0-0.2,0-0.3,0.1c-0.1,0-0.2,0-0.3,0c-0.3,0-0.5-0.1-0.7-0.3c-0.2-0.2-0.3-0.6-0.3-1
		c-0.2,0.3-0.5,0.5-0.7,0.7s-0.4,0.3-0.7,0.4c-0.2,0.1-0.4,0.2-0.7,0.2c-0.2,0-0.4,0-0.7,0c-0.3,0-0.6,0-0.8-0.1s-0.5-0.2-0.7-0.4
		c-0.2-0.2-0.3-0.4-0.5-0.6c-0.1-0.2-0.2-0.5-0.2-0.8c0-0.3,0.1-0.6,0.2-0.8c0.1-0.2,0.3-0.4,0.5-0.6c0.2-0.2,0.5-0.3,0.8-0.4
		c0.3-0.1,0.6-0.2,0.9-0.3c0.3-0.1,0.6-0.2,0.9-0.2c0.3-0.1,0.5-0.2,0.8-0.3c0.2-0.1,0.4-0.2,0.5-0.3c0.1-0.1,0.2-0.3,0.2-0.5
		c0-0.2,0-0.4-0.1-0.6s-0.2-0.3-0.3-0.4c-0.1-0.1-0.3-0.2-0.5-0.3c-0.2-0.1-0.4-0.1-0.7-0.1c-0.2,0-0.4,0-0.6,0.1s-0.4,0.1-0.5,0.2
		s-0.3,0.2-0.4,0.4c-0.1,0.2-0.2,0.3-0.2,0.5h-1.1c0-0.4,0.1-0.7,0.3-0.9s0.4-0.5,0.6-0.7c0.3-0.2,0.5-0.3,0.9-0.4
		c0.3-0.1,0.7-0.1,1-0.1c0.4,0,0.7,0,1.1,0.1c0.3,0.1,0.6,0.2,0.9,0.4c0.3,0.2,0.5,0.4,0.6,0.7c0.1,0.3,0.2,0.6,0.2,1v3.8
		c0,0.2,0,0.3,0.1,0.4c0.1,0.1,0.2,0.2,0.3,0.2c0.1,0,0.1,0,0.2,0V192.9z M98.3,188.8c-0.1,0.2-0.3,0.3-0.6,0.4
		c-0.2,0.1-0.5,0.2-0.8,0.3c-0.3,0.1-0.5,0.2-0.8,0.2s-0.5,0.2-0.7,0.3c-0.2,0.1-0.4,0.2-0.5,0.4c-0.1,0.1-0.2,0.3-0.2,0.6
		c0,0.2,0,0.4,0.1,0.5c0.1,0.1,0.2,0.3,0.3,0.4s0.2,0.2,0.4,0.2c0.1,0,0.3,0.1,0.4,0.1c0.4,0,0.9-0.1,1.3-0.4s0.8-0.7,1.1-1.2V188.8
		z"/>
	<path d="M107.1,192.9H106v-1.1c-0.2,0.4-0.5,0.7-0.9,0.9c-0.4,0.2-0.7,0.3-1.1,0.3c-0.5,0-0.9-0.1-1.3-0.3
		c-0.4-0.2-0.7-0.5-0.9-0.8c-0.2-0.3-0.4-0.7-0.6-1.2c-0.1-0.5-0.2-0.9-0.2-1.5c0-0.5,0.1-1,0.2-1.5c0.1-0.5,0.3-0.9,0.6-1.2
		c0.2-0.3,0.6-0.6,0.9-0.8s0.8-0.3,1.3-0.3c0.3,0,0.7,0.1,1,0.3c0.3,0.2,0.7,0.5,1,0.9v-3.8h1.1V192.9z M106,189.1
		c0-0.4-0.1-0.7-0.1-1c-0.1-0.3-0.2-0.6-0.4-0.9c-0.2-0.2-0.4-0.4-0.6-0.6s-0.5-0.2-0.8-0.2c-0.3,0-0.6,0.1-0.8,0.2
		s-0.5,0.4-0.6,0.6c-0.2,0.3-0.3,0.6-0.4,0.9c-0.1,0.3-0.1,0.7-0.1,1.1s0,0.8,0.1,1.1c0.1,0.3,0.2,0.6,0.4,0.9
		c0.2,0.3,0.4,0.5,0.6,0.6s0.5,0.2,0.8,0.2s0.6-0.1,0.8-0.2c0.2-0.1,0.4-0.3,0.6-0.6c0.2-0.3,0.3-0.5,0.4-0.9
		c0.1-0.3,0.1-0.7,0.1-1.1V189.1z"/>
	<path d="M114.8,192.9h-1.1v-1.1c-0.2,0.4-0.5,0.7-0.9,0.9c-0.4,0.2-0.7,0.3-1.1,0.3c-0.5,0-0.9-0.1-1.3-0.3
		c-0.4-0.2-0.7-0.5-0.9-0.8c-0.2-0.3-0.4-0.7-0.6-1.2c-0.1-0.5-0.2-0.9-0.2-1.5c0-0.5,0.1-1,0.2-1.5c0.1-0.5,0.3-0.9,0.6-1.2
		c0.2-0.3,0.6-0.6,0.9-0.8s0.8-0.3,1.3-0.3c0.3,0,0.7,0.1,1,0.3c0.3,0.2,0.7,0.5,1,0.9v-3.8h1.1V192.9z M113.7,189.1
		c0-0.4-0.1-0.7-0.1-1c-0.1-0.3-0.2-0.6-0.4-0.9c-0.2-0.2-0.4-0.4-0.6-0.6s-0.5-0.2-0.8-0.2c-0.3,0-0.6,0.1-0.8,0.2
		s-0.5,0.4-0.6,0.6c-0.2,0.3-0.3,0.6-0.4,0.9c-0.1,0.3-0.1,0.7-0.1,1.1s0,0.8,0.1,1.1c0.1,0.3,0.2,0.6,0.4,0.9
		c0.2,0.3,0.4,0.5,0.6,0.6s0.5,0.2,0.8,0.2s0.6-0.1,0.8-0.2c0.2-0.1,0.4-0.3,0.6-0.6c0.2-0.3,0.3-0.5,0.4-0.9
		c0.1-0.3,0.1-0.7,0.1-1.1V189.1z"/>
	<path d="M116.9,185.6h1.1l0,1.2c0.2-0.4,0.5-0.7,0.8-0.9c0.3-0.2,0.7-0.3,1.1-0.3c0,0,0.1,0,0.1,0s0.1,0,0.2,0c0.1,0,0.1,0,0.2,0
		c0.1,0,0.1,0,0.1,0v1.1c-0.1,0-0.2-0.1-0.4-0.1c-0.1,0-0.2,0-0.3,0c-0.3,0-0.5,0.1-0.8,0.2c-0.2,0.1-0.4,0.2-0.6,0.4
		s-0.3,0.4-0.4,0.6c-0.1,0.2-0.1,0.5-0.1,0.7v4.3h-1.1V185.6z"/>
	<path d="M122.3,189.4c0,0.3,0.1,0.7,0.2,1c0.1,0.3,0.3,0.6,0.5,0.9c0.2,0.2,0.4,0.5,0.7,0.6c0.3,0.2,0.5,0.2,0.9,0.2
		c1,0,1.7-0.5,2-1.4h1c-0.1,0.4-0.2,0.7-0.4,1s-0.4,0.5-0.7,0.7c-0.3,0.2-0.6,0.4-0.9,0.5c-0.3,0.1-0.7,0.2-1,0.2
		c-0.5,0-1-0.1-1.4-0.3c-0.4-0.2-0.7-0.5-1-0.9c-0.3-0.4-0.5-0.8-0.7-1.2c-0.2-0.5-0.2-1-0.2-1.5c0-0.5,0.1-0.9,0.2-1.4
		c0.2-0.4,0.4-0.8,0.7-1.2c0.3-0.3,0.6-0.6,1-0.8c0.4-0.2,0.9-0.3,1.4-0.3c0.5,0,0.9,0.1,1.3,0.3s0.7,0.4,1,0.8
		c0.3,0.3,0.5,0.7,0.6,1.1c0.1,0.4,0.2,0.9,0.2,1.4v0.4H122.3z M126.5,188.6c0-0.3-0.1-0.6-0.2-0.9c-0.1-0.3-0.2-0.5-0.4-0.7
		c-0.2-0.2-0.4-0.4-0.7-0.5s-0.6-0.2-0.9-0.2c-0.3,0-0.6,0.1-0.8,0.2s-0.5,0.3-0.7,0.5c-0.2,0.2-0.3,0.4-0.4,0.7
		c-0.1,0.3-0.2,0.5-0.2,0.8H126.5z"/>
	<path d="M129.6,190.6c0,0.3,0,0.5,0.1,0.7c0.1,0.2,0.2,0.3,0.4,0.4c0.1,0.1,0.3,0.2,0.5,0.2c0.2,0.1,0.4,0.1,0.7,0.1
		c0.2,0,0.4,0,0.6-0.1c0.2,0,0.4-0.1,0.6-0.2c0.2-0.1,0.3-0.2,0.4-0.3c0.1-0.1,0.2-0.3,0.2-0.6c0-0.2-0.1-0.4-0.2-0.5
		c-0.1-0.1-0.3-0.3-0.5-0.4c-0.2-0.1-0.4-0.2-0.7-0.3c-0.3-0.1-0.5-0.2-0.8-0.3c-0.3-0.1-0.5-0.2-0.8-0.3c-0.3-0.1-0.5-0.2-0.7-0.4
		c-0.2-0.2-0.4-0.3-0.5-0.6c-0.1-0.2-0.2-0.5-0.2-0.8c0-0.3,0.1-0.6,0.2-0.8c0.1-0.2,0.3-0.5,0.6-0.6c0.2-0.2,0.5-0.3,0.8-0.4
		c0.3-0.1,0.6-0.1,0.9-0.1c0.4,0,0.7,0,1,0.1c0.3,0.1,0.6,0.2,0.8,0.4s0.4,0.4,0.6,0.6c0.1,0.3,0.2,0.6,0.2,0.9h-1.1
		c0-0.2-0.1-0.4-0.2-0.5c-0.1-0.1-0.2-0.3-0.3-0.4s-0.3-0.2-0.5-0.2c-0.2,0-0.4-0.1-0.6-0.1c-0.2,0-0.4,0-0.6,0.1
		c-0.2,0.1-0.3,0.1-0.4,0.2c-0.1,0.1-0.2,0.2-0.3,0.3c-0.1,0.1-0.1,0.3-0.1,0.4c0,0.2,0.1,0.3,0.2,0.5c0.1,0.1,0.3,0.3,0.5,0.4
		c0.2,0.1,0.4,0.2,0.7,0.3c0.3,0.1,0.5,0.2,0.8,0.3s0.5,0.2,0.8,0.3c0.3,0.1,0.5,0.2,0.7,0.4c0.2,0.1,0.4,0.3,0.5,0.5
		c0.1,0.2,0.2,0.4,0.2,0.7c0,0.4-0.1,0.7-0.2,1s-0.4,0.5-0.6,0.7c-0.3,0.2-0.6,0.3-0.9,0.4s-0.7,0.1-1.1,0.1c-0.4,0-0.7,0-1-0.1
		s-0.6-0.2-0.9-0.4c-0.2-0.2-0.4-0.4-0.6-0.7s-0.2-0.6-0.2-1H129.6z"/>
	<path d="M136.2,190.6c0,0.3,0,0.5,0.1,0.7c0.1,0.2,0.2,0.3,0.4,0.4c0.1,0.1,0.3,0.2,0.5,0.2c0.2,0.1,0.4,0.1,0.7,0.1
		c0.2,0,0.4,0,0.6-0.1c0.2,0,0.4-0.1,0.6-0.2c0.2-0.1,0.3-0.2,0.4-0.3c0.1-0.1,0.2-0.3,0.2-0.6c0-0.2-0.1-0.4-0.2-0.5
		c-0.1-0.1-0.3-0.3-0.5-0.4c-0.2-0.1-0.4-0.2-0.7-0.3c-0.3-0.1-0.5-0.2-0.8-0.3c-0.3-0.1-0.5-0.2-0.8-0.3c-0.3-0.1-0.5-0.2-0.7-0.4
		c-0.2-0.2-0.4-0.3-0.5-0.6c-0.1-0.2-0.2-0.5-0.2-0.8c0-0.3,0.1-0.6,0.2-0.8c0.1-0.2,0.3-0.5,0.6-0.6c0.2-0.2,0.5-0.3,0.8-0.4
		c0.3-0.1,0.6-0.1,0.9-0.1c0.4,0,0.7,0,1,0.1c0.3,0.1,0.6,0.2,0.8,0.4s0.4,0.4,0.6,0.6c0.1,0.3,0.2,0.6,0.2,0.9h-1.1
		c0-0.2-0.1-0.4-0.2-0.5c-0.1-0.1-0.2-0.3-0.3-0.4s-0.3-0.2-0.5-0.2c-0.2,0-0.4-0.1-0.6-0.1c-0.2,0-0.4,0-0.6,0.1
		c-0.2,0.1-0.3,0.1-0.4,0.2c-0.1,0.1-0.2,0.2-0.3,0.3c-0.1,0.1-0.1,0.3-0.1,0.4c0,0.2,0.1,0.3,0.2,0.5c0.1,0.1,0.3,0.3,0.5,0.4
		c0.2,0.1,0.4,0.2,0.7,0.3c0.3,0.1,0.5,0.2,0.8,0.3s0.5,0.2,0.8,0.3c0.3,0.1,0.5,0.2,0.7,0.4c0.2,0.1,0.4,0.3,0.5,0.5
		c0.1,0.2,0.2,0.4,0.2,0.7c0,0.4-0.1,0.7-0.2,1s-0.4,0.5-0.6,0.7c-0.3,0.2-0.6,0.3-0.9,0.4s-0.7,0.1-1.1,0.1c-0.4,0-0.7,0-1-0.1
		s-0.6-0.2-0.9-0.4c-0.2-0.2-0.4-0.4-0.6-0.7s-0.2-0.6-0.2-1H136.2z"/>
	<path d="M146.7,182.8v1.2h-1.1v-1.2H146.7z M146.7,185.6v7.3h-1.1v-7.3H146.7z"/>
	<path d="M148.8,185.6h1.1v1.1c0.4-0.4,0.8-0.7,1.2-0.9c0.4-0.2,0.9-0.3,1.3-0.3c0.3,0,0.6,0,0.9,0.2c0.3,0.1,0.5,0.2,0.7,0.4
		c0.2,0.2,0.3,0.4,0.4,0.7s0.1,0.6,0.1,0.9v5.3h-1.1v-5.1c0-0.2,0-0.5-0.1-0.6c-0.1-0.2-0.1-0.3-0.3-0.4c-0.1-0.1-0.2-0.2-0.4-0.2
		c-0.2,0-0.3-0.1-0.5-0.1c-0.3,0-0.6,0.1-0.9,0.2c-0.3,0.1-0.5,0.3-0.7,0.5c-0.2,0.2-0.4,0.4-0.5,0.6c-0.1,0.2-0.2,0.5-0.2,0.8v4.4
		h-1.1V185.6z"/>
	<path d="M162.3,192.9h-1.1v-1.1c-0.2,0.4-0.5,0.7-0.9,0.9c-0.4,0.2-0.7,0.3-1.1,0.3c-0.5,0-0.9-0.1-1.3-0.3
		c-0.4-0.2-0.7-0.5-0.9-0.8c-0.2-0.3-0.4-0.7-0.6-1.2c-0.1-0.5-0.2-0.9-0.2-1.5c0-0.5,0.1-1,0.2-1.5c0.1-0.5,0.3-0.9,0.6-1.2
		c0.2-0.3,0.6-0.6,0.9-0.8s0.8-0.3,1.3-0.3c0.3,0,0.7,0.1,1,0.3c0.3,0.2,0.7,0.5,1,0.9v-3.8h1.1V192.9z M161.2,189.1
		c0-0.4-0.1-0.7-0.1-1c-0.1-0.3-0.2-0.6-0.4-0.9c-0.2-0.2-0.4-0.4-0.6-0.6s-0.5-0.2-0.8-0.2c-0.3,0-0.6,0.1-0.8,0.2
		s-0.5,0.4-0.6,0.6c-0.2,0.3-0.3,0.6-0.4,0.9c-0.1,0.3-0.1,0.7-0.1,1.1s0,0.8,0.1,1.1c0.1,0.3,0.2,0.6,0.4,0.9
		c0.2,0.3,0.4,0.5,0.6,0.6s0.5,0.2,0.8,0.2s0.6-0.1,0.8-0.2c0.2-0.1,0.4-0.3,0.6-0.6c0.2-0.3,0.3-0.5,0.4-0.9
		c0.1-0.3,0.1-0.7,0.1-1.1V189.1z"/>
	<path d="M165,189.4c0,0.3,0.1,0.7,0.2,1c0.1,0.3,0.3,0.6,0.5,0.9c0.2,0.2,0.4,0.5,0.7,0.6c0.3,0.2,0.5,0.2,0.9,0.2
		c1,0,1.7-0.5,2-1.4h1c-0.1,0.4-0.2,0.7-0.4,1s-0.4,0.5-0.7,0.7c-0.3,0.2-0.6,0.4-0.9,0.5c-0.3,0.1-0.7,0.2-1,0.2
		c-0.5,0-1-0.1-1.4-0.3c-0.4-0.2-0.7-0.5-1-0.9c-0.3-0.4-0.5-0.8-0.7-1.2c-0.2-0.5-0.2-1-0.2-1.5c0-0.5,0.1-0.9,0.2-1.4
		c0.2-0.4,0.4-0.8,0.7-1.2c0.3-0.3,0.6-0.6,1-0.8c0.4-0.2,0.9-0.3,1.4-0.3c0.5,0,0.9,0.1,1.3,0.3s0.7,0.4,1,0.8
		c0.3,0.3,0.5,0.7,0.6,1.1c0.1,0.4,0.2,0.9,0.2,1.4v0.4H165z M169.3,188.6c0-0.3-0.1-0.6-0.2-0.9c-0.1-0.3-0.2-0.5-0.4-0.7
		c-0.2-0.2-0.4-0.4-0.7-0.5s-0.6-0.2-0.9-0.2c-0.3,0-0.6,0.1-0.8,0.2s-0.5,0.3-0.7,0.5c-0.2,0.2-0.3,0.4-0.4,0.7
		c-0.1,0.3-0.2,0.5-0.2,0.8H169.3z"/>
	<path d="M174.9,189.2l2.5,3.6h-1.3l-1.8-2.7l-1.8,2.7h-1.3l2.5-3.6l-2.5-3.6h1.3l1.8,2.7l1.8-2.7h1.3L174.9,189.2z"/>
</g>
<g class="st7">
	<path d="M113.3,43v1.2h-1V43H113.3z M113.3,45.6v7h-1v-7H113.3z"/>
	<path d="M115.3,45.6h1v1c0.4-0.4,0.7-0.7,1.1-0.9s0.8-0.3,1.3-0.3c0.3,0,0.6,0,0.9,0.1s0.5,0.2,0.6,0.4s0.3,0.4,0.4,0.6
		c0.1,0.3,0.1,0.5,0.1,0.9v5h-1v-4.9c0-0.2,0-0.4-0.1-0.6c-0.1-0.2-0.1-0.3-0.2-0.4s-0.2-0.2-0.4-0.2s-0.3-0.1-0.5-0.1
		c-0.3,0-0.6,0.1-0.9,0.2s-0.5,0.3-0.7,0.4c-0.2,0.2-0.4,0.4-0.5,0.6c-0.1,0.2-0.2,0.5-0.2,0.7v4.2h-1V45.6z"/>
	<path d="M128.2,52.6h-1v-1c-0.2,0.4-0.5,0.7-0.9,0.9c-0.3,0.2-0.7,0.3-1,0.3c-0.5,0-0.9-0.1-1.2-0.3s-0.7-0.5-0.9-0.8
		c-0.2-0.3-0.4-0.7-0.5-1.2c-0.1-0.4-0.2-0.9-0.2-1.4s0.1-1,0.2-1.4s0.3-0.8,0.5-1.1s0.5-0.6,0.9-0.8s0.8-0.3,1.2-0.3
		c0.3,0,0.7,0.1,1,0.2c0.3,0.2,0.6,0.5,1,0.9V43h1V52.6z M127.2,49c0-0.4-0.1-0.7-0.1-1s-0.2-0.6-0.4-0.8c-0.2-0.2-0.4-0.4-0.6-0.6
		c-0.2-0.1-0.5-0.2-0.8-0.2c-0.3,0-0.6,0.1-0.8,0.2c-0.2,0.1-0.4,0.3-0.6,0.6s-0.3,0.5-0.4,0.9s-0.1,0.7-0.1,1s0,0.7,0.1,1
		s0.2,0.6,0.4,0.9s0.4,0.4,0.6,0.6s0.5,0.2,0.8,0.2s0.6-0.1,0.8-0.2c0.2-0.1,0.4-0.3,0.6-0.6s0.3-0.5,0.4-0.8c0.1-0.3,0.1-0.7,0.1-1
		V49z"/>
	<path d="M130.8,49.3c0,0.3,0.1,0.6,0.2,0.9c0.1,0.3,0.3,0.6,0.4,0.8c0.2,0.2,0.4,0.4,0.7,0.6c0.3,0.1,0.5,0.2,0.8,0.2
		c1,0,1.6-0.5,2-1.4h0.9c-0.1,0.4-0.2,0.7-0.4,1c-0.2,0.3-0.4,0.5-0.7,0.7c-0.3,0.2-0.5,0.3-0.9,0.4s-0.6,0.2-1,0.2
		c-0.5,0-0.9-0.1-1.3-0.3s-0.7-0.5-1-0.8s-0.5-0.7-0.6-1.2c-0.1-0.4-0.2-0.9-0.2-1.4c0-0.5,0.1-0.9,0.2-1.3s0.4-0.8,0.6-1.1
		s0.6-0.6,1-0.8s0.8-0.3,1.3-0.3c0.5,0,0.9,0.1,1.3,0.3s0.7,0.4,1,0.7s0.5,0.7,0.6,1.1s0.2,0.9,0.2,1.3v0.4H130.8z M134.9,48.5
		c0-0.3-0.1-0.6-0.2-0.8s-0.2-0.5-0.4-0.7s-0.4-0.3-0.6-0.5s-0.5-0.2-0.8-0.2c-0.3,0-0.5,0.1-0.8,0.2s-0.5,0.3-0.6,0.5
		s-0.3,0.4-0.4,0.7c-0.1,0.3-0.2,0.5-0.2,0.8H134.9z"/>
	<path d="M140.3,49.1l2.4,3.5h-1.2l-1.8-2.6l-1.8,2.6h-1.2l2.4-3.5l-2.4-3.5h1.2l1.8,2.6l1.8-2.6h1.2L140.3,49.1z"/>
</g>
<g class="st7">
	<path d="M176.1,45.4h1v1.1c0.1-0.2,0.3-0.4,0.4-0.5s0.3-0.3,0.5-0.4s0.4-0.2,0.6-0.2s0.4-0.1,0.6-0.1c0.5,0,0.9,0.1,1.2,0.3
		s0.7,0.5,0.9,0.8c0.3,0.3,0.4,0.7,0.6,1.1s0.2,0.9,0.2,1.4s-0.1,1-0.2,1.4c-0.1,0.4-0.3,0.8-0.6,1.2c-0.2,0.3-0.5,0.6-0.9,0.8
		c-0.4,0.2-0.8,0.3-1.2,0.3c-0.2,0-0.4,0-0.6-0.1s-0.4-0.1-0.6-0.2s-0.4-0.2-0.5-0.4c-0.2-0.1-0.3-0.3-0.4-0.5v3.8h-1V45.4z
		 M177.1,49.1c0,0.4,0.1,0.7,0.2,1c0.1,0.3,0.2,0.6,0.4,0.8c0.2,0.2,0.4,0.4,0.6,0.5c0.2,0.1,0.5,0.2,0.8,0.2c0.3,0,0.6-0.1,0.8-0.2
		c0.2-0.1,0.4-0.3,0.6-0.6c0.2-0.2,0.3-0.5,0.4-0.9s0.1-0.7,0.1-1.1s0-0.7-0.1-1s-0.2-0.6-0.4-0.9c-0.2-0.2-0.4-0.4-0.6-0.6
		c-0.2-0.1-0.5-0.2-0.8-0.2c-0.3,0-0.6,0.1-0.8,0.2s-0.5,0.3-0.6,0.6s-0.3,0.5-0.4,0.9c-0.1,0.3-0.1,0.7-0.1,1V49.1z"/>
	<path d="M189.3,52.4c-0.1,0-0.1,0-0.2,0.1c-0.1,0-0.2,0-0.3,0c-0.3,0-0.5-0.1-0.7-0.3c-0.2-0.2-0.3-0.5-0.3-1
		c-0.2,0.3-0.4,0.5-0.6,0.7s-0.4,0.3-0.6,0.4c-0.2,0.1-0.4,0.2-0.6,0.2s-0.4,0-0.6,0c-0.3,0-0.5,0-0.8-0.1s-0.5-0.2-0.6-0.4
		s-0.3-0.4-0.4-0.6s-0.2-0.5-0.2-0.8s0.1-0.5,0.2-0.7c0.1-0.2,0.3-0.4,0.5-0.5s0.5-0.3,0.7-0.4c0.3-0.1,0.5-0.2,0.8-0.3
		c0.3-0.1,0.6-0.2,0.8-0.2s0.5-0.2,0.7-0.2c0.2-0.1,0.4-0.2,0.5-0.3c0.1-0.1,0.2-0.3,0.2-0.4c0-0.2,0-0.4-0.1-0.5s-0.2-0.3-0.3-0.4
		c-0.1-0.1-0.3-0.2-0.5-0.2s-0.4-0.1-0.7-0.1c-0.2,0-0.4,0-0.6,0.1c-0.2,0.1-0.3,0.1-0.5,0.2s-0.3,0.2-0.4,0.4s-0.2,0.3-0.2,0.5
		h-1.1c0-0.3,0.1-0.6,0.3-0.9s0.4-0.5,0.6-0.7c0.2-0.2,0.5-0.3,0.8-0.4s0.6-0.1,1-0.1c0.4,0,0.7,0,1,0.1s0.6,0.2,0.8,0.4
		s0.4,0.4,0.6,0.7c0.1,0.3,0.2,0.6,0.2,1V51c0,0.2,0,0.3,0.1,0.4c0.1,0.1,0.2,0.2,0.3,0.2c0.1,0,0.1,0,0.2,0V52.4z M187.6,48.5
		c-0.1,0.2-0.3,0.3-0.6,0.4c-0.2,0.1-0.5,0.2-0.7,0.3s-0.5,0.2-0.8,0.2s-0.5,0.2-0.7,0.3s-0.4,0.2-0.5,0.4c-0.1,0.1-0.2,0.3-0.2,0.5
		c0,0.2,0,0.4,0.1,0.5s0.2,0.2,0.3,0.3c0.1,0.1,0.2,0.2,0.4,0.2s0.3,0.1,0.4,0.1c0.4,0,0.8-0.1,1.2-0.4s0.8-0.6,1.1-1.2V48.5z"/>
	<path d="M196.1,52.5c0,0.5-0.1,0.9-0.2,1.2c-0.2,0.4-0.4,0.7-0.6,0.9s-0.6,0.4-0.9,0.5s-0.7,0.2-1.1,0.2c-0.6,0-1.2-0.2-1.7-0.5
		s-0.8-0.9-1.1-1.6h1c0.2,0.4,0.4,0.7,0.7,0.9s0.6,0.3,1.1,0.3c0.3,0,0.5,0,0.7-0.1s0.4-0.2,0.6-0.4c0.2-0.2,0.3-0.4,0.4-0.6
		c0.1-0.2,0.1-0.5,0.1-0.8v-1.3c-0.1,0.2-0.2,0.4-0.4,0.6c-0.1,0.2-0.3,0.3-0.5,0.4s-0.3,0.2-0.5,0.2s-0.4,0.1-0.5,0.1
		c-0.5,0-0.9-0.1-1.3-0.3s-0.7-0.5-0.9-0.8s-0.5-0.7-0.6-1.2s-0.2-0.9-0.2-1.4s0.1-1,0.2-1.4c0.1-0.4,0.3-0.8,0.6-1.1
		s0.6-0.6,0.9-0.8c0.4-0.2,0.8-0.3,1.2-0.3c0.2,0,0.3,0,0.5,0s0.3,0.1,0.5,0.2s0.3,0.2,0.5,0.4c0.2,0.2,0.3,0.4,0.5,0.6v-1.1h1V52.5
		z M195.1,48.8c0-0.4-0.1-0.7-0.1-1s-0.2-0.6-0.4-0.8c-0.2-0.2-0.3-0.4-0.6-0.6c-0.2-0.1-0.5-0.2-0.8-0.2c-0.3,0-0.6,0.1-0.8,0.2
		s-0.5,0.3-0.6,0.6c-0.2,0.2-0.3,0.5-0.4,0.9s-0.2,0.7-0.2,1s0.1,0.7,0.2,1.1s0.2,0.6,0.4,0.9c0.2,0.3,0.4,0.5,0.6,0.6
		c0.3,0.1,0.5,0.2,0.8,0.2c0.3,0,0.6-0.1,0.8-0.2c0.2-0.1,0.4-0.3,0.6-0.6s0.3-0.5,0.4-0.8c0.1-0.3,0.1-0.7,0.1-1V48.8z"/>
	<path d="M198.8,49.1c0,0.3,0.1,0.6,0.2,0.9c0.1,0.3,0.3,0.6,0.4,0.8c0.2,0.2,0.4,0.4,0.7,0.6c0.3,0.1,0.5,0.2,0.8,0.2
		c1,0,1.6-0.5,2-1.4h0.9c-0.1,0.4-0.2,0.7-0.4,1c-0.2,0.3-0.4,0.5-0.7,0.7c-0.3,0.2-0.5,0.3-0.9,0.4s-0.6,0.2-1,0.2
		c-0.5,0-0.9-0.1-1.3-0.3s-0.7-0.5-1-0.8s-0.5-0.7-0.6-1.2c-0.1-0.4-0.2-0.9-0.2-1.4c0-0.5,0.1-0.9,0.2-1.3s0.4-0.8,0.6-1.1
		s0.6-0.6,1-0.8s0.8-0.3,1.3-0.3c0.5,0,0.9,0.1,1.3,0.3s0.7,0.4,1,0.7s0.5,0.7,0.6,1.1s0.2,0.9,0.2,1.3v0.4H198.8z M202.8,48.3
		c0-0.3-0.1-0.6-0.2-0.8s-0.2-0.5-0.4-0.7s-0.4-0.3-0.6-0.5s-0.5-0.2-0.8-0.2c-0.3,0-0.5,0.1-0.8,0.2s-0.5,0.3-0.6,0.5
		s-0.3,0.4-0.4,0.7c-0.1,0.3-0.2,0.5-0.2,0.8H202.8z"/>
</g>
<g class="st7">
	<path class="st10" d="M150.6,12.5v1.9h-4.3v11.7H144V14.4h-4.3v-1.9H150.6z"/>
	<path class="st10" d="M155.5,12.5v11.7h6.6v2h-8.9V12.5H155.5z"/>
	<path class="st10" d="M164.5,12.5h5.5c0.6,0,1.2,0.1,1.7,0.3s0.9,0.4,1.3,0.7s0.6,0.7,0.8,1.1s0.3,0.8,0.3,1.3
		c0,0.6-0.1,1.1-0.4,1.6s-0.6,0.9-1.2,1.3c0.4,0.2,0.8,0.4,1.1,0.6s0.5,0.5,0.7,0.8s0.3,0.6,0.4,0.9s0.1,0.7,0.1,1
		c0,0.5-0.1,1.1-0.4,1.5s-0.5,0.9-0.9,1.3s-0.8,0.6-1.4,0.8s-1,0.3-1.6,0.3h-6.1V12.5z M166.8,17.9h2.9c0.3,0,0.6-0.1,0.9-0.2
		s0.5-0.2,0.7-0.4s0.3-0.4,0.5-0.6s0.2-0.5,0.2-0.7c0-0.2,0-0.4-0.1-0.6s-0.2-0.4-0.4-0.5s-0.4-0.3-0.6-0.3s-0.5-0.1-0.9-0.1h-3.1
		V17.9z M166.8,24.2h3.2c0.3,0,0.6,0,0.9-0.1s0.6-0.2,0.8-0.4s0.4-0.4,0.6-0.6s0.2-0.6,0.2-0.9c0-0.3-0.1-0.6-0.2-0.9
		s-0.3-0.5-0.6-0.7s-0.6-0.4-0.9-0.5s-0.8-0.2-1.2-0.2h-2.7V24.2z"/>
</g>
<rect x="476.9" y="181" class="st11" width="55.4" height="40.2"/>
<g class="st7">
	<path d="M486.5,202.4c0-0.5,0.1-1,0.2-1.5c0.1-0.5,0.3-0.9,0.6-1.2c0.3-0.3,0.6-0.6,1-0.8c0.4-0.2,0.9-0.3,1.4-0.3
		c0.5,0,1,0.1,1.4,0.3c0.4,0.2,0.7,0.5,1,0.8c0.3,0.3,0.5,0.7,0.6,1.2c0.1,0.5,0.2,0.9,0.2,1.5c0,0.5-0.1,1-0.2,1.4
		c-0.1,0.5-0.4,0.9-0.6,1.2s-0.6,0.6-1,0.8c-0.4,0.2-0.9,0.3-1.4,0.3c-0.5,0-1-0.1-1.4-0.3s-0.7-0.5-1-0.8c-0.3-0.3-0.5-0.7-0.6-1.2
		S486.5,202.9,486.5,202.4z M487.6,202.4c0,0.4,0,0.7,0.1,1.1c0.1,0.3,0.2,0.6,0.4,0.9c0.2,0.3,0.4,0.5,0.7,0.6s0.6,0.2,0.9,0.2
		c0.3,0,0.6-0.1,0.9-0.2c0.3-0.2,0.5-0.4,0.7-0.6c0.2-0.3,0.3-0.6,0.4-0.9s0.2-0.7,0.2-1.1s-0.1-0.7-0.2-1.1
		c-0.1-0.3-0.2-0.6-0.4-0.9c-0.2-0.3-0.4-0.5-0.7-0.6c-0.3-0.2-0.6-0.2-0.9-0.2c-0.3,0-0.6,0.1-0.9,0.2c-0.3,0.2-0.5,0.4-0.7,0.6
		c-0.2,0.3-0.3,0.6-0.4,0.9C487.6,201.6,487.6,202,487.6,202.4z"/>
	<path d="M495,198.7v-1.6c0-0.2,0-0.4,0.1-0.6c0.1-0.2,0.2-0.3,0.4-0.4c0.2-0.1,0.3-0.2,0.6-0.3c0.2-0.1,0.5-0.1,0.7-0.1
		c0.2,0,0.3,0,0.5,0.1c0.2,0,0.4,0.1,0.6,0.2v0.9c-0.2-0.1-0.3-0.1-0.5-0.1s-0.3,0-0.5,0c-0.1,0-0.2,0-0.4,0c-0.1,0-0.2,0.1-0.3,0.1
		c-0.1,0.1-0.1,0.2-0.2,0.3c0,0.1-0.1,0.2-0.1,0.4v1.2h1.3v0.9h-1.3v6.3H495v-6.3h-1.1v-0.9H495z"/>
	<path d="M499.1,198.7v-1.6c0-0.2,0-0.4,0.1-0.6c0.1-0.2,0.2-0.3,0.4-0.4c0.2-0.1,0.3-0.2,0.6-0.3c0.2-0.1,0.5-0.1,0.7-0.1
		c0.2,0,0.3,0,0.5,0.1c0.2,0,0.4,0.1,0.6,0.2v0.9c-0.2-0.1-0.3-0.1-0.5-0.1s-0.3,0-0.5,0c-0.1,0-0.2,0-0.4,0c-0.1,0-0.2,0.1-0.3,0.1
		s-0.1,0.2-0.2,0.3c0,0.1-0.1,0.2-0.1,0.4v1.2h1.3v0.9h-1.3v6.3h-1.1v-6.3h-1.1v-0.9H499.1z"/>
	<path d="M503.3,203.8c0,0.3,0,0.5,0.1,0.7c0.1,0.2,0.2,0.3,0.3,0.4c0.1,0.1,0.3,0.2,0.5,0.2c0.2,0.1,0.4,0.1,0.7,0.1
		c0.2,0,0.4,0,0.6-0.1c0.2,0,0.4-0.1,0.6-0.2s0.3-0.2,0.4-0.3c0.1-0.1,0.2-0.3,0.2-0.6c0-0.2-0.1-0.4-0.2-0.5
		c-0.1-0.1-0.3-0.3-0.5-0.4c-0.2-0.1-0.4-0.2-0.7-0.3c-0.3-0.1-0.5-0.2-0.8-0.3c-0.3-0.1-0.5-0.2-0.8-0.3c-0.3-0.1-0.5-0.2-0.7-0.4
		c-0.2-0.2-0.4-0.3-0.5-0.6c-0.1-0.2-0.2-0.5-0.2-0.8c0-0.3,0.1-0.6,0.2-0.8c0.1-0.2,0.3-0.5,0.6-0.6c0.2-0.2,0.5-0.3,0.8-0.4
		c0.3-0.1,0.6-0.1,0.9-0.1c0.4,0,0.7,0,1,0.1c0.3,0.1,0.6,0.2,0.8,0.4s0.4,0.4,0.6,0.6c0.1,0.3,0.2,0.6,0.2,0.9h-1.1
		c0-0.2-0.1-0.4-0.2-0.5c-0.1-0.1-0.2-0.3-0.3-0.4s-0.3-0.2-0.5-0.2c-0.2,0-0.4-0.1-0.6-0.1c-0.2,0-0.4,0-0.6,0.1
		c-0.2,0.1-0.3,0.1-0.5,0.2s-0.2,0.2-0.3,0.3c-0.1,0.1-0.1,0.3-0.1,0.4c0,0.2,0.1,0.3,0.2,0.5c0.1,0.1,0.3,0.3,0.5,0.4
		s0.4,0.2,0.7,0.3c0.3,0.1,0.5,0.2,0.8,0.3s0.5,0.2,0.8,0.3s0.5,0.2,0.7,0.4c0.2,0.1,0.4,0.3,0.5,0.5c0.1,0.2,0.2,0.4,0.2,0.7
		c0,0.4-0.1,0.7-0.2,1s-0.4,0.5-0.6,0.7c-0.3,0.2-0.6,0.3-0.9,0.4s-0.7,0.1-1.1,0.1c-0.4,0-0.7,0-1-0.1s-0.6-0.2-0.9-0.4
		c-0.2-0.2-0.4-0.4-0.6-0.7s-0.2-0.6-0.2-1H503.3z"/>
	<path d="M510,202.5c0,0.3,0.1,0.7,0.2,1c0.1,0.3,0.3,0.6,0.5,0.9c0.2,0.2,0.4,0.5,0.7,0.6s0.5,0.2,0.9,0.2c1,0,1.7-0.5,2-1.4h1
		c-0.1,0.4-0.2,0.7-0.4,1c-0.2,0.3-0.4,0.5-0.7,0.7c-0.3,0.2-0.6,0.4-0.9,0.5c-0.3,0.1-0.7,0.2-1,0.2c-0.5,0-1-0.1-1.4-0.3
		c-0.4-0.2-0.7-0.5-1-0.9c-0.3-0.4-0.5-0.8-0.7-1.2c-0.2-0.5-0.2-1-0.2-1.5c0-0.5,0.1-0.9,0.2-1.4c0.2-0.4,0.4-0.8,0.7-1.2
		s0.6-0.6,1-0.8c0.4-0.2,0.9-0.3,1.4-0.3c0.5,0,0.9,0.1,1.3,0.3c0.4,0.2,0.7,0.4,1,0.8c0.3,0.3,0.5,0.7,0.6,1.1
		c0.1,0.4,0.2,0.9,0.2,1.4v0.4H510z M514.3,201.7c0-0.3-0.1-0.6-0.2-0.9s-0.2-0.5-0.4-0.7s-0.4-0.4-0.7-0.5s-0.6-0.2-0.9-0.2
		c-0.3,0-0.6,0.1-0.8,0.2s-0.5,0.3-0.7,0.5c-0.2,0.2-0.3,0.4-0.4,0.7s-0.2,0.5-0.2,0.8H514.3z"/>
	<path d="M518.4,196.7v2h1.3v0.9h-1.3v4.8c0,0.2,0,0.3,0.1,0.4c0,0.1,0.1,0.2,0.2,0.3c0.1,0.1,0.2,0.1,0.2,0.1c0.1,0,0.2,0,0.3,0
		c0.1,0,0.3,0,0.4,0c0.1,0,0.3-0.1,0.4-0.1v0.9c-0.1,0-0.3,0.1-0.5,0.1c-0.2,0-0.4,0.1-0.6,0.1c-0.2,0-0.4,0-0.5-0.1
		c-0.2,0-0.3-0.1-0.5-0.2c-0.1-0.1-0.3-0.3-0.4-0.4c-0.1-0.2-0.1-0.4-0.1-0.6v-5.1h-1.1v-0.9h1.1v-2H518.4z"/>
</g>
<rect x="310.8" y="181" class="st11" width="166.1" height="40.2"/>
<path d="M403.7,186.5"/>
<g class="st7">
	<path d="M328,197.6h1.1v1.1c0.1-0.2,0.3-0.4,0.4-0.5c0.2-0.2,0.3-0.3,0.5-0.4s0.4-0.2,0.6-0.2c0.2-0.1,0.4-0.1,0.6-0.1
		c0.5,0,0.9,0.1,1.3,0.3c0.4,0.2,0.7,0.5,1,0.8c0.3,0.3,0.5,0.7,0.6,1.2s0.2,0.9,0.2,1.5s-0.1,1-0.2,1.5c-0.1,0.5-0.3,0.9-0.6,1.2
		c-0.3,0.3-0.6,0.6-1,0.8c-0.4,0.2-0.8,0.3-1.3,0.3c-0.2,0-0.4,0-0.6-0.1c-0.2-0.1-0.4-0.1-0.6-0.2c-0.2-0.1-0.4-0.2-0.5-0.4
		c-0.2-0.2-0.3-0.3-0.5-0.5v4H328V197.6z M329.1,201.4c0,0.4,0.1,0.7,0.2,1s0.3,0.6,0.4,0.8c0.2,0.2,0.4,0.4,0.6,0.6
		c0.3,0.1,0.5,0.2,0.8,0.2c0.3,0,0.6-0.1,0.8-0.2c0.3-0.2,0.5-0.4,0.6-0.6s0.3-0.6,0.4-0.9c0.1-0.3,0.1-0.7,0.1-1.1s0-0.8-0.1-1.1
		c-0.1-0.3-0.2-0.6-0.4-0.9c-0.2-0.3-0.4-0.5-0.6-0.6c-0.3-0.1-0.5-0.2-0.8-0.2c-0.3,0-0.6,0.1-0.8,0.2s-0.5,0.3-0.7,0.6
		c-0.2,0.3-0.3,0.6-0.4,0.9c-0.1,0.3-0.2,0.7-0.2,1.1V201.4z"/>
	<path d="M337,194.8v3.7c0.1-0.2,0.3-0.4,0.5-0.5s0.4-0.3,0.6-0.4c0.2-0.1,0.4-0.2,0.6-0.2c0.2,0,0.4-0.1,0.7-0.1
		c0.3,0,0.7,0.1,0.9,0.2c0.3,0.1,0.5,0.3,0.7,0.5c0.2,0.2,0.4,0.4,0.5,0.7c0.1,0.3,0.2,0.5,0.2,0.9v5.3h-1.1v-5.1
		c0-0.2,0-0.5-0.1-0.6c-0.1-0.2-0.2-0.3-0.3-0.4c-0.1-0.1-0.3-0.2-0.5-0.2c-0.2,0-0.4-0.1-0.6-0.1c-0.2,0-0.5,0.1-0.7,0.2
		s-0.5,0.2-0.7,0.4c-0.2,0.2-0.4,0.4-0.5,0.6c-0.1,0.2-0.2,0.5-0.2,0.8v4.5h-1.1v-10H337z"/>
	<path d="M346.1,203.5l2-6h1.1l-3.1,8.9c-0.1,0.3-0.2,0.5-0.3,0.7c-0.1,0.2-0.3,0.4-0.4,0.5s-0.3,0.2-0.4,0.3
		c-0.2,0.1-0.3,0.1-0.4,0.1c-0.1,0-0.3,0-0.4,0c-0.1,0-0.3-0.1-0.4-0.1v-0.9c0.1,0,0.2,0.1,0.3,0.1c0.1,0,0.2,0.1,0.3,0.1
		c0.1,0,0.2,0,0.3-0.1c0.1-0.1,0.2-0.2,0.3-0.4c0.1-0.2,0.2-0.4,0.3-0.7s0.2-0.6,0.3-0.9l-2.7-7.4h1.2L346.1,203.5z"/>
	<path d="M350.9,202.6c0,0.3,0,0.5,0.1,0.7c0.1,0.2,0.2,0.3,0.4,0.4c0.1,0.1,0.3,0.2,0.5,0.2c0.2,0.1,0.4,0.1,0.7,0.1
		c0.2,0,0.4,0,0.6-0.1c0.2,0,0.4-0.1,0.6-0.2c0.2-0.1,0.3-0.2,0.4-0.3c0.1-0.1,0.2-0.3,0.2-0.6c0-0.2-0.1-0.4-0.2-0.5
		c-0.1-0.1-0.3-0.3-0.5-0.4c-0.2-0.1-0.4-0.2-0.7-0.3c-0.3-0.1-0.5-0.2-0.8-0.3c-0.3-0.1-0.5-0.2-0.8-0.3c-0.3-0.1-0.5-0.2-0.7-0.4
		s-0.4-0.3-0.5-0.6c-0.1-0.2-0.2-0.5-0.2-0.8c0-0.3,0.1-0.6,0.2-0.8c0.1-0.2,0.3-0.5,0.6-0.6c0.2-0.2,0.5-0.3,0.8-0.4
		c0.3-0.1,0.6-0.1,0.9-0.1c0.4,0,0.7,0,1,0.1c0.3,0.1,0.6,0.2,0.8,0.4c0.2,0.2,0.4,0.4,0.6,0.6c0.1,0.3,0.2,0.6,0.2,0.9h-1.1
		c0-0.2-0.1-0.4-0.2-0.5c-0.1-0.1-0.2-0.3-0.3-0.4s-0.3-0.2-0.5-0.2c-0.2,0-0.4-0.1-0.6-0.1c-0.2,0-0.4,0-0.6,0.1
		c-0.2,0.1-0.3,0.1-0.4,0.2c-0.1,0.1-0.2,0.2-0.3,0.3c-0.1,0.1-0.1,0.3-0.1,0.4c0,0.2,0.1,0.3,0.2,0.5c0.1,0.1,0.3,0.3,0.5,0.4
		c0.2,0.1,0.4,0.2,0.7,0.3c0.3,0.1,0.5,0.2,0.8,0.3s0.5,0.2,0.8,0.3s0.5,0.2,0.7,0.4c0.2,0.1,0.4,0.3,0.5,0.5
		c0.1,0.2,0.2,0.4,0.2,0.7c0,0.4-0.1,0.7-0.2,1c-0.2,0.3-0.4,0.5-0.6,0.7s-0.6,0.3-0.9,0.4c-0.3,0.1-0.7,0.1-1.1,0.1
		c-0.4,0-0.7,0-1-0.1c-0.3-0.1-0.6-0.2-0.9-0.4c-0.2-0.2-0.4-0.4-0.6-0.7c-0.1-0.3-0.2-0.6-0.2-1H350.9z"/>
	<path d="M358.1,194.8v1.2h-1.1v-1.2H358.1z M358.1,197.6v7.3h-1.1v-7.3H358.1z"/>
	<path d="M364.7,199.8c-0.1-0.5-0.4-0.9-0.6-1.1c-0.3-0.2-0.7-0.3-1.1-0.3c-0.3,0-0.6,0.1-0.9,0.2c-0.3,0.1-0.5,0.3-0.6,0.6
		c-0.2,0.2-0.3,0.5-0.4,0.9c-0.1,0.3-0.1,0.7-0.1,1c0,0.4,0,0.7,0.1,1.1c0.1,0.4,0.2,0.7,0.4,1c0.2,0.3,0.4,0.5,0.6,0.7
		c0.3,0.2,0.5,0.3,0.9,0.3c0.3,0,0.5,0,0.7-0.1s0.4-0.2,0.5-0.4s0.3-0.3,0.4-0.5c0.1-0.2,0.2-0.4,0.2-0.7h1.2
		c-0.1,0.4-0.2,0.8-0.3,1.1c-0.2,0.3-0.4,0.6-0.6,0.8c-0.3,0.2-0.6,0.4-0.9,0.5c-0.3,0.1-0.7,0.2-1.1,0.2c-0.4,0-0.7-0.1-1-0.2
		c-0.3-0.1-0.5-0.3-0.8-0.4c-0.2-0.2-0.4-0.4-0.6-0.7c-0.2-0.3-0.3-0.5-0.4-0.8c-0.1-0.3-0.2-0.6-0.2-0.9c-0.1-0.3-0.1-0.6-0.1-0.9
		c0-0.5,0.1-1,0.2-1.4c0.1-0.4,0.4-0.8,0.6-1.2c0.3-0.3,0.6-0.6,1-0.8s0.8-0.3,1.3-0.3c0.4,0,0.8,0.1,1.1,0.2
		c0.3,0.1,0.6,0.3,0.8,0.5c0.2,0.2,0.4,0.5,0.6,0.7c0.2,0.3,0.3,0.6,0.3,0.9H364.7z"/>
	<path d="M373.3,204.9c-0.1,0-0.2,0-0.3,0.1s-0.2,0-0.3,0c-0.3,0-0.5-0.1-0.7-0.3c-0.2-0.2-0.3-0.6-0.3-1c-0.2,0.3-0.5,0.5-0.7,0.7
		s-0.4,0.3-0.7,0.4s-0.4,0.2-0.7,0.2c-0.2,0-0.4,0-0.7,0c-0.3,0-0.6,0-0.8-0.1c-0.3-0.1-0.5-0.2-0.7-0.4c-0.2-0.2-0.3-0.4-0.5-0.6
		c-0.1-0.2-0.2-0.5-0.2-0.8c0-0.3,0.1-0.6,0.2-0.8c0.1-0.2,0.3-0.4,0.5-0.6c0.2-0.2,0.5-0.3,0.8-0.4c0.3-0.1,0.6-0.2,0.9-0.3
		c0.3-0.1,0.6-0.2,0.9-0.2c0.3-0.1,0.5-0.2,0.8-0.3c0.2-0.1,0.4-0.2,0.5-0.3c0.1-0.1,0.2-0.3,0.2-0.5c0-0.2,0-0.4-0.1-0.6
		s-0.2-0.3-0.3-0.4c-0.1-0.1-0.3-0.2-0.5-0.3c-0.2-0.1-0.4-0.1-0.7-0.1c-0.2,0-0.4,0-0.6,0.1s-0.4,0.1-0.5,0.2s-0.3,0.2-0.4,0.4
		c-0.1,0.2-0.2,0.3-0.2,0.5h-1.1c0-0.4,0.1-0.7,0.3-0.9c0.2-0.3,0.4-0.5,0.6-0.7c0.3-0.2,0.5-0.3,0.9-0.4c0.3-0.1,0.7-0.1,1-0.1
		c0.4,0,0.7,0,1.1,0.1c0.3,0.1,0.6,0.2,0.9,0.4c0.3,0.2,0.5,0.4,0.6,0.7s0.2,0.6,0.2,1v3.8c0,0.2,0,0.3,0.1,0.4
		c0.1,0.1,0.2,0.2,0.3,0.2c0.1,0,0.1,0,0.2,0V204.9z M371.6,200.8c-0.1,0.2-0.3,0.3-0.6,0.4c-0.2,0.1-0.5,0.2-0.8,0.3
		s-0.5,0.2-0.8,0.2s-0.5,0.2-0.7,0.3c-0.2,0.1-0.4,0.2-0.5,0.4c-0.1,0.1-0.2,0.3-0.2,0.6c0,0.2,0,0.4,0.1,0.5
		c0.1,0.1,0.2,0.3,0.3,0.4s0.2,0.2,0.4,0.2c0.1,0,0.3,0.1,0.4,0.1c0.4,0,0.9-0.1,1.3-0.4c0.4-0.3,0.8-0.7,1.1-1.2V200.8z"/>
	<path d="M375.9,194.8v10h-1.1v-10H375.9z"/>
	<path d="M381.4,197.6h1.1v1.1c0.1-0.2,0.3-0.4,0.4-0.5c0.2-0.2,0.3-0.3,0.5-0.4s0.4-0.2,0.6-0.2c0.2-0.1,0.4-0.1,0.6-0.1
		c0.5,0,0.9,0.1,1.3,0.3c0.4,0.2,0.7,0.5,1,0.8c0.3,0.3,0.5,0.7,0.6,1.2s0.2,0.9,0.2,1.5s-0.1,1-0.2,1.5c-0.1,0.5-0.3,0.9-0.6,1.2
		c-0.3,0.3-0.6,0.6-1,0.8c-0.4,0.2-0.8,0.3-1.3,0.3c-0.2,0-0.4,0-0.6-0.1c-0.2-0.1-0.4-0.1-0.6-0.2c-0.2-0.1-0.4-0.2-0.5-0.4
		c-0.2-0.2-0.3-0.3-0.5-0.5v4h-1.1V197.6z M382.4,201.4c0,0.4,0.1,0.7,0.2,1s0.3,0.6,0.4,0.8c0.2,0.2,0.4,0.4,0.6,0.6
		c0.3,0.1,0.5,0.2,0.8,0.2c0.3,0,0.6-0.1,0.8-0.2c0.3-0.2,0.5-0.4,0.6-0.6s0.3-0.6,0.4-0.9c0.1-0.3,0.1-0.7,0.1-1.1s0-0.8-0.1-1.1
		c-0.1-0.3-0.2-0.6-0.4-0.9c-0.2-0.3-0.4-0.5-0.6-0.6c-0.3-0.1-0.5-0.2-0.8-0.2c-0.3,0-0.6,0.1-0.8,0.2s-0.5,0.3-0.7,0.6
		c-0.2,0.3-0.3,0.6-0.4,0.9c-0.1,0.3-0.2,0.7-0.2,1.1V201.4z"/>
	<path d="M395.1,204.9c-0.1,0-0.2,0-0.3,0.1s-0.2,0-0.3,0c-0.3,0-0.5-0.1-0.7-0.3c-0.2-0.2-0.3-0.6-0.3-1c-0.2,0.3-0.5,0.5-0.7,0.7
		s-0.4,0.3-0.7,0.4s-0.4,0.2-0.7,0.2c-0.2,0-0.4,0-0.7,0c-0.3,0-0.6,0-0.8-0.1c-0.3-0.1-0.5-0.2-0.7-0.4c-0.2-0.2-0.3-0.4-0.5-0.6
		c-0.1-0.2-0.2-0.5-0.2-0.8c0-0.3,0.1-0.6,0.2-0.8c0.1-0.2,0.3-0.4,0.5-0.6c0.2-0.2,0.5-0.3,0.8-0.4c0.3-0.1,0.6-0.2,0.9-0.3
		c0.3-0.1,0.6-0.2,0.9-0.2c0.3-0.1,0.5-0.2,0.8-0.3c0.2-0.1,0.4-0.2,0.5-0.3c0.1-0.1,0.2-0.3,0.2-0.5c0-0.2,0-0.4-0.1-0.6
		s-0.2-0.3-0.3-0.4c-0.1-0.1-0.3-0.2-0.5-0.3c-0.2-0.1-0.4-0.1-0.7-0.1c-0.2,0-0.4,0-0.6,0.1s-0.4,0.1-0.5,0.2s-0.3,0.2-0.4,0.4
		c-0.1,0.2-0.2,0.3-0.2,0.5h-1.1c0-0.4,0.1-0.7,0.3-0.9c0.2-0.3,0.4-0.5,0.6-0.7c0.3-0.2,0.5-0.3,0.9-0.4c0.3-0.1,0.7-0.1,1-0.1
		c0.4,0,0.7,0,1.1,0.1c0.3,0.1,0.6,0.2,0.9,0.4c0.3,0.2,0.5,0.4,0.6,0.7s0.2,0.6,0.2,1v3.8c0,0.2,0,0.3,0.1,0.4
		c0.1,0.1,0.2,0.2,0.3,0.2c0.1,0,0.1,0,0.2,0V204.9z M393.4,200.8c-0.1,0.2-0.3,0.3-0.6,0.4c-0.2,0.1-0.5,0.2-0.8,0.3
		s-0.5,0.2-0.8,0.2s-0.5,0.2-0.7,0.3c-0.2,0.1-0.4,0.2-0.5,0.4c-0.1,0.1-0.2,0.3-0.2,0.6c0,0.2,0,0.4,0.1,0.5
		c0.1,0.1,0.2,0.3,0.3,0.4s0.2,0.2,0.4,0.2c0.1,0,0.3,0.1,0.4,0.1c0.4,0,0.9-0.1,1.3-0.4c0.4-0.3,0.8-0.7,1.1-1.2V200.8z"/>
	<path d="M402.3,205c0,0.5-0.1,0.9-0.2,1.3c-0.2,0.4-0.4,0.7-0.7,0.9c-0.3,0.3-0.6,0.4-1,0.6c-0.4,0.1-0.7,0.2-1.1,0.2
		c-0.7,0-1.3-0.2-1.8-0.5c-0.5-0.3-0.9-0.9-1.1-1.7h1.1c0.2,0.4,0.4,0.8,0.7,1s0.7,0.3,1.1,0.3c0.3,0,0.5,0,0.8-0.2
		c0.2-0.1,0.4-0.2,0.6-0.4c0.2-0.2,0.3-0.4,0.4-0.6s0.2-0.5,0.2-0.8v-1.4c-0.1,0.2-0.3,0.4-0.4,0.6s-0.3,0.3-0.5,0.4
		s-0.3,0.2-0.5,0.2c-0.2,0-0.4,0.1-0.6,0.1c-0.5,0-0.9-0.1-1.3-0.3c-0.4-0.2-0.7-0.5-1-0.8s-0.5-0.8-0.6-1.2c-0.1-0.5-0.2-1-0.2-1.5
		s0.1-1,0.2-1.5c0.1-0.5,0.4-0.9,0.6-1.2c0.3-0.3,0.6-0.6,1-0.8c0.4-0.2,0.8-0.3,1.3-0.3c0.2,0,0.3,0,0.5,0s0.4,0.1,0.5,0.2
		c0.2,0.1,0.4,0.2,0.5,0.4c0.2,0.2,0.3,0.4,0.5,0.7v-1.1h1.1V205z M401.3,201.1c0-0.4-0.1-0.7-0.1-1c-0.1-0.3-0.2-0.6-0.4-0.9
		c-0.2-0.2-0.4-0.4-0.6-0.6c-0.2-0.1-0.5-0.2-0.8-0.2c-0.3,0-0.6,0.1-0.9,0.2c-0.3,0.1-0.5,0.3-0.7,0.6c-0.2,0.3-0.3,0.6-0.4,0.9
		c-0.1,0.3-0.2,0.7-0.2,1.1s0.1,0.8,0.2,1.1c0.1,0.3,0.3,0.7,0.4,0.9c0.2,0.3,0.4,0.5,0.7,0.6c0.3,0.2,0.5,0.2,0.9,0.2
		c0.3,0,0.6-0.1,0.8-0.2c0.2-0.1,0.4-0.3,0.6-0.6c0.2-0.3,0.3-0.5,0.4-0.9s0.1-0.7,0.1-1.1V201.1z"/>
	<path d="M405.1,201.4c0,0.3,0.1,0.7,0.2,1c0.1,0.3,0.3,0.6,0.5,0.9c0.2,0.2,0.4,0.5,0.7,0.6c0.3,0.2,0.5,0.2,0.8,0.2
		c1,0,1.7-0.5,2-1.4h1c-0.1,0.4-0.2,0.7-0.4,1s-0.4,0.5-0.7,0.7c-0.3,0.2-0.6,0.4-0.9,0.5c-0.3,0.1-0.7,0.2-1,0.2
		c-0.5,0-1-0.1-1.4-0.3c-0.4-0.2-0.7-0.5-1-0.9c-0.3-0.4-0.5-0.8-0.7-1.2c-0.2-0.5-0.2-1-0.2-1.5c0-0.5,0.1-0.9,0.2-1.4
		c0.2-0.4,0.4-0.8,0.7-1.2s0.6-0.6,1-0.8c0.4-0.2,0.9-0.3,1.4-0.3c0.5,0,0.9,0.1,1.3,0.3c0.4,0.2,0.7,0.4,1,0.8
		c0.3,0.3,0.5,0.7,0.6,1.1c0.1,0.4,0.2,0.9,0.2,1.4v0.4H405.1z M409.3,200.6c0-0.3-0.1-0.6-0.2-0.9s-0.2-0.5-0.4-0.7
		s-0.4-0.4-0.7-0.5s-0.6-0.2-0.9-0.2c-0.3,0-0.6,0.1-0.8,0.2c-0.3,0.1-0.5,0.3-0.7,0.5c-0.2,0.2-0.3,0.4-0.4,0.7
		c-0.1,0.3-0.2,0.5-0.2,0.8H409.3z"/>
	<path d="M421.3,204.9c-0.1,0-0.2,0-0.3,0.1s-0.2,0-0.3,0c-0.3,0-0.5-0.1-0.7-0.3c-0.2-0.2-0.3-0.6-0.3-1c-0.2,0.3-0.5,0.5-0.7,0.7
		s-0.4,0.3-0.7,0.4s-0.4,0.2-0.7,0.2c-0.2,0-0.4,0-0.7,0c-0.3,0-0.6,0-0.8-0.1c-0.3-0.1-0.5-0.2-0.7-0.4c-0.2-0.2-0.3-0.4-0.5-0.6
		c-0.1-0.2-0.2-0.5-0.2-0.8c0-0.3,0.1-0.6,0.2-0.8c0.1-0.2,0.3-0.4,0.5-0.6c0.2-0.2,0.5-0.3,0.8-0.4c0.3-0.1,0.6-0.2,0.9-0.3
		c0.3-0.1,0.6-0.2,0.9-0.2c0.3-0.1,0.5-0.2,0.8-0.3c0.2-0.1,0.4-0.2,0.5-0.3c0.1-0.1,0.2-0.3,0.2-0.5c0-0.2,0-0.4-0.1-0.6
		s-0.2-0.3-0.3-0.4c-0.1-0.1-0.3-0.2-0.5-0.3c-0.2-0.1-0.4-0.1-0.7-0.1c-0.2,0-0.4,0-0.6,0.1s-0.4,0.1-0.5,0.2s-0.3,0.2-0.4,0.4
		c-0.1,0.2-0.2,0.3-0.2,0.5H415c0-0.4,0.1-0.7,0.3-0.9c0.2-0.3,0.4-0.5,0.6-0.7c0.3-0.2,0.5-0.3,0.9-0.4c0.3-0.1,0.7-0.1,1-0.1
		c0.4,0,0.7,0,1.1,0.1c0.3,0.1,0.6,0.2,0.9,0.4c0.3,0.2,0.5,0.4,0.6,0.7s0.2,0.6,0.2,1v3.8c0,0.2,0,0.3,0.1,0.4
		c0.1,0.1,0.2,0.2,0.3,0.2c0.1,0,0.1,0,0.2,0V204.9z M419.5,200.8c-0.1,0.2-0.3,0.3-0.6,0.4c-0.2,0.1-0.5,0.2-0.8,0.3
		s-0.5,0.2-0.8,0.2s-0.5,0.2-0.7,0.3c-0.2,0.1-0.4,0.2-0.5,0.4c-0.1,0.1-0.2,0.3-0.2,0.6c0,0.2,0,0.4,0.1,0.5
		c0.1,0.1,0.2,0.3,0.3,0.4s0.2,0.2,0.4,0.2c0.1,0,0.3,0.1,0.4,0.1c0.4,0,0.9-0.1,1.3-0.4c0.4-0.3,0.8-0.7,1.1-1.2V200.8z"/>
	<path d="M428.3,204.9h-1.1v-1.1c-0.2,0.4-0.5,0.7-0.9,0.9c-0.4,0.2-0.7,0.3-1.1,0.3c-0.5,0-0.9-0.1-1.3-0.3
		c-0.4-0.2-0.7-0.5-0.9-0.8c-0.2-0.3-0.4-0.7-0.6-1.2c-0.1-0.5-0.2-0.9-0.2-1.5c0-0.5,0.1-1,0.2-1.5s0.3-0.9,0.6-1.2
		c0.2-0.3,0.6-0.6,0.9-0.8s0.8-0.3,1.3-0.3c0.3,0,0.7,0.1,1,0.3c0.3,0.2,0.7,0.5,1,0.9v-3.8h1.1V204.9z M427.2,201.1
		c0-0.4-0.1-0.7-0.1-1c-0.1-0.3-0.2-0.6-0.4-0.9c-0.2-0.2-0.4-0.4-0.6-0.6s-0.5-0.2-0.8-0.2c-0.3,0-0.6,0.1-0.8,0.2
		s-0.5,0.4-0.6,0.6c-0.2,0.3-0.3,0.6-0.4,0.9c-0.1,0.3-0.1,0.7-0.1,1.1s0,0.8,0.1,1.1c0.1,0.3,0.2,0.6,0.4,0.9
		c0.2,0.3,0.4,0.5,0.6,0.6s0.5,0.2,0.8,0.2s0.6-0.1,0.8-0.2c0.2-0.1,0.4-0.3,0.6-0.6c0.2-0.3,0.3-0.5,0.4-0.9s0.1-0.7,0.1-1.1V201.1
		z"/>
	<path d="M436,204.9h-1.1v-1.1c-0.2,0.4-0.5,0.7-0.9,0.9s-0.7,0.3-1.1,0.3c-0.5,0-0.9-0.1-1.3-0.3s-0.7-0.5-0.9-0.8
		c-0.2-0.3-0.4-0.7-0.6-1.2c-0.1-0.5-0.2-0.9-0.2-1.5c0-0.5,0.1-1,0.2-1.5c0.1-0.5,0.3-0.9,0.6-1.2s0.6-0.6,0.9-0.8s0.8-0.3,1.3-0.3
		c0.3,0,0.7,0.1,1,0.3s0.7,0.5,1,0.9v-3.8h1.1V204.9z M434.9,201.1c0-0.4-0.1-0.7-0.2-1c-0.1-0.3-0.2-0.6-0.4-0.9
		c-0.2-0.2-0.4-0.4-0.6-0.6s-0.5-0.2-0.8-0.2c-0.3,0-0.6,0.1-0.8,0.2s-0.5,0.4-0.6,0.6c-0.2,0.3-0.3,0.6-0.4,0.9s-0.1,0.7-0.1,1.1
		s0,0.8,0.1,1.1c0.1,0.3,0.2,0.6,0.4,0.9c0.2,0.3,0.4,0.5,0.6,0.6s0.5,0.2,0.8,0.2s0.6-0.1,0.8-0.2s0.4-0.3,0.6-0.6
		c0.2-0.3,0.3-0.5,0.4-0.9c0.1-0.3,0.1-0.7,0.1-1.1V201.1z"/>
	<path d="M438.1,197.6h1.1l0,1.2c0.2-0.4,0.5-0.7,0.8-0.9c0.3-0.2,0.7-0.3,1.1-0.3c0,0,0.1,0,0.1,0s0.1,0,0.2,0c0.1,0,0.1,0,0.2,0
		c0.1,0,0.1,0,0.1,0v1.1c-0.1,0-0.2-0.1-0.4-0.1c-0.1,0-0.2,0-0.3,0c-0.3,0-0.5,0.1-0.8,0.2s-0.4,0.2-0.6,0.4s-0.3,0.4-0.3,0.6
		c-0.1,0.2-0.1,0.5-0.1,0.7v4.3h-1.1V197.6z"/>
	<path d="M443.5,201.4c0,0.3,0.1,0.7,0.2,1c0.1,0.3,0.3,0.6,0.5,0.9c0.2,0.2,0.4,0.5,0.7,0.6s0.5,0.2,0.9,0.2c1,0,1.7-0.5,2-1.4h1
		c-0.1,0.4-0.2,0.7-0.4,1s-0.4,0.5-0.7,0.7c-0.3,0.2-0.6,0.4-0.9,0.5c-0.3,0.1-0.7,0.2-1,0.2c-0.5,0-1-0.1-1.4-0.3
		c-0.4-0.2-0.7-0.5-1-0.9c-0.3-0.4-0.5-0.8-0.7-1.2c-0.2-0.5-0.2-1-0.2-1.5c0-0.5,0.1-0.9,0.2-1.4c0.2-0.4,0.4-0.8,0.7-1.2
		c0.3-0.3,0.6-0.6,1-0.8s0.9-0.3,1.4-0.3c0.5,0,0.9,0.1,1.3,0.3c0.4,0.2,0.7,0.4,1,0.8s0.5,0.7,0.6,1.1c0.1,0.4,0.2,0.9,0.2,1.4v0.4
		H443.5z M447.7,200.6c0-0.3-0.1-0.6-0.2-0.9c-0.1-0.3-0.2-0.5-0.4-0.7c-0.2-0.2-0.4-0.4-0.7-0.5s-0.6-0.2-0.9-0.2
		c-0.3,0-0.6,0.1-0.8,0.2c-0.3,0.1-0.5,0.3-0.7,0.5c-0.2,0.2-0.3,0.4-0.4,0.7s-0.2,0.5-0.2,0.8H447.7z"/>
	<path d="M450.8,202.6c0,0.3,0,0.5,0.1,0.7c0.1,0.2,0.2,0.3,0.3,0.4s0.3,0.2,0.5,0.2c0.2,0.1,0.4,0.1,0.7,0.1c0.2,0,0.4,0,0.6-0.1
		c0.2,0,0.4-0.1,0.6-0.2s0.3-0.2,0.4-0.3c0.1-0.1,0.2-0.3,0.2-0.6c0-0.2-0.1-0.4-0.2-0.5c-0.1-0.1-0.3-0.3-0.5-0.4s-0.4-0.2-0.7-0.3
		c-0.3-0.1-0.5-0.2-0.8-0.3c-0.3-0.1-0.5-0.2-0.8-0.3c-0.3-0.1-0.5-0.2-0.7-0.4c-0.2-0.2-0.4-0.3-0.5-0.6c-0.1-0.2-0.2-0.5-0.2-0.8
		c0-0.3,0.1-0.6,0.2-0.8c0.1-0.2,0.3-0.5,0.6-0.6c0.2-0.2,0.5-0.3,0.8-0.4c0.3-0.1,0.6-0.1,0.9-0.1c0.4,0,0.7,0,1,0.1
		c0.3,0.1,0.6,0.2,0.8,0.4c0.2,0.2,0.4,0.4,0.6,0.6c0.1,0.3,0.2,0.6,0.2,0.9H454c0-0.2-0.1-0.4-0.2-0.5c-0.1-0.1-0.2-0.3-0.3-0.4
		s-0.3-0.2-0.5-0.2c-0.2,0-0.4-0.1-0.6-0.1c-0.2,0-0.4,0-0.6,0.1c-0.2,0.1-0.3,0.1-0.5,0.2s-0.2,0.2-0.3,0.3
		c-0.1,0.1-0.1,0.3-0.1,0.4c0,0.2,0.1,0.3,0.2,0.5c0.1,0.1,0.3,0.3,0.5,0.4s0.4,0.2,0.7,0.3c0.3,0.1,0.5,0.2,0.8,0.3
		s0.5,0.2,0.8,0.3c0.3,0.1,0.5,0.2,0.7,0.4c0.2,0.1,0.4,0.3,0.5,0.5c0.1,0.2,0.2,0.4,0.2,0.7c0,0.4-0.1,0.7-0.2,1
		c-0.2,0.3-0.4,0.5-0.6,0.7c-0.3,0.2-0.6,0.3-0.9,0.4c-0.3,0.1-0.7,0.1-1.1,0.1c-0.4,0-0.7,0-1-0.1c-0.3-0.1-0.6-0.2-0.9-0.4
		c-0.2-0.2-0.4-0.4-0.6-0.7c-0.2-0.3-0.2-0.6-0.2-1H450.8z"/>
	<path d="M457.4,202.6c0,0.3,0,0.5,0.1,0.7c0.1,0.2,0.2,0.3,0.4,0.4c0.1,0.1,0.3,0.2,0.5,0.2c0.2,0.1,0.4,0.1,0.7,0.1
		c0.2,0,0.4,0,0.6-0.1c0.2,0,0.4-0.1,0.6-0.2c0.2-0.1,0.3-0.2,0.4-0.3c0.1-0.1,0.2-0.3,0.2-0.6c0-0.2-0.1-0.4-0.2-0.5
		c-0.1-0.1-0.3-0.3-0.5-0.4c-0.2-0.1-0.4-0.2-0.7-0.3c-0.3-0.1-0.5-0.2-0.8-0.3c-0.3-0.1-0.5-0.2-0.8-0.3c-0.3-0.1-0.5-0.2-0.7-0.4
		s-0.4-0.3-0.5-0.6c-0.1-0.2-0.2-0.5-0.2-0.8c0-0.3,0.1-0.6,0.2-0.8c0.1-0.2,0.3-0.5,0.6-0.6c0.2-0.2,0.5-0.3,0.8-0.4
		c0.3-0.1,0.6-0.1,0.9-0.1c0.4,0,0.7,0,1,0.1c0.3,0.1,0.6,0.2,0.8,0.4c0.2,0.2,0.4,0.4,0.6,0.6c0.1,0.3,0.2,0.6,0.2,0.9h-1.1
		c0-0.2-0.1-0.4-0.2-0.5c-0.1-0.1-0.2-0.3-0.3-0.4s-0.3-0.2-0.5-0.2c-0.2,0-0.4-0.1-0.6-0.1c-0.2,0-0.4,0-0.6,0.1
		c-0.2,0.1-0.3,0.1-0.4,0.2c-0.1,0.1-0.2,0.2-0.3,0.3c-0.1,0.1-0.1,0.3-0.1,0.4c0,0.2,0.1,0.3,0.2,0.5c0.1,0.1,0.3,0.3,0.5,0.4
		c0.2,0.1,0.4,0.2,0.7,0.3c0.3,0.1,0.5,0.2,0.8,0.3s0.5,0.2,0.8,0.3s0.5,0.2,0.7,0.4c0.2,0.1,0.4,0.3,0.5,0.5
		c0.1,0.2,0.2,0.4,0.2,0.7c0,0.4-0.1,0.7-0.2,1c-0.2,0.3-0.4,0.5-0.6,0.7s-0.6,0.3-0.9,0.4c-0.3,0.1-0.7,0.1-1.1,0.1
		c-0.4,0-0.7,0-1-0.1c-0.3-0.1-0.6-0.2-0.9-0.4c-0.2-0.2-0.4-0.4-0.6-0.7c-0.1-0.3-0.2-0.6-0.2-1H457.4z"/>
</g>
<rect x="36.5" y="294.5" class="st12" width="49.6" height="25.2"/>
<rect x="103.7" y="294.5" class="st12" width="49.6" height="25.2"/>
<rect x="175.9" y="294.5" class="st12" width="49.6" height="25.2"/>
<rect x="63.9" y="295" class="st10" width="5.8" height="24.2"/>
<rect x="143.4" y="295" class="st10" width="5.8" height="24.2"/>
<rect x="188.8" y="295" class="st10" width="5.8" height="24.2"/>
<g class="st7">
	<path class="st10" d="M119.9,350.5c0,0.6-0.2,1.2-0.5,1.7s-0.8,1-1.4,1.4c0.3,0.1,0.6,0.3,0.8,0.4s0.4,0.4,0.5,0.7s0.2,0.5,0.3,0.8
		s0.1,0.6,0.1,0.8v2c0,0.2,0.1,0.5,0.2,0.9s0.3,0.7,0.5,1h-2.5c-0.1-0.2-0.2-0.3-0.2-0.5s-0.1-0.3-0.1-0.5s0-0.3-0.1-0.5
		s0-0.3,0-0.4v-2.1c0-0.2,0-0.4-0.1-0.6s-0.2-0.4-0.3-0.5s-0.3-0.3-0.6-0.4s-0.5-0.2-0.9-0.2H112v5.6h-2.3v-13.6h5.8
		c0.7,0,1.3,0.1,1.9,0.4s1,0.5,1.4,0.9s0.7,0.8,0.8,1.3S119.9,350,119.9,350.5z M112,352.6h3.5c0.3,0,0.5-0.1,0.8-0.2
		s0.5-0.2,0.7-0.4s0.3-0.4,0.5-0.6s0.2-0.5,0.2-0.8c0-0.3-0.1-0.6-0.2-0.8s-0.2-0.5-0.4-0.7s-0.4-0.3-0.7-0.4s-0.5-0.2-0.8-0.2H112
		V352.6z"/>
	<path class="st10" d="M130,346.5l5,13.6h-2.4l-1.5-4h-4.9c-0.2,0.7-0.5,1.3-0.7,2s-0.5,1.3-0.7,2h-2.4l5-13.6H130z M128.7,349.3
		l-1.7,4.8h3.5L128.7,349.3z"/>
	<path class="st10" d="M140.2,346.5l3.8,10.7l3.9-10.7h2.6v13.6h-2.3v-9l-3.1,9h-2l-3.2-9v9h-2.3v-13.6H140.2z"/>
</g>
<g>
	<g>
		<polyline class="st13" points="227,88.2 399.3,88.2 399.3,173.9 		"/>
		<g>
			<polygon class="st14" points="399.3,181 395.3,171 399.3,173.4 403.4,171 			"/>
		</g>
	</g>
</g>
<g>
	<g>
		<polyline class="st13" points="54.9,221.1 54.9,260.3 67.6,260.3 67.6,289 		"/>
		<g>
			<polygon class="st14" points="63.9,286.2 67.6,287.8 71.3,286.2 67.6,295 			"/>
		</g>
	</g>
</g>
<g>
	<g>
		<line class="st15" x1="66.8" y1="319.6" x2="66.8" y2="321.1"/>
		<line class="st16" x1="66.8" y1="322.9" x2="66.8" y2="325.5"/>
		<polyline class="st15" points="66.8,326.4 66.8,327.9 68.3,327.9 		"/>
		<line class="st17" x1="71.2" y1="327.9" x2="92.9" y2="327.9"/>
		<polyline class="st15" points="94.3,327.9 95.8,327.9 95.8,326.4 		"/>
		<line class="st18" x1="95.8" y1="323.9" x2="95.8" y2="309.8"/>
		<polyline class="st15" points="95.8,308.6 95.8,307.1 97.3,307.1 		"/>
		<line class="st15" x1="101.4" y1="307.1" x2="102.9" y2="307.1"/>
	</g>
</g>
<g>
	<g>
		<polyline class="st13" points="109,221.1 109,261.1 146.4,261.1 146.4,288.5 		"/>
		<g>
			<polygon class="st14" points="142.7,285.7 146.4,287.3 150.1,285.7 146.4,294.5 			"/>
		</g>
	</g>
</g>
<g>
	<g>
		<line class="st15" x1="146.3" y1="319.6" x2="146.3" y2="321.1"/>
		<line class="st16" x1="146.3" y1="322.9" x2="146.3" y2="325.5"/>
		<polyline class="st15" points="146.3,326.4 146.3,327.9 147.8,327.9 		"/>
		<line class="st19" x1="150.8" y1="327.9" x2="167.1" y2="327.9"/>
		<polyline class="st15" points="168.6,327.9 170.1,327.9 170.1,326.4 		"/>
		<line class="st18" x1="170.1" y1="323.9" x2="170.1" y2="309.8"/>
		<polyline class="st15" points="170.1,308.6 170.1,307.1 171.6,307.1 		"/>
		<line class="st15" x1="174.4" y1="307.1" x2="175.9" y2="307.1"/>
	</g>
</g>
<g>
	<g>
		<polyline class="st13" points="163.3,221.1 163.3,261.1 191.7,261.1 191.7,288.5 		"/>
		<g>
			<polygon class="st14" points="188,285.7 191.7,287.3 195.4,285.7 191.7,294.5 			"/>
		</g>
	</g>
</g>
<g>
	<g>
		<polyline class="st20" points="191.7,319.6 191.7,327.9 399.3,327.9 399.3,227.1 		"/>
		<g>
			<polygon class="st10" points="403,229.9 399.3,228.4 395.6,229.9 399.3,221.1 			"/>
		</g>
	</g>
</g>
<g class="st7">
	<path d="M92.3,203.9v10.5h-1.1v-10.5H92.3z"/>
	<path d="M95.1,210.8c0,0.3,0.1,0.7,0.2,1s0.3,0.6,0.5,0.9s0.4,0.5,0.7,0.6c0.3,0.2,0.5,0.2,0.9,0.2c1,0,1.7-0.5,2.1-1.5h1
		c-0.1,0.4-0.2,0.7-0.4,1c-0.2,0.3-0.4,0.6-0.7,0.8c-0.3,0.2-0.6,0.4-0.9,0.5s-0.7,0.2-1,0.2c-0.5,0-1-0.1-1.4-0.3s-0.7-0.5-1-0.9
		c-0.3-0.4-0.5-0.8-0.7-1.3s-0.2-1-0.2-1.5c0-0.5,0.1-1,0.2-1.5s0.4-0.9,0.7-1.2c0.3-0.4,0.6-0.6,1-0.8c0.4-0.2,0.9-0.3,1.4-0.3
		c0.5,0,0.9,0.1,1.3,0.3s0.7,0.5,1,0.8s0.5,0.7,0.6,1.2c0.1,0.4,0.2,0.9,0.2,1.5v0.4H95.1z M99.3,209.9c0-0.3-0.1-0.6-0.2-0.9
		c-0.1-0.3-0.2-0.5-0.4-0.7c-0.2-0.2-0.4-0.4-0.7-0.5c-0.3-0.1-0.6-0.2-0.9-0.2c-0.3,0-0.6,0.1-0.8,0.2c-0.3,0.1-0.5,0.3-0.7,0.5
		c-0.2,0.2-0.3,0.5-0.4,0.7c-0.1,0.3-0.2,0.6-0.2,0.9H99.3z"/>
	<path d="M104.2,213.1l2.1-6.3h1.1l-2.6,7.6h-1.2l-2.6-7.6h1.1L104.2,213.1z"/>
	<path d="M109,210.8c0,0.3,0.1,0.7,0.2,1s0.3,0.6,0.5,0.9s0.4,0.5,0.7,0.6c0.3,0.2,0.5,0.2,0.9,0.2c1,0,1.7-0.5,2.1-1.5h1
		c-0.1,0.4-0.2,0.7-0.4,1c-0.2,0.3-0.4,0.6-0.7,0.8c-0.3,0.2-0.6,0.4-0.9,0.5s-0.7,0.2-1,0.2c-0.5,0-1-0.1-1.4-0.3s-0.7-0.5-1-0.9
		c-0.3-0.4-0.5-0.8-0.7-1.3s-0.2-1-0.2-1.5c0-0.5,0.1-1,0.2-1.5s0.4-0.9,0.7-1.2c0.3-0.4,0.6-0.6,1-0.8c0.4-0.2,0.9-0.3,1.4-0.3
		c0.5,0,0.9,0.1,1.3,0.3s0.7,0.5,1,0.8s0.5,0.7,0.6,1.2c0.1,0.4,0.2,0.9,0.2,1.5v0.4H109z M113.2,209.9c0-0.3-0.1-0.6-0.2-0.9
		c-0.1-0.3-0.2-0.5-0.4-0.7c-0.2-0.2-0.4-0.4-0.7-0.5c-0.3-0.1-0.6-0.2-0.9-0.2c-0.3,0-0.6,0.1-0.8,0.2c-0.3,0.1-0.5,0.3-0.7,0.5
		c-0.2,0.2-0.3,0.5-0.4,0.7c-0.1,0.3-0.2,0.6-0.2,0.9H113.2z"/>
	<path d="M117,203.9v10.5H116v-10.5H117z"/>
	<path d="M122.2,207.2c0-0.5,0.2-0.9,0.3-1.3c0.2-0.4,0.4-0.7,0.7-1s0.6-0.5,1-0.6c0.4-0.1,0.8-0.2,1.3-0.2c0.5,0,0.9,0.1,1.3,0.2
		c0.4,0.2,0.7,0.4,0.9,0.6c0.3,0.3,0.4,0.6,0.6,0.9c0.1,0.3,0.2,0.7,0.2,1.1c0,0.4-0.1,0.8-0.2,1.1c-0.1,0.3-0.3,0.6-0.6,0.9
		c-0.2,0.3-0.5,0.5-0.8,0.8c-0.3,0.2-0.6,0.5-1,0.7c-0.3,0.2-0.6,0.4-0.9,0.6c-0.3,0.2-0.5,0.4-0.7,0.6s-0.4,0.5-0.6,0.7
		s-0.3,0.5-0.4,0.8h5.2v1.1h-6.3v-1c0.1-0.4,0.3-0.8,0.5-1.1c0.2-0.3,0.5-0.7,0.8-1s0.6-0.6,0.9-0.8c0.3-0.3,0.6-0.5,0.9-0.7
		c0.3-0.2,0.5-0.4,0.8-0.6c0.3-0.2,0.5-0.4,0.7-0.6s0.4-0.4,0.5-0.7c0.1-0.2,0.2-0.5,0.2-0.7c0-0.4-0.1-0.7-0.2-0.9
		c-0.1-0.3-0.2-0.5-0.4-0.7c-0.2-0.2-0.4-0.3-0.6-0.4c-0.2-0.1-0.5-0.1-0.8-0.1c-0.3,0-0.6,0.1-0.9,0.2c-0.3,0.1-0.5,0.3-0.7,0.4
		s-0.4,0.4-0.5,0.7c-0.1,0.3-0.2,0.6-0.2,0.9H122.2z"/>
</g>
<g class="st7">
	<path d="M147.1,204.7v10h-1.1v-10H147.1z"/>
	<path d="M149.9,211.2c0,0.3,0.1,0.7,0.2,1c0.1,0.3,0.3,0.6,0.5,0.9s0.4,0.5,0.7,0.6c0.3,0.2,0.5,0.2,0.9,0.2c1,0,1.7-0.5,2-1.4h1
		c-0.1,0.4-0.2,0.7-0.4,1s-0.4,0.5-0.7,0.7c-0.3,0.2-0.6,0.4-0.9,0.5c-0.3,0.1-0.7,0.2-1,0.2c-0.5,0-1-0.1-1.4-0.3
		c-0.4-0.2-0.7-0.5-1-0.9c-0.3-0.4-0.5-0.8-0.7-1.2c-0.2-0.5-0.2-1-0.2-1.5c0-0.5,0.1-0.9,0.2-1.4c0.2-0.4,0.4-0.8,0.7-1.2
		c0.3-0.3,0.6-0.6,1-0.8c0.4-0.2,0.9-0.3,1.4-0.3c0.5,0,0.9,0.1,1.3,0.3s0.7,0.4,1,0.8c0.3,0.3,0.5,0.7,0.6,1.1
		c0.1,0.4,0.2,0.9,0.2,1.4v0.4H149.9z M154.1,210.4c0-0.3-0.1-0.6-0.2-0.9c-0.1-0.3-0.2-0.5-0.4-0.7c-0.2-0.2-0.4-0.4-0.7-0.5
		s-0.6-0.2-0.9-0.2c-0.3,0-0.6,0.1-0.8,0.2s-0.5,0.3-0.7,0.5c-0.2,0.2-0.3,0.4-0.4,0.7c-0.1,0.3-0.2,0.5-0.2,0.8H154.1z"/>
	<path d="M159.1,213.4l2.1-6h1.1l-2.6,7.3h-1.2l-2.6-7.3h1.1L159.1,213.4z"/>
	<path d="M163.8,211.2c0,0.3,0.1,0.7,0.2,1c0.1,0.3,0.3,0.6,0.5,0.9s0.4,0.5,0.7,0.6c0.3,0.2,0.5,0.2,0.9,0.2c1,0,1.7-0.5,2-1.4h1
		c-0.1,0.4-0.2,0.7-0.4,1s-0.4,0.5-0.7,0.7c-0.3,0.2-0.6,0.4-0.9,0.5c-0.3,0.1-0.7,0.2-1,0.2c-0.5,0-1-0.1-1.4-0.3
		c-0.4-0.2-0.7-0.5-1-0.9c-0.3-0.4-0.5-0.8-0.7-1.2c-0.2-0.5-0.2-1-0.2-1.5c0-0.5,0.1-0.9,0.2-1.4c0.2-0.4,0.4-0.8,0.7-1.2
		c0.3-0.3,0.6-0.6,1-0.8c0.4-0.2,0.9-0.3,1.4-0.3c0.5,0,0.9,0.1,1.3,0.3s0.7,0.4,1,0.8c0.3,0.3,0.5,0.7,0.6,1.1
		c0.1,0.4,0.2,0.9,0.2,1.4v0.4H163.8z M168.1,210.4c0-0.3-0.1-0.6-0.2-0.9c-0.1-0.3-0.2-0.5-0.4-0.7c-0.2-0.2-0.4-0.4-0.7-0.5
		s-0.6-0.2-0.9-0.2c-0.3,0-0.6,0.1-0.8,0.2s-0.5,0.3-0.7,0.5c-0.2,0.2-0.3,0.4-0.4,0.7c-0.1,0.3-0.2,0.5-0.2,0.8H168.1z"/>
	<path d="M171.8,204.7v10h-1.1v-10H171.8z"/>
	<path d="M181.2,214.7v-8c-0.2,0.4-0.5,0.7-0.7,0.9c-0.2,0.2-0.5,0.4-0.8,0.6c-0.3,0.1-0.6,0.2-0.9,0.3c-0.3,0.1-0.7,0.1-1,0.1v-1
		c0.4,0,0.7,0,1-0.1c0.3-0.1,0.6-0.2,0.8-0.3c0.2-0.1,0.5-0.3,0.6-0.5c0.2-0.2,0.3-0.4,0.5-0.6c0.1-0.2,0.2-0.4,0.3-0.5
		c0.1-0.2,0.1-0.3,0.1-0.5h1.1v9.7H181.2z"/>
</g>
<polyline class="st20" points="53.6,176 53.6,89.7 89.2,89.7 "/>
<g class="st7">
	<path class="st10" d="M304.7,70.4v1.3h-2.8v7.6h-1.5v-7.6h-2.8v-1.3H304.7z"/>
	<path class="st10" d="M307.9,70.4V78h4.3v1.3h-5.8v-8.9H307.9z"/>
	<path class="st10" d="M313.7,70.4h3.6c0.4,0,0.8,0.1,1.1,0.2c0.3,0.1,0.6,0.3,0.8,0.5c0.2,0.2,0.4,0.4,0.5,0.7
		c0.1,0.3,0.2,0.5,0.2,0.8c0,0.4-0.1,0.7-0.3,1s-0.4,0.6-0.8,0.9c0.3,0.1,0.5,0.3,0.7,0.4c0.2,0.2,0.3,0.3,0.5,0.5
		c0.1,0.2,0.2,0.4,0.3,0.6c0.1,0.2,0.1,0.4,0.1,0.6c0,0.4-0.1,0.7-0.2,1c-0.2,0.3-0.4,0.6-0.6,0.8s-0.6,0.4-0.9,0.5
		c-0.3,0.1-0.7,0.2-1,0.2h-4V70.4z M315.2,73.9h1.9c0.2,0,0.4,0,0.6-0.1s0.3-0.2,0.5-0.3s0.2-0.2,0.3-0.4c0.1-0.2,0.1-0.3,0.1-0.5
		c0-0.2,0-0.3-0.1-0.4s-0.1-0.2-0.2-0.3s-0.2-0.2-0.4-0.2c-0.2-0.1-0.3-0.1-0.6-0.1h-2V73.9z M315.2,78h2.1c0.2,0,0.4,0,0.6-0.1
		s0.4-0.1,0.5-0.2c0.2-0.1,0.3-0.2,0.4-0.4c0.1-0.2,0.1-0.4,0.1-0.6c0-0.2,0-0.4-0.1-0.6s-0.2-0.3-0.4-0.5c-0.2-0.1-0.4-0.2-0.6-0.3
		s-0.5-0.1-0.8-0.1h-1.8V78z"/>
	<path class="st10" d="M326.6,70.4V74h4v-3.7h1.5v8.9h-1.5v-4h-4v4h-1.5v-8.9H326.6z"/>
	<path class="st10" d="M335.4,70.4v1.5h-1.5v-1.5H335.4z M335.4,72.8v6.5h-1.5v-6.5H335.4z"/>
	<path class="st10" d="M338.7,71v1.8h1.2V74h-1.2v3.5c0,0.2,0,0.3,0.1,0.4c0.1,0.1,0.2,0.2,0.3,0.2c0,0,0.1,0,0.3,0s0.3-0.1,0.6-0.2
		v1.2c-0.3,0.1-0.5,0.2-0.7,0.2c-0.2,0-0.4,0-0.6,0c-0.2,0-0.4,0-0.6-0.1c-0.2-0.1-0.3-0.2-0.5-0.3c-0.1-0.1-0.2-0.3-0.3-0.5
		c-0.1-0.2-0.1-0.4-0.1-0.7V74h-0.9v-1.2h0.9V71H338.7z"/>
</g>
<g class="st7">
	<path class="st10" d="M309.6,338.6v1.3h-2.8v7.6h-1.5v-7.6h-2.8v-1.3H309.6z"/>
	<path class="st10" d="M312.7,338.6v7.6h4.3v1.3h-5.8v-8.9H312.7z"/>
	<path class="st10" d="M318.6,338.6h3.6c0.4,0,0.8,0.1,1.1,0.2c0.3,0.1,0.6,0.3,0.8,0.5c0.2,0.2,0.4,0.4,0.5,0.7
		c0.1,0.3,0.2,0.5,0.2,0.8c0,0.4-0.1,0.7-0.3,1s-0.4,0.6-0.8,0.9c0.3,0.1,0.5,0.3,0.7,0.4c0.2,0.2,0.3,0.3,0.5,0.5
		c0.1,0.2,0.2,0.4,0.3,0.6c0.1,0.2,0.1,0.4,0.1,0.6c0,0.4-0.1,0.7-0.2,1c-0.2,0.3-0.4,0.6-0.6,0.8s-0.6,0.4-0.9,0.5
		c-0.3,0.1-0.7,0.2-1,0.2h-4V338.6z M320.1,342.2h1.9c0.2,0,0.4,0,0.6-0.1s0.3-0.2,0.5-0.3s0.2-0.2,0.3-0.4c0.1-0.2,0.1-0.3,0.1-0.5
		c0-0.2,0-0.3-0.1-0.4s-0.1-0.2-0.2-0.3s-0.2-0.2-0.4-0.2c-0.2-0.1-0.3-0.1-0.6-0.1h-2V342.2z M320.1,346.2h2.1c0.2,0,0.4,0,0.6-0.1
		s0.4-0.1,0.5-0.2c0.2-0.1,0.3-0.2,0.4-0.4c0.1-0.2,0.1-0.4,0.1-0.6c0-0.2,0-0.4-0.1-0.6s-0.2-0.3-0.4-0.5c-0.2-0.1-0.4-0.2-0.6-0.3
		s-0.5-0.1-0.8-0.1h-1.8V346.2z"/>
	<path class="st10" d="M331.7,338.6l2.5,6.9l2.5-6.9h1.7v8.9h-1.5v-5.8l-2,5.8h-1.3l-2.1-5.9v5.9H330v-8.9H331.7z"/>
	<path class="st10" d="M341.7,338.6v1.5h-1.5v-1.5H341.7z M341.7,341v6.5h-1.5V341H341.7z"/>
	<path class="st10" d="M344.1,345.2c0,0.2,0,0.4,0.1,0.6s0.1,0.3,0.3,0.4c0.1,0.1,0.2,0.2,0.4,0.2c0.1,0,0.3,0.1,0.4,0.1
		c0.1,0,0.3,0,0.4,0s0.3-0.1,0.4-0.1c0.1-0.1,0.2-0.1,0.3-0.2s0.1-0.2,0.1-0.4c0-0.1,0-0.2-0.1-0.3c-0.1-0.1-0.2-0.2-0.3-0.2
		s-0.3-0.1-0.4-0.2c-0.2-0.1-0.3-0.1-0.5-0.2c-0.3-0.1-0.5-0.2-0.8-0.3c-0.3-0.1-0.5-0.2-0.7-0.4s-0.4-0.3-0.5-0.6
		c-0.1-0.2-0.2-0.5-0.2-0.8s0.1-0.6,0.2-0.8c0.1-0.2,0.3-0.4,0.5-0.6c0.2-0.2,0.5-0.3,0.8-0.3c0.3-0.1,0.6-0.1,0.9-0.1
		c0.4,0,0.7,0,1,0.1s0.6,0.2,0.8,0.4c0.2,0.2,0.4,0.4,0.5,0.7s0.2,0.6,0.2,0.9h-1.5c0-0.2-0.1-0.3-0.1-0.4c-0.1-0.1-0.1-0.2-0.2-0.3
		c-0.1-0.1-0.2-0.1-0.3-0.1c-0.1,0-0.2,0-0.4,0c-0.3,0-0.5,0.1-0.7,0.2s-0.2,0.2-0.2,0.4c0,0.1,0,0.2,0.1,0.3
		c0.1,0.1,0.2,0.2,0.3,0.2c0.1,0.1,0.3,0.1,0.4,0.2c0.2,0.1,0.3,0.1,0.5,0.2c0.3,0.1,0.5,0.2,0.8,0.3c0.3,0.1,0.5,0.2,0.7,0.4
		s0.4,0.3,0.5,0.5s0.2,0.4,0.2,0.7c0,0.4-0.1,0.7-0.2,0.9c-0.1,0.3-0.3,0.5-0.6,0.6c-0.2,0.2-0.5,0.3-0.9,0.4
		c-0.3,0.1-0.7,0.1-1,0.1c-0.3,0-0.7-0.1-1-0.2c-0.3-0.1-0.6-0.3-0.8-0.5c-0.2-0.2-0.4-0.5-0.6-0.8c-0.1-0.3-0.2-0.7-0.2-1.1H344.1z
		"/>
	<path class="st10" d="M349.9,345.2c0,0.2,0,0.4,0.1,0.6s0.1,0.3,0.3,0.4c0.1,0.1,0.2,0.2,0.4,0.2c0.1,0,0.3,0.1,0.4,0.1
		c0.1,0,0.3,0,0.4,0c0.1,0,0.3-0.1,0.4-0.1c0.1-0.1,0.2-0.1,0.3-0.2s0.1-0.2,0.1-0.4c0-0.1,0-0.2-0.1-0.3c-0.1-0.1-0.2-0.2-0.3-0.2
		c-0.1-0.1-0.3-0.1-0.4-0.2c-0.2-0.1-0.3-0.1-0.5-0.2c-0.3-0.1-0.5-0.2-0.8-0.3c-0.3-0.1-0.5-0.2-0.7-0.4s-0.4-0.3-0.5-0.6
		s-0.2-0.5-0.2-0.8s0.1-0.6,0.2-0.8c0.1-0.2,0.3-0.4,0.5-0.6c0.2-0.2,0.5-0.3,0.8-0.3s0.6-0.1,0.9-0.1c0.4,0,0.7,0,1,0.1
		s0.6,0.2,0.8,0.4c0.2,0.2,0.4,0.4,0.5,0.7c0.1,0.3,0.2,0.6,0.2,0.9h-1.5c0-0.2-0.1-0.3-0.1-0.4c-0.1-0.1-0.1-0.2-0.2-0.3
		c-0.1-0.1-0.2-0.1-0.3-0.1c-0.1,0-0.2,0-0.4,0c-0.3,0-0.5,0.1-0.7,0.2c-0.2,0.1-0.2,0.2-0.2,0.4c0,0.1,0,0.2,0.1,0.3
		c0.1,0.1,0.2,0.2,0.3,0.2s0.3,0.1,0.4,0.2c0.2,0.1,0.3,0.1,0.5,0.2c0.3,0.1,0.5,0.2,0.8,0.3c0.3,0.1,0.5,0.2,0.7,0.4
		s0.4,0.3,0.5,0.5c0.1,0.2,0.2,0.4,0.2,0.7c0,0.4-0.1,0.7-0.2,0.9c-0.1,0.3-0.3,0.5-0.6,0.6c-0.2,0.2-0.5,0.3-0.9,0.4
		c-0.3,0.1-0.7,0.1-1,0.1c-0.3,0-0.7-0.1-1-0.2c-0.3-0.1-0.6-0.3-0.8-0.5c-0.2-0.2-0.4-0.5-0.6-0.8c-0.1-0.3-0.2-0.7-0.2-1.1H349.9z
		"/>
</g>
</svg>
