<?xml version="1.0" encoding="utf-8"?>
<!-- Generator: Adobe Illustrator 25.0.1, SVG Export Plug-In . SVG Version: 6.00 Build 0)  -->
<svg version="1.1" id="图层_1" xmlns="http://www.w3.org/2000/svg" xmlns:xlink="http://www.w3.org/1999/xlink" x="0px" y="0px"
	 viewBox="0 0 959.7 532.4" enable-background="new 0 0 959.7 532.4" xml:space="preserve">
<path fill="none" stroke="#B3B3B3" stroke-width="2" stroke-miterlimit="10" d="M174.1,516.6h-41.3c-3,0-5.4-2.4-5.4-5.4V410.6
	c0-3,2.4-5.4,5.4-5.4h41.3c3,0,5.4,2.4,5.4,5.4v100.7C179.5,514.2,177.1,516.6,174.1,516.6z"/>
<path fill="none" stroke="#B3B3B3" stroke-width="2" stroke-miterlimit="10" d="M170.2,398.6h-35.1c-4.7,0-8.5-3.8-8.5-8.5V131.8
	c0-4.7,3.8-8.5,8.5-8.5h35.1c4.7,0,8.5,3.8,8.5,8.5v258.3C178.7,394.8,174.9,398.6,170.2,398.6z"/>
<rect x="144.4" y="44.3" fill="#FFFFFF" stroke="#808080" stroke-width="3.1601" stroke-miterlimit="10" width="315.5" height="477.1"/>
<g>
	<rect x="144.8" y="44.8" fill="#B3B3B3" width="314.6" height="72"/>
	<path d="M458.9,45.3v71H145.3v-71H458.9 M459.9,44.3H144.4v73h315.5V44.3L459.9,44.3z"/>
</g>
<g>
	<path d="M257,83.4c0,1.6-0.2,3-0.6,4.4c-0.4,1.3-1,2.5-1.8,3.4s-1.8,1.7-3,2.2s-2.5,0.8-4,0.8s-2.9-0.3-4-0.8s-2.2-1.3-3-2.2
		s-1.4-2.1-1.8-3.4s-0.6-2.8-0.6-4.4s0.2-3,0.6-4.3s1-2.4,1.8-3.4s1.8-1.7,3-2.2s2.5-0.8,4-0.8s2.9,0.3,4,0.8s2.2,1.3,3,2.2
		s1.4,2.1,1.8,3.4C256.8,80.3,257,81.8,257,83.4z M253.6,83.3c0-1.2-0.2-2.3-0.5-3.3s-0.7-1.8-1.3-2.4s-1.2-1.2-1.9-1.5
		s-1.5-0.5-2.4-0.5c-0.8,0-1.6,0.2-2.4,0.5s-1.4,0.8-1.9,1.5s-1,1.5-1.3,2.4s-0.5,2.1-0.5,3.3s0.2,2.3,0.5,3.3s0.7,1.8,1.3,2.5
		s1.2,1.2,1.9,1.6s1.5,0.5,2.4,0.5c0.8,0,1.6-0.2,2.4-0.5s1.4-0.9,1.9-1.6s1-1.5,1.3-2.5S253.6,84.6,253.6,83.3z"/>
	<path d="M263.3,86.5c0,0.7,0.2,1.3,0.4,1.9s0.6,1.1,0.9,1.5s0.8,0.7,1.4,1s1.1,0.3,1.7,0.3c0.6,0,1.1-0.1,1.6-0.2s1-0.3,1.4-0.6
		s0.7-0.6,0.9-1s0.4-0.9,0.4-1.6c0-0.6-0.2-1-0.5-1.4s-0.8-0.7-1.3-1s-1.2-0.5-1.9-0.8s-1.4-0.5-2.1-0.7s-1.4-0.5-2.1-0.8
		s-1.3-0.7-1.9-1.1s-1-1-1.3-1.6s-0.5-1.4-0.5-2.3c0-0.9,0.2-1.7,0.5-2.4s0.8-1.3,1.5-1.7s1.4-0.8,2.3-1.1s1.9-0.4,2.9-0.4
		c1.4,0,2.6,0.2,3.5,0.6s1.7,0.9,2.2,1.6s1,1.4,1.2,2.2s0.4,1.6,0.5,2.3h-3.5c-0.1-0.7-0.2-1.2-0.4-1.7s-0.5-0.9-0.9-1.2
		s-0.8-0.5-1.2-0.7s-0.9-0.2-1.4-0.2c-0.5,0-0.9,0-1.4,0.1s-0.8,0.2-1.2,0.5s-0.6,0.5-0.8,0.8s-0.3,0.7-0.3,1.2c0,0.6,0.2,1,0.5,1.4
		s0.8,0.7,1.3,1s1.2,0.5,1.9,0.8s1.4,0.5,2.2,0.7s1.5,0.5,2.2,0.8s1.3,0.7,1.9,1.1s1,1,1.3,1.6s0.5,1.4,0.5,2.2c0,1-0.2,2-0.6,2.7
		s-0.9,1.4-1.6,1.9s-1.5,0.9-2.4,1.2s-2,0.4-3.1,0.4c-1,0-2-0.2-2.9-0.5s-1.8-0.9-2.5-1.5s-1.4-1.5-1.8-2.4s-0.7-2-0.7-3.2H263.3z"
		/>
	<path d="M289.7,73.2v9l8.9-9h4.4l-8.3,8.2l8.5,12.2h-4.2l-6.7-9.8l-2.7,2.7v7.1h-3.5V73.2H289.7z"/>
	<path d="M308.4,87.1c0.1,0.5,0.2,1,0.4,1.5s0.4,0.9,0.7,1.3s0.7,0.7,1.1,0.9s0.8,0.3,1.3,0.3c0.8,0,1.6-0.2,2.1-0.7s1-1.2,1.3-2.1
		h3.2c-0.2,0.9-0.5,1.7-0.9,2.4s-0.9,1.3-1.5,1.8s-1.3,0.8-2,1.1s-1.5,0.4-2.2,0.4c-1.1,0-2-0.2-2.9-0.6s-1.6-1-2.2-1.7
		s-1.1-1.6-1.4-2.5s-0.5-2-0.5-3c0-1,0.2-2,0.5-2.9s0.8-1.7,1.4-2.4s1.3-1.3,2.2-1.7s1.8-0.6,2.9-0.6c1,0,2,0.2,2.8,0.6
		s1.6,0.9,2.2,1.5s1.1,1.4,1.4,2.3s0.5,1.9,0.5,2.9v1.3H308.4z M315.2,84.5c-0.1-0.5-0.2-0.9-0.4-1.3s-0.4-0.7-0.7-1s-0.6-0.5-1-0.6
		s-0.8-0.2-1.3-0.2c-0.4,0-0.8,0.1-1.2,0.2s-0.7,0.4-1,0.7s-0.5,0.6-0.7,1s-0.3,0.8-0.4,1.2H315.2z"/>
	<path d="M321.2,78.7h2.6l0.6,1.8c0.4-0.7,0.9-1.2,1.4-1.6s1-0.5,1.6-0.5c0.2,0,0.5,0,0.8,0.1s0.9,0.3,1.4,0.6v3
		c-0.4-0.1-0.7-0.2-0.9-0.3s-0.5-0.1-0.6-0.2s-0.3-0.1-0.4-0.1s-0.2,0-0.2,0c-0.4,0-0.8,0.1-1.2,0.3s-0.6,0.4-0.9,0.7
		s-0.4,0.6-0.5,1s-0.2,0.8-0.2,1.2v8.9h-3.5V78.7z"/>
	<path d="M331.1,78.7h3.5v1.8c0.6-0.7,1.3-1.3,2-1.6s1.4-0.5,2.2-0.5c0.8,0,1.4,0.1,2.1,0.3s1.1,0.5,1.5,1s0.7,0.9,1,1.5
		s0.3,1.2,0.3,1.9v10.5h-3.5v-9.9c0-0.4-0.1-0.7-0.2-1s-0.3-0.5-0.4-0.7s-0.4-0.4-0.7-0.5s-0.5-0.2-0.8-0.2c-0.5,0-0.9,0.1-1.3,0.3
		s-0.8,0.4-1.1,0.8s-0.6,0.7-0.8,1.1s-0.3,0.8-0.3,1.3v8.8h-3.5V78.7z"/>
	<path d="M349.9,87.1c0.1,0.5,0.2,1,0.4,1.5s0.4,0.9,0.7,1.3s0.7,0.7,1.1,0.9s0.8,0.3,1.3,0.3c0.8,0,1.6-0.2,2.1-0.7
		c0.6-0.5,1-1.2,1.3-2.1h3.2c-0.2,0.9-0.5,1.7-0.9,2.4s-0.9,1.3-1.5,1.8s-1.3,0.8-2,1.1c-0.7,0.3-1.5,0.4-2.2,0.4
		c-1.1,0-2-0.2-2.9-0.6s-1.6-1-2.2-1.7s-1.1-1.6-1.4-2.5c-0.3-1-0.5-2-0.5-3c0-1,0.2-2,0.5-2.9c0.3-0.9,0.8-1.7,1.4-2.4
		s1.3-1.3,2.2-1.7c0.9-0.4,1.8-0.6,2.9-0.6c1,0,2,0.2,2.8,0.6s1.6,0.9,2.2,1.5s1.1,1.4,1.4,2.3s0.5,1.9,0.5,2.9v1.3H349.9z
		 M356.6,84.5c-0.1-0.5-0.2-0.9-0.4-1.3s-0.4-0.7-0.7-1s-0.6-0.5-1-0.6s-0.8-0.2-1.3-0.2c-0.4,0-0.8,0.1-1.2,0.2
		c-0.4,0.2-0.7,0.4-1,0.7c-0.3,0.3-0.5,0.6-0.7,1c-0.2,0.4-0.3,0.8-0.4,1.2H356.6z"/>
	<path d="M366,73.2v20.4h-3.5V73.2H366z"/>
</g>
<g>
	<rect x="144.7" y="479.8" fill="#FEE3DF" width="314.8" height="41.3"/>
	<path d="M459.2,480.1v40.6H145.1v-40.6H459.2 M459.9,479.4H144.4v42h315.5V479.4L459.9,479.4z"/>
</g>
<g>
	<rect x="144.7" y="439.1" fill="#FEE3DF" width="314.8" height="41.3"/>
	<path d="M459.2,439.4V480H145.1v-40.6H459.2 M459.9,438.7H144.4v42h315.5V438.7L459.9,438.7z"/>
</g>
<g>
	<rect x="144.7" y="398.9" fill="#FEE3DF" width="314.8" height="41.3"/>
	<path d="M459.2,399.3v40.6H145.1v-40.6H459.2 M459.9,398.6H144.4v42h315.5V398.6L459.9,398.6z"/>
</g>
<g>
	<rect x="144.7" y="360.5" fill="#E0EAFD" width="314.8" height="41.3"/>
	<path d="M459.2,360.9v40.6H145.1v-40.6H459.2 M459.9,360.1H144.4v42h315.5V360.1L459.9,360.1z"/>
</g>
<g>
	<path d="M281.6,371.1v6.2h6.8v-6.2h2.5v15h-2.5v-6.7h-6.8v6.7H279v-15H281.6z"/>
	<path d="M296,381.3c0,0.4,0.1,0.8,0.3,1.1c0.1,0.4,0.3,0.7,0.5,0.9c0.2,0.3,0.5,0.5,0.8,0.6c0.3,0.2,0.6,0.2,0.9,0.2
		c0.6,0,1.1-0.2,1.6-0.5c0.4-0.3,0.7-0.9,1-1.5h2.3c-0.1,0.7-0.4,1.2-0.7,1.7c-0.3,0.5-0.7,0.9-1.1,1.3c-0.4,0.4-0.9,0.6-1.4,0.8
		c-0.5,0.2-1.1,0.3-1.6,0.3c-0.8,0-1.5-0.2-2.1-0.5c-0.6-0.3-1.2-0.7-1.6-1.3c-0.4-0.5-0.8-1.1-1-1.9c-0.2-0.7-0.4-1.4-0.4-2.2
		c0-0.7,0.1-1.4,0.4-2.1c0.2-0.7,0.6-1.3,1-1.8c0.4-0.5,1-0.9,1.6-1.2s1.3-0.5,2.1-0.5c0.8,0,1.4,0.1,2.1,0.4
		c0.6,0.3,1.1,0.7,1.6,1.1c0.4,0.5,0.8,1.1,1,1.7c0.2,0.7,0.3,1.4,0.3,2.1v1H296z M300.9,379.4c0-0.3-0.1-0.7-0.3-0.9
		c-0.1-0.3-0.3-0.5-0.5-0.7s-0.5-0.4-0.8-0.5c-0.3-0.1-0.6-0.2-1-0.2c-0.3,0-0.6,0.1-0.9,0.2c-0.3,0.1-0.5,0.3-0.7,0.5
		c-0.2,0.2-0.4,0.5-0.5,0.7s-0.2,0.6-0.3,0.9H300.9z"/>
	<path d="M315.3,385.8c-0.2,0.1-0.4,0.2-0.5,0.3c-0.2,0.1-0.3,0.1-0.4,0.2c-0.1,0-0.2,0-0.3,0.1c-0.1,0-0.2,0-0.2,0
		c-0.3,0-0.5,0-0.7-0.1c-0.2-0.1-0.4-0.2-0.6-0.4s-0.3-0.3-0.4-0.5s-0.2-0.4-0.3-0.7c-0.3,0.3-0.6,0.6-0.9,0.8
		c-0.3,0.2-0.6,0.4-0.8,0.5s-0.6,0.2-0.8,0.3s-0.6,0.1-0.9,0.1c-0.5,0-1-0.1-1.4-0.2c-0.4-0.2-0.8-0.4-1.1-0.7
		c-0.3-0.3-0.6-0.6-0.7-1c-0.2-0.4-0.3-0.8-0.3-1.3c0-0.4,0.1-0.8,0.3-1.1c0.2-0.3,0.4-0.6,0.8-0.8c0.3-0.2,0.7-0.4,1.1-0.6
		c0.4-0.2,0.8-0.3,1.2-0.4c0.4-0.1,0.8-0.3,1.2-0.4c0.4-0.1,0.8-0.2,1.1-0.4c0.3-0.1,0.6-0.3,0.8-0.5c0.2-0.2,0.3-0.4,0.3-0.6
		c0-0.2-0.1-0.4-0.2-0.6s-0.3-0.3-0.5-0.4s-0.4-0.2-0.6-0.2s-0.4-0.1-0.7-0.1s-0.4,0-0.6,0.1s-0.4,0.2-0.6,0.3
		c-0.2,0.1-0.3,0.3-0.4,0.5c-0.1,0.2-0.2,0.4-0.2,0.7H305c0-0.6,0.2-1.2,0.5-1.6s0.6-0.9,1-1.2c0.4-0.3,0.9-0.5,1.4-0.7
		c0.5-0.2,1-0.2,1.6-0.2c0.6,0,1.1,0.1,1.7,0.2c0.5,0.1,1,0.3,1.4,0.6s0.7,0.6,1,1.1c0.2,0.4,0.4,1,0.4,1.6v5.3c0,0.1,0,0.3,0.1,0.4
		c0.1,0.1,0.2,0.2,0.4,0.2c0,0,0.1,0,0.2,0c0.1,0,0.3-0.1,0.5-0.2V385.8z M311.4,380.8c-0.2,0.1-0.4,0.2-0.6,0.3
		c-0.3,0.1-0.6,0.2-0.9,0.2c-0.3,0.1-0.6,0.2-0.9,0.3c-0.3,0.1-0.6,0.2-0.8,0.3c-0.3,0.1-0.5,0.3-0.6,0.4s-0.2,0.4-0.2,0.6
		c0,0.2,0,0.4,0.1,0.6c0.1,0.2,0.2,0.3,0.3,0.4c0.1,0.1,0.3,0.2,0.4,0.2s0.3,0.1,0.5,0.1c0.5,0,1-0.2,1.5-0.5c0.5-0.3,1-0.8,1.4-1.5
		V380.8z"/>
	<path d="M316.5,375.1h2.5v1.2c0.2-0.3,0.4-0.5,0.6-0.7c0.2-0.2,0.4-0.3,0.6-0.4s0.5-0.2,0.7-0.2c0.2,0,0.5-0.1,0.7-0.1
		c0.7,0,1.3,0.1,1.9,0.4c0.6,0.3,1,0.7,1.4,1.2c0.4,0.5,0.7,1.1,0.9,1.8c0.2,0.7,0.3,1.4,0.3,2.2c0,0.8-0.1,1.5-0.3,2.2
		c-0.2,0.7-0.5,1.3-0.8,1.8s-0.8,0.9-1.4,1.2c-0.5,0.3-1.2,0.5-1.9,0.5c-0.3,0-0.5,0-0.8-0.1c-0.3-0.1-0.5-0.2-0.7-0.3
		c-0.2-0.1-0.5-0.3-0.7-0.5s-0.4-0.4-0.6-0.7v5.4h-2.5V375.1z M319.1,380.7c0,0.5,0.1,0.9,0.2,1.3c0.1,0.4,0.3,0.8,0.4,1.1
		s0.4,0.6,0.7,0.7c0.3,0.2,0.6,0.3,0.9,0.3c0.4,0,0.7-0.1,1-0.3c0.3-0.2,0.5-0.4,0.7-0.8s0.3-0.7,0.4-1.1c0.1-0.4,0.2-0.9,0.2-1.4
		s-0.1-1-0.2-1.4c-0.1-0.4-0.2-0.8-0.4-1.1s-0.4-0.6-0.7-0.8c-0.3-0.2-0.6-0.3-1-0.3c-0.4,0-0.7,0.1-1,0.3c-0.3,0.2-0.5,0.4-0.7,0.8
		s-0.3,0.7-0.4,1.1c-0.1,0.4-0.2,0.9-0.2,1.4V380.7z"/>
</g>
<g>
	<rect x="144.7" y="117.1" fill="#DFF5E3" width="314.8" height="41.3"/>
	<path d="M459.2,117.4V158H145.1v-40.6H459.2 M459.9,116.7H144.4v42h315.5V116.7L459.9,116.7z"/>
</g>
<g>
	<rect x="144.7" y="264.9" fill="#FEF1CE" width="314.9" height="28.8"/>
	<path d="M459.3,265.2v28.2H145v-28.2H459.3 M459.9,264.6H144.4v29.3h315.5V264.6L459.9,264.6z"/>
</g>
<g>
	<path d="M279.2,140.8c0,0.5,0.1,1,0.3,1.4c0.2,0.4,0.4,0.8,0.7,1.1c0.3,0.3,0.6,0.5,1,0.7c0.4,0.2,0.8,0.3,1.3,0.3
		c0.4,0,0.8,0,1.2-0.1s0.7-0.2,1-0.4c0.3-0.2,0.5-0.4,0.7-0.8s0.3-0.7,0.3-1.1c0-0.4-0.1-0.8-0.4-1c-0.2-0.3-0.6-0.5-1-0.7
		c-0.4-0.2-0.9-0.4-1.4-0.6c-0.5-0.2-1-0.3-1.6-0.5c-0.5-0.2-1.1-0.4-1.6-0.6s-1-0.5-1.4-0.8c-0.4-0.3-0.7-0.7-1-1.2
		c-0.2-0.5-0.4-1-0.4-1.7c0-0.7,0.1-1.2,0.4-1.7s0.6-0.9,1.1-1.3c0.5-0.3,1-0.6,1.7-0.8c0.6-0.2,1.4-0.3,2.1-0.3
		c1,0,1.9,0.2,2.6,0.5c0.7,0.3,1.2,0.7,1.6,1.2c0.4,0.5,0.7,1,0.9,1.6c0.2,0.6,0.3,1.1,0.3,1.7h-2.6c0-0.5-0.1-0.9-0.3-1.2
		c-0.2-0.4-0.4-0.6-0.6-0.9c-0.3-0.2-0.6-0.4-0.9-0.5c-0.3-0.1-0.7-0.2-1.1-0.2c-0.3,0-0.7,0-1,0.1c-0.3,0.1-0.6,0.2-0.9,0.3
		c-0.3,0.2-0.5,0.4-0.6,0.6c-0.2,0.2-0.2,0.5-0.2,0.9c0,0.4,0.1,0.8,0.4,1c0.2,0.3,0.6,0.5,1,0.7c0.4,0.2,0.9,0.4,1.4,0.6
		c0.5,0.2,1,0.3,1.6,0.5s1.1,0.4,1.6,0.6c0.5,0.2,1,0.5,1.4,0.8c0.4,0.3,0.7,0.7,1,1.2s0.4,1,0.4,1.6c0,0.8-0.1,1.4-0.4,2
		c-0.3,0.6-0.7,1-1.2,1.4c-0.5,0.4-1.1,0.7-1.8,0.9c-0.7,0.2-1.4,0.3-2.3,0.3c-0.7,0-1.5-0.1-2.1-0.4c-0.7-0.3-1.3-0.6-1.9-1.1
		c-0.5-0.5-1-1.1-1.3-1.8c-0.3-0.7-0.5-1.5-0.5-2.3H279.2z"/>
	<path d="M293.5,132.1v3h2v2.1h-2v6c0,0.3,0.1,0.6,0.2,0.8c0.1,0.2,0.3,0.3,0.6,0.3c0.1,0,0.2,0,0.5,0c0.2,0,0.6-0.1,1-0.3v2
		c-0.4,0.2-0.9,0.3-1.3,0.3c-0.4,0-0.7,0.1-1,0.1c-0.3,0-0.7-0.1-1-0.2c-0.3-0.1-0.6-0.3-0.8-0.6c-0.2-0.2-0.4-0.5-0.6-0.9
		c-0.1-0.4-0.2-0.7-0.2-1.2v-6.2h-1.6v-2.1h1.6v-3H293.5z"/>
	<path d="M307,145.7c-0.2,0.1-0.4,0.2-0.5,0.3c-0.2,0.1-0.3,0.1-0.4,0.2c-0.1,0-0.2,0-0.3,0.1c-0.1,0-0.2,0-0.2,0
		c-0.3,0-0.5,0-0.7-0.1c-0.2-0.1-0.4-0.2-0.6-0.4c-0.2-0.2-0.3-0.3-0.4-0.5s-0.2-0.4-0.3-0.6c-0.3,0.3-0.6,0.6-0.9,0.8
		c-0.3,0.2-0.6,0.4-0.8,0.5s-0.6,0.2-0.8,0.3c-0.3,0-0.6,0.1-0.9,0.1c-0.5,0-1-0.1-1.4-0.2c-0.4-0.2-0.8-0.4-1.1-0.7
		c-0.3-0.3-0.6-0.6-0.7-1c-0.2-0.4-0.3-0.8-0.3-1.3c0-0.4,0.1-0.8,0.3-1.1c0.2-0.3,0.4-0.6,0.8-0.8c0.3-0.2,0.7-0.4,1.1-0.6
		c0.4-0.2,0.8-0.3,1.2-0.4c0.4-0.1,0.8-0.3,1.2-0.4c0.4-0.1,0.8-0.3,1.1-0.4c0.3-0.1,0.6-0.3,0.8-0.5c0.2-0.2,0.3-0.4,0.3-0.6
		c0-0.2-0.1-0.4-0.2-0.6c-0.1-0.2-0.3-0.3-0.5-0.4s-0.4-0.2-0.6-0.2s-0.4-0.1-0.7-0.1s-0.4,0-0.6,0.1c-0.2,0.1-0.4,0.2-0.6,0.3
		c-0.2,0.1-0.3,0.3-0.4,0.5c-0.1,0.2-0.2,0.4-0.2,0.7h-2.6c0-0.6,0.2-1.2,0.5-1.6c0.3-0.5,0.6-0.9,1-1.2c0.4-0.3,0.9-0.5,1.4-0.7
		c0.5-0.2,1-0.2,1.6-0.2c0.6,0,1.1,0.1,1.7,0.2c0.5,0.1,1,0.3,1.4,0.6s0.7,0.6,1,1.1c0.2,0.4,0.4,1,0.4,1.6v5.3c0,0.1,0,0.3,0.1,0.4
		c0.1,0.1,0.2,0.2,0.4,0.2c0,0,0.1,0,0.2,0c0.1,0,0.3-0.1,0.5-0.2V145.7z M303.2,140.8c-0.2,0.1-0.4,0.2-0.6,0.3
		c-0.3,0.1-0.6,0.2-0.9,0.2c-0.3,0.1-0.6,0.2-0.9,0.3c-0.3,0.1-0.6,0.2-0.8,0.3c-0.3,0.1-0.5,0.3-0.6,0.4c-0.2,0.2-0.2,0.4-0.2,0.6
		c0,0.2,0,0.4,0.1,0.6c0.1,0.2,0.2,0.3,0.3,0.4c0.1,0.1,0.3,0.2,0.4,0.2c0.2,0,0.3,0.1,0.5,0.1c0.5,0,1-0.2,1.5-0.5
		c0.5-0.3,1-0.8,1.4-1.5V140.8z"/>
	<path d="M314.7,139c-0.2-0.7-0.5-1.2-0.8-1.5c-0.3-0.3-0.8-0.5-1.3-0.5c-0.4,0-0.7,0.1-1,0.3c-0.3,0.2-0.6,0.4-0.8,0.8
		c-0.2,0.3-0.4,0.7-0.5,1.1c-0.1,0.4-0.2,0.8-0.2,1.3c0,0.5,0.1,0.9,0.2,1.4c0.1,0.5,0.3,0.9,0.5,1.2c0.2,0.4,0.5,0.6,0.8,0.8
		c0.3,0.2,0.6,0.3,1,0.3c0.3,0,0.5-0.1,0.8-0.2c0.2-0.1,0.4-0.3,0.6-0.5c0.2-0.2,0.3-0.5,0.4-0.8c0.1-0.3,0.2-0.6,0.3-1h2.6
		c-0.1,0.7-0.3,1.3-0.5,1.9s-0.6,1-1,1.4c-0.4,0.4-0.9,0.7-1.4,0.9c-0.6,0.2-1.2,0.3-1.8,0.3c-0.6,0-1.1-0.1-1.5-0.2
		c-0.5-0.2-0.9-0.4-1.2-0.6c-0.4-0.3-0.7-0.6-0.9-1c-0.3-0.4-0.5-0.8-0.7-1.2c-0.2-0.4-0.3-0.9-0.4-1.4c-0.1-0.5-0.1-1-0.1-1.4
		c0-0.8,0.1-1.5,0.4-2.2c0.2-0.7,0.6-1.3,1-1.8c0.4-0.5,1-0.9,1.6-1.1c0.6-0.3,1.3-0.4,2.1-0.4c0.7,0,1.3,0.1,1.8,0.3
		c0.5,0.2,1,0.5,1.4,0.9s0.7,0.8,1,1.3c0.3,0.5,0.4,1,0.6,1.6H314.7z"/>
	<path d="M324.4,139.3c0.7,1.1,1.3,2.2,2,3.4c0.7,1.1,1.4,2.3,2,3.4h-2.9l-2.9-5c-0.2,0.2-0.3,0.3-0.5,0.5c-0.1,0.1-0.3,0.3-0.4,0.4
		c-0.1,0.1-0.3,0.3-0.4,0.4v3.7h-2.5v-15h2.5v8l4.1-4h3.1L324.4,139.3z"/>
</g>
<g>
	<path d="M212.8,500.6c0,1,0.1,1.9,0.4,2.7c0.3,0.8,0.6,1.4,1,1.9c0.4,0.5,0.9,0.9,1.4,1.1c0.5,0.2,1.1,0.4,1.6,0.4
		c0.6,0,1.1-0.1,1.5-0.3s0.8-0.5,1.2-0.9c0.3-0.4,0.6-0.8,0.8-1.3c0.2-0.5,0.4-1,0.5-1.5h2.6c-0.2,0.9-0.4,1.6-0.8,2.4
		c-0.4,0.7-0.8,1.4-1.4,1.9c-0.6,0.5-1.2,1-1.9,1.3s-1.6,0.5-2.5,0.5c-1.1,0-2-0.2-2.9-0.5c-0.9-0.4-1.6-0.9-2.2-1.6
		c-0.6-0.7-1.1-1.5-1.4-2.5c-0.3-1-0.5-2.1-0.5-3.4c0-1,0.2-2,0.5-2.9c0.3-0.9,0.8-1.7,1.3-2.4s1.3-1.3,2.2-1.7
		c0.9-0.4,1.8-0.6,2.9-0.6c0.9,0,1.8,0.1,2.5,0.4s1.4,0.6,1.9,1.1c0.6,0.5,1,1,1.4,1.7s0.7,1.3,0.9,2.1h-2.6
		c-0.4-1.1-0.9-1.9-1.6-2.4s-1.5-0.8-2.5-0.8c-0.6,0-1.2,0.1-1.8,0.4c-0.5,0.3-1,0.7-1.4,1.2s-0.7,1.1-0.9,1.8
		S212.8,499.8,212.8,500.6z"/>
	<path d="M225.2,502.8c0-0.8,0.1-1.5,0.3-2.2c0.2-0.7,0.6-1.3,1-1.8c0.4-0.5,1-0.9,1.6-1.2c0.6-0.3,1.4-0.5,2.2-0.5s1.5,0.2,2.2,0.5
		c0.6,0.3,1.2,0.7,1.6,1.2c0.4,0.5,0.8,1.1,1,1.8c0.2,0.7,0.3,1.4,0.3,2.2c0,0.8-0.1,1.5-0.3,2.2c-0.2,0.7-0.6,1.3-1,1.8
		s-1,0.9-1.6,1.2c-0.6,0.3-1.4,0.4-2.2,0.4s-1.5-0.1-2.2-0.4c-0.6-0.3-1.2-0.7-1.6-1.2s-0.8-1.1-1-1.8
		C225.3,504.3,225.2,503.6,225.2,502.8z M227.7,502.8c0,0.5,0.1,0.9,0.2,1.4c0.1,0.4,0.3,0.8,0.5,1.1s0.5,0.6,0.8,0.8
		s0.7,0.3,1.1,0.3c0.4,0,0.8-0.1,1.1-0.3c0.3-0.2,0.6-0.4,0.8-0.8c0.2-0.3,0.4-0.7,0.5-1.1c0.1-0.4,0.2-0.9,0.2-1.4
		s-0.1-0.9-0.2-1.4c-0.1-0.4-0.3-0.8-0.5-1.1c-0.2-0.3-0.5-0.6-0.8-0.8c-0.3-0.2-0.7-0.3-1.1-0.3c-0.4,0-0.8,0.1-1.1,0.3
		c-0.3,0.2-0.6,0.4-0.8,0.8s-0.4,0.7-0.5,1.1C227.8,501.9,227.7,502.4,227.7,502.8z"/>
	<path d="M246.4,508.3h-2.5v-1.2c-0.2,0.3-0.4,0.5-0.6,0.7c-0.2,0.2-0.4,0.3-0.7,0.4c-0.2,0.1-0.5,0.2-0.7,0.2
		c-0.2,0-0.4,0.1-0.7,0.1c-0.7,0-1.3-0.1-1.9-0.4c-0.6-0.3-1-0.7-1.4-1.2c-0.4-0.5-0.7-1.1-0.9-1.8c-0.2-0.7-0.3-1.4-0.3-2.2
		c0-0.8,0.1-1.5,0.3-2.2s0.5-1.3,0.8-1.8c0.4-0.5,0.8-0.9,1.4-1.2c0.5-0.3,1.2-0.5,1.9-0.5c0.3,0,0.5,0,0.8,0.1
		c0.3,0.1,0.5,0.2,0.7,0.3c0.2,0.1,0.5,0.3,0.7,0.5c0.2,0.2,0.4,0.4,0.6,0.7v-5.4h2.5V508.3z M243.8,502.7c0-0.5-0.1-0.9-0.2-1.3
		c-0.1-0.4-0.3-0.8-0.4-1.1s-0.4-0.6-0.7-0.7c-0.3-0.2-0.6-0.3-0.9-0.3c-0.4,0-0.7,0.1-1,0.3c-0.3,0.2-0.5,0.4-0.7,0.8
		s-0.3,0.7-0.4,1.1c-0.1,0.4-0.2,0.9-0.2,1.4s0,1,0.2,1.4c0.1,0.4,0.2,0.8,0.4,1.1c0.2,0.3,0.4,0.6,0.7,0.8c0.3,0.2,0.6,0.3,1,0.3
		c0.4,0,0.7-0.1,1-0.3s0.5-0.4,0.7-0.8c0.2-0.3,0.3-0.7,0.4-1.1c0.1-0.4,0.2-0.9,0.2-1.4V502.7z"/>
	<path d="M250.9,503.5c0,0.4,0.1,0.8,0.3,1.1c0.1,0.4,0.3,0.7,0.5,0.9c0.2,0.3,0.5,0.5,0.8,0.6c0.3,0.2,0.6,0.2,0.9,0.2
		c0.6,0,1.1-0.2,1.6-0.5c0.4-0.3,0.7-0.8,1-1.5h2.3c-0.1,0.7-0.4,1.2-0.7,1.7c-0.3,0.5-0.7,0.9-1.1,1.3c-0.4,0.4-0.9,0.6-1.4,0.8
		c-0.5,0.2-1.1,0.3-1.6,0.3c-0.8,0-1.5-0.2-2.1-0.5c-0.6-0.3-1.2-0.7-1.6-1.3c-0.4-0.5-0.8-1.1-1-1.9c-0.2-0.7-0.4-1.4-0.4-2.2
		c0-0.7,0.1-1.4,0.4-2.1c0.2-0.7,0.6-1.3,1-1.8c0.4-0.5,1-0.9,1.6-1.2s1.3-0.5,2.1-0.5c0.8,0,1.4,0.1,2.1,0.4
		c0.6,0.3,1.1,0.6,1.6,1.1c0.4,0.5,0.8,1.1,1,1.7c0.2,0.7,0.3,1.4,0.3,2.1v1H250.9z M255.8,501.6c0-0.3-0.1-0.7-0.3-0.9
		c-0.1-0.3-0.3-0.5-0.5-0.7s-0.5-0.4-0.8-0.5c-0.3-0.1-0.6-0.2-1-0.2c-0.3,0-0.6,0.1-0.9,0.2c-0.3,0.1-0.5,0.3-0.7,0.5
		c-0.2,0.2-0.4,0.5-0.5,0.7s-0.2,0.6-0.3,0.9H255.8z"/>
</g>
<g>
	<path d="M213.1,452.5h5.8c1,0,2,0.2,2.8,0.6c0.8,0.4,1.5,0.9,2.1,1.6c0.6,0.7,1,1.5,1.3,2.4c0.3,0.9,0.5,1.9,0.5,2.9
		c0,1.1-0.2,2.1-0.5,3c-0.3,0.9-0.8,1.7-1.4,2.4c-0.6,0.7-1.3,1.2-2.1,1.6c-0.8,0.4-1.7,0.6-2.7,0.6h-5.8V452.5z M215.7,465.3h2.7
		c0.7,0,1.3-0.1,1.9-0.3s1.1-0.6,1.5-1s0.7-1,1-1.7s0.4-1.4,0.4-2.3c0-0.9-0.1-1.7-0.4-2.4c-0.2-0.7-0.6-1.2-1-1.7
		c-0.4-0.4-0.9-0.8-1.5-1s-1.2-0.3-1.9-0.3h-2.7V465.3z"/>
	<path d="M238.1,467.2c-0.2,0.1-0.4,0.2-0.5,0.3c-0.2,0.1-0.3,0.1-0.4,0.2c-0.1,0-0.2,0-0.3,0.1c-0.1,0-0.2,0-0.2,0
		c-0.3,0-0.5,0-0.7-0.1c-0.2-0.1-0.4-0.2-0.6-0.4s-0.3-0.3-0.4-0.5s-0.2-0.4-0.3-0.7c-0.3,0.3-0.6,0.6-0.9,0.8
		c-0.3,0.2-0.6,0.4-0.8,0.5s-0.6,0.2-0.8,0.3s-0.6,0.1-0.9,0.1c-0.5,0-1-0.1-1.4-0.2c-0.4-0.2-0.8-0.4-1.1-0.7
		c-0.3-0.3-0.6-0.6-0.7-1c-0.2-0.4-0.3-0.8-0.3-1.3c0-0.4,0.1-0.8,0.3-1.1c0.2-0.3,0.4-0.6,0.8-0.8c0.3-0.2,0.7-0.4,1.1-0.6
		c0.4-0.2,0.8-0.3,1.2-0.4c0.4-0.1,0.8-0.3,1.2-0.4c0.4-0.1,0.8-0.2,1.1-0.4c0.3-0.1,0.6-0.3,0.8-0.5c0.2-0.2,0.3-0.4,0.3-0.6
		c0-0.2-0.1-0.4-0.2-0.6s-0.3-0.3-0.5-0.4s-0.4-0.2-0.6-0.2s-0.4-0.1-0.7-0.1s-0.4,0-0.6,0.1s-0.4,0.2-0.6,0.3
		c-0.2,0.1-0.3,0.3-0.4,0.5c-0.1,0.2-0.2,0.4-0.2,0.7h-2.6c0-0.6,0.2-1.2,0.5-1.6s0.6-0.9,1-1.2c0.4-0.3,0.9-0.5,1.4-0.7
		c0.5-0.2,1-0.2,1.6-0.2c0.6,0,1.1,0.1,1.7,0.2c0.5,0.1,1,0.3,1.4,0.6s0.7,0.6,1,1.1c0.2,0.4,0.4,1,0.4,1.6v5.3c0,0.1,0,0.3,0.1,0.4
		c0.1,0.1,0.2,0.2,0.4,0.2c0,0,0.1,0,0.2,0c0.1,0,0.3-0.1,0.5-0.2V467.2z M234.2,462.2c-0.2,0.1-0.4,0.2-0.6,0.3
		c-0.3,0.1-0.6,0.2-0.9,0.2c-0.3,0.1-0.6,0.2-0.9,0.3c-0.3,0.1-0.6,0.2-0.8,0.3c-0.3,0.1-0.5,0.3-0.6,0.4s-0.2,0.4-0.2,0.6
		c0,0.2,0,0.4,0.1,0.6c0.1,0.2,0.2,0.3,0.3,0.4c0.1,0.1,0.3,0.2,0.4,0.2s0.3,0.1,0.5,0.1c0.5,0,1-0.2,1.5-0.5c0.5-0.3,1-0.8,1.4-1.5
		V462.2z"/>
	<path d="M242.7,453.5v3h2v2.1h-2v6c0,0.3,0.1,0.6,0.2,0.8c0.1,0.2,0.3,0.3,0.6,0.3c0.1,0,0.2,0,0.5,0s0.6-0.1,1-0.3v2
		c-0.4,0.2-0.9,0.3-1.3,0.3c-0.4,0-0.7,0.1-1,0.1c-0.3,0-0.7-0.1-1-0.2c-0.3-0.1-0.6-0.3-0.8-0.6c-0.2-0.2-0.4-0.5-0.6-0.9
		c-0.1-0.4-0.2-0.7-0.2-1.2v-6.2h-1.6v-2.1h1.6v-3H242.7z"/>
	<path d="M256.6,467.2c-0.2,0.1-0.4,0.2-0.5,0.3c-0.2,0.1-0.3,0.1-0.4,0.2c-0.1,0-0.2,0-0.3,0.1c-0.1,0-0.2,0-0.2,0
		c-0.3,0-0.5,0-0.7-0.1c-0.2-0.1-0.4-0.2-0.6-0.4s-0.3-0.3-0.4-0.5s-0.2-0.4-0.3-0.7c-0.3,0.3-0.6,0.6-0.9,0.8
		c-0.3,0.2-0.6,0.4-0.8,0.5s-0.6,0.2-0.8,0.3s-0.6,0.1-0.9,0.1c-0.5,0-1-0.1-1.4-0.2c-0.4-0.2-0.8-0.4-1.1-0.7
		c-0.3-0.3-0.6-0.6-0.7-1c-0.2-0.4-0.3-0.8-0.3-1.3c0-0.4,0.1-0.8,0.3-1.1c0.2-0.3,0.4-0.6,0.8-0.8c0.3-0.2,0.7-0.4,1.1-0.6
		c0.4-0.2,0.8-0.3,1.2-0.4c0.4-0.1,0.8-0.3,1.2-0.4c0.4-0.1,0.8-0.2,1.1-0.4c0.3-0.1,0.6-0.3,0.8-0.5c0.2-0.2,0.3-0.4,0.3-0.6
		c0-0.2-0.1-0.4-0.2-0.6s-0.3-0.3-0.5-0.4s-0.4-0.2-0.6-0.2s-0.4-0.1-0.7-0.1s-0.4,0-0.6,0.1s-0.4,0.2-0.6,0.3
		c-0.2,0.1-0.3,0.3-0.4,0.5c-0.1,0.2-0.2,0.4-0.2,0.7h-2.6c0-0.6,0.2-1.2,0.5-1.6s0.6-0.9,1-1.2c0.4-0.3,0.9-0.5,1.4-0.7
		c0.5-0.2,1-0.2,1.6-0.2c0.6,0,1.1,0.1,1.7,0.2c0.5,0.1,1,0.3,1.4,0.6s0.7,0.6,1,1.1c0.2,0.4,0.4,1,0.4,1.6v5.3c0,0.1,0,0.3,0.1,0.4
		c0.1,0.1,0.2,0.2,0.4,0.2c0,0,0.1,0,0.2,0c0.1,0,0.3-0.1,0.5-0.2V467.2z M252.7,462.2c-0.2,0.1-0.4,0.2-0.6,0.3
		c-0.3,0.1-0.6,0.2-0.9,0.2c-0.3,0.1-0.6,0.2-0.9,0.3c-0.3,0.1-0.6,0.2-0.8,0.3c-0.3,0.1-0.5,0.3-0.6,0.4s-0.2,0.4-0.2,0.6
		c0,0.2,0,0.4,0.1,0.6c0.1,0.2,0.2,0.3,0.3,0.4c0.1,0.1,0.3,0.2,0.4,0.2s0.3,0.1,0.5,0.1c0.5,0,1-0.2,1.5-0.5c0.5-0.3,1-0.8,1.4-1.5
		V462.2z"/>
</g>
<g>
	<path d="M214.6,415.2h6.1c0.7,0,1.3,0.1,1.9,0.3c0.6,0.2,1,0.5,1.4,0.8c0.4,0.3,0.7,0.7,0.9,1.2s0.3,0.9,0.3,1.4
		c0,0.6-0.1,1.2-0.4,1.8c-0.3,0.5-0.7,1-1.3,1.5c0.5,0.2,0.8,0.4,1.2,0.7s0.6,0.6,0.8,0.9c0.2,0.3,0.4,0.7,0.5,1s0.1,0.7,0.1,1.1
		c0,0.6-0.1,1.2-0.4,1.7s-0.6,1-1,1.4c-0.4,0.4-0.9,0.7-1.5,0.9c-0.6,0.2-1.2,0.3-1.8,0.3h-6.7V415.2z M217.2,421.1h3.2
		c0.4,0,0.7-0.1,1-0.2c0.3-0.1,0.6-0.3,0.8-0.5c0.2-0.2,0.4-0.4,0.5-0.7c0.1-0.3,0.2-0.5,0.2-0.8c0-0.3,0-0.5-0.1-0.7
		c-0.1-0.2-0.2-0.4-0.4-0.6c-0.2-0.2-0.4-0.3-0.7-0.4c-0.3-0.1-0.6-0.1-1-0.1h-3.4V421.1z M217.2,428h3.5c0.3,0,0.6,0,1-0.1
		c0.3-0.1,0.6-0.2,0.9-0.4c0.3-0.2,0.5-0.4,0.6-0.7c0.2-0.3,0.2-0.6,0.2-1c0-0.3-0.1-0.6-0.2-0.9s-0.4-0.6-0.6-0.8
		c-0.3-0.2-0.6-0.4-1-0.5c-0.4-0.1-0.9-0.2-1.4-0.2h-3V428z"/>
	<path d="M231,424.9c0,0.5,0.1,1,0.3,1.4c0.2,0.4,0.4,0.8,0.7,1.1c0.3,0.3,0.6,0.5,1,0.7c0.4,0.2,0.8,0.3,1.3,0.3
		c0.4,0,0.8,0,1.2-0.1s0.7-0.2,1-0.4c0.3-0.2,0.5-0.4,0.7-0.8s0.3-0.7,0.3-1.1c0-0.4-0.1-0.8-0.4-1c-0.2-0.3-0.6-0.5-1-0.7
		c-0.4-0.2-0.9-0.4-1.4-0.6s-1-0.3-1.6-0.5c-0.5-0.2-1.1-0.4-1.6-0.6s-1-0.5-1.4-0.8c-0.4-0.3-0.7-0.7-1-1.2s-0.4-1-0.4-1.7
		c0-0.7,0.1-1.2,0.4-1.7s0.6-0.9,1.1-1.3c0.5-0.3,1-0.6,1.7-0.8c0.6-0.2,1.4-0.3,2.1-0.3c1,0,1.9,0.2,2.6,0.5
		c0.7,0.3,1.2,0.7,1.6,1.2c0.4,0.5,0.7,1,0.9,1.6c0.2,0.6,0.3,1.1,0.3,1.7H237c0-0.5-0.1-0.9-0.3-1.2s-0.4-0.6-0.6-0.9
		s-0.6-0.4-0.9-0.5c-0.3-0.1-0.7-0.2-1.1-0.2c-0.3,0-0.7,0-1,0.1c-0.3,0.1-0.6,0.2-0.9,0.3c-0.3,0.2-0.5,0.4-0.6,0.6
		c-0.2,0.2-0.2,0.5-0.2,0.9c0,0.4,0.1,0.8,0.4,1c0.2,0.3,0.6,0.5,1,0.7c0.4,0.2,0.9,0.4,1.4,0.6c0.5,0.2,1,0.3,1.6,0.5
		s1.1,0.4,1.6,0.6s1,0.5,1.4,0.8c0.4,0.3,0.7,0.7,1,1.2s0.4,1,0.4,1.6c0,0.8-0.1,1.4-0.4,2c-0.3,0.6-0.7,1-1.2,1.4s-1.1,0.7-1.8,0.9
		c-0.7,0.2-1.4,0.3-2.3,0.3c-0.7,0-1.5-0.1-2.1-0.4c-0.7-0.3-1.3-0.6-1.9-1.1s-1-1.1-1.3-1.8c-0.3-0.7-0.5-1.5-0.5-2.3H231z"/>
	<path d="M244.9,424.9c0,0.5,0.1,1,0.3,1.4c0.2,0.4,0.4,0.8,0.7,1.1c0.3,0.3,0.6,0.5,1,0.7c0.4,0.2,0.8,0.3,1.3,0.3
		c0.4,0,0.8,0,1.2-0.1s0.7-0.2,1-0.4c0.3-0.2,0.5-0.4,0.7-0.8s0.3-0.7,0.3-1.1c0-0.4-0.1-0.8-0.4-1c-0.2-0.3-0.6-0.5-1-0.7
		c-0.4-0.2-0.9-0.4-1.4-0.6s-1-0.3-1.6-0.5c-0.5-0.2-1.1-0.4-1.6-0.6s-1-0.5-1.4-0.8c-0.4-0.3-0.7-0.7-1-1.2s-0.4-1-0.4-1.7
		c0-0.7,0.1-1.2,0.4-1.7s0.6-0.9,1.1-1.3c0.5-0.3,1-0.6,1.7-0.8c0.6-0.2,1.4-0.3,2.1-0.3c1,0,1.9,0.2,2.6,0.5
		c0.7,0.3,1.2,0.7,1.6,1.2c0.4,0.5,0.7,1,0.9,1.6c0.2,0.6,0.3,1.1,0.3,1.7h-2.6c0-0.5-0.1-0.9-0.3-1.2s-0.4-0.6-0.6-0.9
		s-0.6-0.4-0.9-0.5c-0.3-0.1-0.7-0.2-1.1-0.2c-0.3,0-0.7,0-1,0.1c-0.3,0.1-0.6,0.2-0.9,0.3c-0.3,0.2-0.5,0.4-0.6,0.6
		c-0.2,0.2-0.2,0.5-0.2,0.9c0,0.4,0.1,0.8,0.4,1c0.2,0.3,0.6,0.5,1,0.7c0.4,0.2,0.9,0.4,1.4,0.6c0.5,0.2,1,0.3,1.6,0.5
		s1.1,0.4,1.6,0.6s1,0.5,1.4,0.8c0.4,0.3,0.7,0.7,1,1.2s0.4,1,0.4,1.6c0,0.8-0.1,1.4-0.4,2c-0.3,0.6-0.7,1-1.2,1.4s-1.1,0.7-1.8,0.9
		c-0.7,0.2-1.4,0.3-2.3,0.3c-0.7,0-1.5-0.1-2.1-0.4c-0.7-0.3-1.3-0.6-1.9-1.1s-1-1.1-1.3-1.8c-0.3-0.7-0.5-1.5-0.5-2.3H244.9z"/>
</g>
<g>
	<path fill="#666666" d="M296,505.4v2.7h-2.9v-2.7H296z"/>
	<path fill="#666666" d="M301,494.2v3h2v2.1h-2v6c0,0.3,0.1,0.6,0.2,0.8s0.3,0.3,0.6,0.3c0.1,0,0.2,0,0.5,0c0.2,0,0.6-0.1,1-0.3v2
		c-0.4,0.2-0.9,0.3-1.3,0.3c-0.4,0-0.7,0.1-1,0.1c-0.3,0-0.7-0.1-1-0.2c-0.3-0.1-0.6-0.3-0.8-0.6c-0.2-0.2-0.4-0.5-0.6-0.9
		c-0.1-0.4-0.2-0.7-0.2-1.2v-6.2H297v-2.1h1.6v-3H301z"/>
	<path fill="#666666" d="M306.7,503.3c0,0.4,0.1,0.8,0.3,1.1c0.1,0.4,0.3,0.7,0.5,0.9c0.2,0.3,0.5,0.5,0.8,0.6
		c0.3,0.2,0.6,0.2,0.9,0.2c0.6,0,1.1-0.2,1.6-0.5c0.4-0.3,0.7-0.8,1-1.5h2.3c-0.1,0.7-0.4,1.2-0.7,1.7c-0.3,0.5-0.7,0.9-1.1,1.3
		c-0.4,0.4-0.9,0.6-1.4,0.8s-1.1,0.3-1.6,0.3c-0.8,0-1.5-0.2-2.1-0.5c-0.6-0.3-1.2-0.7-1.6-1.3c-0.4-0.5-0.8-1.1-1-1.9
		c-0.2-0.7-0.4-1.4-0.4-2.2c0-0.7,0.1-1.4,0.4-2.1c0.2-0.7,0.6-1.3,1-1.8c0.4-0.5,1-0.9,1.6-1.2s1.3-0.5,2.1-0.5
		c0.8,0,1.4,0.1,2.1,0.4c0.6,0.3,1.1,0.7,1.6,1.1c0.4,0.5,0.8,1.1,1,1.7c0.2,0.7,0.3,1.4,0.3,2.1v1H306.7z M311.7,501.4
		c0-0.3-0.1-0.7-0.3-0.9c-0.1-0.3-0.3-0.5-0.5-0.7c-0.2-0.2-0.5-0.4-0.8-0.5c-0.3-0.1-0.6-0.2-1-0.2c-0.3,0-0.6,0.1-0.9,0.2
		c-0.3,0.1-0.5,0.3-0.7,0.5c-0.2,0.2-0.4,0.5-0.5,0.7s-0.2,0.6-0.3,0.9H311.7z"/>
	<path fill="#666666" d="M321.4,502.7l3.8,5.4h-3l-2.3-3.3l-2.3,3.3h-3l3.8-5.4l-3.8-5.5h2.9l2.3,3.3l2.3-3.3h2.9L321.4,502.7z"/>
	<path fill="#666666" d="M329.3,494.2v3h2v2.1h-2v6c0,0.3,0.1,0.6,0.2,0.8s0.3,0.3,0.6,0.3c0.1,0,0.2,0,0.5,0c0.2,0,0.6-0.1,1-0.3v2
		c-0.4,0.2-0.9,0.3-1.3,0.3c-0.4,0-0.7,0.1-1,0.1c-0.3,0-0.7-0.1-1-0.2c-0.3-0.1-0.6-0.3-0.8-0.6c-0.2-0.2-0.4-0.5-0.6-0.9
		c-0.1-0.4-0.2-0.7-0.2-1.2v-6.2h-1.6v-2.1h1.6v-3H329.3z"/>
</g>
<g>
	<path fill="#666666" d="M293.6,465.7v2.7h-2.9v-2.7H293.6z"/>
	<path fill="#666666" d="M304.5,468.4H302v-1.2c-0.2,0.3-0.4,0.5-0.6,0.7c-0.2,0.2-0.4,0.3-0.7,0.4c-0.2,0.1-0.5,0.2-0.7,0.2
		c-0.2,0-0.4,0.1-0.7,0.1c-0.7,0-1.3-0.1-1.9-0.4s-1-0.7-1.4-1.2c-0.4-0.5-0.7-1.1-0.9-1.8c-0.2-0.7-0.3-1.4-0.3-2.2
		c0-0.8,0.1-1.5,0.3-2.2s0.5-1.3,0.8-1.8c0.4-0.5,0.8-0.9,1.4-1.2c0.5-0.3,1.2-0.5,1.9-0.5c0.3,0,0.5,0,0.8,0.1
		c0.3,0.1,0.5,0.2,0.7,0.3c0.2,0.1,0.5,0.3,0.7,0.5c0.2,0.2,0.4,0.4,0.6,0.7v-5.4h2.5V468.4z M302,462.8c0-0.5-0.1-0.9-0.2-1.3
		c-0.1-0.4-0.3-0.8-0.4-1.1c-0.2-0.3-0.4-0.6-0.7-0.7c-0.3-0.2-0.6-0.3-0.9-0.3c-0.4,0-0.7,0.1-1,0.3c-0.3,0.2-0.5,0.4-0.7,0.8
		s-0.3,0.7-0.4,1.1c-0.1,0.4-0.2,0.9-0.2,1.4s0,1,0.2,1.4c0.1,0.4,0.2,0.8,0.4,1.1c0.2,0.3,0.4,0.6,0.7,0.8c0.3,0.2,0.6,0.3,1,0.3
		c0.4,0,0.7-0.1,1-0.3s0.5-0.4,0.7-0.8c0.2-0.3,0.3-0.7,0.4-1.1c0.1-0.4,0.2-0.9,0.2-1.4V462.8z"/>
	<path fill="#666666" d="M316.9,468.1c-0.2,0.1-0.4,0.2-0.5,0.3c-0.2,0.1-0.3,0.1-0.4,0.2c-0.1,0-0.2,0-0.3,0.1c-0.1,0-0.2,0-0.2,0
		c-0.3,0-0.5,0-0.7-0.1c-0.2-0.1-0.4-0.2-0.6-0.4c-0.2-0.2-0.3-0.3-0.4-0.5c-0.1-0.2-0.2-0.4-0.3-0.7c-0.3,0.3-0.6,0.6-0.9,0.8
		c-0.3,0.2-0.6,0.4-0.8,0.5s-0.6,0.2-0.8,0.3s-0.6,0.1-0.9,0.1c-0.5,0-1-0.1-1.4-0.2c-0.4-0.2-0.8-0.4-1.1-0.7
		c-0.3-0.3-0.6-0.6-0.7-1c-0.2-0.4-0.3-0.8-0.3-1.3c0-0.4,0.1-0.8,0.3-1.1c0.2-0.3,0.4-0.6,0.8-0.8s0.7-0.4,1.1-0.6s0.8-0.3,1.2-0.4
		c0.4-0.1,0.8-0.3,1.2-0.4s0.8-0.3,1.1-0.4s0.6-0.3,0.8-0.5c0.2-0.2,0.3-0.4,0.3-0.6c0-0.2-0.1-0.4-0.2-0.6
		c-0.1-0.2-0.3-0.3-0.5-0.4c-0.2-0.1-0.4-0.2-0.6-0.2s-0.4-0.1-0.7-0.1s-0.4,0-0.6,0.1c-0.2,0.1-0.4,0.2-0.6,0.3
		c-0.2,0.1-0.3,0.3-0.4,0.5c-0.1,0.2-0.2,0.4-0.2,0.7h-2.6c0-0.6,0.2-1.2,0.5-1.6c0.3-0.5,0.6-0.9,1-1.2c0.4-0.3,0.9-0.5,1.4-0.7
		c0.5-0.2,1-0.2,1.6-0.2c0.6,0,1.1,0.1,1.7,0.2c0.5,0.1,1,0.3,1.4,0.6s0.7,0.6,1,1.1c0.2,0.4,0.4,1,0.4,1.6v5.3c0,0.1,0,0.3,0.1,0.4
		c0.1,0.1,0.2,0.2,0.4,0.2c0,0,0.1,0,0.2,0c0.1,0,0.3-0.1,0.5-0.2V468.1z M313.1,463.2c-0.2,0.1-0.4,0.2-0.6,0.3
		c-0.3,0.1-0.6,0.2-0.9,0.2c-0.3,0.1-0.6,0.2-0.9,0.3s-0.6,0.2-0.8,0.3c-0.3,0.1-0.5,0.3-0.6,0.4c-0.2,0.2-0.2,0.4-0.2,0.6
		c0,0.2,0,0.4,0.1,0.6c0.1,0.2,0.2,0.3,0.3,0.4s0.3,0.2,0.4,0.2c0.2,0,0.3,0.1,0.5,0.1c0.5,0,1-0.2,1.5-0.5c0.5-0.3,1-0.8,1.4-1.5
		V463.2z"/>
	<path fill="#666666" d="M321.3,454.5v3h2v2.1h-2v6c0,0.3,0.1,0.6,0.2,0.8s0.3,0.3,0.6,0.3c0.1,0,0.2,0,0.5,0c0.2,0,0.6-0.1,1-0.3v2
		c-0.4,0.2-0.9,0.3-1.3,0.3c-0.4,0-0.7,0.1-1,0.1c-0.3,0-0.7-0.1-1-0.2c-0.3-0.1-0.6-0.3-0.8-0.6c-0.2-0.2-0.4-0.5-0.6-0.9
		c-0.1-0.4-0.2-0.7-0.2-1.2v-6.2h-1.6v-2.1h1.6v-3H321.3z"/>
	<path fill="#666666" d="M334.9,468.1c-0.2,0.1-0.4,0.2-0.5,0.3c-0.2,0.1-0.3,0.1-0.4,0.2c-0.1,0-0.2,0-0.3,0.1c-0.1,0-0.2,0-0.2,0
		c-0.3,0-0.5,0-0.7-0.1c-0.2-0.1-0.4-0.2-0.6-0.4c-0.2-0.2-0.3-0.3-0.4-0.5c-0.1-0.2-0.2-0.4-0.3-0.7c-0.3,0.3-0.6,0.6-0.9,0.8
		c-0.3,0.2-0.6,0.4-0.8,0.5s-0.6,0.2-0.8,0.3s-0.6,0.1-0.9,0.1c-0.5,0-1-0.1-1.4-0.2c-0.4-0.2-0.8-0.4-1.1-0.7
		c-0.3-0.3-0.6-0.6-0.7-1c-0.2-0.4-0.3-0.8-0.3-1.3c0-0.4,0.1-0.8,0.3-1.1c0.2-0.3,0.4-0.6,0.8-0.8s0.7-0.4,1.1-0.6s0.8-0.3,1.2-0.4
		c0.4-0.1,0.8-0.3,1.2-0.4s0.8-0.3,1.1-0.4s0.6-0.3,0.8-0.5c0.2-0.2,0.3-0.4,0.3-0.6c0-0.2-0.1-0.4-0.2-0.6
		c-0.1-0.2-0.3-0.3-0.5-0.4c-0.2-0.1-0.4-0.2-0.6-0.2s-0.4-0.1-0.7-0.1s-0.4,0-0.6,0.1c-0.2,0.1-0.4,0.2-0.6,0.3
		c-0.2,0.1-0.3,0.3-0.4,0.5c-0.1,0.2-0.2,0.4-0.2,0.7h-2.6c0-0.6,0.2-1.2,0.5-1.6c0.3-0.5,0.6-0.9,1-1.2c0.4-0.3,0.9-0.5,1.4-0.7
		c0.5-0.2,1-0.2,1.6-0.2c0.6,0,1.1,0.1,1.7,0.2c0.5,0.1,1,0.3,1.4,0.6s0.7,0.6,1,1.1c0.2,0.4,0.4,1,0.4,1.6v5.3c0,0.1,0,0.3,0.1,0.4
		c0.1,0.1,0.2,0.2,0.4,0.2c0,0,0.1,0,0.2,0c0.1,0,0.3-0.1,0.5-0.2V468.1z M331,463.2c-0.2,0.1-0.4,0.2-0.6,0.3
		c-0.3,0.1-0.6,0.2-0.9,0.2c-0.3,0.1-0.6,0.2-0.9,0.3s-0.6,0.2-0.8,0.3c-0.3,0.1-0.5,0.3-0.6,0.4c-0.2,0.2-0.2,0.4-0.2,0.6
		c0,0.2,0,0.4,0.1,0.6c0.1,0.2,0.2,0.3,0.3,0.4s0.3,0.2,0.4,0.2c0.2,0,0.3,0.1,0.5,0.1c0.5,0,1-0.2,1.5-0.5c0.5-0.3,1-0.8,1.4-1.5
		V463.2z"/>
	<path fill="#666666" d="M353.4,465.7v2.7h-2.9v-2.7H353.4z"/>
	<path fill="#666666" d="M355.2,457.5h1.9l0.4,1.3c0.3-0.5,0.7-0.9,1-1.2c0.4-0.3,0.7-0.4,1.2-0.4c0.1,0,0.3,0,0.6,0.1
		c0.3,0.1,0.6,0.2,1,0.4v2.2c-0.3-0.1-0.5-0.2-0.7-0.2c-0.2-0.1-0.3-0.1-0.5-0.1c-0.1,0-0.2,0-0.3,0c-0.1,0-0.1,0-0.1,0
		c-0.3,0-0.6,0.1-0.8,0.2c-0.3,0.1-0.5,0.3-0.6,0.5c-0.2,0.2-0.3,0.5-0.4,0.8c-0.1,0.3-0.1,0.6-0.1,0.9v6.5h-2.5V457.5z"/>
	<path fill="#666666" d="M361.8,463c0-0.8,0.1-1.5,0.3-2.2c0.2-0.7,0.6-1.3,1-1.8c0.4-0.5,1-0.9,1.6-1.2c0.6-0.3,1.4-0.5,2.2-0.5
		s1.5,0.2,2.2,0.5c0.6,0.3,1.2,0.7,1.6,1.2c0.4,0.5,0.8,1.1,1,1.8c0.2,0.7,0.3,1.4,0.3,2.2c0,0.8-0.1,1.5-0.3,2.2
		c-0.2,0.7-0.6,1.3-1,1.8s-1,0.9-1.6,1.2c-0.6,0.3-1.4,0.4-2.2,0.4s-1.5-0.1-2.2-0.4c-0.6-0.3-1.2-0.7-1.6-1.2s-0.8-1.1-1-1.8
		C361.9,464.5,361.8,463.8,361.8,463z M364.3,463c0,0.5,0.1,0.9,0.2,1.4c0.1,0.4,0.3,0.8,0.5,1.1s0.5,0.6,0.8,0.8s0.7,0.3,1.1,0.3
		c0.4,0,0.8-0.1,1.1-0.3c0.3-0.2,0.6-0.4,0.8-0.8c0.2-0.3,0.4-0.7,0.5-1.1c0.1-0.4,0.2-0.9,0.2-1.4s-0.1-0.9-0.2-1.4
		c-0.1-0.4-0.3-0.8-0.5-1.1c-0.2-0.3-0.5-0.6-0.8-0.8c-0.3-0.2-0.7-0.3-1.1-0.3c-0.4,0-0.8,0.1-1.1,0.3c-0.3,0.2-0.6,0.4-0.8,0.8
		s-0.4,0.7-0.5,1.1C364.4,462,364.3,462.5,364.3,463z"/>
	<path fill="#666666" d="M383,468.4h-2.5v-1.2c-0.2,0.3-0.4,0.5-0.6,0.7c-0.2,0.2-0.4,0.3-0.7,0.4c-0.2,0.1-0.5,0.2-0.7,0.2
		c-0.2,0-0.4,0.1-0.7,0.1c-0.7,0-1.3-0.1-1.9-0.4s-1-0.7-1.4-1.2c-0.4-0.5-0.7-1.1-0.9-1.8c-0.2-0.7-0.3-1.4-0.3-2.2
		c0-0.8,0.1-1.5,0.3-2.2s0.5-1.3,0.8-1.8c0.4-0.5,0.8-0.9,1.4-1.2c0.5-0.3,1.2-0.5,1.9-0.5c0.3,0,0.5,0,0.8,0.1
		c0.3,0.1,0.5,0.2,0.7,0.3c0.2,0.1,0.5,0.3,0.7,0.5c0.2,0.2,0.4,0.4,0.6,0.7v-5.4h2.5V468.4z M380.4,462.8c0-0.5-0.1-0.9-0.2-1.3
		c-0.1-0.4-0.3-0.8-0.4-1.1c-0.2-0.3-0.4-0.6-0.7-0.7c-0.3-0.2-0.6-0.3-0.9-0.3c-0.4,0-0.7,0.1-1,0.3c-0.3,0.2-0.5,0.4-0.7,0.8
		s-0.3,0.7-0.4,1.1c-0.1,0.4-0.2,0.9-0.2,1.4s0,1,0.2,1.4c0.1,0.4,0.2,0.8,0.4,1.1c0.2,0.3,0.4,0.6,0.7,0.8c0.3,0.2,0.6,0.3,1,0.3
		c0.4,0,0.7-0.1,1-0.3s0.5-0.4,0.7-0.8c0.2-0.3,0.3-0.7,0.4-1.1c0.1-0.4,0.2-0.9,0.2-1.4V462.8z"/>
	<path fill="#666666" d="M395.4,468.1c-0.2,0.1-0.4,0.2-0.5,0.3c-0.2,0.1-0.3,0.1-0.4,0.2c-0.1,0-0.2,0-0.3,0.1c-0.1,0-0.2,0-0.2,0
		c-0.3,0-0.5,0-0.7-0.1s-0.4-0.2-0.6-0.4c-0.2-0.2-0.3-0.3-0.4-0.5c-0.1-0.2-0.2-0.4-0.3-0.7c-0.3,0.3-0.6,0.6-0.9,0.8
		c-0.3,0.2-0.6,0.4-0.8,0.5s-0.6,0.2-0.8,0.3s-0.6,0.1-0.9,0.1c-0.5,0-1-0.1-1.4-0.2c-0.4-0.2-0.8-0.4-1.1-0.7
		c-0.3-0.3-0.6-0.6-0.7-1c-0.2-0.4-0.3-0.8-0.3-1.3c0-0.4,0.1-0.8,0.3-1.1s0.4-0.6,0.8-0.8c0.3-0.2,0.7-0.4,1.1-0.6
		c0.4-0.2,0.8-0.3,1.2-0.4c0.4-0.1,0.8-0.3,1.2-0.4c0.4-0.1,0.8-0.3,1.1-0.4c0.3-0.1,0.6-0.3,0.8-0.5c0.2-0.2,0.3-0.4,0.3-0.6
		c0-0.2-0.1-0.4-0.2-0.6c-0.1-0.2-0.3-0.3-0.5-0.4c-0.2-0.1-0.4-0.2-0.6-0.2c-0.2,0-0.4-0.1-0.7-0.1s-0.4,0-0.6,0.1
		c-0.2,0.1-0.4,0.2-0.6,0.3s-0.3,0.3-0.4,0.5c-0.1,0.2-0.2,0.4-0.2,0.7h-2.6c0-0.6,0.2-1.2,0.5-1.6c0.3-0.5,0.6-0.9,1-1.2
		c0.4-0.3,0.9-0.5,1.4-0.7c0.5-0.2,1-0.2,1.6-0.2c0.6,0,1.1,0.1,1.7,0.2c0.5,0.1,1,0.3,1.4,0.6s0.7,0.6,1,1.1c0.2,0.4,0.4,1,0.4,1.6
		v5.3c0,0.1,0,0.3,0.1,0.4c0.1,0.1,0.2,0.2,0.4,0.2c0,0,0.1,0,0.2,0c0.1,0,0.3-0.1,0.5-0.2V468.1z M391.5,463.2
		c-0.2,0.1-0.4,0.2-0.6,0.3c-0.3,0.1-0.6,0.2-0.9,0.2c-0.3,0.1-0.6,0.2-0.9,0.3c-0.3,0.1-0.6,0.2-0.8,0.3c-0.3,0.1-0.5,0.3-0.6,0.4
		c-0.2,0.2-0.2,0.4-0.2,0.6c0,0.2,0,0.4,0.1,0.6c0.1,0.2,0.2,0.3,0.3,0.4c0.1,0.1,0.3,0.2,0.4,0.2c0.2,0,0.3,0.1,0.5,0.1
		c0.5,0,1-0.2,1.5-0.5c0.5-0.3,1-0.8,1.4-1.5V463.2z"/>
	<path fill="#666666" d="M399.7,454.5v3h2v2.1h-2v6c0,0.3,0.1,0.6,0.2,0.8c0.1,0.2,0.3,0.3,0.6,0.3c0.1,0,0.2,0,0.5,0
		c0.2,0,0.6-0.1,1-0.3v2c-0.4,0.2-0.9,0.3-1.3,0.3c-0.4,0-0.7,0.1-1,0.1c-0.3,0-0.7-0.1-1-0.2s-0.6-0.3-0.8-0.6
		c-0.2-0.2-0.4-0.5-0.6-0.9s-0.2-0.7-0.2-1.2v-6.2h-1.6v-2.1h1.6v-3H399.7z"/>
	<path fill="#666666" d="M413.3,468.1c-0.2,0.1-0.4,0.2-0.5,0.3c-0.2,0.1-0.3,0.1-0.4,0.2c-0.1,0-0.2,0-0.3,0.1c-0.1,0-0.2,0-0.2,0
		c-0.3,0-0.5,0-0.7-0.1c-0.2-0.1-0.4-0.2-0.6-0.4c-0.2-0.2-0.3-0.3-0.4-0.5c-0.1-0.2-0.2-0.4-0.3-0.7c-0.3,0.3-0.6,0.6-0.9,0.8
		c-0.3,0.2-0.6,0.4-0.8,0.5s-0.6,0.2-0.8,0.3s-0.6,0.1-0.9,0.1c-0.5,0-1-0.1-1.4-0.2c-0.4-0.2-0.8-0.4-1.1-0.7
		c-0.3-0.3-0.6-0.6-0.7-1s-0.3-0.8-0.3-1.3c0-0.4,0.1-0.8,0.3-1.1c0.2-0.3,0.4-0.6,0.8-0.8c0.3-0.2,0.7-0.4,1.1-0.6
		c0.4-0.2,0.8-0.3,1.2-0.4c0.4-0.1,0.8-0.3,1.2-0.4c0.4-0.1,0.8-0.3,1.1-0.4c0.3-0.1,0.6-0.3,0.8-0.5c0.2-0.2,0.3-0.4,0.3-0.6
		c0-0.2-0.1-0.4-0.2-0.6c-0.1-0.2-0.3-0.3-0.5-0.4c-0.2-0.1-0.4-0.2-0.6-0.2c-0.2,0-0.4-0.1-0.7-0.1s-0.4,0-0.6,0.1
		c-0.2,0.1-0.4,0.2-0.6,0.3c-0.2,0.1-0.3,0.3-0.4,0.5c-0.1,0.2-0.2,0.4-0.2,0.7H403c0-0.6,0.2-1.2,0.5-1.6c0.3-0.5,0.6-0.9,1-1.2
		s0.9-0.5,1.4-0.7c0.5-0.2,1-0.2,1.6-0.2c0.6,0,1.1,0.1,1.7,0.2c0.5,0.1,1,0.3,1.4,0.6s0.7,0.6,1,1.1c0.2,0.4,0.4,1,0.4,1.6v5.3
		c0,0.1,0,0.3,0.1,0.4c0.1,0.1,0.2,0.2,0.4,0.2c0,0,0.1,0,0.2,0c0.1,0,0.3-0.1,0.5-0.2V468.1z M409.4,463.2
		c-0.2,0.1-0.4,0.2-0.6,0.3s-0.6,0.2-0.9,0.2c-0.3,0.1-0.6,0.2-0.9,0.3c-0.3,0.1-0.6,0.2-0.8,0.3c-0.3,0.1-0.5,0.3-0.6,0.4
		c-0.2,0.2-0.2,0.4-0.2,0.6c0,0.2,0,0.4,0.1,0.6s0.2,0.3,0.3,0.4c0.1,0.1,0.3,0.2,0.4,0.2c0.2,0,0.3,0.1,0.5,0.1
		c0.5,0,1-0.2,1.5-0.5c0.5-0.3,1-0.8,1.4-1.5V463.2z"/>
</g>
<g>
	<path fill="#666666" d="M296.7,427.4v2.7h-2.9v-2.7H296.7z"/>
	<path fill="#666666" d="M298.5,415.2h2.5v5.4c0.2-0.3,0.3-0.5,0.6-0.7c0.2-0.2,0.4-0.4,0.7-0.5c0.2-0.1,0.5-0.2,0.7-0.3
		c0.3-0.1,0.5-0.1,0.8-0.1c0.7,0,1.3,0.2,1.9,0.5c0.5,0.3,1,0.7,1.4,1.2c0.4,0.5,0.6,1.1,0.8,1.8s0.3,1.4,0.3,2.2
		c0,0.8-0.1,1.5-0.3,2.2c-0.2,0.7-0.5,1.3-0.9,1.8c-0.4,0.5-0.9,0.9-1.4,1.2s-1.2,0.4-1.9,0.4c-0.2,0-0.4,0-0.7-0.1
		c-0.2,0-0.5-0.1-0.7-0.2c-0.2-0.1-0.4-0.3-0.6-0.4c-0.2-0.2-0.4-0.4-0.6-0.7v1.2h-2.5V415.2z M301.1,424.7c0,0.5,0,1,0.2,1.4
		c0.1,0.4,0.2,0.8,0.4,1.1c0.2,0.3,0.4,0.6,0.7,0.8s0.6,0.3,1,0.3c0.4,0,0.7-0.1,1-0.3c0.3-0.2,0.5-0.4,0.7-0.8
		c0.2-0.3,0.3-0.7,0.4-1.1c0.1-0.4,0.2-0.9,0.2-1.4s-0.1-1-0.2-1.4c-0.1-0.4-0.2-0.8-0.4-1.1s-0.4-0.6-0.7-0.8
		c-0.3-0.2-0.6-0.3-1-0.3c-0.4,0-0.7,0.1-0.9,0.3c-0.3,0.2-0.5,0.4-0.7,0.7c-0.2,0.3-0.3,0.7-0.4,1.1c-0.1,0.4-0.2,0.9-0.2,1.3
		V424.7z"/>
	<path fill="#666666" d="M311.8,426.2c0,0.4,0.1,0.7,0.2,1c0.1,0.3,0.3,0.5,0.4,0.6c0.2,0.2,0.4,0.3,0.6,0.3
		c0.2,0.1,0.5,0.1,0.7,0.1c0.2,0,0.5,0,0.7-0.1c0.2,0,0.4-0.1,0.6-0.2s0.3-0.2,0.4-0.4s0.2-0.4,0.2-0.6c0-0.2-0.1-0.4-0.2-0.5
		s-0.3-0.3-0.5-0.4c-0.2-0.1-0.5-0.2-0.7-0.3c-0.3-0.1-0.6-0.2-0.8-0.3c-0.4-0.2-0.9-0.3-1.3-0.5c-0.5-0.2-0.9-0.4-1.2-0.7
		c-0.4-0.3-0.7-0.6-0.9-0.9c-0.2-0.4-0.3-0.8-0.3-1.3s0.1-1,0.3-1.3c0.2-0.4,0.5-0.7,0.8-1c0.4-0.3,0.8-0.4,1.3-0.6
		c0.5-0.1,1-0.2,1.6-0.2c0.6,0,1.2,0.1,1.7,0.2s1,0.4,1.3,0.7c0.4,0.3,0.7,0.7,0.9,1.1c0.2,0.5,0.3,1,0.4,1.6h-2.5
		c0-0.3-0.1-0.5-0.2-0.7c-0.1-0.2-0.2-0.3-0.4-0.4c-0.2-0.1-0.3-0.2-0.5-0.2c-0.2,0-0.4-0.1-0.6-0.1c-0.5,0-0.9,0.1-1.1,0.3
		c-0.3,0.2-0.4,0.4-0.4,0.7c0,0.2,0.1,0.3,0.2,0.5s0.3,0.3,0.5,0.4c0.2,0.1,0.5,0.2,0.7,0.3c0.3,0.1,0.6,0.2,0.8,0.3
		c0.4,0.2,0.9,0.3,1.3,0.5c0.5,0.2,0.9,0.4,1.2,0.7s0.7,0.5,0.9,0.9c0.2,0.3,0.3,0.7,0.3,1.2c0,0.6-0.1,1.1-0.4,1.6
		c-0.2,0.4-0.6,0.8-1,1.1s-0.9,0.5-1.5,0.6c-0.6,0.1-1.1,0.2-1.7,0.2c-0.6,0-1.1-0.1-1.7-0.3s-1-0.4-1.4-0.8c-0.4-0.3-0.7-0.8-1-1.3
		c-0.2-0.5-0.4-1.1-0.4-1.8H311.8z"/>
	<path fill="#666666" d="M321.6,426.2c0,0.4,0.1,0.7,0.2,1c0.1,0.3,0.3,0.5,0.4,0.6c0.2,0.2,0.4,0.3,0.6,0.3
		c0.2,0.1,0.5,0.1,0.7,0.1c0.2,0,0.5,0,0.7-0.1c0.2,0,0.4-0.1,0.6-0.2s0.3-0.2,0.4-0.4s0.2-0.4,0.2-0.6c0-0.2-0.1-0.4-0.2-0.5
		s-0.3-0.3-0.5-0.4c-0.2-0.1-0.5-0.2-0.7-0.3c-0.3-0.1-0.6-0.2-0.8-0.3c-0.4-0.2-0.9-0.3-1.3-0.5c-0.5-0.2-0.9-0.4-1.2-0.7
		c-0.4-0.3-0.7-0.6-0.9-0.9c-0.2-0.4-0.3-0.8-0.3-1.3s0.1-1,0.3-1.3c0.2-0.4,0.5-0.7,0.8-1c0.4-0.3,0.8-0.4,1.3-0.6
		c0.5-0.1,1-0.2,1.6-0.2c0.6,0,1.2,0.1,1.7,0.2s1,0.4,1.3,0.7c0.4,0.3,0.7,0.7,0.9,1.1c0.2,0.5,0.3,1,0.4,1.6h-2.5
		c0-0.3-0.1-0.5-0.2-0.7c-0.1-0.2-0.2-0.3-0.4-0.4c-0.2-0.1-0.3-0.2-0.5-0.2c-0.2,0-0.4-0.1-0.6-0.1c-0.5,0-0.9,0.1-1.1,0.3
		c-0.3,0.2-0.4,0.4-0.4,0.7c0,0.2,0.1,0.3,0.2,0.5s0.3,0.3,0.5,0.4c0.2,0.1,0.5,0.2,0.7,0.3c0.3,0.1,0.6,0.2,0.8,0.3
		c0.4,0.2,0.9,0.3,1.3,0.5c0.5,0.2,0.9,0.4,1.2,0.7s0.7,0.5,0.9,0.9c0.2,0.3,0.3,0.7,0.3,1.2c0,0.6-0.1,1.1-0.4,1.6
		c-0.2,0.4-0.6,0.8-1,1.1s-0.9,0.5-1.5,0.6c-0.6,0.1-1.1,0.2-1.7,0.2c-0.6,0-1.1-0.1-1.7-0.3s-1-0.4-1.4-0.8c-0.4-0.3-0.7-0.8-1-1.3
		c-0.2-0.5-0.4-1.1-0.4-1.8H321.6z"/>
</g>
<g>
	<g>
		<polygon fill="#537AC5" points="303.4,325.6 287.3,341.4 319.5,341.4 		"/>
	</g>
	<g>
		<rect x="296.6" y="340.5" fill="#537AC5" width="13.6" height="16.1"/>
	</g>
</g>
<g>
	<g>
		<polygon fill="#5A996C" points="303.4,192.4 319.5,176.6 287.3,176.6 		"/>
	</g>
	<g>
		<rect x="296.6" y="161.4" fill="#5A996C" width="13.6" height="16.1"/>
	</g>
</g>
<line fill="none" stroke="#999999" stroke-width="2" stroke-miterlimit="10" x1="97.5" y1="260.9" x2="127.1" y2="260.9"/>
<line fill="none" stroke="#B3B3B3" stroke-width="2" stroke-miterlimit="10" x1="98.7" y1="460" x2="128.2" y2="460"/>
<g>
	<path fill="#666666" d="M11.1,248.8c0,0.9,0.1,1.7,0.3,2.4s0.5,1.2,0.9,1.7s0.8,0.8,1.3,1s1,0.3,1.5,0.3c0.5,0,1-0.1,1.4-0.3
		s0.8-0.5,1.1-0.8s0.6-0.7,0.8-1.2s0.3-0.9,0.4-1.3h2.3c-0.1,0.8-0.4,1.5-0.7,2.2s-0.7,1.2-1.2,1.7s-1.1,0.9-1.8,1.2
		s-1.4,0.4-2.3,0.4c-1,0-1.8-0.2-2.6-0.5s-1.4-0.8-2-1.4s-1-1.4-1.3-2.3s-0.4-1.9-0.4-3.1c0-0.9,0.1-1.8,0.4-2.6s0.7-1.6,1.2-2.2
		s1.2-1.2,2-1.5s1.7-0.6,2.7-0.6c0.8,0,1.6,0.1,2.3,0.4s1.2,0.6,1.7,1s0.9,0.9,1.3,1.5s0.6,1.2,0.8,1.9h-2.4c-0.3-1-0.8-1.7-1.4-2.2
		s-1.4-0.7-2.3-0.7c-0.6,0-1.1,0.1-1.6,0.4s-0.9,0.6-1.3,1.1s-0.6,1-0.8,1.6S11.1,248.1,11.1,248.8z"/>
	<path fill="#666666" d="M22.8,245.8h1.7l0.4,1.2c0.3-0.5,0.6-0.8,0.9-1.1s0.7-0.4,1.1-0.4c0.1,0,0.3,0,0.6,0.1s0.6,0.2,0.9,0.4v2
		c-0.2-0.1-0.4-0.2-0.6-0.2c-0.2-0.1-0.3-0.1-0.4-0.1s-0.2,0-0.3,0s-0.1,0-0.1,0c-0.3,0-0.5,0.1-0.8,0.2s-0.4,0.3-0.6,0.5
		s-0.3,0.4-0.4,0.7s-0.1,0.5-0.1,0.8v5.9h-2.3V245.8z"/>
	<path fill="#666666" d="M31.2,251.4c0,0.4,0.1,0.7,0.3,1s0.3,0.6,0.5,0.8s0.4,0.4,0.7,0.6s0.6,0.2,0.9,0.2c0.6,0,1-0.2,1.4-0.5
		s0.7-0.8,0.9-1.4h2.1c-0.1,0.6-0.3,1.1-0.6,1.6s-0.6,0.9-1,1.2s-0.8,0.6-1.3,0.7s-1,0.3-1.5,0.3c-0.7,0-1.4-0.1-1.9-0.4
		s-1.1-0.7-1.5-1.2s-0.7-1-0.9-1.7s-0.3-1.3-0.3-2c0-0.7,0.1-1.3,0.3-1.9s0.5-1.1,0.9-1.6s0.9-0.8,1.5-1.1s1.2-0.4,1.9-0.4
		c0.7,0,1.3,0.1,1.9,0.4s1,0.6,1.4,1s0.7,1,0.9,1.6s0.3,1.2,0.3,1.9v0.9H31.2z M35.7,249.7c0-0.3-0.1-0.6-0.2-0.8s-0.3-0.5-0.5-0.7
		c-0.2-0.2-0.4-0.3-0.7-0.4s-0.6-0.2-0.9-0.2c-0.3,0-0.6,0.1-0.8,0.2s-0.5,0.3-0.7,0.4s-0.4,0.4-0.5,0.7s-0.2,0.5-0.3,0.8H35.7z"/>
	<path fill="#666666" d="M48.7,255.5c-0.2,0.1-0.4,0.2-0.5,0.3s-0.3,0.1-0.4,0.1s-0.2,0-0.3,0s-0.2,0-0.2,0c-0.2,0-0.4,0-0.6-0.1
		s-0.4-0.2-0.5-0.3s-0.3-0.3-0.4-0.5s-0.2-0.4-0.3-0.6c-0.3,0.3-0.6,0.6-0.8,0.8s-0.5,0.4-0.8,0.5s-0.5,0.2-0.8,0.2
		s-0.5,0.1-0.8,0.1c-0.4,0-0.9-0.1-1.3-0.2c-0.4-0.1-0.7-0.3-1-0.6s-0.5-0.6-0.7-0.9s-0.2-0.8-0.2-1.2c0-0.4,0.1-0.7,0.3-1
		s0.4-0.5,0.7-0.7s0.6-0.4,1-0.5s0.7-0.3,1.1-0.4s0.7-0.2,1.1-0.3s0.7-0.2,1-0.4s0.5-0.3,0.7-0.4s0.3-0.3,0.3-0.6
		c0-0.2-0.1-0.4-0.2-0.5s-0.2-0.3-0.4-0.3s-0.4-0.2-0.6-0.2s-0.4-0.1-0.6-0.1s-0.4,0-0.6,0.1s-0.4,0.1-0.5,0.3s-0.3,0.3-0.4,0.5
		s-0.2,0.4-0.2,0.7h-2.3c0-0.6,0.2-1.1,0.4-1.5s0.6-0.8,0.9-1.1s0.8-0.5,1.3-0.6s1-0.2,1.4-0.2c0.5,0,1,0.1,1.5,0.2s0.9,0.3,1.3,0.6
		s0.7,0.6,0.9,1s0.3,0.9,0.3,1.4v4.8c0,0.1,0,0.2,0.1,0.4s0.2,0.2,0.4,0.2c0,0,0.1,0,0.2,0s0.3-0.1,0.5-0.2V255.5z M45.2,251
		c-0.1,0.1-0.3,0.2-0.6,0.2s-0.5,0.1-0.8,0.2s-0.6,0.2-0.8,0.2s-0.5,0.2-0.8,0.3s-0.4,0.2-0.6,0.4s-0.2,0.3-0.2,0.5
		c0,0.2,0,0.4,0.1,0.5s0.2,0.3,0.3,0.4s0.2,0.2,0.4,0.2s0.3,0.1,0.4,0.1c0.4,0,0.9-0.2,1.4-0.5s0.9-0.8,1.3-1.4V251z"/>
	<path fill="#666666" d="M52.7,243.1v2.7h1.8v1.9h-1.8v5.4c0,0.3,0.1,0.5,0.2,0.7s0.3,0.3,0.5,0.3c0.1,0,0.2,0,0.4,0
		s0.5-0.1,0.9-0.3v1.8c-0.4,0.2-0.8,0.3-1.1,0.3s-0.7,0.1-0.9,0.1c-0.3,0-0.6-0.1-0.9-0.2s-0.5-0.3-0.7-0.5s-0.4-0.5-0.5-0.8
		s-0.2-0.7-0.2-1.1v-5.7h-1.4v-1.9h1.4v-2.7H52.7z"/>
	<path fill="#666666" d="M57.8,251.4c0,0.4,0.1,0.7,0.3,1s0.3,0.6,0.5,0.8s0.4,0.4,0.7,0.6s0.6,0.2,0.9,0.2c0.6,0,1-0.2,1.4-0.5
		s0.7-0.8,0.9-1.4h2.1c-0.1,0.6-0.3,1.1-0.6,1.6s-0.6,0.9-1,1.2s-0.8,0.6-1.3,0.7s-1,0.3-1.5,0.3c-0.7,0-1.4-0.1-1.9-0.4
		s-1.1-0.7-1.5-1.2s-0.7-1-0.9-1.7s-0.3-1.3-0.3-2c0-0.7,0.1-1.3,0.3-1.9s0.5-1.1,0.9-1.6s0.9-0.8,1.5-1.1s1.2-0.4,1.9-0.4
		c0.7,0,1.3,0.1,1.9,0.4s1,0.6,1.4,1s0.7,1,0.9,1.6s0.3,1.2,0.3,1.9v0.9H57.8z M62.3,249.7c0-0.3-0.1-0.6-0.2-0.8s-0.3-0.5-0.5-0.7
		s-0.4-0.3-0.7-0.4s-0.6-0.2-0.9-0.2c-0.3,0-0.6,0.1-0.8,0.2s-0.5,0.3-0.7,0.4s-0.4,0.4-0.5,0.7s-0.2,0.5-0.3,0.8H62.3z"/>
	<path fill="#666666" d="M79.9,255.5c-0.2,0.1-0.4,0.2-0.5,0.3s-0.3,0.1-0.4,0.1s-0.2,0-0.3,0s-0.2,0-0.2,0c-0.2,0-0.4,0-0.6-0.1
		s-0.4-0.2-0.5-0.3s-0.3-0.3-0.4-0.5s-0.2-0.4-0.3-0.6c-0.3,0.3-0.6,0.6-0.8,0.8s-0.5,0.4-0.8,0.5s-0.5,0.2-0.8,0.2
		s-0.5,0.1-0.8,0.1c-0.4,0-0.9-0.1-1.3-0.2s-0.7-0.3-1-0.6s-0.5-0.6-0.7-0.9s-0.2-0.8-0.2-1.2c0-0.4,0.1-0.7,0.3-1s0.4-0.5,0.7-0.7
		s0.6-0.4,1-0.5s0.7-0.3,1.1-0.4s0.7-0.2,1.1-0.3s0.7-0.2,1-0.4s0.5-0.3,0.7-0.4s0.3-0.3,0.3-0.6c0-0.2-0.1-0.4-0.2-0.5
		s-0.2-0.3-0.4-0.3s-0.4-0.2-0.6-0.2s-0.4-0.1-0.6-0.1s-0.4,0-0.6,0.1s-0.4,0.1-0.5,0.3s-0.3,0.3-0.4,0.5S73,248.8,73,249h-2.3
		c0-0.6,0.2-1.1,0.4-1.5s0.6-0.8,0.9-1.1s0.8-0.5,1.3-0.6s1-0.2,1.4-0.2c0.5,0,1,0.1,1.5,0.2s0.9,0.3,1.3,0.6s0.7,0.6,0.9,1
		s0.3,0.9,0.3,1.4v4.8c0,0.1,0,0.2,0.1,0.4s0.2,0.2,0.4,0.2c0,0,0.1,0,0.2,0s0.3-0.1,0.5-0.2V255.5z M76.4,251
		c-0.1,0.1-0.3,0.2-0.6,0.2s-0.5,0.1-0.8,0.2s-0.6,0.2-0.8,0.2s-0.5,0.2-0.8,0.3s-0.4,0.2-0.6,0.4s-0.2,0.3-0.2,0.5
		c0,0.2,0,0.4,0.1,0.5s0.2,0.3,0.3,0.4s0.2,0.2,0.4,0.2s0.3,0.1,0.4,0.1c0.4,0,0.9-0.2,1.4-0.5s0.9-0.8,1.3-1.4V251z"/>
	<path fill="#666666" d="M83.9,243.1v2.7h1.8v1.9h-1.8v5.4c0,0.3,0.1,0.5,0.2,0.7s0.3,0.3,0.5,0.3c0.1,0,0.2,0,0.4,0
		s0.5-0.1,0.9-0.3v1.8c-0.4,0.2-0.8,0.3-1.1,0.3s-0.7,0.1-0.9,0.1c-0.3,0-0.6-0.1-0.9-0.2s-0.5-0.3-0.7-0.5s-0.4-0.5-0.5-0.8
		s-0.2-0.7-0.2-1.1v-5.7h-1.4v-1.9h1.4v-2.7H83.9z"/>
	<path fill="#666666" d="M12.8,265.8h1.7l0.4,1.2c0.3-0.5,0.6-0.8,0.9-1c0.3-0.2,0.7-0.4,1-0.4c0.1,0,0.3,0,0.6,0.1
		c0.3,0,0.6,0.2,0.9,0.4v2c-0.2-0.1-0.4-0.2-0.6-0.2s-0.3-0.1-0.4-0.1c-0.1,0-0.2,0-0.3,0s-0.1,0-0.1,0c-0.3,0-0.5,0.1-0.8,0.2
		c-0.2,0.1-0.4,0.3-0.6,0.5c-0.2,0.2-0.3,0.4-0.4,0.7c-0.1,0.3-0.1,0.5-0.1,0.8v5.8h-2.3V265.8z"/>
	<path fill="#666666" d="M27.7,275.8h-2.3v-1.1c-0.2,0.3-0.5,0.5-0.7,0.6s-0.5,0.3-0.7,0.4s-0.5,0.2-0.7,0.2s-0.5,0.1-0.7,0.1
		c-0.5,0-0.9-0.1-1.3-0.2s-0.7-0.4-1-0.6s-0.5-0.6-0.6-1s-0.2-0.8-0.2-1.3v-7h2.3v6.8c0,0.3,0,0.5,0.1,0.6s0.2,0.3,0.3,0.4
		s0.3,0.2,0.4,0.2s0.3,0.1,0.5,0.1c0.3,0,0.6-0.1,0.9-0.2c0.3-0.1,0.5-0.3,0.8-0.6s0.4-0.5,0.5-0.8s0.2-0.6,0.2-1v-5.6h2.3V275.8z"
		/>
	<path fill="#666666" d="M30.2,265.8h2.3v1.2c0.4-0.5,0.9-0.8,1.4-1s1-0.3,1.5-0.3c0.5,0,1,0.1,1.4,0.2s0.7,0.4,1,0.6s0.5,0.6,0.6,1
		s0.2,0.8,0.2,1.3v7h-2.3v-6.6c0-0.3,0-0.5-0.1-0.7s-0.2-0.4-0.3-0.5s-0.3-0.2-0.4-0.3s-0.3-0.1-0.5-0.1c-0.3,0-0.6,0.1-0.9,0.2
		s-0.5,0.3-0.8,0.5s-0.4,0.5-0.5,0.7s-0.2,0.6-0.2,0.9v5.9h-2.3V265.8z"/>
	<path fill="#666666" d="M43.2,263.1v2.7H45v1.9h-1.8v5.3c0,0.3,0.1,0.5,0.2,0.7c0.1,0.2,0.3,0.3,0.5,0.3c0.1,0,0.2,0,0.4,0
		c0.2,0,0.5-0.1,0.9-0.3v1.8c-0.4,0.2-0.8,0.3-1.1,0.3c-0.4,0-0.6,0.1-0.9,0.1c-0.3,0-0.6-0.1-0.9-0.2c-0.3-0.1-0.5-0.3-0.7-0.5
		c-0.2-0.2-0.4-0.5-0.5-0.8c-0.1-0.3-0.2-0.7-0.2-1v-5.6h-1.4v-1.9H41v-2.7H43.2z"/>
	<path fill="#666666" d="M49.3,262.1v2.3H47v-2.3H49.3z M49.3,265.8v9.9H47v-9.9H49.3z"/>
	<path fill="#666666" d="M51.1,265.8h2.3v1c0.4-0.4,0.8-0.8,1.2-1c0.4-0.2,0.8-0.3,1.2-0.3c0.2,0,0.5,0,0.7,0.1
		c0.2,0,0.4,0.1,0.6,0.3s0.4,0.3,0.6,0.5c0.2,0.2,0.4,0.5,0.6,0.9c0.2-0.3,0.5-0.6,0.7-0.8c0.3-0.2,0.5-0.4,0.8-0.5
		c0.3-0.1,0.5-0.2,0.8-0.3c0.3-0.1,0.5-0.1,0.7-0.1c0.5,0,0.9,0.1,1.3,0.3s0.7,0.4,1,0.7c0.3,0.3,0.5,0.7,0.7,1.1
		c0.2,0.4,0.2,0.9,0.2,1.3v6.6h-2.3v-6.5c0-0.3,0-0.6-0.1-0.8c-0.1-0.2-0.2-0.4-0.3-0.5c-0.1-0.1-0.3-0.2-0.4-0.3s-0.3-0.1-0.5-0.1
		c-0.2,0-0.5,0.1-0.7,0.2s-0.4,0.3-0.6,0.5s-0.3,0.4-0.4,0.7c-0.1,0.3-0.2,0.5-0.2,0.8v5.9h-2.3v-6.5c0-0.3,0-0.6-0.1-0.8
		c-0.1-0.2-0.2-0.4-0.3-0.5c-0.1-0.1-0.3-0.2-0.4-0.3c-0.1-0.1-0.3-0.1-0.4-0.1c-0.3,0-0.6,0.1-0.8,0.2s-0.5,0.3-0.7,0.5
		s-0.3,0.5-0.4,0.7s-0.2,0.5-0.2,0.7v5.8h-2.3V265.8z"/>
	<path fill="#666666" d="M68.6,271.4c0,0.4,0.1,0.7,0.3,1s0.3,0.6,0.5,0.8s0.4,0.4,0.7,0.6s0.6,0.2,0.9,0.2c0.6,0,1-0.2,1.4-0.5
		s0.7-0.8,0.9-1.4h2.1c-0.1,0.6-0.3,1.1-0.6,1.6s-0.6,0.9-1,1.2s-0.8,0.6-1.3,0.7s-1,0.3-1.5,0.3c-0.7,0-1.4-0.1-1.9-0.4
		s-1.1-0.7-1.5-1.2s-0.7-1-0.9-1.7s-0.3-1.3-0.3-2c0-0.7,0.1-1.3,0.3-1.9s0.5-1.1,0.9-1.6s0.9-0.8,1.5-1.1s1.2-0.4,1.9-0.4
		c0.7,0,1.3,0.1,1.9,0.4s1,0.6,1.4,1s0.7,1,0.9,1.6s0.3,1.2,0.3,1.9v0.9H68.6z M73.1,269.7c0-0.3-0.1-0.6-0.2-0.8s-0.3-0.5-0.5-0.7
		s-0.4-0.3-0.7-0.4s-0.6-0.2-0.9-0.2c-0.3,0-0.6,0.1-0.8,0.2s-0.5,0.3-0.7,0.4s-0.4,0.4-0.5,0.7s-0.2,0.5-0.3,0.8H73.1z"/>
</g>
<g>
	<path fill="#666666" d="M12.1,443.2v11.1h6.2v1.9H9.9v-12.9H12.1z"/>
	<path fill="#666666" d="M19.6,451.4c0-0.7,0.1-1.3,0.3-1.9c0.2-0.6,0.5-1.1,0.9-1.6c0.4-0.4,0.8-0.8,1.4-1.1s1.2-0.4,1.9-0.4
		s1.3,0.1,1.9,0.4c0.6,0.3,1,0.6,1.4,1.1c0.4,0.4,0.7,1,0.9,1.6c0.2,0.6,0.3,1.2,0.3,1.9c0,0.7-0.1,1.3-0.3,1.9s-0.5,1.1-0.9,1.6
		c-0.4,0.4-0.8,0.8-1.4,1.1s-1.2,0.4-1.9,0.4s-1.3-0.1-1.9-0.4c-0.6-0.3-1-0.6-1.4-1.1c-0.4-0.4-0.7-1-0.9-1.6
		S19.6,452.1,19.6,451.4z M21.8,451.4c0,0.4,0.1,0.8,0.2,1.2c0.1,0.4,0.3,0.7,0.4,1c0.2,0.3,0.4,0.5,0.7,0.7s0.6,0.2,0.9,0.2
		c0.3,0,0.7-0.1,0.9-0.2c0.3-0.2,0.5-0.4,0.7-0.7s0.3-0.6,0.5-1c0.1-0.4,0.2-0.8,0.2-1.2s-0.1-0.8-0.2-1.2c-0.1-0.4-0.3-0.7-0.5-1
		s-0.4-0.5-0.7-0.7c-0.3-0.2-0.6-0.2-0.9-0.2c-0.3,0-0.7,0.1-0.9,0.2c-0.3,0.2-0.5,0.4-0.7,0.7c-0.2,0.3-0.3,0.6-0.4,1
		C21.8,450.6,21.8,451,21.8,451.4z"/>
	<path fill="#666666" d="M38.6,455.9c-0.2,0.1-0.3,0.2-0.5,0.3c-0.1,0.1-0.3,0.1-0.4,0.1c-0.1,0-0.2,0-0.3,0c-0.1,0-0.1,0-0.2,0
		c-0.2,0-0.4,0-0.6-0.1c-0.2-0.1-0.3-0.2-0.5-0.3c-0.1-0.1-0.3-0.3-0.4-0.5c-0.1-0.2-0.2-0.4-0.3-0.6c-0.3,0.3-0.5,0.5-0.8,0.7
		c-0.2,0.2-0.5,0.3-0.7,0.5s-0.5,0.2-0.7,0.2c-0.2,0-0.5,0.1-0.8,0.1c-0.4,0-0.8-0.1-1.2-0.2c-0.4-0.1-0.7-0.3-1-0.6
		c-0.3-0.2-0.5-0.5-0.6-0.9c-0.2-0.3-0.2-0.7-0.2-1.2c0-0.4,0.1-0.7,0.2-0.9c0.2-0.3,0.4-0.5,0.6-0.7c0.3-0.2,0.6-0.4,0.9-0.5
		c0.3-0.1,0.7-0.3,1-0.4s0.7-0.2,1-0.3c0.3-0.1,0.6-0.2,0.9-0.3c0.3-0.1,0.5-0.2,0.6-0.4s0.2-0.3,0.2-0.5c0-0.2-0.1-0.4-0.2-0.5
		c-0.1-0.1-0.2-0.2-0.4-0.3c-0.2-0.1-0.3-0.1-0.5-0.2c-0.2,0-0.4-0.1-0.6-0.1s-0.4,0-0.6,0.1s-0.4,0.1-0.5,0.2
		c-0.2,0.1-0.3,0.3-0.4,0.4c-0.1,0.2-0.2,0.4-0.2,0.6h-2.2c0-0.5,0.2-1,0.4-1.4c0.2-0.4,0.5-0.7,0.9-1c0.4-0.3,0.8-0.5,1.2-0.6
		s0.9-0.2,1.4-0.2c0.5,0,1,0.1,1.5,0.2s0.9,0.3,1.2,0.5c0.4,0.2,0.6,0.5,0.8,0.9s0.3,0.8,0.3,1.3v4.6c0,0.1,0,0.2,0.1,0.3
		c0.1,0.1,0.2,0.2,0.3,0.2c0,0,0.1,0,0.2,0s0.3-0.1,0.5-0.2V455.9z M35.3,451.6c-0.1,0.1-0.3,0.2-0.6,0.2s-0.5,0.1-0.7,0.2
		c-0.3,0.1-0.5,0.1-0.8,0.2c-0.3,0.1-0.5,0.2-0.7,0.3c-0.2,0.1-0.4,0.2-0.5,0.4c-0.1,0.1-0.2,0.3-0.2,0.5c0,0.2,0,0.4,0.1,0.5
		c0.1,0.1,0.1,0.2,0.2,0.3c0.1,0.1,0.2,0.2,0.3,0.2c0.1,0,0.3,0.1,0.4,0.1c0.4,0,0.9-0.1,1.3-0.4c0.4-0.3,0.8-0.7,1.2-1.3V451.6z"/>
	<path fill="#666666" d="M47.4,456.1h-2.2v-1c-0.1,0.2-0.3,0.4-0.5,0.6c-0.2,0.2-0.4,0.3-0.6,0.4c-0.2,0.1-0.4,0.2-0.6,0.2
		c-0.2,0-0.4,0.1-0.6,0.1c-0.6,0-1.2-0.1-1.6-0.4c-0.5-0.3-0.9-0.6-1.2-1c-0.3-0.4-0.6-1-0.8-1.5c-0.2-0.6-0.3-1.2-0.3-1.9
		c0-0.7,0.1-1.3,0.2-1.9c0.2-0.6,0.4-1.1,0.7-1.6s0.7-0.8,1.2-1.1c0.5-0.3,1-0.4,1.6-0.4c0.2,0,0.4,0,0.7,0.1
		c0.2,0.1,0.4,0.1,0.6,0.3c0.2,0.1,0.4,0.3,0.6,0.4c0.2,0.2,0.3,0.4,0.5,0.6v-4.7h2.2V456.1z M45.2,451.3c0-0.4-0.1-0.8-0.2-1.2
		c-0.1-0.4-0.2-0.7-0.4-0.9c-0.2-0.3-0.4-0.5-0.6-0.6c-0.2-0.2-0.5-0.2-0.8-0.2c-0.3,0-0.6,0.1-0.8,0.2c-0.2,0.2-0.5,0.4-0.6,0.7
		c-0.2,0.3-0.3,0.6-0.4,1s-0.1,0.8-0.1,1.2s0,0.8,0.1,1.2c0.1,0.4,0.2,0.7,0.4,1c0.2,0.3,0.4,0.5,0.6,0.7s0.5,0.2,0.8,0.2
		c0.3,0,0.6-0.1,0.8-0.2s0.4-0.4,0.6-0.7c0.2-0.3,0.3-0.6,0.4-1c0.1-0.4,0.1-0.8,0.1-1.2V451.3z"/>
	<path fill="#666666" d="M54.8,446.7v-1.8c0-0.3,0.1-0.6,0.2-0.8c0.1-0.2,0.3-0.5,0.5-0.6c0.2-0.2,0.5-0.3,0.8-0.4
		c0.3-0.1,0.6-0.1,1-0.1c0.1,0,0.2,0,0.3,0c0.1,0,0.3,0,0.4,0.1c0.2,0,0.4,0.1,0.6,0.1c0.2,0.1,0.5,0.2,0.7,0.3v1.7
		c-0.3-0.1-0.5-0.2-0.7-0.2c-0.2-0.1-0.4-0.1-0.5-0.1c-0.1,0-0.2,0-0.3,0s-0.1,0-0.1,0c-0.1,0-0.2,0-0.2,0c-0.1,0-0.2,0.1-0.2,0.1
		c-0.1,0.1-0.1,0.1-0.2,0.2c0,0.1-0.1,0.2-0.1,0.3v1.4h1.7v1.8H57v7.6h-2.2v-7.6h-1.5v-1.8H54.8z"/>
	<path fill="#666666" d="M59.8,446.7h1.6l0.4,1.2c0.3-0.4,0.6-0.8,0.9-1c0.3-0.2,0.6-0.3,1-0.3c0.1,0,0.3,0,0.5,0.1
		c0.2,0,0.5,0.2,0.9,0.4v1.9c-0.2-0.1-0.4-0.2-0.6-0.2c-0.2,0-0.3-0.1-0.4-0.1c-0.1,0-0.2,0-0.3,0s-0.1,0-0.1,0
		c-0.3,0-0.5,0.1-0.7,0.2c-0.2,0.1-0.4,0.3-0.5,0.5c-0.1,0.2-0.3,0.4-0.3,0.7c-0.1,0.2-0.1,0.5-0.1,0.8v5.6h-2.2V446.7z"/>
	<path fill="#666666" d="M65.4,451.4c0-0.7,0.1-1.3,0.3-1.9c0.2-0.6,0.5-1.1,0.9-1.6c0.4-0.4,0.8-0.8,1.4-1.1s1.2-0.4,1.9-0.4
		s1.3,0.1,1.9,0.4c0.6,0.3,1,0.6,1.4,1.1c0.4,0.4,0.7,1,0.9,1.6c0.2,0.6,0.3,1.2,0.3,1.9c0,0.7-0.1,1.3-0.3,1.9s-0.5,1.1-0.9,1.6
		c-0.4,0.4-0.8,0.8-1.4,1.1s-1.2,0.4-1.9,0.4s-1.3-0.1-1.9-0.4c-0.6-0.3-1-0.6-1.4-1.1c-0.4-0.4-0.7-1-0.9-1.6
		S65.4,452.1,65.4,451.4z M67.6,451.4c0,0.4,0.1,0.8,0.2,1.2c0.1,0.4,0.3,0.7,0.4,1c0.2,0.3,0.4,0.5,0.7,0.7s0.6,0.2,0.9,0.2
		c0.3,0,0.7-0.1,0.9-0.2c0.3-0.2,0.5-0.4,0.7-0.7s0.3-0.6,0.5-1c0.1-0.4,0.2-0.8,0.2-1.2s-0.1-0.8-0.2-1.2c-0.1-0.4-0.3-0.7-0.5-1
		s-0.4-0.5-0.7-0.7c-0.3-0.2-0.6-0.2-0.9-0.2c-0.3,0-0.7,0.1-0.9,0.2c-0.3,0.2-0.5,0.4-0.7,0.7c-0.2,0.3-0.3,0.6-0.4,1
		C67.7,450.6,67.6,451,67.6,451.4z"/>
	<path fill="#666666" d="M76.1,446.7h2.2v1c0.4-0.4,0.8-0.7,1.2-0.9c0.4-0.2,0.8-0.3,1.2-0.3c0.2,0,0.4,0,0.6,0.1
		c0.2,0,0.4,0.1,0.6,0.2c0.2,0.1,0.4,0.3,0.6,0.5c0.2,0.2,0.4,0.5,0.6,0.9c0.2-0.3,0.5-0.6,0.7-0.8c0.2-0.2,0.5-0.4,0.7-0.5
		c0.2-0.1,0.5-0.2,0.7-0.3s0.5-0.1,0.7-0.1c0.5,0,0.9,0.1,1.3,0.3c0.4,0.2,0.7,0.4,1,0.7s0.5,0.6,0.6,1c0.1,0.4,0.2,0.8,0.2,1.3v6.3
		h-2.2v-6.2c0-0.3,0-0.6-0.1-0.8s-0.2-0.4-0.3-0.5c-0.1-0.1-0.3-0.2-0.4-0.2s-0.3-0.1-0.5-0.1c-0.2,0-0.4,0.1-0.7,0.2
		c-0.2,0.1-0.4,0.3-0.6,0.4c-0.2,0.2-0.3,0.4-0.4,0.7c-0.1,0.3-0.2,0.5-0.2,0.8v5.7h-2.2v-6.2c0-0.3,0-0.6-0.1-0.8s-0.2-0.4-0.3-0.5
		c-0.1-0.1-0.2-0.2-0.4-0.2c-0.1,0-0.3-0.1-0.4-0.1c-0.3,0-0.5,0.1-0.8,0.2c-0.2,0.1-0.5,0.3-0.6,0.5c-0.2,0.2-0.3,0.4-0.4,0.7
		c-0.1,0.2-0.2,0.5-0.2,0.7v5.6h-2.2V446.7z"/>
	<path fill="#666666" d="M9.4,473c0,0.3,0.1,0.7,0.2,1c0.1,0.3,0.3,0.6,0.5,0.8c0.2,0.2,0.4,0.4,0.7,0.6s0.5,0.2,0.8,0.2
		c0.5,0,1-0.1,1.3-0.4c0.4-0.3,0.6-0.7,0.8-1.3h2c-0.1,0.6-0.3,1.1-0.6,1.5s-0.6,0.8-1,1.1s-0.8,0.5-1.2,0.7
		c-0.5,0.2-0.9,0.2-1.4,0.2c-0.7,0-1.3-0.1-1.8-0.4c-0.5-0.3-1-0.6-1.4-1.1c-0.4-0.5-0.7-1-0.9-1.6c-0.2-0.6-0.3-1.2-0.3-1.9
		c0-0.6,0.1-1.2,0.3-1.8c0.2-0.6,0.5-1.1,0.9-1.5c0.4-0.4,0.8-0.8,1.4-1.1c0.5-0.3,1.2-0.4,1.8-0.4c0.7,0,1.2,0.1,1.8,0.4
		c0.5,0.2,1,0.6,1.4,1c0.4,0.4,0.7,0.9,0.9,1.5c0.2,0.6,0.3,1.2,0.3,1.8v0.9H9.4z M13.7,471.3c0-0.3-0.1-0.6-0.2-0.8
		s-0.3-0.5-0.4-0.6c-0.2-0.2-0.4-0.3-0.7-0.4s-0.5-0.1-0.8-0.1c-0.3,0-0.5,0.1-0.8,0.2c-0.2,0.1-0.4,0.2-0.6,0.4
		c-0.2,0.2-0.3,0.4-0.5,0.6c-0.1,0.2-0.2,0.5-0.2,0.8H13.7z"/>
	<path fill="#666666" d="M22.1,472.4l3.3,4.7h-2.6l-2-2.9l-2,2.9h-2.6l3.3-4.7l-3.3-4.7h2.5l2,2.9l2-2.9h2.5L22.1,472.4z"/>
	<path fill="#666666" d="M27.9,473c0,0.3,0.1,0.7,0.2,1c0.1,0.3,0.3,0.6,0.5,0.8c0.2,0.2,0.4,0.4,0.7,0.6s0.5,0.2,0.8,0.2
		c0.5,0,1-0.1,1.3-0.4c0.4-0.3,0.6-0.7,0.8-1.3h2c-0.1,0.6-0.3,1.1-0.6,1.5s-0.6,0.8-1,1.1s-0.8,0.5-1.2,0.7
		c-0.5,0.2-0.9,0.2-1.4,0.2c-0.7,0-1.3-0.1-1.8-0.4c-0.5-0.3-1-0.6-1.4-1.1c-0.4-0.5-0.7-1-0.9-1.6c-0.2-0.6-0.3-1.2-0.3-1.9
		c0-0.6,0.1-1.2,0.3-1.8c0.2-0.6,0.5-1.1,0.9-1.5c0.4-0.4,0.8-0.8,1.4-1.1c0.5-0.3,1.2-0.4,1.8-0.4c0.7,0,1.2,0.1,1.8,0.4
		c0.5,0.2,1,0.6,1.4,1c0.4,0.4,0.7,0.9,0.9,1.5c0.2,0.6,0.3,1.2,0.3,1.8v0.9H27.9z M32.2,471.3c0-0.3-0.1-0.6-0.2-0.8
		s-0.3-0.5-0.4-0.6c-0.2-0.2-0.4-0.3-0.7-0.4s-0.5-0.1-0.8-0.1c-0.3,0-0.5,0.1-0.8,0.2c-0.2,0.1-0.4,0.2-0.6,0.4
		c-0.2,0.2-0.3,0.4-0.5,0.6c-0.1,0.2-0.2,0.5-0.2,0.8H32.2z"/>
	<path fill="#666666" d="M41.6,471.1c-0.2-0.6-0.4-1.1-0.7-1.3c-0.3-0.3-0.7-0.4-1.1-0.4c-0.3,0-0.6,0.1-0.9,0.2
		c-0.3,0.2-0.5,0.4-0.7,0.7c-0.2,0.3-0.3,0.6-0.4,0.9s-0.1,0.7-0.1,1.1c0,0.4,0,0.8,0.1,1.2c0.1,0.4,0.2,0.7,0.4,1
		c0.2,0.3,0.4,0.5,0.7,0.7c0.3,0.2,0.5,0.3,0.9,0.3c0.2,0,0.5-0.1,0.7-0.2c0.2-0.1,0.4-0.3,0.5-0.5c0.2-0.2,0.3-0.4,0.4-0.7
		c0.1-0.3,0.2-0.5,0.2-0.8h2.3c-0.1,0.6-0.2,1.2-0.4,1.6s-0.5,0.9-0.9,1.2c-0.4,0.3-0.8,0.6-1.2,0.8c-0.5,0.2-1,0.3-1.6,0.3
		c-0.5,0-0.9-0.1-1.3-0.2c-0.4-0.1-0.8-0.3-1.1-0.5c-0.3-0.2-0.6-0.5-0.8-0.8c-0.2-0.3-0.4-0.7-0.6-1c-0.2-0.4-0.3-0.8-0.3-1.2
		s-0.1-0.8-0.1-1.2c0-0.7,0.1-1.3,0.3-1.9c0.2-0.6,0.5-1.1,0.9-1.5c0.4-0.4,0.8-0.8,1.4-1c0.5-0.2,1.1-0.4,1.8-0.4
		c0.6,0,1.1,0.1,1.5,0.3c0.5,0.2,0.8,0.4,1.2,0.7s0.6,0.7,0.8,1.1s0.4,0.9,0.5,1.4H41.6z"/>
	<path fill="#666666" d="M53.4,477.1h-2.2v-1.1c-0.2,0.2-0.5,0.4-0.7,0.6c-0.2,0.2-0.4,0.3-0.7,0.4c-0.2,0.1-0.4,0.2-0.7,0.2
		c-0.2,0-0.5,0.1-0.7,0.1c-0.5,0-0.9-0.1-1.3-0.2c-0.4-0.1-0.7-0.3-1-0.6c-0.3-0.3-0.5-0.6-0.6-0.9c-0.1-0.4-0.2-0.8-0.2-1.2v-6.6
		h2.2v6.5c0,0.2,0,0.4,0.1,0.6c0.1,0.2,0.2,0.3,0.3,0.4c0.1,0.1,0.2,0.2,0.4,0.2c0.2,0,0.3,0.1,0.5,0.1c0.3,0,0.6-0.1,0.8-0.2
		s0.5-0.3,0.7-0.5c0.2-0.2,0.4-0.5,0.5-0.8s0.2-0.6,0.2-0.9v-5.3h2.2V477.1z"/>
	<path fill="#666666" d="M58.4,465.1v2.6h1.7v1.8h-1.7v5.1c0,0.3,0.1,0.5,0.2,0.6c0.1,0.2,0.3,0.3,0.5,0.3c0.1,0,0.2,0,0.4,0
		c0.2,0,0.5-0.1,0.8-0.2v1.7c-0.4,0.1-0.7,0.2-1.1,0.3c-0.3,0-0.6,0.1-0.8,0.1c-0.3,0-0.6-0.1-0.8-0.2c-0.3-0.1-0.5-0.3-0.7-0.5
		c-0.2-0.2-0.4-0.5-0.5-0.8c-0.1-0.3-0.2-0.6-0.2-1v-5.4h-1.3v-1.8h1.3v-2.6H58.4z"/>
	<path fill="#666666" d="M70.1,476.9c-0.2,0.1-0.3,0.2-0.5,0.3c-0.1,0.1-0.3,0.1-0.4,0.1c-0.1,0-0.2,0-0.3,0c-0.1,0-0.1,0-0.2,0
		c-0.2,0-0.4,0-0.6-0.1c-0.2-0.1-0.3-0.2-0.5-0.3c-0.1-0.1-0.3-0.3-0.4-0.5c-0.1-0.2-0.2-0.4-0.3-0.6c-0.3,0.3-0.5,0.5-0.8,0.7
		c-0.2,0.2-0.5,0.3-0.7,0.5s-0.5,0.2-0.7,0.2c-0.2,0-0.5,0.1-0.8,0.1c-0.4,0-0.8-0.1-1.2-0.2c-0.4-0.1-0.7-0.3-1-0.6
		c-0.3-0.2-0.5-0.5-0.6-0.9c-0.2-0.3-0.2-0.7-0.2-1.2c0-0.4,0.1-0.7,0.2-0.9c0.2-0.3,0.4-0.5,0.6-0.7c0.3-0.2,0.6-0.4,0.9-0.5
		c0.3-0.1,0.7-0.3,1-0.4s0.7-0.2,1-0.3c0.3-0.1,0.6-0.2,0.9-0.3c0.3-0.1,0.5-0.2,0.6-0.4s0.2-0.3,0.2-0.5c0-0.2-0.1-0.4-0.2-0.5
		c-0.1-0.1-0.2-0.2-0.4-0.3c-0.2-0.1-0.3-0.1-0.5-0.2c-0.2,0-0.4-0.1-0.6-0.1s-0.4,0-0.6,0.1s-0.4,0.1-0.5,0.2
		c-0.2,0.1-0.3,0.3-0.4,0.4c-0.1,0.2-0.2,0.4-0.2,0.6h-2.2c0-0.5,0.2-1,0.4-1.4c0.2-0.4,0.5-0.7,0.9-1c0.4-0.3,0.8-0.5,1.2-0.6
		s0.9-0.2,1.4-0.2c0.5,0,1,0.1,1.5,0.2s0.9,0.3,1.2,0.5c0.4,0.2,0.6,0.5,0.8,0.9s0.3,0.8,0.3,1.3v4.6c0,0.1,0,0.2,0.1,0.3
		c0.1,0.1,0.2,0.2,0.3,0.2c0,0,0.1,0,0.2,0s0.3-0.1,0.5-0.2V476.9z M66.8,472.6c-0.1,0.1-0.3,0.2-0.6,0.2s-0.5,0.1-0.7,0.2
		c-0.3,0.1-0.5,0.1-0.8,0.2c-0.3,0.1-0.5,0.2-0.7,0.3c-0.2,0.1-0.4,0.2-0.5,0.4c-0.1,0.1-0.2,0.3-0.2,0.5c0,0.2,0,0.4,0.1,0.5
		c0.1,0.1,0.1,0.2,0.2,0.3c0.1,0.1,0.2,0.2,0.3,0.2c0.1,0,0.3,0.1,0.4,0.1c0.4,0,0.9-0.1,1.3-0.4c0.4-0.3,0.8-0.7,1.2-1.3V472.6z"/>
	<path fill="#666666" d="M71.1,464.2h2.2v4.7c0.1-0.2,0.3-0.4,0.5-0.6c0.2-0.2,0.4-0.3,0.6-0.4c0.2-0.1,0.4-0.2,0.6-0.3
		c0.2-0.1,0.4-0.1,0.7-0.1c0.6,0,1.2,0.1,1.6,0.4s0.9,0.6,1.2,1.1s0.6,1,0.7,1.6c0.2,0.6,0.2,1.2,0.2,1.9c0,0.7-0.1,1.3-0.3,1.9
		c-0.2,0.6-0.4,1.1-0.8,1.5s-0.7,0.8-1.2,1c-0.5,0.3-1,0.4-1.6,0.4c-0.2,0-0.4,0-0.6-0.1c-0.2,0-0.4-0.1-0.6-0.2
		c-0.2-0.1-0.4-0.2-0.6-0.4c-0.2-0.2-0.3-0.3-0.5-0.6v1h-2.2V464.2z M73.3,472.5c0,0.4,0,0.8,0.1,1.2c0.1,0.4,0.2,0.7,0.4,1
		c0.2,0.3,0.4,0.5,0.6,0.7s0.5,0.2,0.8,0.2c0.3,0,0.6-0.1,0.8-0.2s0.5-0.4,0.6-0.7c0.2-0.3,0.3-0.6,0.4-1c0.1-0.4,0.1-0.8,0.1-1.2
		s0-0.8-0.1-1.2s-0.2-0.7-0.4-1c-0.2-0.3-0.4-0.5-0.6-0.7c-0.2-0.2-0.5-0.2-0.8-0.2c-0.3,0-0.6,0.1-0.8,0.2
		c-0.2,0.2-0.4,0.4-0.6,0.6c-0.2,0.3-0.3,0.6-0.4,0.9c-0.1,0.4-0.1,0.7-0.2,1.2V472.5z"/>
	<path fill="#666666" d="M83.2,464.2v12.9H81v-12.9H83.2z"/>
	<path fill="#666666" d="M86.9,473c0,0.3,0.1,0.7,0.2,1c0.1,0.3,0.3,0.6,0.5,0.8c0.2,0.2,0.4,0.4,0.7,0.6s0.5,0.2,0.8,0.2
		c0.5,0,1-0.1,1.3-0.4c0.4-0.3,0.6-0.7,0.8-1.3h2c-0.1,0.6-0.3,1.1-0.6,1.5s-0.6,0.8-1,1.1s-0.8,0.5-1.2,0.7
		c-0.5,0.2-0.9,0.2-1.4,0.2c-0.7,0-1.3-0.1-1.8-0.4c-0.5-0.3-1-0.6-1.4-1.1c-0.4-0.5-0.7-1-0.9-1.6c-0.2-0.6-0.3-1.2-0.3-1.9
		c0-0.6,0.1-1.2,0.3-1.8c0.2-0.6,0.5-1.1,0.9-1.5c0.4-0.4,0.8-0.8,1.4-1.1c0.5-0.3,1.2-0.4,1.8-0.4c0.7,0,1.2,0.1,1.8,0.4
		c0.5,0.2,1,0.6,1.4,1c0.4,0.4,0.7,0.9,0.9,1.5c0.2,0.6,0.3,1.2,0.3,1.8v0.9H86.9z M91.2,471.3c0-0.3-0.1-0.6-0.2-0.8
		s-0.3-0.5-0.4-0.6c-0.2-0.2-0.4-0.3-0.7-0.4s-0.5-0.1-0.8-0.1c-0.3,0-0.5,0.1-0.8,0.2c-0.2,0.1-0.4,0.2-0.6,0.4
		c-0.2,0.2-0.3,0.4-0.5,0.6c-0.1,0.2-0.2,0.5-0.2,0.8H91.2z"/>
</g>
<g>
	<rect x="144.3" y="222.5" fill="#FEF1CE" width="314.9" height="28.8"/>
	<path d="M458.9,222.7v28.2H144.6v-28.2H458.9 M459.5,222.2H144v29.3h315.5V222.2L459.5,222.2z"/>
</g>
<g>
	<path d="M246.7,230.3l3.2,9.1l3.3-9.1h2.2v11.6h-2v-7.6l-2.7,7.6h-1.7l-2.7-7.7v7.7h-2v-11.6H246.7z"/>
	<path d="M259.4,238.2c0,0.3,0.1,0.6,0.2,0.9c0.1,0.3,0.3,0.5,0.4,0.7c0.2,0.2,0.4,0.4,0.6,0.5s0.5,0.2,0.7,0.2
		c0.5,0,0.9-0.1,1.2-0.4c0.3-0.3,0.6-0.7,0.8-1.2h1.8c-0.1,0.5-0.3,1-0.5,1.3c-0.2,0.4-0.5,0.7-0.9,1s-0.7,0.5-1.1,0.6
		c-0.4,0.1-0.8,0.2-1.3,0.2c-0.6,0-1.2-0.1-1.6-0.4s-0.9-0.6-1.2-1s-0.6-0.9-0.8-1.4c-0.2-0.5-0.3-1.1-0.3-1.7
		c0-0.6,0.1-1.1,0.3-1.6c0.2-0.5,0.4-1,0.8-1.4c0.3-0.4,0.8-0.7,1.2-0.9c0.5-0.2,1-0.3,1.6-0.3c0.6,0,1.1,0.1,1.6,0.3
		s0.9,0.5,1.2,0.9c0.3,0.4,0.6,0.8,0.8,1.3c0.2,0.5,0.3,1.1,0.3,1.6v0.8H259.4z M263.2,236.7c0-0.3-0.1-0.5-0.2-0.7
		c-0.1-0.2-0.2-0.4-0.4-0.6c-0.2-0.2-0.4-0.3-0.6-0.4c-0.2-0.1-0.5-0.1-0.7-0.1c-0.2,0-0.5,0-0.7,0.1c-0.2,0.1-0.4,0.2-0.6,0.4
		c-0.2,0.2-0.3,0.3-0.4,0.6c-0.1,0.2-0.2,0.4-0.2,0.7H263.2z"/>
	<path d="M266.9,233.5h2v0.9c0.3-0.4,0.7-0.7,1-0.8c0.4-0.2,0.7-0.2,1-0.2c0.2,0,0.4,0,0.6,0.1s0.4,0.1,0.5,0.2
		c0.2,0.1,0.3,0.3,0.5,0.5c0.2,0.2,0.3,0.5,0.5,0.8c0.2-0.3,0.4-0.5,0.6-0.7s0.4-0.3,0.7-0.5c0.2-0.1,0.4-0.2,0.7-0.2
		c0.2,0,0.4-0.1,0.6-0.1c0.4,0,0.8,0.1,1.2,0.2c0.3,0.2,0.6,0.4,0.9,0.6c0.2,0.3,0.4,0.6,0.6,0.9s0.2,0.7,0.2,1.2v5.7h-2v-5.6
		c0-0.3,0-0.5-0.1-0.7c-0.1-0.2-0.2-0.3-0.3-0.4c-0.1-0.1-0.2-0.2-0.4-0.2c-0.1,0-0.3-0.1-0.4-0.1c-0.2,0-0.4,0-0.6,0.1
		s-0.4,0.2-0.5,0.4c-0.2,0.2-0.3,0.4-0.4,0.6c-0.1,0.2-0.1,0.5-0.1,0.7v5.1h-2v-5.6c0-0.3,0-0.5-0.1-0.7c-0.1-0.2-0.2-0.3-0.3-0.4
		s-0.2-0.2-0.3-0.2c-0.1,0-0.2-0.1-0.4-0.1c-0.2,0-0.5,0.1-0.7,0.2c-0.2,0.1-0.4,0.3-0.6,0.5s-0.3,0.4-0.4,0.6
		c-0.1,0.2-0.1,0.4-0.1,0.6v5h-2V233.5z"/>
	<path d="M280,237.7c0-0.6,0.1-1.2,0.3-1.7c0.2-0.5,0.4-1,0.8-1.4c0.3-0.4,0.8-0.7,1.2-1c0.5-0.2,1.1-0.3,1.7-0.3s1.2,0.1,1.7,0.3
		c0.5,0.2,0.9,0.5,1.3,1c0.3,0.4,0.6,0.9,0.8,1.4c0.2,0.5,0.3,1.1,0.3,1.7c0,0.6-0.1,1.2-0.3,1.7s-0.4,1-0.8,1.4
		c-0.3,0.4-0.8,0.7-1.3,0.9c-0.5,0.2-1.1,0.3-1.7,0.3s-1.2-0.1-1.7-0.3c-0.5-0.2-0.9-0.5-1.3-0.9c-0.3-0.4-0.6-0.9-0.8-1.4
		S280,238.3,280,237.7z M282,237.7c0,0.4,0,0.7,0.1,1.1s0.2,0.6,0.4,0.9c0.2,0.2,0.4,0.4,0.6,0.6s0.5,0.2,0.8,0.2s0.6-0.1,0.8-0.2
		c0.3-0.1,0.5-0.3,0.6-0.6s0.3-0.5,0.4-0.9s0.1-0.7,0.1-1.1s0-0.7-0.1-1.1c-0.1-0.3-0.2-0.6-0.4-0.9s-0.4-0.4-0.6-0.6
		c-0.3-0.1-0.5-0.2-0.8-0.2s-0.6,0.1-0.8,0.2c-0.2,0.1-0.5,0.3-0.6,0.6c-0.2,0.2-0.3,0.5-0.4,0.9C282,237,282,237.3,282,237.7z"/>
	<path d="M289.4,233.5h1.5l0.3,1c0.3-0.4,0.5-0.7,0.8-0.9c0.3-0.2,0.6-0.3,0.9-0.3c0.1,0,0.3,0,0.5,0.1c0.2,0,0.5,0.1,0.8,0.3v1.7
		c-0.2-0.1-0.4-0.1-0.5-0.2c-0.1,0-0.3-0.1-0.4-0.1c-0.1,0-0.2,0-0.2,0c-0.1,0-0.1,0-0.1,0c-0.2,0-0.5,0.1-0.7,0.2
		c-0.2,0.1-0.4,0.2-0.5,0.4c-0.1,0.2-0.2,0.4-0.3,0.6s-0.1,0.5-0.1,0.7v5h-2V233.5z"/>
	<path d="M297.9,239l1.9-5.6h2l-3.5,10c-0.1,0.3-0.3,0.6-0.4,0.8c-0.2,0.2-0.4,0.4-0.6,0.6c-0.2,0.2-0.4,0.3-0.6,0.3
		c-0.2,0.1-0.4,0.1-0.6,0.1c-0.1,0-0.2,0-0.3,0c-0.1,0-0.2,0-0.3-0.1c-0.1,0-0.2-0.1-0.4-0.1c-0.1,0-0.2-0.1-0.3-0.2v-1.5
		c0.2,0.1,0.4,0.2,0.5,0.2c0.2,0,0.3,0.1,0.4,0.1c0.1,0,0.3,0,0.4-0.1c0.1-0.1,0.2-0.2,0.3-0.4c0.1-0.2,0.2-0.4,0.3-0.6
		c0.1-0.3,0.2-0.6,0.3-0.9c-0.1-0.2-0.1-0.4-0.2-0.6s-0.2-0.5-0.3-0.7c-0.1-0.3-0.2-0.6-0.4-1c-0.1-0.4-0.3-0.9-0.5-1.4
		c-0.2-0.5-0.4-1.2-0.7-1.9c-0.3-0.7-0.6-1.6-0.9-2.6h2.1L297.9,239z"/>
	<path d="M309.3,230.3l3.2,9.1l3.3-9.1h2.2v11.6h-2v-7.6l-2.7,7.6h-1.7l-2.7-7.7v7.7h-2v-11.6H309.3z"/>
	<path d="M328.2,241.7c-0.2,0.1-0.3,0.2-0.4,0.2c-0.1,0.1-0.2,0.1-0.3,0.1c-0.1,0-0.2,0-0.2,0c-0.1,0-0.1,0-0.2,0
		c-0.2,0-0.4,0-0.5-0.1c-0.2-0.1-0.3-0.2-0.4-0.3c-0.1-0.1-0.2-0.3-0.3-0.4c-0.1-0.2-0.2-0.3-0.2-0.5c-0.2,0.3-0.5,0.5-0.7,0.6
		c-0.2,0.2-0.4,0.3-0.7,0.4c-0.2,0.1-0.4,0.2-0.6,0.2c-0.2,0-0.4,0.1-0.7,0.1c-0.4,0-0.7-0.1-1.1-0.2c-0.3-0.1-0.6-0.3-0.9-0.5
		c-0.2-0.2-0.4-0.5-0.6-0.8c-0.1-0.3-0.2-0.7-0.2-1c0-0.3,0.1-0.6,0.2-0.8s0.3-0.4,0.6-0.6c0.2-0.2,0.5-0.3,0.8-0.5
		c0.3-0.1,0.6-0.2,0.9-0.3c0.3-0.1,0.6-0.2,0.9-0.3s0.6-0.2,0.8-0.3c0.2-0.1,0.4-0.2,0.6-0.4c0.1-0.1,0.2-0.3,0.2-0.5
		c0-0.2,0-0.3-0.1-0.4c-0.1-0.1-0.2-0.2-0.3-0.3c-0.1-0.1-0.3-0.1-0.5-0.2s-0.3,0-0.5,0s-0.3,0-0.5,0.1c-0.2,0-0.3,0.1-0.5,0.2
		c-0.1,0.1-0.2,0.2-0.3,0.4c-0.1,0.2-0.2,0.3-0.2,0.6h-2c0-0.5,0.2-0.9,0.4-1.3c0.2-0.4,0.5-0.7,0.8-0.9s0.7-0.4,1.1-0.5
		c0.4-0.1,0.8-0.2,1.2-0.2c0.5,0,0.9,0,1.3,0.1c0.4,0.1,0.8,0.3,1.1,0.5s0.6,0.5,0.8,0.8c0.2,0.3,0.3,0.7,0.3,1.2v4.1
		c0,0.1,0,0.2,0.1,0.3c0.1,0.1,0.2,0.1,0.3,0.1c0,0,0.1,0,0.2,0c0.1,0,0.2-0.1,0.4-0.2V241.7z M325.2,237.9
		c-0.1,0.1-0.3,0.1-0.5,0.2c-0.2,0.1-0.4,0.1-0.7,0.2c-0.2,0.1-0.5,0.1-0.7,0.2s-0.5,0.2-0.7,0.3c-0.2,0.1-0.4,0.2-0.5,0.3
		c-0.1,0.1-0.2,0.3-0.2,0.5c0,0.2,0,0.3,0.1,0.4s0.1,0.2,0.2,0.3c0.1,0.1,0.2,0.1,0.3,0.2c0.1,0,0.2,0.1,0.3,0.1
		c0.4,0,0.8-0.1,1.2-0.4c0.4-0.3,0.8-0.6,1.1-1.2V237.9z"/>
	<path d="M329.1,233.5h2v0.9c0.1-0.2,0.3-0.4,0.4-0.5c0.2-0.1,0.3-0.3,0.5-0.3c0.2-0.1,0.4-0.1,0.5-0.2c0.2,0,0.4-0.1,0.5-0.1
		c0.5,0,1,0.1,1.5,0.3s0.8,0.5,1.1,0.9c0.3,0.4,0.5,0.9,0.7,1.4c0.2,0.5,0.2,1.1,0.2,1.7c0,0.6-0.1,1.2-0.2,1.7
		c-0.1,0.5-0.4,1-0.6,1.4c-0.3,0.4-0.6,0.7-1,1s-0.9,0.3-1.4,0.3c-0.2,0-0.4,0-0.6-0.1c-0.2-0.1-0.4-0.1-0.6-0.2
		c-0.2-0.1-0.4-0.2-0.5-0.4c-0.2-0.2-0.3-0.3-0.4-0.5v4.2h-2V233.5z M331.1,237.8c0,0.4,0.1,0.7,0.1,1c0.1,0.3,0.2,0.6,0.3,0.8
		c0.1,0.2,0.3,0.4,0.5,0.6s0.5,0.2,0.7,0.2c0.3,0,0.5-0.1,0.8-0.2c0.2-0.1,0.4-0.3,0.6-0.6c0.2-0.2,0.3-0.5,0.3-0.9
		c0.1-0.3,0.1-0.7,0.1-1.1s0-0.7-0.1-1.1c-0.1-0.3-0.2-0.6-0.3-0.9c-0.1-0.3-0.3-0.4-0.6-0.6s-0.5-0.2-0.8-0.2
		c-0.3,0-0.5,0.1-0.7,0.2s-0.4,0.3-0.5,0.6c-0.1,0.3-0.3,0.5-0.3,0.9c-0.1,0.3-0.1,0.7-0.1,1.1V237.8z"/>
	<path d="M338.3,233.5h2v0.9c0.1-0.2,0.3-0.4,0.4-0.5c0.2-0.1,0.3-0.3,0.5-0.3c0.2-0.1,0.4-0.1,0.5-0.2s0.3-0.1,0.5-0.1
		c0.5,0,1,0.1,1.5,0.3s0.8,0.5,1.1,0.9c0.3,0.4,0.5,0.9,0.7,1.4c0.2,0.5,0.2,1.1,0.2,1.7c0,0.6-0.1,1.2-0.2,1.7s-0.4,1-0.6,1.4
		c-0.3,0.4-0.6,0.7-1.1,1c-0.4,0.2-0.9,0.3-1.4,0.3c-0.2,0-0.4,0-0.6-0.1c-0.2-0.1-0.4-0.1-0.6-0.2c-0.2-0.1-0.4-0.2-0.5-0.4
		c-0.2-0.2-0.3-0.3-0.4-0.5v4.2h-2V233.5z M340.3,237.8c0,0.4,0.1,0.7,0.1,1s0.2,0.6,0.3,0.8c0.2,0.2,0.3,0.4,0.5,0.6
		s0.5,0.2,0.7,0.2c0.3,0,0.5-0.1,0.8-0.2c0.2-0.1,0.4-0.3,0.6-0.6c0.1-0.2,0.3-0.5,0.3-0.9c0.1-0.3,0.1-0.7,0.1-1.1s0-0.7-0.1-1.1
		c-0.1-0.3-0.2-0.6-0.3-0.9c-0.2-0.3-0.3-0.4-0.6-0.6s-0.5-0.2-0.8-0.2c-0.3,0-0.5,0.1-0.7,0.2s-0.4,0.3-0.5,0.6
		c-0.1,0.3-0.3,0.5-0.3,0.9c-0.1,0.3-0.1,0.7-0.1,1.1V237.8z"/>
	<path d="M349.3,230.3v2h-2v-2H349.3z M349.3,233.5v8.5h-2v-8.5H349.3z"/>
	<path d="M351.2,233.5h2v1c0.4-0.4,0.7-0.7,1.1-0.9c0.4-0.2,0.8-0.3,1.2-0.3c0.4,0,0.8,0.1,1.2,0.2c0.3,0.1,0.6,0.3,0.9,0.5
		c0.2,0.2,0.4,0.5,0.5,0.8c0.1,0.3,0.2,0.7,0.2,1.1v5.9h-2v-5.6c0-0.2,0-0.4-0.1-0.6c-0.1-0.2-0.1-0.3-0.2-0.4
		c-0.1-0.1-0.2-0.2-0.4-0.3c-0.1-0.1-0.3-0.1-0.5-0.1c-0.3,0-0.5,0.1-0.8,0.2c-0.2,0.1-0.5,0.3-0.6,0.4c-0.2,0.2-0.3,0.4-0.4,0.6
		c-0.1,0.2-0.2,0.5-0.2,0.7v5h-2V233.5z"/>
	<path d="M367.5,241.8c0,0.6-0.1,1.1-0.3,1.6c-0.2,0.4-0.5,0.8-0.8,1.1s-0.7,0.5-1.2,0.7c-0.4,0.2-0.9,0.2-1.4,0.2
		c-0.4,0-0.8-0.1-1.2-0.2c-0.4-0.1-0.7-0.3-1-0.5c-0.3-0.2-0.6-0.5-0.8-0.9c-0.2-0.4-0.5-0.8-0.6-1.3h1.9c0.2,0.5,0.5,0.8,0.8,1
		c0.3,0.2,0.6,0.3,1,0.3c0.2,0,0.5,0,0.7-0.1c0.2-0.1,0.4-0.2,0.6-0.4c0.2-0.2,0.3-0.4,0.4-0.6c0.1-0.2,0.1-0.5,0.1-0.8v-0.7
		c-0.3,0.3-0.6,0.5-1,0.7c-0.4,0.2-0.7,0.3-1.1,0.3c-0.6,0-1.1-0.1-1.5-0.3c-0.4-0.2-0.8-0.5-1.1-0.9c-0.3-0.4-0.5-0.9-0.7-1.4
		c-0.2-0.5-0.2-1.1-0.2-1.7s0.1-1.2,0.3-1.7c0.2-0.5,0.4-1,0.7-1.4s0.7-0.7,1.1-0.9c0.4-0.2,0.9-0.3,1.5-0.3c0.1,0,0.3,0,0.5,0
		c0.2,0,0.3,0.1,0.5,0.1s0.3,0.2,0.5,0.3c0.2,0.1,0.3,0.3,0.5,0.5v-0.8h2V241.8z M365.6,237.6c0-0.4,0-0.7-0.1-1s-0.2-0.6-0.3-0.8
		c-0.1-0.2-0.3-0.4-0.5-0.6c-0.2-0.1-0.5-0.2-0.7-0.2c-0.3,0-0.5,0.1-0.8,0.2s-0.4,0.3-0.6,0.6c-0.2,0.2-0.3,0.5-0.4,0.9
		s-0.2,0.7-0.2,1.1s0.1,0.7,0.2,1.1s0.2,0.6,0.4,0.9c0.2,0.3,0.4,0.5,0.6,0.6c0.2,0.1,0.5,0.2,0.8,0.2c0.3,0,0.5-0.1,0.7-0.2
		c0.2-0.1,0.4-0.3,0.5-0.6c0.1-0.3,0.3-0.5,0.3-0.9c0.1-0.3,0.1-0.7,0.1-1.1V237.6z"/>
</g>
<g>
	<path d="M245.9,280.4c0,0.4,0.1,0.8,0.3,1.2s0.3,0.6,0.6,0.9s0.5,0.4,0.8,0.6s0.7,0.2,1,0.2c0.3,0,0.7,0,1-0.1s0.6-0.2,0.8-0.3
		s0.4-0.4,0.6-0.6s0.2-0.6,0.2-0.9c0-0.3-0.1-0.6-0.3-0.8s-0.5-0.4-0.8-0.6s-0.7-0.3-1.1-0.5s-0.9-0.3-1.3-0.4s-0.9-0.3-1.3-0.5
		s-0.8-0.4-1.1-0.7s-0.6-0.6-0.8-1s-0.3-0.8-0.3-1.4c0-0.5,0.1-1,0.3-1.4s0.5-0.8,0.9-1s0.8-0.5,1.4-0.6s1.1-0.2,1.7-0.2
		c0.8,0,1.5,0.1,2.1,0.4s1,0.6,1.3,1s0.6,0.8,0.7,1.3s0.2,0.9,0.3,1.4h-2.1c0-0.4-0.1-0.7-0.3-1s-0.3-0.5-0.5-0.7s-0.5-0.3-0.7-0.4
		s-0.6-0.1-0.9-0.1c-0.3,0-0.5,0-0.8,0.1s-0.5,0.1-0.7,0.3s-0.4,0.3-0.5,0.5s-0.2,0.4-0.2,0.7c0,0.3,0.1,0.6,0.3,0.9
		s0.5,0.4,0.8,0.6s0.7,0.3,1.1,0.5s0.9,0.3,1.3,0.4s0.9,0.3,1.3,0.5s0.8,0.4,1.1,0.7s0.6,0.6,0.8,0.9s0.3,0.8,0.3,1.3
		c0,0.6-0.1,1.2-0.3,1.6s-0.6,0.9-1,1.2s-0.9,0.5-1.5,0.7s-1.2,0.2-1.9,0.2c-0.6,0-1.2-0.1-1.8-0.3s-1.1-0.5-1.5-0.9
		c-0.4-0.4-0.8-0.9-1.1-1.4s-0.4-1.2-0.4-1.9H245.9z"/>
	<path d="M257.2,272.5v4.3c0.7-0.8,1.5-1.2,2.4-1.2c0.5,0,0.9,0.1,1.2,0.2s0.7,0.3,0.9,0.6s0.5,0.6,0.6,0.9s0.2,0.7,0.2,1.1v6.3
		h-2.1v-5.8c0-0.3,0-0.5-0.1-0.7s-0.2-0.4-0.3-0.5s-0.3-0.2-0.4-0.3s-0.3-0.1-0.5-0.1c-0.2,0-0.5,0.1-0.7,0.2s-0.5,0.2-0.7,0.4
		s-0.4,0.4-0.5,0.6s-0.2,0.5-0.2,0.8v5.4h-2.1v-12.3H257.2z"/>
	<path d="M272.8,284.5c-0.2,0.1-0.3,0.2-0.4,0.2s-0.2,0.1-0.3,0.1s-0.2,0-0.3,0s-0.1,0-0.2,0c-0.2,0-0.4,0-0.6-0.1s-0.3-0.2-0.5-0.3
		s-0.2-0.3-0.3-0.4s-0.2-0.3-0.2-0.5c-0.3,0.3-0.5,0.5-0.7,0.7s-0.5,0.3-0.7,0.4s-0.5,0.2-0.7,0.2s-0.5,0.1-0.7,0.1
		c-0.4,0-0.8-0.1-1.1-0.2s-0.7-0.3-0.9-0.5s-0.5-0.5-0.6-0.8c-0.1-0.3-0.2-0.7-0.2-1.1c0-0.3,0.1-0.6,0.2-0.9s0.4-0.5,0.6-0.7
		s0.5-0.3,0.9-0.5s0.7-0.3,1-0.4s0.7-0.2,1-0.3s0.6-0.2,0.9-0.3s0.5-0.2,0.6-0.4s0.2-0.3,0.2-0.5c0-0.2,0-0.3-0.1-0.5
		s-0.2-0.2-0.4-0.3s-0.3-0.1-0.5-0.2s-0.4-0.1-0.5-0.1s-0.4,0-0.5,0.1s-0.3,0.1-0.5,0.2s-0.3,0.2-0.4,0.4s-0.2,0.4-0.2,0.6h-2.1
		c0-0.5,0.2-1,0.4-1.3s0.5-0.7,0.8-1s0.7-0.4,1.1-0.6s0.9-0.2,1.3-0.2c0.5,0,0.9,0.1,1.4,0.2s0.8,0.3,1.2,0.5s0.6,0.5,0.8,0.9
		s0.3,0.8,0.3,1.3v4.3c0,0.1,0,0.2,0.1,0.3s0.2,0.1,0.3,0.1c0,0,0.1,0,0.2,0s0.3-0.1,0.4-0.2V284.5z M269.7,280.4
		c-0.1,0.1-0.3,0.2-0.5,0.2s-0.5,0.1-0.7,0.2s-0.5,0.1-0.8,0.2s-0.5,0.2-0.7,0.3s-0.4,0.2-0.5,0.4s-0.2,0.3-0.2,0.5
		c0,0.2,0,0.3,0.1,0.5s0.1,0.2,0.2,0.3s0.2,0.1,0.3,0.2s0.2,0.1,0.4,0.1c0.4,0,0.8-0.1,1.2-0.4s0.8-0.7,1.1-1.2V280.4z"/>
	<path d="M273.8,275.8h1.5l0.3,1.1c0.3-0.4,0.5-0.7,0.8-1s0.6-0.3,1-0.3c0.1,0,0.3,0,0.5,0.1s0.5,0.2,0.8,0.3v1.8
		c-0.2-0.1-0.4-0.1-0.6-0.2s-0.3-0.1-0.4-0.1s-0.2,0-0.2,0s-0.1,0-0.1,0c-0.3,0-0.5,0.1-0.7,0.2s-0.4,0.3-0.5,0.4s-0.2,0.4-0.3,0.6
		s-0.1,0.5-0.1,0.7v5.3h-2.1V275.8z"/>
	<path d="M281.3,280.8c0,0.3,0.1,0.6,0.2,0.9s0.3,0.5,0.4,0.8s0.4,0.4,0.6,0.5s0.5,0.2,0.8,0.2c0.5,0,0.9-0.1,1.3-0.4
		s0.6-0.7,0.8-1.3h1.9c-0.1,0.5-0.3,1-0.6,1.4s-0.6,0.8-0.9,1.1s-0.8,0.5-1.2,0.7s-0.9,0.2-1.3,0.2c-0.6,0-1.2-0.1-1.7-0.4
		s-1-0.6-1.3-1c-0.4-0.4-0.6-0.9-0.8-1.5s-0.3-1.2-0.3-1.8c0-0.6,0.1-1.2,0.3-1.7s0.5-1,0.8-1.5s0.8-0.8,1.3-1s1.1-0.4,1.7-0.4
		c0.6,0,1.2,0.1,1.7,0.3s0.9,0.5,1.3,0.9s0.6,0.9,0.8,1.4s0.3,1.1,0.3,1.7v0.8H281.3z M285.3,279.2c0-0.3-0.1-0.5-0.2-0.8
		s-0.3-0.4-0.4-0.6s-0.4-0.3-0.6-0.4s-0.5-0.1-0.8-0.1c-0.3,0-0.5,0-0.7,0.1s-0.4,0.2-0.6,0.4s-0.3,0.4-0.4,0.6s-0.2,0.5-0.2,0.7
		H285.3z"/>
	<path d="M296.3,284.7h-2.1v-1c-0.1,0.2-0.3,0.4-0.5,0.5s-0.4,0.3-0.5,0.4s-0.4,0.2-0.6,0.2s-0.4,0.1-0.5,0.1
		c-0.6,0-1.1-0.1-1.5-0.4s-0.8-0.6-1.2-1c-0.3-0.4-0.6-0.9-0.7-1.5s-0.3-1.2-0.3-1.8c0-0.6,0.1-1.2,0.2-1.8s0.4-1.1,0.7-1.5
		s0.7-0.8,1.1-1s1-0.4,1.5-0.4c0.2,0,0.4,0,0.6,0.1s0.4,0.1,0.6,0.2s0.4,0.2,0.6,0.4s0.3,0.3,0.5,0.5v-4.4h2.1V284.7z M294.3,280.2
		c0-0.4-0.1-0.8-0.1-1.1s-0.2-0.6-0.4-0.9s-0.3-0.5-0.6-0.6s-0.5-0.2-0.8-0.2c-0.3,0-0.6,0.1-0.8,0.2s-0.4,0.4-0.6,0.6
		s-0.3,0.6-0.4,0.9s-0.1,0.7-0.1,1.1s0,0.8,0.1,1.1s0.2,0.7,0.4,0.9s0.4,0.5,0.6,0.6s0.5,0.2,0.8,0.2c0.3,0,0.6-0.1,0.8-0.2
		s0.4-0.4,0.6-0.6s0.3-0.6,0.4-0.9s0.1-0.7,0.1-1.1V280.2z"/>
	<path d="M305.1,272.5V283h5.9v1.8h-8v-12.3H305.1z"/>
	<path d="M314.7,272.5v2.1h-2.1v-2.1H314.7z M314.7,275.8v8.9h-2.1v-8.9H314.7z"/>
	<path d="M316.7,275.8h2.1v1.1c0.4-0.4,0.8-0.8,1.2-0.9s0.9-0.3,1.3-0.3c0.5,0,0.9,0.1,1.2,0.2s0.7,0.3,0.9,0.6s0.4,0.5,0.6,0.9
		s0.2,0.7,0.2,1.2v6.3h-2.1v-5.9c0-0.2,0-0.4-0.1-0.6s-0.2-0.3-0.3-0.4s-0.2-0.2-0.4-0.3s-0.3-0.1-0.5-0.1c-0.3,0-0.5,0.1-0.8,0.2
		s-0.5,0.3-0.7,0.5s-0.4,0.4-0.5,0.7s-0.2,0.5-0.2,0.8v5.3h-2.1V275.8z"/>
	<path d="M326.3,275.8h1.5l0.3,1.1c0.3-0.4,0.5-0.7,0.8-1s0.6-0.3,1-0.3c0.1,0,0.3,0,0.5,0.1s0.5,0.2,0.8,0.3v1.8
		c-0.2-0.1-0.4-0.1-0.6-0.2s-0.3-0.1-0.4-0.1s-0.2,0-0.2,0s-0.1,0-0.1,0c-0.3,0-0.5,0.1-0.7,0.2s-0.4,0.3-0.5,0.4s-0.2,0.4-0.3,0.6
		s-0.1,0.5-0.1,0.7v5.3h-2.1V275.8z"/>
	<path d="M340.3,284.5c-0.2,0.1-0.3,0.2-0.4,0.2s-0.2,0.1-0.3,0.1s-0.2,0-0.3,0s-0.1,0-0.2,0c-0.2,0-0.4,0-0.6-0.1s-0.3-0.2-0.5-0.3
		s-0.2-0.3-0.3-0.4s-0.2-0.3-0.2-0.5c-0.3,0.3-0.5,0.5-0.7,0.7s-0.5,0.3-0.7,0.4s-0.5,0.2-0.7,0.2s-0.5,0.1-0.7,0.1
		c-0.4,0-0.8-0.1-1.1-0.2s-0.7-0.3-0.9-0.5s-0.5-0.5-0.6-0.8c-0.1-0.3-0.2-0.7-0.2-1.1c0-0.3,0.1-0.6,0.2-0.9s0.4-0.5,0.6-0.7
		s0.5-0.3,0.9-0.5s0.7-0.3,1-0.4s0.7-0.2,1-0.3s0.6-0.2,0.9-0.3s0.5-0.2,0.6-0.4s0.2-0.3,0.2-0.5c0-0.2,0-0.3-0.1-0.5
		s-0.2-0.2-0.4-0.3s-0.3-0.1-0.5-0.2s-0.4-0.1-0.5-0.1s-0.4,0-0.5,0.1s-0.3,0.1-0.5,0.2s-0.3,0.2-0.4,0.4s-0.2,0.4-0.2,0.6h-2.1
		c0-0.5,0.2-1,0.4-1.3s0.5-0.7,0.8-1s0.7-0.4,1.1-0.6s0.9-0.2,1.3-0.2c0.5,0,0.9,0.1,1.4,0.2s0.8,0.3,1.2,0.5s0.6,0.5,0.8,0.9
		s0.3,0.8,0.3,1.3v4.3c0,0.1,0,0.2,0.1,0.3s0.2,0.1,0.3,0.1c0,0,0.1,0,0.2,0s0.3-0.1,0.4-0.2V284.5z M337.1,280.4
		c-0.1,0.1-0.3,0.2-0.5,0.2s-0.5,0.1-0.7,0.2s-0.5,0.1-0.8,0.2s-0.5,0.2-0.7,0.3s-0.4,0.2-0.5,0.4s-0.2,0.3-0.2,0.5
		c0,0.2,0,0.3,0.1,0.5s0.1,0.2,0.2,0.3s0.2,0.1,0.3,0.2s0.2,0.1,0.4,0.1c0.4,0,0.8-0.1,1.2-0.4s0.8-0.7,1.1-1.2V280.4z"/>
	<path d="M341.2,275.8h1.5l0.3,1.1c0.3-0.4,0.5-0.7,0.8-1s0.6-0.3,1-0.3c0.1,0,0.3,0,0.5,0.1s0.5,0.2,0.8,0.3v1.8
		c-0.2-0.1-0.4-0.1-0.6-0.2s-0.3-0.1-0.4-0.1s-0.2,0-0.2,0s-0.1,0-0.1,0c-0.3,0-0.5,0.1-0.7,0.2s-0.4,0.3-0.5,0.4s-0.2,0.4-0.3,0.6
		s-0.1,0.5-0.1,0.7v5.3h-2.1V275.8z"/>
	<path d="M349.1,272.5v2.1H347v-2.1H349.1z M349.1,275.8v8.9H347v-8.9H349.1z"/>
	<path d="M352.7,280.8c0,0.3,0.1,0.6,0.2,0.9s0.3,0.5,0.4,0.8s0.4,0.4,0.6,0.5s0.5,0.2,0.8,0.2c0.5,0,0.9-0.1,1.3-0.4
		s0.6-0.7,0.8-1.3h1.9c-0.1,0.5-0.3,1-0.6,1.4s-0.6,0.8-0.9,1.1s-0.8,0.5-1.2,0.7s-0.9,0.2-1.3,0.2c-0.6,0-1.2-0.1-1.7-0.4
		s-1-0.6-1.3-1c-0.4-0.4-0.6-0.9-0.8-1.5s-0.3-1.2-0.3-1.8c0-0.6,0.1-1.2,0.3-1.7s0.5-1,0.8-1.5s0.8-0.8,1.3-1s1.1-0.4,1.7-0.4
		c0.6,0,1.2,0.1,1.7,0.3s0.9,0.5,1.3,0.9s0.6,0.9,0.8,1.4s0.3,1.1,0.3,1.7v0.8H352.7z M356.7,279.2c0-0.3-0.1-0.5-0.2-0.8
		s-0.2-0.4-0.4-0.6s-0.4-0.3-0.6-0.4s-0.5-0.1-0.8-0.1c-0.3,0-0.5,0-0.7,0.1s-0.4,0.2-0.6,0.4s-0.3,0.4-0.4,0.6s-0.2,0.5-0.2,0.7
		H356.7z"/>
	<path d="M361.8,281.5c0,0.3,0.1,0.6,0.1,0.8s0.2,0.4,0.4,0.5s0.3,0.2,0.5,0.3s0.4,0.1,0.6,0.1c0.2,0,0.4,0,0.6,0s0.4-0.1,0.5-0.2
		s0.3-0.2,0.4-0.3s0.1-0.3,0.1-0.5c0-0.2-0.1-0.3-0.2-0.4s-0.2-0.2-0.4-0.3s-0.4-0.2-0.6-0.3s-0.5-0.2-0.7-0.2
		c-0.4-0.1-0.7-0.3-1.1-0.4s-0.7-0.3-1-0.5s-0.5-0.5-0.7-0.8s-0.3-0.7-0.3-1.1s0.1-0.8,0.3-1.1s0.4-0.6,0.7-0.8s0.6-0.4,1-0.5
		s0.8-0.2,1.3-0.2c0.5,0,1,0.1,1.4,0.2s0.8,0.3,1.1,0.5s0.5,0.5,0.7,0.9s0.3,0.8,0.3,1.3h-2c0-0.2-0.1-0.4-0.2-0.6s-0.2-0.3-0.3-0.4
		s-0.3-0.2-0.4-0.2s-0.3-0.1-0.5-0.1c-0.4,0-0.7,0.1-0.9,0.2s-0.3,0.3-0.3,0.6c0,0.1,0.1,0.3,0.2,0.4s0.2,0.2,0.4,0.3
		s0.4,0.2,0.6,0.3s0.5,0.2,0.7,0.3c0.4,0.1,0.7,0.3,1.1,0.4s0.7,0.3,1,0.5s0.5,0.4,0.7,0.7s0.3,0.6,0.3,1c0,0.5-0.1,0.9-0.3,1.3
		s-0.5,0.7-0.8,0.9s-0.7,0.4-1.2,0.5s-0.9,0.2-1.4,0.2c-0.5,0-0.9-0.1-1.4-0.2s-0.8-0.3-1.1-0.6s-0.6-0.6-0.8-1.1s-0.3-0.9-0.3-1.5
		H361.8z"/>
</g>
<g>
	<path fill="#666666" d="M226.5,24.1l4.5-13.6h3.3l-6.2,18.4h-3.3l-6.3-18.4h3.3L226.5,24.1z"/>
	<path fill="#666666" d="M239.4,10.5v3.1h-3.1v-3.1H239.4z M239.4,15.5v13.4h-3.1V15.5H239.4z"/>
	<path fill="#666666" d="M242.2,15.5h2.3l0.5,1.6c0.4-0.6,0.8-1.1,1.3-1.4c0.4-0.3,0.9-0.5,1.4-0.5c0.2,0,0.4,0,0.8,0.1
		c0.4,0.1,0.8,0.2,1.3,0.5v2.7c-0.3-0.1-0.6-0.2-0.8-0.3c-0.2-0.1-0.4-0.1-0.6-0.2c-0.2,0-0.3,0-0.4-0.1s-0.1,0-0.2,0
		c-0.4,0-0.7,0.1-1,0.2s-0.6,0.4-0.8,0.6c-0.2,0.3-0.4,0.6-0.5,0.9s-0.2,0.7-0.2,1.1v8h-3.1V15.5z"/>
	<path fill="#666666" d="M254.9,11.8v3.7h2.5V18h-2.5v7.3c0,0.4,0.1,0.7,0.3,0.9c0.2,0.2,0.4,0.4,0.7,0.4c0.1,0,0.3,0,0.6,0
		c0.3,0,0.7-0.1,1.2-0.3v2.5c-0.5,0.2-1.1,0.3-1.5,0.4c-0.5,0.1-0.9,0.1-1.2,0.1c-0.4,0-0.8-0.1-1.2-0.3s-0.7-0.4-1-0.7
		c-0.3-0.3-0.5-0.7-0.7-1.1s-0.3-0.9-0.3-1.4V18h-1.9v-2.5h1.9v-3.7H254.9z"/>
	<path fill="#666666" d="M270.8,28.9h-3.1v-1.5c-0.3,0.3-0.7,0.6-1,0.9s-0.6,0.4-0.9,0.5c-0.3,0.1-0.6,0.2-0.9,0.3s-0.6,0.1-1,0.1
		c-0.7,0-1.3-0.1-1.8-0.3s-1-0.5-1.4-0.9c-0.4-0.4-0.7-0.8-0.9-1.3c-0.2-0.5-0.3-1.1-0.3-1.8v-9.4h3.1v9.2c0,0.3,0,0.6,0.1,0.9
		c0.1,0.2,0.2,0.4,0.4,0.6s0.4,0.3,0.6,0.3c0.2,0.1,0.5,0.1,0.7,0.1c0.4,0,0.8-0.1,1.2-0.3s0.7-0.4,1-0.8c0.3-0.3,0.5-0.7,0.7-1.1
		s0.3-0.9,0.3-1.3v-7.6h3.1V28.9z"/>
	<path fill="#666666" d="M286.1,28.5c-0.3,0.2-0.5,0.3-0.7,0.4c-0.2,0.1-0.4,0.1-0.5,0.2c-0.2,0-0.3,0.1-0.4,0.1s-0.2,0-0.3,0
		c-0.3,0-0.6-0.1-0.9-0.2c-0.3-0.1-0.5-0.3-0.7-0.5c-0.2-0.2-0.4-0.4-0.5-0.7c-0.1-0.3-0.3-0.5-0.4-0.8c-0.4,0.4-0.8,0.8-1.1,1
		c-0.4,0.3-0.7,0.5-1,0.6s-0.7,0.3-1,0.3s-0.7,0.1-1.1,0.1c-0.6,0-1.2-0.1-1.7-0.3c-0.5-0.2-1-0.5-1.4-0.8c-0.4-0.3-0.7-0.8-0.9-1.3
		s-0.3-1-0.3-1.6c0-0.5,0.1-1,0.3-1.3s0.5-0.7,0.9-1c0.4-0.3,0.8-0.5,1.3-0.7c0.5-0.2,1-0.4,1.5-0.5s1-0.3,1.5-0.5
		c0.5-0.1,0.9-0.3,1.3-0.5c0.4-0.2,0.7-0.4,0.9-0.6s0.3-0.5,0.3-0.7c0-0.3-0.1-0.5-0.2-0.7c-0.1-0.2-0.3-0.3-0.6-0.5
		c-0.2-0.1-0.5-0.2-0.8-0.3c-0.3-0.1-0.5-0.1-0.8-0.1s-0.5,0-0.8,0.1s-0.5,0.2-0.7,0.3c-0.2,0.2-0.4,0.4-0.5,0.6
		c-0.1,0.3-0.2,0.5-0.3,0.9h-3.2c0.1-0.8,0.2-1.4,0.6-2c0.3-0.6,0.7-1.1,1.3-1.4c0.5-0.4,1.1-0.7,1.7-0.8s1.3-0.3,1.9-0.3
		c0.7,0,1.4,0.1,2.1,0.2s1.2,0.4,1.7,0.8c0.5,0.3,0.9,0.8,1.2,1.3s0.4,1.2,0.4,1.9v6.5c0,0.2,0.1,0.3,0.2,0.5
		c0.1,0.1,0.3,0.2,0.5,0.2c0,0,0.1,0,0.3,0s0.4-0.1,0.7-0.3V28.5z M281.4,22.5c-0.2,0.1-0.5,0.2-0.8,0.3s-0.7,0.2-1.1,0.3
		c-0.4,0.1-0.8,0.2-1.1,0.3c-0.4,0.1-0.7,0.2-1,0.4s-0.6,0.3-0.8,0.5c-0.2,0.2-0.3,0.5-0.3,0.7c0,0.3,0,0.5,0.1,0.7s0.2,0.4,0.3,0.5
		c0.1,0.1,0.3,0.2,0.5,0.3s0.4,0.1,0.6,0.1c0.6,0,1.2-0.2,1.9-0.6c0.6-0.4,1.2-1,1.7-1.9V22.5z"/>
	<path fill="#666666" d="M290.6,10.5v18.4h-3.1V10.5H290.6z"/>
	<path fill="#666666" d="M304,10.5l5.1,14.4l5.2-14.4h3.5v18.4h-3.1V16.8l-4.2,12.1h-2.6l-4.3-12.2v12.2h-3.1V10.5H304z"/>
	<path fill="#666666" d="M324.2,23c0.1,0.5,0.2,0.9,0.3,1.4c0.2,0.4,0.4,0.8,0.7,1.1c0.3,0.3,0.6,0.6,0.9,0.8s0.7,0.3,1.2,0.3
		c0.8,0,1.4-0.2,1.9-0.6c0.5-0.4,0.9-1,1.2-1.9h2.9c-0.2,0.8-0.5,1.5-0.9,2.1c-0.4,0.6-0.9,1.2-1.4,1.6s-1.1,0.8-1.8,1
		c-0.6,0.2-1.3,0.3-2,0.3c-1,0-1.8-0.2-2.6-0.6s-1.4-0.9-2-1.6s-1-1.4-1.3-2.3c-0.3-0.9-0.4-1.8-0.4-2.7c0-0.9,0.1-1.8,0.4-2.6
		c0.3-0.8,0.7-1.5,1.3-2.2c0.5-0.6,1.2-1.1,2-1.5c0.8-0.4,1.6-0.6,2.6-0.6c0.9,0,1.8,0.2,2.5,0.5c0.8,0.3,1.4,0.8,1.9,1.4
		c0.5,0.6,0.9,1.3,1.2,2.1c0.3,0.8,0.4,1.7,0.4,2.6V23H324.2z M330.3,20.7c-0.1-0.4-0.2-0.8-0.3-1.1c-0.2-0.3-0.4-0.6-0.6-0.9
		c-0.3-0.3-0.6-0.4-0.9-0.6s-0.8-0.2-1.2-0.2c-0.4,0-0.8,0.1-1.1,0.2c-0.3,0.1-0.6,0.4-0.9,0.6c-0.3,0.3-0.5,0.6-0.6,0.9
		c-0.2,0.3-0.3,0.7-0.3,1.1H330.3z"/>
	<path fill="#666666" d="M336.1,15.5h3.1v1.4c0.5-0.6,1.1-1,1.6-1.3c0.6-0.3,1.1-0.4,1.6-0.4c0.3,0,0.6,0,0.9,0.1
		c0.3,0.1,0.6,0.2,0.8,0.3c0.3,0.2,0.5,0.4,0.8,0.7c0.3,0.3,0.5,0.7,0.8,1.2c0.3-0.5,0.6-0.8,1-1.1s0.7-0.6,1-0.7
		c0.3-0.2,0.7-0.3,1-0.4c0.3-0.1,0.7-0.1,1-0.1c0.7,0,1.3,0.1,1.8,0.4c0.5,0.2,1,0.6,1.4,1c0.4,0.4,0.7,0.9,0.9,1.5s0.3,1.2,0.3,1.8
		v9h-3.1V20c0-0.4-0.1-0.8-0.2-1.1c-0.1-0.3-0.2-0.5-0.4-0.7c-0.2-0.2-0.4-0.3-0.6-0.4c-0.2-0.1-0.4-0.1-0.7-0.1
		c-0.3,0-0.6,0.1-0.9,0.2s-0.6,0.4-0.8,0.6c-0.2,0.3-0.5,0.6-0.6,0.9c-0.2,0.4-0.2,0.7-0.2,1.2v8.1h-3.1V20c0-0.4-0.1-0.8-0.2-1.1
		c-0.1-0.3-0.2-0.5-0.4-0.7s-0.3-0.3-0.5-0.4c-0.2-0.1-0.4-0.1-0.6-0.1c-0.4,0-0.8,0.1-1.1,0.3c-0.3,0.2-0.6,0.4-0.9,0.7
		s-0.5,0.6-0.6,1c-0.1,0.4-0.2,0.7-0.2,1v8h-3.1V15.5z"/>
	<path fill="#666666" d="M357,22.2c0-1,0.1-1.9,0.4-2.7c0.3-0.8,0.7-1.6,1.2-2.2c0.5-0.6,1.2-1.1,2-1.5c0.8-0.4,1.7-0.6,2.7-0.6
		s1.9,0.2,2.7,0.6c0.8,0.4,1.5,0.9,2,1.5c0.5,0.6,1,1.4,1.2,2.2c0.3,0.8,0.4,1.8,0.4,2.7c0,0.9-0.1,1.8-0.4,2.7s-0.7,1.6-1.2,2.2
		c-0.5,0.6-1.2,1.1-2,1.5c-0.8,0.4-1.7,0.5-2.7,0.5s-1.9-0.2-2.7-0.5c-0.8-0.4-1.5-0.9-2-1.5c-0.5-0.6-1-1.4-1.2-2.2
		S357,23.2,357,22.2z M360.1,22.2c0,0.6,0.1,1.2,0.2,1.7c0.1,0.5,0.4,1,0.6,1.4c0.3,0.4,0.6,0.7,1,0.9s0.8,0.3,1.3,0.3
		s0.9-0.1,1.3-0.3c0.4-0.2,0.7-0.5,1-0.9s0.5-0.9,0.6-1.4s0.2-1.1,0.2-1.7s-0.1-1.2-0.2-1.7s-0.4-1-0.6-1.4s-0.6-0.7-1-0.9
		c-0.4-0.2-0.8-0.3-1.3-0.3s-0.9,0.1-1.3,0.3c-0.4,0.2-0.7,0.5-1,0.9c-0.3,0.4-0.5,0.9-0.6,1.4C360.1,21.1,360.1,21.6,360.1,22.2z"
		/>
	<path fill="#666666" d="M371.8,15.5h2.3l0.5,1.6c0.4-0.6,0.8-1.1,1.3-1.4c0.4-0.3,0.9-0.5,1.4-0.5c0.2,0,0.4,0,0.8,0.1
		c0.4,0.1,0.8,0.2,1.3,0.5v2.7c-0.3-0.1-0.6-0.2-0.8-0.3c-0.2-0.1-0.4-0.1-0.6-0.2c-0.2,0-0.3,0-0.4-0.1c-0.1,0-0.1,0-0.2,0
		c-0.4,0-0.7,0.1-1,0.2s-0.6,0.4-0.8,0.6c-0.2,0.3-0.4,0.6-0.5,0.9s-0.2,0.7-0.2,1.1v8h-3.1V15.5z"/>
	<path fill="#666666" d="M385.4,24.3l3-8.8h3.2l-5.6,15.9c-0.2,0.5-0.4,1-0.7,1.3c-0.3,0.4-0.6,0.7-0.9,0.9s-0.6,0.4-1,0.5
		c-0.3,0.1-0.6,0.2-0.9,0.2c-0.1,0-0.3,0-0.4,0s-0.3-0.1-0.5-0.1c-0.2,0-0.4-0.1-0.6-0.2c-0.2-0.1-0.4-0.2-0.5-0.3v-2.4
		c0.3,0.2,0.6,0.3,0.9,0.4c0.2,0.1,0.4,0.1,0.6,0.1c0.2,0,0.4-0.1,0.6-0.2c0.2-0.1,0.3-0.3,0.5-0.6s0.3-0.6,0.4-1
		c0.1-0.4,0.3-0.9,0.5-1.5c-0.1-0.3-0.2-0.6-0.4-1s-0.3-0.7-0.4-1.2c-0.2-0.4-0.4-1-0.6-1.6c-0.2-0.6-0.5-1.4-0.8-2.2
		c-0.3-0.9-0.7-1.9-1.1-3.1s-0.9-2.5-1.5-4.1h3.3L385.4,24.3z"/>
</g>
<g>
	<path fill="#666666" d="M686.6,10.5h7.3c0.9,0,1.8,0.2,2.5,0.5s1.3,0.7,1.8,1.3c0.5,0.5,0.9,1.1,1.1,1.8c0.3,0.7,0.4,1.3,0.4,2
		c0,0.7-0.1,1.4-0.4,2c-0.3,0.7-0.6,1.3-1.1,1.8c-0.5,0.5-1.1,0.9-1.8,1.2c-0.7,0.3-1.6,0.5-2.5,0.5h-4.2v7.4h-3.1V10.5z
		 M689.7,18.9h3.5c0.6,0,1.2-0.1,1.6-0.2c0.4-0.2,0.8-0.4,1.1-0.6c0.3-0.3,0.5-0.6,0.6-0.9c0.1-0.4,0.2-0.7,0.2-1.2
		c0-0.4-0.1-0.8-0.2-1.1s-0.4-0.6-0.7-0.9c-0.3-0.3-0.6-0.4-1.1-0.6c-0.4-0.1-0.9-0.2-1.5-0.2h-3.5V18.9z"/>
	<path fill="#666666" d="M705.8,10.5v6.4c1-1.2,2.2-1.7,3.7-1.7c0.7,0,1.3,0.1,1.9,0.3c0.6,0.2,1,0.5,1.4,0.9
		c0.4,0.4,0.7,0.8,0.9,1.4c0.2,0.5,0.3,1.1,0.3,1.7v9.4h-3.1v-8.7c0-0.4-0.1-0.8-0.2-1.1c-0.1-0.3-0.3-0.5-0.5-0.7
		c-0.2-0.2-0.4-0.3-0.7-0.4s-0.5-0.1-0.8-0.1c-0.4,0-0.7,0.1-1.1,0.2s-0.7,0.4-1,0.6s-0.5,0.6-0.7,1c-0.2,0.4-0.3,0.8-0.3,1.2v8
		h-3.1V10.5H705.8z"/>
	<path fill="#666666" d="M721.9,24.3l3-8.8h3.2l-5.6,15.9c-0.2,0.5-0.4,1-0.7,1.3c-0.3,0.4-0.6,0.7-0.9,0.9s-0.6,0.4-1,0.5
		c-0.3,0.1-0.6,0.2-0.9,0.2c-0.1,0-0.3,0-0.4,0s-0.3-0.1-0.5-0.1s-0.4-0.1-0.6-0.2c-0.2-0.1-0.4-0.2-0.5-0.3v-2.4
		c0.3,0.2,0.6,0.3,0.9,0.4c0.2,0.1,0.4,0.1,0.6,0.1c0.2,0,0.4-0.1,0.6-0.2c0.2-0.1,0.3-0.3,0.5-0.6s0.3-0.6,0.4-1
		c0.1-0.4,0.3-0.9,0.5-1.5c-0.1-0.3-0.2-0.6-0.4-1s-0.3-0.7-0.4-1.2c-0.2-0.4-0.4-1-0.6-1.6c-0.2-0.6-0.5-1.4-0.8-2.2
		c-0.3-0.9-0.7-1.9-1.1-3.1s-0.9-2.5-1.5-4.1h3.3L721.9,24.3z"/>
	<path fill="#666666" d="M731.7,24.1c0,0.5,0.1,0.8,0.2,1.2c0.1,0.3,0.3,0.6,0.5,0.8c0.2,0.2,0.5,0.3,0.8,0.4s0.6,0.1,0.9,0.1
		c0.3,0,0.6,0,0.9-0.1c0.3,0,0.5-0.1,0.8-0.2c0.2-0.1,0.4-0.3,0.5-0.5s0.2-0.4,0.2-0.7c0-0.2-0.1-0.5-0.2-0.6s-0.4-0.4-0.6-0.5
		c-0.3-0.2-0.6-0.3-0.9-0.4s-0.7-0.2-1-0.4c-0.5-0.2-1.1-0.4-1.6-0.6c-0.6-0.2-1.1-0.5-1.5-0.8s-0.8-0.7-1.1-1.1
		c-0.3-0.4-0.4-1-0.4-1.6s0.1-1.2,0.4-1.7c0.3-0.5,0.6-0.9,1-1.2c0.4-0.3,1-0.5,1.6-0.7c0.6-0.2,1.3-0.2,2-0.2
		c0.8,0,1.5,0.1,2.1,0.3s1.2,0.4,1.6,0.8c0.5,0.4,0.8,0.8,1.1,1.4c0.3,0.6,0.4,1.2,0.4,2h-3.1c0-0.3-0.1-0.6-0.3-0.8
		c-0.1-0.2-0.3-0.4-0.5-0.5c-0.2-0.1-0.4-0.2-0.7-0.3c-0.2-0.1-0.5-0.1-0.8-0.1c-0.6,0-1.1,0.1-1.4,0.3c-0.3,0.2-0.5,0.5-0.5,0.9
		c0,0.2,0.1,0.4,0.2,0.6s0.4,0.3,0.6,0.5c0.3,0.1,0.6,0.3,0.9,0.4c0.3,0.1,0.7,0.3,1,0.4c0.5,0.2,1.1,0.4,1.6,0.6
		c0.6,0.2,1.1,0.5,1.5,0.8s0.8,0.7,1.1,1.1c0.3,0.4,0.4,0.9,0.4,1.5c0,0.8-0.2,1.4-0.5,1.9c-0.3,0.5-0.7,1-1.2,1.3
		c-0.5,0.3-1.1,0.6-1.8,0.8c-0.7,0.2-1.4,0.2-2.1,0.2c-0.7,0-1.4-0.1-2-0.3c-0.6-0.2-1.2-0.5-1.7-0.9c-0.5-0.4-0.9-0.9-1.2-1.6
		s-0.5-1.4-0.5-2.2H731.7z"/>
	<path fill="#666666" d="M744.6,10.5v3.1h-3.1v-3.1H744.6z M744.6,15.5v13.4h-3.1V15.5H744.6z"/>
	<path fill="#666666" d="M755.4,20.3c-0.2-0.9-0.6-1.5-1-1.9c-0.4-0.4-0.9-0.6-1.6-0.6c-0.5,0-0.9,0.1-1.3,0.3
		c-0.4,0.2-0.7,0.5-0.9,0.9c-0.3,0.4-0.5,0.8-0.6,1.3s-0.2,1-0.2,1.6c0,0.6,0.1,1.1,0.2,1.7c0.1,0.6,0.3,1.1,0.6,1.5
		c0.3,0.4,0.6,0.8,0.9,1c0.4,0.3,0.8,0.4,1.2,0.4c0.4,0,0.7-0.1,1-0.2c0.3-0.2,0.5-0.4,0.8-0.7c0.2-0.3,0.4-0.6,0.5-1
		c0.1-0.4,0.2-0.8,0.3-1.2h3.2c-0.1,0.9-0.3,1.6-0.6,2.3s-0.7,1.3-1.2,1.8s-1.1,0.9-1.8,1.1s-1.4,0.4-2.3,0.4
		c-0.7,0-1.3-0.1-1.9-0.3c-0.6-0.2-1.1-0.4-1.5-0.8c-0.4-0.3-0.8-0.7-1.2-1.2s-0.6-1-0.8-1.5c-0.2-0.5-0.4-1.1-0.5-1.7
		s-0.2-1.2-0.2-1.8c0-1,0.1-1.9,0.4-2.7c0.3-0.8,0.7-1.5,1.2-2.1s1.2-1.1,1.9-1.4c0.8-0.3,1.6-0.5,2.5-0.5c0.8,0,1.5,0.1,2.2,0.4
		c0.6,0.3,1.2,0.6,1.7,1.1s0.9,1,1.2,1.6s0.5,1.3,0.7,2H755.4z"/>
	<path fill="#666666" d="M772.9,28.5c-0.3,0.2-0.5,0.3-0.7,0.4c-0.2,0.1-0.4,0.1-0.5,0.2c-0.2,0-0.3,0.1-0.4,0.1s-0.2,0-0.3,0
		c-0.3,0-0.6-0.1-0.9-0.2c-0.3-0.1-0.5-0.3-0.7-0.5c-0.2-0.2-0.4-0.4-0.5-0.7c-0.1-0.3-0.3-0.5-0.4-0.8c-0.4,0.4-0.8,0.8-1.1,1
		c-0.4,0.3-0.7,0.5-1,0.6s-0.7,0.3-1,0.3s-0.7,0.1-1.1,0.1c-0.6,0-1.2-0.1-1.7-0.3c-0.5-0.2-1-0.5-1.4-0.8c-0.4-0.3-0.7-0.8-0.9-1.3
		s-0.3-1-0.3-1.6c0-0.5,0.1-1,0.3-1.3c0.2-0.4,0.5-0.7,0.9-1c0.4-0.3,0.8-0.5,1.3-0.7c0.5-0.2,1-0.4,1.5-0.5c0.5-0.2,1-0.3,1.5-0.5
		c0.5-0.1,0.9-0.3,1.3-0.5c0.4-0.2,0.7-0.4,0.9-0.6c0.2-0.2,0.3-0.5,0.3-0.7c0-0.3-0.1-0.5-0.2-0.7c-0.1-0.2-0.3-0.3-0.6-0.5
		c-0.2-0.1-0.5-0.2-0.8-0.3c-0.3-0.1-0.5-0.1-0.8-0.1s-0.5,0-0.8,0.1s-0.5,0.2-0.7,0.3c-0.2,0.2-0.4,0.4-0.5,0.6
		c-0.1,0.3-0.2,0.5-0.3,0.9h-3.2c0.1-0.8,0.2-1.4,0.6-2c0.3-0.6,0.7-1.1,1.3-1.4c0.5-0.4,1.1-0.7,1.7-0.8c0.6-0.2,1.3-0.3,1.9-0.3
		c0.7,0,1.4,0.1,2.1,0.2s1.2,0.4,1.7,0.8c0.5,0.3,0.9,0.8,1.2,1.3s0.4,1.2,0.4,1.9v6.5c0,0.2,0.1,0.3,0.2,0.5
		c0.1,0.1,0.3,0.2,0.5,0.2c0,0,0.1,0,0.3,0c0.2,0,0.4-0.1,0.7-0.3V28.5z M768.2,22.5c-0.2,0.1-0.5,0.2-0.8,0.3s-0.7,0.2-1.1,0.3
		c-0.4,0.1-0.8,0.2-1.1,0.3c-0.4,0.1-0.7,0.2-1,0.4s-0.6,0.3-0.8,0.5c-0.2,0.2-0.3,0.5-0.3,0.7c0,0.3,0,0.5,0.1,0.7s0.2,0.4,0.3,0.5
		c0.1,0.1,0.3,0.2,0.5,0.3s0.4,0.1,0.6,0.1c0.6,0,1.2-0.2,1.9-0.6c0.6-0.4,1.2-1,1.7-1.9V22.5z"/>
	<path fill="#666666" d="M777.3,10.5v18.4h-3.1V10.5H777.3z"/>
	<path fill="#666666" d="M790.7,10.5l5.1,14.4l5.2-14.4h3.5v18.4h-3.1V16.8l-4.2,12.1h-2.6l-4.3-12.2v12.2h-3.1V10.5H790.7z"/>
	<path fill="#666666" d="M811,23c0.1,0.5,0.2,0.9,0.3,1.4c0.2,0.4,0.4,0.8,0.7,1.1c0.3,0.3,0.6,0.6,0.9,0.8s0.7,0.3,1.2,0.3
		c0.8,0,1.4-0.2,1.9-0.6c0.5-0.4,0.9-1,1.2-1.9h2.9c-0.2,0.8-0.5,1.5-0.9,2.1c-0.4,0.6-0.9,1.2-1.4,1.6s-1.1,0.8-1.8,1
		c-0.6,0.2-1.3,0.3-2,0.3c-1,0-1.8-0.2-2.6-0.6s-1.4-0.9-2-1.6c-0.5-0.7-1-1.4-1.3-2.3c-0.3-0.9-0.4-1.8-0.4-2.7
		c0-0.9,0.1-1.8,0.4-2.6c0.3-0.8,0.7-1.5,1.3-2.2c0.5-0.6,1.2-1.1,2-1.5c0.8-0.4,1.6-0.6,2.6-0.6c0.9,0,1.8,0.2,2.5,0.5
		c0.8,0.3,1.4,0.8,1.9,1.4c0.5,0.6,0.9,1.3,1.2,2.1c0.3,0.8,0.4,1.7,0.4,2.6V23H811z M817.1,20.7c-0.1-0.4-0.2-0.8-0.3-1.1
		c-0.2-0.3-0.4-0.6-0.6-0.9c-0.3-0.3-0.6-0.4-0.9-0.6s-0.8-0.2-1.2-0.2c-0.4,0-0.8,0.1-1.1,0.2c-0.3,0.1-0.6,0.4-0.9,0.6
		c-0.3,0.3-0.5,0.6-0.6,0.9c-0.2,0.3-0.3,0.7-0.3,1.1H817.1z"/>
	<path fill="#666666" d="M822.8,15.5h3.1v1.4c0.5-0.6,1.1-1,1.6-1.3c0.6-0.3,1.1-0.4,1.6-0.4c0.3,0,0.6,0,0.9,0.1
		c0.3,0.1,0.6,0.2,0.8,0.3c0.3,0.2,0.5,0.4,0.8,0.7c0.3,0.3,0.5,0.7,0.8,1.2c0.3-0.5,0.6-0.8,1-1.1s0.7-0.6,1-0.7
		c0.3-0.2,0.7-0.3,1-0.4c0.3-0.1,0.7-0.1,1-0.1c0.7,0,1.3,0.1,1.8,0.4c0.5,0.2,1,0.6,1.4,1c0.4,0.4,0.7,0.9,0.9,1.5s0.3,1.2,0.3,1.8
		v9H838V20c0-0.4-0.1-0.8-0.2-1.1c-0.1-0.3-0.2-0.5-0.4-0.7c-0.2-0.2-0.4-0.3-0.6-0.4c-0.2-0.1-0.4-0.1-0.7-0.1
		c-0.3,0-0.6,0.1-0.9,0.2s-0.6,0.4-0.8,0.6c-0.2,0.3-0.5,0.6-0.6,0.9c-0.2,0.4-0.2,0.7-0.2,1.2v8.1h-3.1V20c0-0.4-0.1-0.8-0.2-1.1
		c-0.1-0.3-0.2-0.5-0.4-0.7s-0.3-0.3-0.5-0.4c-0.2-0.1-0.4-0.1-0.6-0.1c-0.4,0-0.8,0.1-1.1,0.3c-0.3,0.2-0.6,0.4-0.9,0.7
		s-0.5,0.6-0.6,1c-0.1,0.4-0.2,0.7-0.2,1v8h-3.1V15.5z"/>
	<path fill="#666666" d="M843.7,22.2c0-1,0.1-1.9,0.4-2.7c0.3-0.8,0.7-1.6,1.2-2.2c0.5-0.6,1.2-1.1,2-1.5c0.8-0.4,1.7-0.6,2.7-0.6
		s1.9,0.2,2.7,0.6c0.8,0.4,1.5,0.9,2,1.5c0.5,0.6,1,1.4,1.2,2.2c0.3,0.8,0.4,1.8,0.4,2.7c0,0.9-0.1,1.8-0.4,2.7s-0.7,1.6-1.2,2.2
		c-0.5,0.6-1.2,1.1-2,1.5c-0.8,0.4-1.7,0.5-2.7,0.5s-1.9-0.2-2.7-0.5c-0.8-0.4-1.5-0.9-2-1.5c-0.5-0.6-1-1.4-1.2-2.2
		S843.7,23.2,843.7,22.2z M846.8,22.2c0,0.6,0.1,1.2,0.2,1.7c0.1,0.5,0.4,1,0.6,1.4c0.3,0.4,0.6,0.7,1,0.9s0.8,0.3,1.3,0.3
		s0.9-0.1,1.3-0.3c0.4-0.2,0.7-0.5,1-0.9s0.5-0.9,0.6-1.4s0.2-1.1,0.2-1.7s-0.1-1.2-0.2-1.7s-0.4-1-0.6-1.4s-0.6-0.7-1-0.9
		c-0.4-0.2-0.8-0.3-1.3-0.3s-0.9,0.1-1.3,0.3c-0.4,0.2-0.7,0.5-1,0.9c-0.3,0.4-0.5,0.9-0.6,1.4C846.9,21.1,846.8,21.6,846.8,22.2z"
		/>
	<path fill="#666666" d="M858.6,15.5h2.3l0.5,1.6c0.4-0.6,0.8-1.1,1.3-1.4c0.4-0.3,0.9-0.5,1.4-0.5c0.2,0,0.4,0,0.8,0.1
		c0.4,0.1,0.8,0.2,1.3,0.5v2.7c-0.3-0.1-0.6-0.2-0.8-0.3c-0.2-0.1-0.4-0.1-0.6-0.2c-0.2,0-0.3,0-0.4-0.1c-0.1,0-0.1,0-0.2,0
		c-0.4,0-0.7,0.1-1,0.2s-0.6,0.4-0.8,0.6c-0.2,0.3-0.4,0.6-0.5,0.9s-0.2,0.7-0.2,1.1v8h-3.1V15.5z"/>
	<path fill="#666666" d="M872.2,24.3l3-8.8h3.2l-5.6,15.9c-0.2,0.5-0.4,1-0.7,1.3c-0.3,0.4-0.6,0.7-0.9,0.9s-0.6,0.4-1,0.5
		c-0.3,0.1-0.6,0.2-0.9,0.2c-0.1,0-0.3,0-0.4,0s-0.3-0.1-0.5-0.1c-0.2,0-0.4-0.1-0.6-0.2c-0.2-0.1-0.4-0.2-0.5-0.3v-2.4
		c0.3,0.2,0.6,0.3,0.9,0.4c0.2,0.1,0.4,0.1,0.6,0.1c0.2,0,0.4-0.1,0.6-0.2c0.2-0.1,0.3-0.3,0.5-0.6s0.3-0.6,0.4-1
		c0.1-0.4,0.3-0.9,0.5-1.5c-0.1-0.3-0.2-0.6-0.4-1s-0.3-0.7-0.4-1.2c-0.2-0.4-0.4-1-0.6-1.6c-0.2-0.6-0.5-1.4-0.8-2.2
		c-0.3-0.9-0.7-1.9-1.1-3.1s-0.9-2.5-1.5-4.1h3.3L872.2,24.3z"/>
</g>
<rect x="622.3" y="45.4" fill="#FFFFFF" stroke="#808080" stroke-width="3.1601" stroke-miterlimit="10" width="315.5" height="477.1"/>
<g>
	<rect x="622.7" y="488" fill="#E6E6E6" width="314.9" height="34.1"/>
	<path d="M937.2,488.4v33.4H623v-33.4H937.2 M937.9,487.7H622.3v34.7h315.5V487.7L937.9,487.7z"/>
</g>
<g>
	<g>
		<line fill="none" stroke="#B3B3B3" stroke-width="2" stroke-miterlimit="10" x1="459.9" y1="421.1" x2="464.4" y2="423.4"/>
		
			<line fill="none" stroke="#B3B3B3" stroke-width="2" stroke-miterlimit="10" stroke-dasharray="10.5155,10.5155" x1="473.8" y1="428.1" x2="600.6" y2="491.9"/>
		<line fill="none" stroke="#B3B3B3" stroke-width="2" stroke-miterlimit="10" x1="605.3" y1="494.3" x2="609.7" y2="496.5"/>
		<g>
			<polygon fill="#B3B3B3" points="622.3,502.9 600.9,501.2 608.8,496 608.2,486.6 			"/>
		</g>
	</g>
</g>
<g>
	<g>
		<line fill="none" stroke="#B3B3B3" stroke-width="2" stroke-miterlimit="10" x1="459.9" y1="384.2" x2="608.2" y2="272.8"/>
		<g>
			<polygon fill="#B3B3B3" points="608.5,279.8 622.3,262.1 601.5,270.5 			"/>
		</g>
	</g>
</g>
<g>
	<g>
		<line fill="none" stroke="#B3B3B3" stroke-width="2" stroke-miterlimit="10" x1="459.5" y1="236.8" x2="611.4" y2="112.9"/>
		<g>
			<polygon fill="#B3B3B3" points="622.3,104 612.1,122.9 610.6,113.6 601.8,110.3 			"/>
		</g>
	</g>
</g>
<g>
	<rect x="622.7" y="91.6" fill="#E6E6E6" width="314.9" height="34.1"/>
	<path d="M937.2,91.9v33.4H623V91.9H937.2 M937.9,91.2H622.3V126h315.5V91.2L937.9,91.2z"/>
</g>
<g>
	<rect x="622.7" y="247.5" fill="#E6E6E6" width="314.9" height="34.1"/>
	<path d="M937.2,247.9v33.4H623v-33.4H937.2 M937.9,247.2H622.3V282h315.5V247.2L937.9,247.2z"/>
</g>
<g>
	<rect x="622.7" y="441.9" fill="#E6E6E6" width="314.9" height="34.1"/>
	<path d="M937.2,442.2v33.4H623v-33.4H937.2 M937.9,441.6H622.3v34.7h315.5V441.6L937.9,441.6z"/>
</g>
<g>
	<rect x="622.7" y="396.8" fill="#E6E6E6" width="314.9" height="34.1"/>
	<path d="M937.2,397.1v33.4H623v-33.4H937.2 M937.9,396.5H622.3v34.7h315.5V396.5L937.9,396.5z"/>
</g>
<g>
	<g>
		
			<line fill="none" stroke="#B3B3B3" stroke-width="2" stroke-miterlimit="10" stroke-dasharray="10,10" x1="459.5" y1="502.6" x2="608.7" y2="462.6"/>
		<g>
			<polygon fill="#B3B3B3" points="622.3,459 605.2,472 607.7,462.9 601,456.3 			"/>
		</g>
	</g>
</g>
<g>
	<g>
		
			<line fill="none" stroke="#B3B3B3" stroke-width="2" stroke-miterlimit="10" stroke-dasharray="10,10" x1="459.9" y1="463" x2="608.8" y2="421.1"/>
		<g>
			<polygon fill="#B3B3B3" points="622.3,417.3 605.4,430.5 607.7,421.4 601,414.9 			"/>
		</g>
	</g>
</g>
<text transform="matrix(1 0 0 1 482.3072 385.1537)" fill="#808080" font-family="'SinhalaSangamMN-Bold'" font-size="18px">brk()</text>
<text transform="matrix(1 0 0 1 472.3356 241.0319)" fill="#808080" font-family="'SinhalaSangamMN-Bold'" font-size="18px">mmap()</text>
<g>
	<rect x="622.7" y="136.1" fill="#E6E6E6" width="314.9" height="34.1"/>
	<path d="M937.2,136.4v33.4H623v-33.4H937.2 M937.9,135.8H622.3v34.7h315.5V135.8L937.9,135.8z"/>
</g>
<g>
	<g>
		
			<line fill="none" stroke="#B3B3B3" stroke-width="2" stroke-miterlimit="10" stroke-dasharray="10,10" x1="460.8" y1="135.8" x2="610.5" y2="157.1"/>
		<g>
			<polygon fill="#B3B3B3" points="603.9,163.6 608.1,156.7 606,148.9 622.3,158.7 			"/>
		</g>
	</g>
</g>
<g>
	<rect x="622.7" y="296.1" fill="#E6E6E6" width="314.9" height="34.1"/>
	<path d="M937.2,296.5v33.4H623v-33.4H937.2 M937.9,295.8H622.3v34.7h315.5V295.8L937.9,295.8z"/>
</g>
<g>
	<g>
		
			<line fill="none" stroke="#B3B3B3" stroke-width="2" stroke-miterlimit="10" stroke-dasharray="10,10" x1="458.5" y1="280.4" x2="610.9" y2="310.5"/>
		<g>
			<polygon fill="#B3B3B3" points="624.8,313.2 603.7,317.3 609.9,310.3 606.8,301.4 			"/>
		</g>
	</g>
</g>
<g>
	<path d="M710,102.5h4.9c0.6,0,1.2,0.1,1.7,0.3s0.9,0.5,1.2,0.8s0.6,0.7,0.8,1.2s0.3,0.9,0.3,1.3c0,0.5-0.1,0.9-0.3,1.4
		s-0.4,0.8-0.8,1.2s-0.7,0.6-1.2,0.8s-1,0.3-1.7,0.3h-2.8v4.9H710V102.5z M712.1,108.1h2.3c0.4,0,0.8-0.1,1.1-0.2
		c0.3-0.1,0.5-0.2,0.7-0.4s0.3-0.4,0.4-0.6c0.1-0.2,0.1-0.5,0.1-0.8c0-0.3,0-0.5-0.1-0.8s-0.2-0.4-0.4-0.6s-0.4-0.3-0.7-0.4
		c-0.3-0.1-0.6-0.1-1-0.1h-2.3V108.1z"/>
	<path d="M728.7,114.6c-0.2,0.1-0.3,0.2-0.4,0.2s-0.2,0.1-0.3,0.1c-0.1,0-0.2,0-0.3,0c-0.1,0-0.1,0-0.2,0c-0.2,0-0.4,0-0.6-0.1
		s-0.3-0.2-0.5-0.3c-0.1-0.1-0.2-0.3-0.3-0.4c-0.1-0.2-0.2-0.3-0.2-0.5c-0.3,0.3-0.5,0.5-0.7,0.7s-0.5,0.3-0.7,0.4s-0.5,0.2-0.7,0.2
		s-0.5,0.1-0.7,0.1c-0.4,0-0.8-0.1-1.1-0.2s-0.7-0.3-0.9-0.5s-0.5-0.5-0.6-0.8s-0.2-0.7-0.2-1.1c0-0.3,0.1-0.6,0.2-0.9
		c0.2-0.3,0.4-0.5,0.6-0.7c0.3-0.2,0.5-0.3,0.9-0.5c0.3-0.1,0.7-0.3,1-0.4c0.3-0.1,0.7-0.2,1-0.3c0.3-0.1,0.6-0.2,0.9-0.3
		c0.3-0.1,0.5-0.2,0.6-0.4c0.2-0.1,0.2-0.3,0.2-0.5c0-0.2,0-0.3-0.1-0.5c-0.1-0.1-0.2-0.2-0.4-0.3c-0.2-0.1-0.3-0.1-0.5-0.2
		c-0.2,0-0.4-0.1-0.5-0.1s-0.4,0-0.5,0.1s-0.3,0.1-0.5,0.2s-0.3,0.2-0.4,0.4s-0.2,0.4-0.2,0.6h-2.1c0-0.5,0.2-1,0.4-1.3
		c0.2-0.4,0.5-0.7,0.8-1s0.7-0.4,1.1-0.6c0.4-0.1,0.9-0.2,1.3-0.2c0.5,0,0.9,0.1,1.4,0.2c0.4,0.1,0.8,0.3,1.2,0.5s0.6,0.5,0.8,0.9
		s0.3,0.8,0.3,1.3v4.3c0,0.1,0,0.2,0.1,0.3s0.2,0.1,0.3,0.1c0,0,0.1,0,0.2,0s0.3-0.1,0.4-0.2V114.6z M725.5,110.5
		c-0.1,0.1-0.3,0.2-0.5,0.2s-0.5,0.1-0.7,0.2s-0.5,0.1-0.8,0.2c-0.3,0.1-0.5,0.2-0.7,0.3s-0.4,0.2-0.5,0.4c-0.1,0.1-0.2,0.3-0.2,0.5
		c0,0.2,0,0.3,0.1,0.5s0.1,0.2,0.2,0.3c0.1,0.1,0.2,0.1,0.3,0.2s0.2,0.1,0.4,0.1c0.4,0,0.8-0.1,1.2-0.4c0.4-0.3,0.8-0.7,1.1-1.2
		V110.5z"/>
	<path d="M737.3,114.7c0,0.6-0.1,1.2-0.3,1.6c-0.2,0.5-0.5,0.9-0.9,1.2s-0.8,0.6-1.3,0.7c-0.5,0.2-1,0.2-1.5,0.2
		c-0.4,0-0.9-0.1-1.2-0.2c-0.4-0.1-0.8-0.3-1.1-0.6s-0.6-0.6-0.9-1s-0.5-0.9-0.7-1.4h2c0.2,0.5,0.5,0.9,0.8,1.1s0.7,0.3,1.1,0.3
		c0.3,0,0.5,0,0.7-0.1s0.4-0.2,0.6-0.4c0.2-0.2,0.3-0.4,0.4-0.6c0.1-0.2,0.1-0.5,0.1-0.8V114c-0.3,0.3-0.6,0.6-1,0.7
		s-0.8,0.3-1.2,0.3c-0.6,0-1.1-0.1-1.6-0.4s-0.9-0.6-1.2-1c-0.3-0.4-0.6-0.9-0.7-1.5s-0.3-1.2-0.3-1.8s0.1-1.2,0.3-1.8
		s0.4-1.1,0.8-1.5s0.7-0.8,1.2-1c0.5-0.2,1-0.4,1.6-0.4c0.2,0,0.3,0,0.5,0s0.3,0.1,0.5,0.1s0.4,0.2,0.5,0.3c0.2,0.1,0.4,0.3,0.5,0.5
		v-0.8h2.1V114.7z M735.2,110.2c0-0.4-0.1-0.8-0.1-1.1c-0.1-0.3-0.2-0.6-0.4-0.9s-0.3-0.5-0.6-0.6c-0.2-0.1-0.5-0.2-0.8-0.2
		c-0.3,0-0.6,0.1-0.8,0.2s-0.5,0.4-0.7,0.6s-0.3,0.6-0.4,0.9s-0.2,0.7-0.2,1.1s0.1,0.8,0.2,1.1s0.3,0.7,0.4,0.9s0.4,0.5,0.7,0.6
		s0.5,0.2,0.8,0.2c0.3,0,0.6-0.1,0.8-0.2s0.4-0.4,0.6-0.6s0.3-0.6,0.4-0.9s0.1-0.7,0.1-1.1V110.2z"/>
	<path d="M740.9,110.9c0,0.3,0.1,0.6,0.2,0.9s0.3,0.5,0.4,0.8s0.4,0.4,0.6,0.5s0.5,0.2,0.8,0.2c0.5,0,0.9-0.1,1.3-0.4
		s0.6-0.7,0.8-1.3h1.9c-0.1,0.5-0.3,1-0.6,1.4c-0.3,0.4-0.6,0.8-0.9,1.1s-0.8,0.5-1.2,0.7c-0.4,0.2-0.9,0.2-1.3,0.2
		c-0.6,0-1.2-0.1-1.7-0.4s-1-0.6-1.3-1s-0.6-0.9-0.8-1.5s-0.3-1.2-0.3-1.8c0-0.6,0.1-1.2,0.3-1.7s0.5-1,0.8-1.5s0.8-0.8,1.3-1
		c0.5-0.2,1.1-0.4,1.7-0.4c0.6,0,1.2,0.1,1.7,0.3s0.9,0.5,1.3,0.9s0.6,0.9,0.8,1.4c0.2,0.5,0.3,1.1,0.3,1.7v0.8H740.9z M745,109.3
		c0-0.3-0.1-0.5-0.2-0.8c-0.1-0.2-0.3-0.4-0.4-0.6s-0.4-0.3-0.6-0.4s-0.5-0.1-0.8-0.1c-0.3,0-0.5,0-0.7,0.1s-0.4,0.2-0.6,0.4
		s-0.3,0.4-0.4,0.6c-0.1,0.2-0.2,0.5-0.2,0.7H745z"/>
	<path d="M765.5,100.9c-0.8,1.4-1.3,2.7-1.6,4.1c-0.3,1.3-0.5,2.7-0.5,4s0.2,2.7,0.5,4c0.3,1.3,0.9,2.7,1.6,4.1h-1.7
		c-0.5-0.6-0.9-1.2-1.2-1.9s-0.6-1.3-0.9-2s-0.4-1.4-0.5-2.1c-0.1-0.7-0.2-1.4-0.2-2.1c0-1.4,0.2-2.8,0.7-4.2s1.1-2.7,2.1-3.9H765.5
		z"/>
	<path d="M771.4,114.8V112h-5.2v-1.8l5.3-7.3h2v7.5h1.7v1.6h-1.7v2.8H771.4z M768.3,110.4h3.1v-4.3L768.3,110.4z"/>
	<path d="M779.1,102.5v5.4l5.4-5.4h2.7l-5,4.9l5.1,7.3h-2.5l-4-5.9l-1.6,1.6v4.3H777v-12.3H779.1z"/>
	<path d="M789.2,102.5h5c0.6,0,1.1,0.1,1.5,0.2s0.8,0.4,1.2,0.7c0.3,0.3,0.6,0.6,0.7,1c0.2,0.4,0.2,0.8,0.2,1.2c0,0.5-0.1,1-0.3,1.4
		s-0.6,0.8-1,1.2c0.4,0.2,0.7,0.3,1,0.6s0.5,0.5,0.6,0.7c0.2,0.3,0.3,0.5,0.4,0.8c0.1,0.3,0.1,0.6,0.1,0.9c0,0.5-0.1,1-0.3,1.4
		s-0.5,0.8-0.8,1.1s-0.8,0.6-1.2,0.8s-0.9,0.3-1.4,0.3h-5.5V102.5z M791.3,107.4h2.6c0.3,0,0.6,0,0.8-0.1s0.5-0.2,0.6-0.4
		s0.3-0.3,0.4-0.5c0.1-0.2,0.1-0.4,0.1-0.7c0-0.2,0-0.4-0.1-0.6s-0.2-0.3-0.3-0.5s-0.3-0.2-0.5-0.3s-0.5-0.1-0.8-0.1h-2.8V107.4z
		 M791.3,113h2.9c0.3,0,0.5,0,0.8-0.1s0.5-0.2,0.7-0.3s0.4-0.3,0.5-0.6s0.2-0.5,0.2-0.8c0-0.3-0.1-0.5-0.2-0.8s-0.3-0.5-0.5-0.6
		c-0.2-0.2-0.5-0.3-0.8-0.4s-0.7-0.2-1.1-0.2h-2.5V113z"/>
	<path d="M803.9,110.3c0-0.6,0.1-1.2,0.3-1.8s0.5-1.1,0.8-1.5s0.8-0.8,1.3-1c0.5-0.2,1.1-0.4,1.8-0.4s1.3,0.1,1.8,0.4s1,0.6,1.3,1
		c0.4,0.4,0.6,0.9,0.8,1.5c0.2,0.6,0.3,1.2,0.3,1.8c0,0.6-0.1,1.2-0.3,1.8s-0.5,1.1-0.8,1.5c-0.4,0.4-0.8,0.8-1.3,1
		c-0.5,0.2-1.1,0.4-1.8,0.4s-1.3-0.1-1.8-0.4s-1-0.6-1.3-1c-0.4-0.4-0.6-0.9-0.8-1.5S803.9,111,803.9,110.3z M806,110.3
		c0,0.4,0,0.8,0.1,1.1s0.2,0.7,0.4,0.9c0.2,0.3,0.4,0.5,0.7,0.6s0.6,0.2,0.9,0.2s0.6-0.1,0.9-0.2s0.5-0.4,0.7-0.6s0.3-0.6,0.4-0.9
		s0.1-0.7,0.1-1.1s0-0.8-0.1-1.1s-0.2-0.7-0.4-0.9s-0.4-0.5-0.7-0.6s-0.6-0.2-0.9-0.2s-0.6,0.1-0.9,0.2s-0.5,0.4-0.7,0.6
		c-0.2,0.3-0.3,0.6-0.4,0.9S806,109.9,806,110.3z"/>
	<path d="M813.8,105.9h1.5l0.3,1.1c0.3-0.4,0.5-0.7,0.8-1c0.3-0.2,0.6-0.3,1-0.3c0.1,0,0.3,0,0.5,0.1s0.5,0.2,0.8,0.3v1.8
		c-0.2-0.1-0.4-0.1-0.6-0.2s-0.3-0.1-0.4-0.1s-0.2,0-0.2,0c-0.1,0-0.1,0-0.1,0c-0.3,0-0.5,0.1-0.7,0.2s-0.4,0.3-0.5,0.4
		s-0.2,0.4-0.3,0.6s-0.1,0.5-0.1,0.7v5.3h-2.1V105.9z"/>
	<path d="M824,105.9h2.1v1c0.4-0.4,0.7-0.7,1.1-0.9c0.4-0.2,0.7-0.3,1.1-0.3c0.2,0,0.4,0,0.6,0.1s0.4,0.1,0.6,0.2s0.4,0.3,0.5,0.5
		s0.4,0.5,0.5,0.8c0.2-0.3,0.4-0.6,0.7-0.8s0.5-0.4,0.7-0.5s0.5-0.2,0.7-0.3c0.2,0,0.5-0.1,0.7-0.1c0.5,0,0.9,0.1,1.2,0.2
		s0.7,0.4,0.9,0.7c0.3,0.3,0.5,0.6,0.6,1s0.2,0.8,0.2,1.2v6h-2.1v-5.9c0-0.3,0-0.5-0.1-0.7c-0.1-0.2-0.2-0.3-0.3-0.4
		c-0.1-0.1-0.2-0.2-0.4-0.2c-0.1,0-0.3-0.1-0.4-0.1c-0.2,0-0.4,0-0.6,0.1s-0.4,0.2-0.6,0.4c-0.2,0.2-0.3,0.4-0.4,0.6
		c-0.1,0.2-0.2,0.5-0.2,0.8v5.4h-2.1v-5.9c0-0.3,0-0.5-0.1-0.7c-0.1-0.2-0.2-0.3-0.3-0.4s-0.2-0.2-0.4-0.2c-0.1,0-0.3-0.1-0.4-0.1
		c-0.3,0-0.5,0.1-0.7,0.2s-0.4,0.3-0.6,0.5s-0.3,0.4-0.4,0.7s-0.1,0.5-0.1,0.7v5.3H824V105.9z"/>
	<path d="M838,110.3c0-0.6,0.1-1.2,0.3-1.8s0.5-1.1,0.8-1.5s0.8-0.8,1.3-1c0.5-0.2,1.1-0.4,1.8-0.4s1.3,0.1,1.8,0.4s1,0.6,1.3,1
		c0.4,0.4,0.6,0.9,0.8,1.5c0.2,0.6,0.3,1.2,0.3,1.8c0,0.6-0.1,1.2-0.3,1.8s-0.5,1.1-0.8,1.5c-0.4,0.4-0.8,0.8-1.3,1
		c-0.5,0.2-1.1,0.4-1.8,0.4s-1.3-0.1-1.8-0.4s-1-0.6-1.3-1c-0.4-0.4-0.6-0.9-0.8-1.5S838,111,838,110.3z M840,110.3
		c0,0.4,0,0.8,0.1,1.1s0.2,0.7,0.4,0.9c0.2,0.3,0.4,0.5,0.7,0.6s0.6,0.2,0.9,0.2s0.6-0.1,0.9-0.2s0.5-0.4,0.7-0.6s0.3-0.6,0.4-0.9
		s0.1-0.7,0.1-1.1s0-0.8-0.1-1.1s-0.2-0.7-0.4-0.9s-0.4-0.5-0.7-0.6s-0.6-0.2-0.9-0.2s-0.6,0.1-0.9,0.2s-0.5,0.4-0.7,0.6
		c-0.2,0.3-0.3,0.6-0.4,0.9S840,109.9,840,110.3z"/>
	<path d="M847.9,105.9h1.5l0.3,1.1c0.3-0.4,0.5-0.7,0.8-1c0.3-0.2,0.6-0.3,1-0.3c0.1,0,0.3,0,0.5,0.1s0.5,0.2,0.8,0.3v1.8
		c-0.2-0.1-0.4-0.1-0.6-0.2s-0.3-0.1-0.4-0.1s-0.2,0-0.2,0c-0.1,0-0.1,0-0.1,0c-0.3,0-0.5,0.1-0.7,0.2s-0.4,0.3-0.5,0.4
		s-0.2,0.4-0.3,0.6s-0.1,0.5-0.1,0.7v5.3h-2.1V105.9z"/>
	<path d="M855.4,110.9c0,0.3,0.1,0.6,0.2,0.9s0.3,0.5,0.4,0.8s0.4,0.4,0.6,0.5s0.5,0.2,0.8,0.2c0.5,0,0.9-0.1,1.3-0.4
		s0.6-0.7,0.8-1.3h1.9c-0.1,0.5-0.3,1-0.6,1.4c-0.3,0.4-0.6,0.8-0.9,1.1s-0.8,0.5-1.2,0.7c-0.4,0.2-0.9,0.2-1.3,0.2
		c-0.6,0-1.2-0.1-1.7-0.4s-1-0.6-1.3-1s-0.6-0.9-0.8-1.5s-0.3-1.2-0.3-1.8c0-0.6,0.1-1.2,0.3-1.7s0.5-1,0.8-1.5s0.8-0.8,1.3-1
		c0.5-0.2,1.1-0.4,1.7-0.4c0.6,0,1.2,0.1,1.7,0.3s0.9,0.5,1.3,0.9s0.6,0.9,0.8,1.4c0.2,0.5,0.3,1.1,0.3,1.7v0.8H855.4z M859.4,109.3
		c0-0.3-0.1-0.5-0.2-0.8c-0.1-0.2-0.3-0.4-0.4-0.6s-0.4-0.3-0.6-0.4s-0.5-0.1-0.8-0.1c-0.3,0-0.5,0-0.7,0.1s-0.4,0.2-0.6,0.4
		s-0.3,0.4-0.4,0.6c-0.1,0.2-0.2,0.5-0.2,0.7H859.4z"/>
	<path d="M863.8,100.9c0.5,0.6,0.9,1.2,1.2,1.9s0.6,1.3,0.9,2s0.4,1.4,0.5,2.1s0.2,1.4,0.2,2.1c0,1.4-0.2,2.8-0.7,4.2
		s-1.1,2.7-2.1,3.9h-1.8c0.8-1.4,1.3-2.7,1.7-4.1c0.3-1.3,0.5-2.7,0.5-4c0-1.3-0.2-2.6-0.5-4c-0.3-1.3-0.9-2.7-1.7-4.1H863.8z"/>
</g>
</svg>
