<?xml version="1.0" encoding="utf-8"?>
<!-- Generator: Adobe Illustrator 25.0.1, SVG Export Plug-In . SVG Version: 6.00 Build 0)  -->
<svg version="1.1" id="图层_1" xmlns="http://www.w3.org/2000/svg" xmlns:xlink="http://www.w3.org/1999/xlink" x="0px" y="0px"
	 viewBox="0 0 693.4 158.8" style="enable-background:new 0 0 693.4 158.8;" xml:space="preserve">
<style type="text/css">
	.st0{fill:#FF9973;}
	.st1{fill:#CC7A5C;}
	.st2{fill:#7474BE;}
	.st3{fill:#A2FAB7;}
	.st4{fill:none;stroke:#000000;stroke-width:0.6667;stroke-linejoin:round;stroke-miterlimit:5.3333;}
	.st5{fill:#905C98;}
	.st6{fill:#06B489;}
	.st7{fill:none;stroke:#555;stroke-width:0.6667;stroke-linecap:round;stroke-linejoin:round;stroke-miterlimit:5.3333;}
	.st8{fill:#CCCCCC;}
	.st9{fill:#82C892;}
	.st10{fill:#06B489;stroke:#000000;stroke-width:0.6667;stroke-linejoin:round;stroke-miterlimit:5.3333;}
</style>
<path class="st0" d="M51.2,74.9h106.7V21.5H51.2V74.9z"/>
<path class="st1" d="M57.9,28.2h44v20h-44V28.2z"/>
<path class="st2" d="M57.9,68.2h46.7v-9.3H57.9V68.2z"/>
<path class="st3" d="M57.9,58.9h46.7L85.9,48.2h-12L57.9,58.9z"/>
<path class="st4" d="M57.9,58.9h46.7L85.9,48.2h-12L57.9,58.9z"/>
<path class="st1" d="M107.2,28.2h44v20h-44V28.2z"/>
<path class="st5" d="M104.6,68.2h46.7v-9.3h-46.7C104.6,58.9,104.6,68.2,104.6,68.2z"/>
<path class="st6" d="M104.6,58.9h46.7l-18.7-10.7h-12L104.6,58.9z"/>
<path class="st4" d="M104.6,58.9h46.7l-18.7-10.7h-12L104.6,58.9z"/>
<path class="st3" d="M75.2,68.2h12l44,33.3H77.9L75.2,68.2z"/>
<path class="st4" d="M75.2,68.2h12l44,33.3H77.9L75.2,68.2z"/>
<path class="st6" d="M121.9,68.2h12l130.7,33.3h-53.3L121.9,68.2z"/>
<path class="st4" d="M121.9,68.2h12l130.7,33.3h-53.3L121.9,68.2z"/>
<path class="st0" d="M184.6,74.9h106.7V21.5H184.6V74.9z"/>
<path class="st1" d="M191.2,28.2h44v20h-44V28.2z"/>
<path class="st2" d="M191.2,68.2h46.7v-9.3h-46.7V68.2z"/>
<path class="st3" d="M191.2,58.9h46.7l-18.7-10.7h-12L191.2,58.9z"/>
<path class="st4" d="M191.2,58.9h46.7l-18.7-10.7h-12L191.2,58.9z"/>
<path class="st1" d="M240.6,28.2h44v20h-44V28.2z"/>
<path class="st5" d="M237.9,68.2h46.7v-9.3h-46.7L237.9,68.2L237.9,68.2z"/>
<path class="st6" d="M237.9,58.9h46.7l-18.7-10.7h-12L237.9,58.9z"/>
<path class="st4" d="M237.9,58.9h46.7l-18.7-10.7h-12L237.9,58.9z"/>
<path class="st3" d="M208.6,68.2h12l-89.3,33.3H77.9L208.6,68.2z"/>
<path class="st4" d="M208.6,68.2h12l-89.3,33.3H77.9L208.6,68.2z"/>
<path class="st6" d="M255.2,68.2h12l-2.7,33.3h-53.3L255.2,68.2z"/>
<path class="st4" d="M255.2,68.2h12l-2.7,33.3h-53.3L255.2,68.2z"/>
<path class="st2" d="M77.9,101.5h53.3v13.3H77.9V101.5z"/>
<path class="st5" d="M211.2,101.5h53.3v13.3h-53.3V101.5z"/>
<path class="st7" d="M37.9,101.5h266.7 M37.9,114.9h266.7"/>
<path class="st0" d="M406,74.4h106.7V21H406V74.4z"/>
<path class="st1" d="M412.7,27.7h44v20h-44V27.7z"/>
<path class="st8" d="M412.7,67.7H506v-9.3h-93.3V67.7z"/>
<path class="st2" d="M435.3,67.7H482v-9.3h-46.7V67.7z"/>
<path class="st3" d="M435.3,58.4H482l-41.3-10.7h-12L435.3,58.4z"/>
<path class="st4" d="M435.3,58.4H482l-41.3-10.7h-12L435.3,58.4z"/>
<path class="st1" d="M462,27.7h44v20h-44V27.7z"/>
<path class="st3" d="M435.3,58.4H482l5.3-10.7h-12L435.3,58.4z"/>
<path class="st4" d="M435.3,58.4H482l5.3-10.7h-12L435.3,58.4z"/>
<path class="st3" d="M452.7,67.7h12L486,101h-53.3L452.7,67.7z"/>
<path class="st4" d="M452.7,67.7h12L486,101h-53.3L452.7,67.7z"/>
<path class="st0" d="M539.3,74.4H646V21H539.3V74.4z"/>
<path class="st1" d="M546,27.7h44v20h-44V27.7z"/>
<path class="st8" d="M546,67.7h93.3v-9.3H546V67.7z"/>
<path class="st5" d="M568.7,67.7h46.7v-9.3h-46.7V67.7z"/>
<path class="st6" d="M568.7,58.4h46.7L574,47.7h-12L568.7,58.4z"/>
<path class="st4" d="M568.7,58.4h46.7L574,47.7h-12L568.7,58.4z"/>
<path class="st1" d="M595.3,27.7h44v20h-44V27.7z"/>
<path class="st9" d="M568.7,58.4h46.7l5.3-10.7h-12L568.7,58.4z"/>
<path class="st10" d="M568.7,58.4h46.7l5.3-10.7h-12L568.7,58.4z"/>
<path class="st6" d="M586,67.7h12l21.3,33.3H566L586,67.7z"/>
<path class="st4" d="M586,67.7h12l21.3,33.3H566L586,67.7z"/>
<path class="st2" d="M432.7,101H486v13.3h-53.3V101z"/>
<path class="st5" d="M566,101h53.3v13.3H566V101z"/>
<path class="st7" d="M392.7,101h266.7 M392.7,114.4h266.7"/>
<g fill="#555" >
	<path d="M109.1,140.4v-0.6l0.8-0.1l0.2-0.2v-6.3l-0.2-0.2l-0.8-0.1v-0.6h3.6v0.6l-0.8,0.1l-0.2,0.2v6.4l0.2,0.2l0.8,0.1v0.6h-3.6
		V140.4z"/>
	<path d="M113.3,140.4v-0.5h0.6l0.2-0.2v-4.1h-0.8v-0.5l1.7-0.6h0.6v0.7c0.5-0.3,0.9-0.4,1.2-0.6s0.6-0.2,0.9-0.2
		c0.5,0,1,0.2,1.2,0.5s0.4,0.8,0.4,1.5v3.2l0.2,0.2h0.6v0.5h-2.9v-0.5h0.5l0.2-0.2v-2.9c0-0.4-0.1-0.8-0.3-1s-0.4-0.3-0.8-0.3
		c-0.1,0-0.3,0-0.5,0.1s-0.4,0.1-0.6,0.2v4l0.2,0.2h0.5v0.5L113.3,140.4L113.3,140.4z"/>
	<path d="M126.1,138.9v0.9c-0.4,0.2-0.8,0.4-1.2,0.5s-0.8,0.2-1.3,0.2c-0.9,0-1.6-0.3-2.2-0.8c-0.5-0.6-0.8-1.3-0.8-2.2
		s0.3-1.7,0.8-2.2c0.6-0.6,1.3-0.9,2.1-0.9c0.8,0,1.4,0.2,1.8,0.7s0.7,1.1,0.7,2v0.2h-3.9l0,0c0,0.7,0.2,1.2,0.5,1.6
		c0.3,0.4,0.8,0.6,1.4,0.6c0.3,0,0.6-0.1,1-0.2S125.8,139.1,126.1,138.9z M124.6,136.7v-0.1c0-0.5-0.1-0.9-0.3-1.1s-0.4-0.4-0.8-0.4
		s-0.7,0.1-0.9,0.4s-0.3,0.7-0.4,1.2L124.6,136.7L124.6,136.7z"/>
	<path d="M126.9,140.4v-0.6l0.6-0.1l0.2-0.2v-4.2h-0.8v-0.5l0.8-0.4c0-0.6,0.1-1.1,0.3-1.5c0.2-0.4,0.5-0.8,0.9-1.1
		c0.2-0.2,0.5-0.3,0.7-0.4s0.5-0.1,0.8-0.1s0.6,0.1,0.8,0.2s0.3,0.4,0.3,0.6c0,0.2-0.1,0.3-0.2,0.4s-0.3,0.2-0.5,0.3l-1.2-1
		c-0.2,0.2-0.3,0.4-0.4,0.7s-0.1,0.7-0.1,1.1v0.1v0.7h1.6v0.7h-1.6v4.2l0.2,0.2l0.8,0.1v0.6h-3.2V140.4z"/>
	<path d="M131,140.4v-0.6l0.6-0.1l0.2-0.2v-4.2H131v-0.5l0.8-0.4c0-0.6,0.1-1.1,0.3-1.5s0.5-0.8,0.9-1.1c0.2-0.2,0.5-0.3,0.7-0.4
		s0.5-0.1,0.8-0.1s0.6,0.1,0.8,0.2s0.3,0.4,0.3,0.6c0,0.2-0.1,0.3-0.2,0.4s-0.3,0.2-0.5,0.3l-1.2-1c-0.2,0.2-0.3,0.4-0.4,0.7
		s-0.1,0.7-0.1,1.1v0.1v0.7h1.6v0.7h-1.6v4.2l0.2,0.2l0.8,0.1v0.6H131V140.4z"/>
	<path d="M136.8,134.5h0.6v5.2l0.2,0.2h0.7v0.5H135v-0.5h0.7l0.2-0.2v-4.1h-0.8v-0.5L136.8,134.5z M136.6,131.7
		c0.3,0,0.5,0.1,0.6,0.2s0.3,0.4,0.3,0.6c0,0.3-0.1,0.5-0.2,0.7s-0.4,0.3-0.6,0.3c-0.2,0-0.5-0.1-0.6-0.3s-0.3-0.4-0.3-0.6
		c0-0.3,0.1-0.5,0.2-0.6S136.4,131.7,136.6,131.7z"/>
	<path d="M143.9,139.9c-0.4,0.2-0.8,0.4-1.1,0.5s-0.7,0.2-1.1,0.2c-0.9,0-1.6-0.3-2.1-0.8s-0.8-1.3-0.8-2.1c0-0.9,0.3-1.7,0.9-2.2
		s1.3-0.9,2.2-0.9c0.6,0,1.1,0.1,1.4,0.4s0.5,0.6,0.5,0.9c0,0.2-0.1,0.4-0.2,0.6s-0.4,0.2-0.6,0.2c-0.1,0-0.3,0-0.4-0.1
		s-0.2-0.1-0.3-0.2v-1.3c-0.1,0-0.1,0-0.2,0s-0.1,0-0.1,0c-0.4,0-0.8,0.2-1.1,0.6s-0.5,1-0.5,1.6c0,0.7,0.2,1.3,0.5,1.7
		s0.8,0.6,1.4,0.6c0.3,0,0.5,0,0.8-0.1s0.6-0.2,0.9-0.4L143.9,139.9L143.9,139.9z"/>
	<path d="M146.1,134.5h0.6v5.2l0.2,0.2h0.7v0.5h-3.1v-0.5h0.7l0.2-0.2v-4.1h-0.8v-0.5L146.1,134.5z M146,131.7
		c0.3,0,0.5,0.1,0.6,0.2s0.3,0.4,0.3,0.6c0,0.3-0.1,0.5-0.2,0.7s-0.4,0.3-0.6,0.3c-0.2,0-0.5-0.1-0.6-0.3s-0.3-0.4-0.3-0.6
		c0-0.3,0.1-0.5,0.2-0.6S145.8,131.7,146,131.7z"/>
	<path d="M153.6,138.9v0.9c-0.4,0.2-0.8,0.4-1.2,0.5s-0.8,0.2-1.3,0.2c-0.9,0-1.6-0.3-2.2-0.8c-0.5-0.6-0.8-1.3-0.8-2.2
		s0.3-1.7,0.8-2.2c0.6-0.6,1.3-0.9,2.1-0.9s1.4,0.2,1.8,0.7c0.4,0.5,0.7,1.1,0.7,2v0.2h-3.9l0,0c0,0.7,0.2,1.2,0.5,1.6
		c0.3,0.4,0.8,0.6,1.4,0.6c0.3,0,0.6-0.1,1-0.2S153.3,139.1,153.6,138.9z M152.1,136.7v-0.1c0-0.5-0.1-0.9-0.3-1.1s-0.4-0.4-0.8-0.4
		c-0.4,0-0.7,0.1-0.9,0.4s-0.3,0.7-0.4,1.2L152.1,136.7L152.1,136.7z"/>
	<path d="M154.4,140.4v-0.5h0.6l0.2-0.2v-4.1h-0.8v-0.5l1.7-0.6h0.6v0.7c0.5-0.3,0.9-0.4,1.2-0.6s0.6-0.2,0.9-0.2
		c0.5,0,1,0.2,1.2,0.5s0.4,0.8,0.4,1.5v3.2l0.2,0.2h0.6v0.5h-2.9v-0.5h0.5l0.2-0.2v-2.9c0-0.4-0.1-0.8-0.3-1s-0.4-0.3-0.8-0.3
		c-0.1,0-0.3,0-0.5,0.1s-0.4,0.1-0.6,0.2v4l0.2,0.2h0.5v0.5L154.4,140.4L154.4,140.4z"/>
	<path d="M162.3,135.4h-0.8v-0.5l0.9-0.5l0.6-1.2h0.8v1.5h1.8v0.7h-1.8v3c0,0.5,0.1,0.8,0.2,0.9c0.1,0.2,0.4,0.2,0.8,0.2
		c0.1,0,0.3,0,0.4,0s0.2,0,0.4-0.1v0.6c-0.3,0.1-0.7,0.2-1,0.3s-0.6,0.1-0.9,0.1c-0.2,0-0.4,0-0.6-0.1s-0.3-0.1-0.4-0.2
		c-0.2-0.1-0.3-0.2-0.3-0.4s-0.1-0.5-0.1-0.9L162.3,135.4L162.3,135.4z"/>
	<path d="M169.8,140.1v-2.2h0.9l0.2,1.4l0.2,0.2c0.2,0.1,0.4,0.1,0.5,0.1s0.4,0,0.5,0c0.5,0,0.8-0.1,1.1-0.3s0.4-0.5,0.4-0.8
		s-0.1-0.6-0.3-0.8s-0.5-0.5-1-0.7c-0.1,0-0.2-0.1-0.3-0.2c-0.5-0.3-1-0.5-1.2-0.7c-0.3-0.2-0.5-0.5-0.6-0.8s-0.2-0.6-0.2-0.9
		c0-0.7,0.3-1.3,0.8-1.7s1.2-0.7,2-0.7c0.4,0,0.7,0,1.1,0.1s0.8,0.2,1.1,0.3v1.9h-0.9l-0.2-1.2l-0.2-0.2c-0.1-0.1-0.2-0.1-0.4-0.1
		s-0.3,0-0.5,0c-0.4,0-0.8,0.1-1,0.3s-0.4,0.5-0.4,0.8c0,0.2,0.1,0.5,0.2,0.7s0.4,0.4,0.8,0.6c0.1,0.1,0.3,0.2,0.7,0.3
		s0.7,0.3,1,0.5s0.6,0.5,0.8,0.8s0.3,0.6,0.3,1c0,0.7-0.3,1.3-0.9,1.8s-1.4,0.7-2.3,0.7c-0.4,0-0.8,0-1.2-0.1
		S170.1,140.3,169.8,140.1z"/>
	<path d="M181.4,139.9c-0.4,0.2-0.8,0.4-1.1,0.5s-0.7,0.2-1.1,0.2c-0.9,0-1.6-0.3-2.1-0.8s-0.8-1.3-0.8-2.1c0-0.9,0.3-1.7,0.9-2.2
		s1.3-0.9,2.2-0.9c0.6,0,1.1,0.1,1.4,0.4s0.5,0.6,0.5,0.9c0,0.2-0.1,0.4-0.2,0.6s-0.4,0.2-0.6,0.2c-0.1,0-0.3,0-0.4-0.1
		s-0.2-0.1-0.3-0.2v-1.3c-0.1,0-0.1,0-0.2,0s-0.1,0-0.1,0c-0.4,0-0.8,0.2-1.1,0.6s-0.5,1-0.5,1.6c0,0.7,0.2,1.3,0.5,1.7
		s0.8,0.6,1.4,0.6c0.3,0,0.5,0,0.8-0.1s0.6-0.2,0.9-0.4L181.4,139.9L181.4,139.9z"/>
	<path d="M183.6,131.5h0.6v3.6c0.5-0.3,0.9-0.4,1.2-0.6s0.6-0.2,0.8-0.2c0.6,0,1,0.2,1.2,0.5s0.4,0.8,0.4,1.5v3.2l0.2,0.2h0.6v0.5
		h-2.9v-0.5h0.5l0.2-0.2v-2.9c0-0.4-0.1-0.8-0.3-1s-0.4-0.3-0.8-0.3c-0.2,0-0.3,0-0.5,0.1s-0.4,0.1-0.6,0.2v4l0.2,0.2h0.5v0.5h-3
		v-0.5h0.6l0.2-0.2v-7.1h-0.9V132L183.6,131.5z"/>
	<path d="M194.7,138.9v0.9c-0.4,0.2-0.8,0.4-1.2,0.5s-0.8,0.2-1.3,0.2c-0.9,0-1.6-0.3-2.2-0.8c-0.5-0.6-0.8-1.3-0.8-2.2
		s0.3-1.7,0.8-2.2c0.6-0.6,1.3-0.9,2.1-0.9s1.4,0.2,1.8,0.7c0.4,0.5,0.7,1.1,0.7,2v0.2h-3.9l0,0c0,0.7,0.2,1.2,0.5,1.6
		c0.3,0.4,0.8,0.6,1.4,0.6c0.3,0,0.6-0.1,1-0.2S194.3,139.1,194.7,138.9z M193.1,136.7v-0.1c0-0.5-0.1-0.9-0.3-1.1s-0.4-0.4-0.8-0.4
		c-0.4,0-0.7,0.1-0.9,0.4s-0.3,0.7-0.4,1.2L193.1,136.7L193.1,136.7z"/>
	<path d="M199.7,132.6h-0.9v-0.5l1.8-0.6h0.6v8.1l0.2,0.2h0.6v0.5h-2.2v-0.7c-0.4,0.3-0.7,0.5-1,0.6s-0.6,0.2-0.9,0.2
		c-0.7,0-1.2-0.3-1.7-0.8s-0.7-1.2-0.7-2.1c0-1,0.3-1.7,0.9-2.3s1.3-0.9,2.2-0.9c0.2,0,0.4,0,0.5,0s0.4,0,0.6,0.1L199.7,132.6
		L199.7,132.6z M199.7,139.3v-4c-0.2-0.1-0.3-0.1-0.5-0.1s-0.3,0-0.4,0c-0.5,0-0.9,0.2-1.3,0.6s-0.5,1-0.5,1.7s0.1,1.2,0.4,1.6
		s0.7,0.6,1.2,0.6c0.1,0,0.3,0,0.4-0.1S199.5,139.3,199.7,139.3z"/>
	<path d="M204.2,134.4h0.6v3.7c0,0.5,0.1,0.8,0.3,1s0.5,0.3,0.9,0.3c0.1,0,0.3,0,0.5,0s0.4-0.1,0.6-0.1v-3.8h-0.8V135l1.7-0.6h0.6
		v5.2l0.2,0.2h0.6v0.5h-2.3v-0.7c-0.4,0.3-0.8,0.5-1.1,0.6s-0.6,0.2-0.9,0.2c-0.6,0-1-0.2-1.2-0.5s-0.4-0.9-0.4-1.5v-3h-0.8v-0.5
		L204.2,134.4z"/>
	<path d="M209.7,140.4v-0.5l0.7-0.1l0.2-0.2v-7.1h-0.9V132l1.8-0.6h0.5v8.1l0.2,0.2l0.7,0.1v0.5h-3.2V140.4z"/>
	<path d="M215.1,134.5h0.6v5.2l0.2,0.2h0.7v0.5h-3.1v-0.5h0.7l0.2-0.2v-4.1h-0.8v-0.5L215.1,134.5z M215,131.7
		c0.3,0,0.5,0.1,0.6,0.2s0.3,0.4,0.3,0.6c0,0.3-0.1,0.5-0.2,0.7s-0.4,0.3-0.6,0.3c-0.2,0-0.5-0.1-0.6-0.3s-0.3-0.4-0.3-0.6
		c0-0.3,0.1-0.5,0.2-0.6S214.7,131.7,215,131.7z"/>
	<path d="M217.1,140.4v-0.5h0.6l0.2-0.2v-4.1H217v-0.5l1.7-0.6h0.6v0.7c0.5-0.3,0.9-0.4,1.2-0.6s0.6-0.2,0.9-0.2
		c0.5,0,1,0.2,1.2,0.5s0.4,0.8,0.4,1.5v3.2l0.2,0.2h0.6v0.5h-2.9v-0.5h0.5l0.2-0.2v-2.9c0-0.4-0.1-0.8-0.3-1s-0.4-0.3-0.8-0.3
		c-0.1,0-0.3,0-0.5,0.1s-0.4,0.1-0.6,0.2v4l0.2,0.2h0.5v0.5L217.1,140.4L217.1,140.4z"/>
	<path d="M228.9,134.8h1.8v0.7h-1.3c0.1,0.2,0.2,0.3,0.2,0.5s0.1,0.3,0.1,0.5c0,0.6-0.2,1.1-0.7,1.4s-1.1,0.6-1.9,0.6
		c-0.1,0-0.2,0-0.2,0h-0.1c0,0.1-0.1,0.2-0.1,0.2s0,0.1,0,0.2c0,0,0,0.1,0,0.2s0,0.1,0,0.2l0.8,0.1c1,0.1,1.7,0.3,2.1,0.6
		s0.6,0.6,0.6,1.1c0,0.6-0.3,1.1-0.9,1.5s-1.4,0.6-2.3,0.6c-0.8,0-1.4-0.1-1.8-0.4s-0.7-0.7-0.7-1.2c0-0.4,0.1-0.7,0.3-0.9
		s0.5-0.4,0.9-0.4c-0.1-0.1-0.1-0.2-0.1-0.3s0-0.2,0-0.3c0-0.2,0.1-0.4,0.2-0.6s0.3-0.4,0.5-0.6c-0.5-0.1-0.8-0.4-1.1-0.7
		s-0.4-0.7-0.4-1.1c0-0.6,0.2-1.1,0.7-1.5s1.1-0.6,1.9-0.6c0.3,0,0.5,0,0.8,0.1S228.6,134.7,228.9,134.8z M226.3,140.2
		c-0.2,0.1-0.3,0.3-0.4,0.5s-0.1,0.3-0.1,0.5c0,0.3,0.1,0.6,0.4,0.8s0.6,0.4,1,0.4s0.8-0.1,1-0.3s0.4-0.5,0.4-0.8
		c0-0.2-0.1-0.4-0.3-0.6s-0.5-0.2-1-0.3L226.3,140.2z M227.2,135c-0.3,0-0.6,0.1-0.7,0.4s-0.3,0.6-0.3,1s0.1,0.8,0.3,1.1
		s0.4,0.4,0.7,0.4s0.5-0.1,0.7-0.4s0.3-0.6,0.3-1.1c0-0.4-0.1-0.7-0.3-1S227.5,135,227.2,135z"/>
</g>
<g fill="#555" >
	<path d="M481.3,143v-0.6l0.7-0.1l0.2-0.2v-6.4l-0.2-0.2l-0.7-0.1v-0.6h6.1v1.9h-0.8l-0.2-1.1l-0.1-0.2h-2.4v2.9h1.6l0.2-0.2
		l0.1-0.9h0.7v2.8h-0.7l-0.1-0.9l-0.2-0.2h-1.6v3.1h2.8l0.1-0.2l0.2-1.3h0.8v2.2h-6.5V143z"/>
	<path d="M488.5,143v-0.6l0.6-0.1l0.2-0.2v-4.2h-0.8v-0.5l0.8-0.4c0-0.6,0.1-1.1,0.3-1.5s0.5-0.8,0.9-1.1c0.2-0.2,0.5-0.3,0.7-0.4
		s0.5-0.1,0.8-0.1s0.6,0.1,0.8,0.2s0.3,0.4,0.3,0.6c0,0.2-0.1,0.3-0.2,0.4s-0.3,0.2-0.5,0.3l-1.2-1c-0.2,0.2-0.3,0.4-0.4,0.7
		s-0.1,0.7-0.1,1.1v0.1v0.7h1.6v0.7h-1.6v4.2l0.2,0.2l0.8,0.1v0.6h-3.2V143z"/>
	<path d="M492.6,143v-0.6l0.6-0.1l0.2-0.2v-4.2h-0.8v-0.5l0.8-0.4c0-0.6,0.1-1.1,0.3-1.5s0.5-0.8,0.9-1.1c0.2-0.2,0.5-0.3,0.7-0.4
		s0.5-0.1,0.8-0.1s0.6,0.1,0.8,0.2s0.3,0.4,0.3,0.6c0,0.2-0.1,0.3-0.2,0.4s-0.3,0.2-0.5,0.3l-1.2-1c-0.2,0.2-0.3,0.4-0.4,0.7
		s-0.1,0.7-0.1,1.1v0.1v0.7h1.6v0.7h-1.6v4.2l0.2,0.2l0.8,0.1v0.6h-3.2V143z"/>
	<path d="M498.4,137h0.6v5.2l0.2,0.2h0.7v0.5h-3.1v-0.5h0.7l0.2-0.2v-4.1h-0.8v-0.5L498.4,137z M498.3,134.3c0.3,0,0.5,0.1,0.6,0.2
		s0.3,0.4,0.3,0.6c0,0.3-0.1,0.5-0.2,0.7s-0.4,0.3-0.6,0.3s-0.5-0.1-0.6-0.3s-0.3-0.4-0.3-0.6c0-0.3,0.1-0.5,0.2-0.6
		S498,134.3,498.3,134.3z"/>
	<path d="M505.6,142.4c-0.4,0.2-0.8,0.4-1.1,0.5s-0.7,0.2-1.1,0.2c-0.9,0-1.6-0.3-2.1-0.8s-0.8-1.3-0.8-2.1c0-0.9,0.3-1.7,0.9-2.2
		s1.3-0.9,2.2-0.9c0.6,0,1.1,0.1,1.4,0.4s0.5,0.6,0.5,0.9c0,0.2-0.1,0.4-0.2,0.6s-0.4,0.2-0.6,0.2c-0.1,0-0.3,0-0.4-0.1
		s-0.2-0.1-0.3-0.2v-1.3c-0.1,0-0.1,0-0.2,0s-0.1,0-0.1,0c-0.4,0-0.8,0.2-1.1,0.6s-0.5,1-0.5,1.6c0,0.7,0.2,1.3,0.5,1.7
		s0.8,0.6,1.4,0.6c0.3,0,0.5,0,0.8-0.1s0.6-0.2,0.9-0.4L505.6,142.4L505.6,142.4z"/>
	<path d="M507.8,137h0.6v5.2l0.2,0.2h0.7v0.5h-3.1v-0.5h0.7l0.2-0.2v-4.1h-0.8v-0.5L507.8,137z M507.7,134.3c0.3,0,0.5,0.1,0.6,0.2
		s0.3,0.4,0.3,0.6c0,0.3-0.1,0.5-0.2,0.7s-0.4,0.3-0.6,0.3s-0.5-0.1-0.6-0.3s-0.3-0.4-0.3-0.6c0-0.3,0.1-0.5,0.2-0.6
		S507.4,134.3,507.7,134.3z"/>
	<path d="M515.3,141.5v0.9c-0.4,0.2-0.8,0.4-1.2,0.5s-0.8,0.2-1.3,0.2c-0.9,0-1.6-0.3-2.2-0.8c-0.5-0.6-0.8-1.3-0.8-2.2
		s0.3-1.7,0.8-2.2c0.6-0.6,1.3-0.9,2.1-0.9s1.4,0.2,1.8,0.7c0.4,0.5,0.7,1.1,0.7,2v0.2h-3.9l0,0c0,0.7,0.2,1.2,0.5,1.6
		c0.3,0.4,0.8,0.6,1.4,0.6c0.3,0,0.6-0.1,1-0.2C514.6,141.9,514.9,141.7,515.3,141.5z M513.7,139.3v-0.1c0-0.5-0.1-0.9-0.3-1.1
		s-0.4-0.4-0.8-0.4c-0.4,0-0.7,0.1-0.9,0.4s-0.3,0.7-0.4,1.2L513.7,139.3L513.7,139.3z"/>
	<path d="M516,143v-0.5h0.6l0.2-0.2v-4.1H516v-0.5l1.7-0.6h0.6v0.7c0.5-0.3,0.9-0.4,1.2-0.6s0.6-0.2,0.9-0.2c0.5,0,1,0.2,1.2,0.5
		s0.4,0.8,0.4,1.5v3.2l0.2,0.2h0.6v0.5h-2.9v-0.5h0.5l0.2-0.2v-2.9c0-0.4-0.1-0.8-0.3-1s-0.4-0.3-0.8-0.3c-0.1,0-0.3,0-0.5,0.1
		s-0.4,0.1-0.6,0.2v4l0.2,0.2h0.5v0.5L516,143L516,143z"/>
	<path d="M523.9,138h-0.8v-0.5l0.9-0.5l0.6-1.2h0.8v1.5h1.8v0.7h-1.8v3c0,0.5,0.1,0.8,0.2,0.9c0.1,0.2,0.4,0.2,0.8,0.2
		c0.1,0,0.3,0,0.4,0s0.2,0,0.4-0.1v0.6c-0.3,0.1-0.7,0.2-1,0.3s-0.6,0.1-0.9,0.1c-0.2,0-0.4,0-0.6-0.1s-0.3-0.1-0.4-0.2
		c-0.2-0.1-0.3-0.2-0.3-0.4s-0.1-0.5-0.1-0.9L523.9,138L523.9,138z"/>
	<path d="M531.4,142.7v-2.2h0.9l0.2,1.4l0.2,0.2c0.2,0.1,0.4,0.1,0.5,0.1s0.4,0,0.5,0c0.5,0,0.8-0.1,1.1-0.3s0.4-0.5,0.4-0.8
		s-0.1-0.6-0.3-0.8s-0.5-0.5-1-0.7c-0.1,0-0.2-0.1-0.3-0.2c-0.5-0.3-1-0.5-1.2-0.7c-0.3-0.2-0.5-0.5-0.6-0.8s-0.2-0.6-0.2-0.9
		c0-0.7,0.3-1.3,0.8-1.7s1.2-0.7,2-0.7c0.4,0,0.7,0,1.1,0.1s0.8,0.2,1.1,0.3v1.9h-0.9l-0.2-1.2l-0.2-0.2c-0.1-0.1-0.2-0.1-0.4-0.1
		s-0.3,0-0.5,0c-0.4,0-0.8,0.1-1,0.3s-0.4,0.5-0.4,0.8c0,0.2,0.1,0.5,0.2,0.7s0.4,0.4,0.8,0.6c0.1,0.1,0.3,0.2,0.7,0.3
		s0.7,0.3,1,0.5s0.6,0.5,0.8,0.8s0.3,0.6,0.3,1c0,0.7-0.3,1.3-0.9,1.8s-1.4,0.7-2.3,0.7c-0.4,0-0.8,0-1.2-0.1
		S531.8,142.8,531.4,142.7z"/>
	<path d="M543.1,142.4c-0.4,0.2-0.8,0.4-1.1,0.5s-0.7,0.2-1.1,0.2c-0.9,0-1.6-0.3-2.1-0.8s-0.8-1.3-0.8-2.1c0-0.9,0.3-1.7,0.9-2.2
		s1.3-0.9,2.2-0.9c0.6,0,1.1,0.1,1.4,0.4s0.5,0.6,0.5,0.9c0,0.2-0.1,0.4-0.2,0.6s-0.4,0.2-0.6,0.2c-0.1,0-0.3,0-0.4-0.1
		s-0.2-0.1-0.3-0.2v-1.3c-0.1,0-0.1,0-0.2,0s-0.1,0-0.1,0c-0.4,0-0.8,0.2-1.1,0.6s-0.5,1-0.5,1.6c0,0.7,0.2,1.3,0.5,1.7
		s0.8,0.6,1.4,0.6c0.3,0,0.5,0,0.8-0.1s0.6-0.2,0.9-0.4v0.8H543.1z"/>
	<path d="M545.2,134.1h0.6v3.6c0.5-0.3,0.9-0.4,1.2-0.6s0.6-0.2,0.8-0.2c0.6,0,1,0.2,1.2,0.5s0.4,0.8,0.4,1.5v3.2l0.2,0.2h0.6v0.5
		h-2.9v-0.5h0.5l0.2-0.2v-2.9c0-0.4-0.1-0.8-0.3-1s-0.4-0.3-0.8-0.3c-0.2,0-0.3,0-0.5,0.1s-0.4,0.1-0.6,0.2v4l0.2,0.2h0.5v0.5h-3
		v-0.5h0.6l0.2-0.2v-7.1h-0.9v-0.5L545.2,134.1z"/>
	<path d="M556.3,141.5v0.9c-0.4,0.2-0.8,0.4-1.2,0.5s-0.8,0.2-1.3,0.2c-0.9,0-1.6-0.3-2.2-0.8c-0.5-0.6-0.8-1.3-0.8-2.2
		s0.3-1.7,0.8-2.2c0.6-0.6,1.3-0.9,2.1-0.9s1.4,0.2,1.8,0.7c0.4,0.5,0.7,1.1,0.7,2v0.2h-3.9l0,0c0,0.7,0.2,1.2,0.5,1.6
		c0.3,0.4,0.8,0.6,1.4,0.6c0.3,0,0.6-0.1,1-0.2C555.6,141.9,556,141.7,556.3,141.5z M554.7,139.3v-0.1c0-0.5-0.1-0.9-0.3-1.1
		s-0.4-0.4-0.8-0.4c-0.4,0-0.7,0.1-0.9,0.4s-0.3,0.7-0.4,1.2L554.7,139.3L554.7,139.3z"/>
	<path d="M561.4,135.2h-0.9v-0.5l1.8-0.6h0.6v8.1l0.2,0.2h0.6v0.5h-2.2v-0.7c-0.4,0.3-0.7,0.5-1,0.6s-0.6,0.2-0.9,0.2
		c-0.7,0-1.2-0.3-1.7-0.8s-0.7-1.2-0.7-2.1c0-1,0.3-1.7,0.9-2.3s1.3-0.9,2.2-0.9c0.2,0,0.4,0,0.5,0s0.4,0,0.6,0.1L561.4,135.2
		L561.4,135.2z M561.4,141.8v-4c-0.2-0.1-0.3-0.1-0.5-0.1s-0.3,0-0.4,0c-0.5,0-0.9,0.2-1.3,0.6s-0.5,1-0.5,1.7s0.1,1.2,0.4,1.6
		s0.7,0.6,1.2,0.6c0.1,0,0.3,0,0.4-0.1S561.1,141.9,561.4,141.8z"/>
	<path d="M565.8,137h0.6v3.7c0,0.5,0.1,0.8,0.3,1s0.5,0.3,0.9,0.3c0.1,0,0.3,0,0.5,0s0.4-0.1,0.6-0.1v-3.8h-0.8v-0.5l1.7-0.6h0.6
		v5.2l0.2,0.2h0.6v0.5h-2.3v-0.7c-0.4,0.3-0.8,0.5-1.1,0.6s-0.6,0.2-0.9,0.2c-0.6,0-1-0.2-1.2-0.5s-0.4-0.9-0.4-1.5v-3h-0.8v-0.5
		L565.8,137z"/>
	<path d="M571.3,143v-0.5l0.7-0.1l0.2-0.2v-7h-0.9v-0.5l1.8-0.6h0.5v8.1l0.2,0.2l0.7,0.1v0.5H571.3z"/>
	<path d="M576.8,137h0.6v5.2l0.2,0.2h0.7v0.5H575v-0.5h0.7l0.2-0.2v-4.1h-0.8v-0.5L576.8,137z M576.6,134.3c0.3,0,0.5,0.1,0.6,0.2
		s0.3,0.4,0.3,0.6c0,0.3-0.1,0.5-0.2,0.7s-0.4,0.3-0.6,0.3c-0.2,0-0.5-0.1-0.6-0.3s-0.3-0.4-0.3-0.6c0-0.3,0.1-0.5,0.2-0.6
		S576.4,134.3,576.6,134.3z"/>
	<path d="M578.7,143v-0.5h0.6l0.2-0.2v-4.1h-0.8v-0.5l1.7-0.6h0.6v0.7c0.5-0.3,0.9-0.4,1.2-0.6s0.6-0.2,0.9-0.2c0.5,0,1,0.2,1.2,0.5
		s0.4,0.8,0.4,1.5v3.2l0.2,0.2h0.6v0.5h-2.9v-0.5h0.5l0.2-0.2v-2.9c0-0.4-0.1-0.8-0.3-1s-0.4-0.3-0.8-0.3c-0.1,0-0.3,0-0.5,0.1
		s-0.4,0.1-0.6,0.2v4l0.2,0.2h0.5v0.5L578.7,143L578.7,143z"/>
	<path d="M590.5,137.4h1.8v0.7H591c0.1,0.2,0.2,0.3,0.2,0.5s0.1,0.3,0.1,0.5c0,0.6-0.2,1.1-0.7,1.4s-1.1,0.6-1.9,0.6
		c-0.1,0-0.2,0-0.2,0h-0.1c0,0.1-0.1,0.2-0.1,0.2s0,0.1,0,0.2c0,0,0,0.1,0,0.2s0,0.1,0,0.2l0.8,0.1c1,0.1,1.7,0.3,2.1,0.6
		s0.6,0.6,0.6,1.1c0,0.6-0.3,1.1-0.9,1.5s-1.4,0.6-2.3,0.6c-0.8,0-1.4-0.1-1.8-0.4s-0.7-0.7-0.7-1.2c0-0.4,0.1-0.7,0.3-0.9
		s0.5-0.4,0.9-0.4c-0.1-0.1-0.1-0.2-0.1-0.3s0-0.2,0-0.3c0-0.2,0.1-0.4,0.2-0.6s0.3-0.4,0.5-0.6c-0.5-0.1-0.8-0.4-1.1-0.7
		s-0.4-0.7-0.4-1.1c0-0.6,0.2-1.1,0.7-1.5s1.1-0.6,1.9-0.6c0.3,0,0.5,0,0.8,0.1S590.2,137.2,590.5,137.4z M588,142.7
		c-0.2,0.1-0.3,0.3-0.4,0.5s-0.1,0.3-0.1,0.5c0,0.3,0.1,0.6,0.4,0.8s0.6,0.4,1,0.4s0.8-0.1,1-0.3s0.4-0.5,0.4-0.8
		c0-0.2-0.1-0.4-0.3-0.6s-0.5-0.2-1-0.3L588,142.7z M588.8,137.6c-0.3,0-0.6,0.1-0.7,0.4s-0.3,0.6-0.3,1s0.1,0.8,0.3,1.1
		s0.4,0.4,0.7,0.4s0.5-0.1,0.7-0.4s0.3-0.6,0.3-1.1c0-0.4-0.1-0.7-0.3-1S589.1,137.6,588.8,137.6z"/>
</g>
<g>
	<path d="M448.2,62.3c0,0.4,0.1,0.8,0.2,1.1c0.1,0.3,0.2,0.6,0.4,0.8c0.2,0.2,0.4,0.3,0.6,0.4s0.4,0.1,0.7,0.1c0.2,0,0.4,0,0.6-0.1
		s0.3-0.2,0.5-0.4c0.1-0.2,0.3-0.3,0.3-0.5c0.1-0.2,0.2-0.4,0.2-0.6h1.1c-0.1,0.3-0.2,0.7-0.3,1c-0.1,0.3-0.3,0.6-0.6,0.8
		c-0.2,0.2-0.5,0.4-0.8,0.5s-0.6,0.2-1,0.2s-0.8-0.1-1.2-0.2c-0.3-0.1-0.6-0.4-0.9-0.6c-0.2-0.3-0.4-0.6-0.6-1
		c-0.1-0.4-0.2-0.9-0.2-1.4c0-0.4,0.1-0.8,0.2-1.2c0.1-0.4,0.3-0.7,0.6-1c0.2-0.3,0.5-0.5,0.9-0.7c0.3-0.2,0.7-0.3,1.2-0.3
		c0.4,0,0.7,0.1,1,0.2s0.6,0.3,0.8,0.5c0.2,0.2,0.4,0.4,0.6,0.7c0.2,0.3,0.3,0.6,0.4,0.9h-1.1c-0.2-0.4-0.4-0.8-0.6-1
		c-0.3-0.2-0.6-0.3-1-0.3c-0.3,0-0.5,0.1-0.7,0.2s-0.4,0.3-0.6,0.5s-0.3,0.4-0.4,0.7S448.2,62,448.2,62.3z"/>
	<path d="M457.6,65.4c-0.1,0.1-0.2,0.1-0.2,0.1c-0.1,0-0.1,0-0.2,0.1c-0.1,0-0.1,0-0.1,0H457c-0.1,0-0.2,0-0.3-0.1
		c-0.1,0-0.2-0.1-0.2-0.2c-0.1-0.1-0.1-0.1-0.2-0.2c0-0.1-0.1-0.2-0.1-0.3c-0.1,0.1-0.3,0.3-0.4,0.3c-0.1,0.1-0.2,0.2-0.3,0.2
		s-0.2,0.1-0.3,0.1s-0.2,0-0.4,0c-0.2,0-0.4,0-0.6-0.1s-0.3-0.2-0.5-0.3c-0.1-0.1-0.2-0.3-0.3-0.4s-0.1-0.3-0.1-0.5s0-0.3,0.1-0.4
		s0.2-0.2,0.3-0.3c0.1-0.1,0.3-0.2,0.4-0.2c0.2-0.1,0.3-0.1,0.5-0.2s0.3-0.1,0.5-0.2c0.2,0,0.3-0.1,0.4-0.2s0.2-0.1,0.3-0.2
		c0.1-0.1,0.1-0.2,0.1-0.2c0-0.1,0-0.2-0.1-0.2c0-0.1-0.1-0.1-0.2-0.2c-0.1,0-0.2-0.1-0.3-0.1c-0.1,0-0.2,0-0.3,0s-0.2,0-0.3,0
		c-0.1,0-0.2,0.1-0.2,0.1c-0.1,0.1-0.1,0.1-0.2,0.2c0,0.1-0.1,0.2-0.1,0.3h-1c0-0.3,0.1-0.5,0.2-0.7s0.2-0.4,0.4-0.5
		s0.4-0.2,0.6-0.3c0.2-0.1,0.4-0.1,0.6-0.1s0.5,0,0.7,0.1s0.4,0.1,0.6,0.2s0.3,0.3,0.4,0.4c0.1,0.2,0.1,0.4,0.1,0.6v2.2
		c0,0.1,0,0.1,0.1,0.2c0,0,0.1,0.1,0.2,0.1c0,0,0,0,0.1,0s0.1,0,0.2-0.1v1H457.6z M456,63.4c-0.1,0-0.2,0.1-0.3,0.1
		c-0.1,0-0.2,0.1-0.4,0.1c-0.1,0-0.3,0.1-0.4,0.1s-0.2,0.1-0.3,0.1c-0.1,0.1-0.2,0.1-0.3,0.2c-0.1,0.1-0.1,0.2-0.1,0.2
		c0,0.1,0,0.2,0,0.2s0.1,0.1,0.1,0.2c0,0,0.1,0.1,0.2,0.1s0.1,0,0.2,0c0.2,0,0.4-0.1,0.6-0.2s0.4-0.3,0.6-0.6L456,63.4L456,63.4z"/>
	<path d="M460.7,62.6c-0.1-0.3-0.2-0.5-0.3-0.6c-0.1-0.1-0.3-0.2-0.5-0.2s-0.3,0-0.4,0.1s-0.2,0.2-0.3,0.3c-0.1,0.1-0.2,0.3-0.2,0.4
		s-0.1,0.3-0.1,0.5s0,0.4,0.1,0.6c0,0.2,0.1,0.4,0.2,0.5s0.2,0.3,0.3,0.3c0.1,0.1,0.3,0.1,0.4,0.1s0.2,0,0.3-0.1
		c0.1-0.1,0.2-0.1,0.3-0.2c0.1-0.1,0.1-0.2,0.2-0.3c0-0.1,0.1-0.3,0.1-0.4h1.1c0,0.3-0.1,0.5-0.2,0.8s-0.2,0.4-0.4,0.6
		s-0.4,0.3-0.6,0.4s-0.5,0.1-0.8,0.1c-0.2,0-0.4,0-0.6-0.1s-0.4-0.1-0.5-0.3c-0.1-0.1-0.3-0.2-0.4-0.4s-0.2-0.3-0.3-0.5
		c-0.1-0.2-0.1-0.4-0.2-0.6c0-0.2-0.1-0.4-0.1-0.6c0-0.3,0-0.6,0.1-0.9s0.2-0.5,0.4-0.7c0.2-0.2,0.4-0.4,0.6-0.5s0.5-0.2,0.8-0.2
		s0.5,0,0.7,0.1s0.4,0.2,0.6,0.4s0.3,0.3,0.4,0.5s0.2,0.4,0.2,0.7h-0.9V62.6z"/>
	<path d="M463.6,59.4v2.1c0.3-0.4,0.7-0.6,1.2-0.6c0.2,0,0.4,0,0.6,0.1s0.3,0.2,0.5,0.3c0.1,0.1,0.2,0.3,0.3,0.5
		c0.1,0.2,0.1,0.4,0.1,0.6v3.1h-1v-2.9c0-0.1,0-0.3-0.1-0.4c0-0.1-0.1-0.2-0.2-0.2c-0.1-0.1-0.1-0.1-0.2-0.1s-0.2,0-0.3,0
		c-0.1,0-0.2,0-0.4,0.1s-0.2,0.1-0.3,0.2s-0.2,0.2-0.2,0.3c-0.1,0.1-0.1,0.3-0.1,0.4v2.7h-1v-6.1L463.6,59.4L463.6,59.4z"/>
	<path d="M468.2,63.5c0,0.2,0.1,0.3,0.1,0.5c0.1,0.1,0.1,0.3,0.2,0.4s0.2,0.2,0.3,0.3c0.1,0.1,0.2,0.1,0.4,0.1
		c0.3,0,0.5-0.1,0.6-0.2c0.2-0.1,0.3-0.3,0.4-0.6h1c-0.1,0.3-0.2,0.5-0.3,0.7c-0.1,0.2-0.3,0.4-0.5,0.5s-0.4,0.3-0.6,0.3
		c-0.2,0.1-0.4,0.1-0.7,0.1c-0.3,0-0.6-0.1-0.9-0.2s-0.5-0.3-0.7-0.5s-0.3-0.5-0.4-0.8s-0.1-0.6-0.1-0.9s0-0.6,0.1-0.9
		s0.2-0.5,0.4-0.7c0.2-0.2,0.4-0.4,0.7-0.5c0.3-0.1,0.6-0.2,0.9-0.2s0.6,0.1,0.8,0.2s0.5,0.3,0.6,0.5c0.2,0.2,0.3,0.4,0.4,0.7
		c0.1,0.3,0.1,0.6,0.1,0.9v0.4h-2.8V63.5z M470.2,62.8c0-0.1-0.1-0.3-0.1-0.4c-0.1-0.1-0.1-0.2-0.2-0.3c-0.1-0.1-0.2-0.1-0.3-0.2
		c-0.1,0-0.3-0.1-0.4-0.1s-0.3,0-0.4,0.1c-0.1,0-0.2,0.1-0.3,0.2c-0.1,0.1-0.2,0.2-0.2,0.3c-0.1,0.1-0.1,0.2-0.1,0.4H470.2z"/>
</g>
<g>
	<path d="M581.1,62.3c0,0.4,0.1,0.8,0.2,1.1c0.1,0.3,0.2,0.6,0.4,0.8c0.2,0.2,0.4,0.3,0.6,0.4c0.2,0.1,0.4,0.1,0.7,0.1
		c0.2,0,0.4,0,0.6-0.1c0.2-0.1,0.3-0.2,0.5-0.4c0.1-0.2,0.3-0.3,0.3-0.5c0.1-0.2,0.2-0.4,0.2-0.6h1.1c-0.1,0.3-0.2,0.7-0.3,1
		s-0.3,0.6-0.6,0.8c-0.2,0.2-0.5,0.4-0.8,0.5s-0.6,0.2-1,0.2s-0.8-0.1-1.2-0.2c-0.3-0.1-0.6-0.4-0.9-0.6c-0.2-0.3-0.4-0.6-0.6-1
		c-0.1-0.4-0.2-0.9-0.2-1.4c0-0.4,0.1-0.8,0.2-1.2c0.1-0.4,0.3-0.7,0.6-1c0.2-0.3,0.5-0.5,0.9-0.7c0.3-0.2,0.7-0.3,1.2-0.3
		c0.4,0,0.7,0.1,1,0.2s0.6,0.3,0.8,0.5s0.4,0.4,0.6,0.7c0.2,0.3,0.3,0.6,0.4,0.9h-1.1c-0.2-0.4-0.4-0.8-0.6-1
		c-0.3-0.2-0.6-0.3-1-0.3c-0.3,0-0.5,0.1-0.7,0.2s-0.4,0.3-0.6,0.5c-0.2,0.2-0.3,0.4-0.4,0.7S581.1,62,581.1,62.3z"/>
	<path d="M590.5,65.4c-0.1,0.1-0.2,0.1-0.2,0.1c-0.1,0-0.1,0-0.2,0.1c-0.1,0-0.1,0-0.1,0h-0.1c-0.1,0-0.2,0-0.3-0.1
		c-0.1,0-0.2-0.1-0.2-0.2c-0.1-0.1-0.1-0.1-0.2-0.2c0-0.1-0.1-0.2-0.1-0.3c-0.1,0.1-0.3,0.3-0.4,0.3c-0.1,0.1-0.2,0.2-0.3,0.2
		s-0.2,0.1-0.3,0.1s-0.2,0-0.4,0s-0.4,0-0.6-0.1c-0.2-0.1-0.3-0.2-0.5-0.3c-0.1-0.1-0.2-0.3-0.3-0.4s-0.1-0.3-0.1-0.5s0-0.3,0.1-0.4
		s0.2-0.2,0.3-0.3c0.1-0.1,0.3-0.2,0.4-0.2c0.2-0.1,0.3-0.1,0.5-0.2s0.3-0.1,0.5-0.2c0.2,0,0.3-0.1,0.4-0.2c0.1-0.1,0.2-0.1,0.3-0.2
		s0.1-0.2,0.1-0.2c0-0.1,0-0.2-0.1-0.2c0-0.1-0.1-0.1-0.2-0.2c-0.1,0-0.2-0.1-0.3-0.1s-0.2,0-0.3,0s-0.2,0-0.3,0s-0.2,0.1-0.2,0.1
		c-0.1,0.1-0.1,0.1-0.2,0.2c0,0.1-0.1,0.2-0.1,0.3H586c0-0.3,0.1-0.5,0.2-0.7c0.1-0.2,0.2-0.4,0.4-0.5s0.4-0.2,0.6-0.3
		c0.2-0.1,0.4-0.1,0.6-0.1c0.2,0,0.5,0,0.7,0.1s0.4,0.1,0.6,0.2c0.2,0.1,0.3,0.3,0.4,0.4c0.1,0.2,0.1,0.4,0.1,0.6v2.2
		c0,0.1,0,0.1,0.1,0.2c0,0,0.1,0.1,0.2,0.1c0,0,0,0,0.1,0s0.1,0,0.2-0.1v1H590.5z M588.9,63.4c-0.1,0-0.2,0.1-0.3,0.1
		s-0.2,0.1-0.4,0.1c-0.1,0-0.3,0.1-0.4,0.1c-0.1,0-0.2,0.1-0.3,0.1c-0.1,0.1-0.2,0.1-0.3,0.2s-0.1,0.2-0.1,0.2c0,0.1,0,0.2,0,0.2
		s0.1,0.1,0.1,0.2c0,0,0.1,0.1,0.2,0.1c0.1,0,0.1,0,0.2,0c0.2,0,0.4-0.1,0.6-0.2c0.2-0.1,0.4-0.3,0.6-0.6v-0.5H588.9z"/>
	<path d="M593.6,62.6c-0.1-0.3-0.2-0.5-0.3-0.6s-0.3-0.2-0.5-0.2s-0.3,0-0.4,0.1c-0.1,0.1-0.2,0.2-0.3,0.3c-0.1,0.1-0.2,0.3-0.2,0.4
		s-0.1,0.3-0.1,0.5s0,0.4,0.1,0.6c0,0.2,0.1,0.4,0.2,0.5c0.1,0.1,0.2,0.3,0.3,0.3c0.1,0.1,0.3,0.1,0.4,0.1c0.1,0,0.2,0,0.3-0.1
		s0.2-0.1,0.3-0.2s0.1-0.2,0.2-0.3c0-0.1,0.1-0.3,0.1-0.4h1.1c0,0.3-0.1,0.5-0.2,0.8s-0.2,0.4-0.4,0.6s-0.4,0.3-0.6,0.4
		c-0.2,0.1-0.5,0.1-0.8,0.1c-0.2,0-0.4,0-0.6-0.1c-0.2-0.1-0.4-0.1-0.5-0.3c-0.1-0.1-0.3-0.2-0.4-0.4s-0.2-0.3-0.3-0.5
		s-0.1-0.4-0.2-0.6c0-0.2-0.1-0.4-0.1-0.6c0-0.3,0-0.6,0.1-0.9s0.2-0.5,0.4-0.7s0.4-0.4,0.6-0.5s0.5-0.2,0.8-0.2s0.5,0,0.7,0.1
		s0.4,0.2,0.6,0.4s0.3,0.3,0.4,0.5c0.1,0.2,0.2,0.4,0.2,0.7h-0.9V62.6z"/>
	<path d="M596.5,59.4v2.1c0.3-0.4,0.7-0.6,1.2-0.6c0.2,0,0.4,0,0.6,0.1c0.2,0.1,0.3,0.2,0.5,0.3c0.1,0.1,0.2,0.3,0.3,0.5
		s0.1,0.4,0.1,0.6v3.1h-1v-2.9c0-0.1,0-0.3-0.1-0.4c0-0.1-0.1-0.2-0.2-0.2c-0.1-0.1-0.1-0.1-0.2-0.1s-0.2,0-0.3,0s-0.2,0-0.4,0.1
		s-0.2,0.1-0.3,0.2s-0.2,0.2-0.2,0.3c-0.1,0.1-0.1,0.3-0.1,0.4v2.7h-1v-6.1L596.5,59.4L596.5,59.4z"/>
	<path d="M601,63.5c0,0.2,0.1,0.3,0.1,0.5c0.1,0.1,0.1,0.3,0.2,0.4c0.1,0.1,0.2,0.2,0.3,0.3c0.1,0.1,0.2,0.1,0.4,0.1
		c0.3,0,0.5-0.1,0.6-0.2c0.2-0.1,0.3-0.3,0.4-0.6h1c-0.1,0.3-0.2,0.5-0.3,0.7s-0.3,0.4-0.5,0.5s-0.4,0.3-0.6,0.3
		c-0.2,0.1-0.4,0.1-0.7,0.1s-0.6-0.1-0.9-0.2s-0.5-0.3-0.7-0.5s-0.3-0.5-0.4-0.8c-0.1-0.3-0.1-0.6-0.1-0.9s0-0.6,0.1-0.9
		s0.2-0.5,0.4-0.7s0.4-0.4,0.7-0.5s0.5-0.2,0.9-0.2c0.3,0,0.6,0.1,0.8,0.2s0.5,0.3,0.6,0.5c0.2,0.2,0.3,0.4,0.4,0.7
		c0.1,0.3,0.1,0.6,0.1,0.9v0.4H601V63.5z M603.1,62.8c0-0.1-0.1-0.3-0.1-0.4c-0.1-0.1-0.1-0.2-0.2-0.3c-0.1-0.1-0.2-0.1-0.3-0.2
		c-0.1,0-0.3-0.1-0.4-0.1c-0.1,0-0.3,0-0.4,0.1c-0.1,0-0.2,0.1-0.3,0.2s-0.2,0.2-0.2,0.3c-0.1,0.1-0.1,0.2-0.1,0.4H603.1z"/>
</g>
<g fill="#555" >
	<path d="M508.6,103.5l2.3,6.4l2.3-6.4h1.6v8.2h-1.4v-5.4l-1.9,5.4h-1.2l-1.9-5.4v5.4H507v-8.2H508.6z"/>
	<path d="M517.6,109.1c0,0.2,0.1,0.4,0.2,0.6s0.2,0.4,0.3,0.5s0.3,0.3,0.4,0.3s0.3,0.1,0.5,0.1c0.3,0,0.6-0.1,0.8-0.3
		s0.4-0.5,0.5-0.8h1.3c-0.1,0.4-0.2,0.7-0.4,0.9s-0.4,0.5-0.6,0.7s-0.5,0.3-0.8,0.4s-0.6,0.2-0.9,0.2c-0.4,0-0.8-0.1-1.2-0.3
		s-0.6-0.4-0.9-0.7s-0.4-0.6-0.6-1s-0.2-0.8-0.2-1.2s0.1-0.8,0.2-1.1s0.3-0.7,0.6-1s0.5-0.5,0.9-0.7s0.7-0.2,1.2-0.2
		c0.4,0,0.8,0.1,1.1,0.2s0.6,0.4,0.9,0.6s0.4,0.6,0.5,0.9s0.2,0.7,0.2,1.2v0.5h-4V109.1z M520.3,108c0-0.2-0.1-0.4-0.1-0.5
		s-0.2-0.3-0.3-0.4s-0.3-0.2-0.4-0.3s-0.3-0.1-0.5-0.1s-0.3,0-0.5,0.1s-0.3,0.2-0.4,0.3s-0.2,0.2-0.3,0.4s-0.1,0.3-0.2,0.5H520.3z"
		/>
	<path d="M522.9,105.7h1.4v0.6c0.2-0.3,0.5-0.5,0.7-0.6s0.5-0.2,0.7-0.2c0.1,0,0.3,0,0.4,0s0.3,0.1,0.4,0.2s0.2,0.2,0.4,0.3
		s0.2,0.3,0.4,0.5c0.1-0.2,0.3-0.4,0.4-0.5s0.3-0.2,0.5-0.3s0.3-0.1,0.5-0.2s0.3,0,0.5,0c0.3,0,0.6,0.1,0.8,0.2s0.5,0.3,0.6,0.4
		s0.3,0.4,0.4,0.7s0.1,0.5,0.1,0.8v4h-1.4v-3.9c0-0.2,0-0.3-0.1-0.5s-0.1-0.2-0.2-0.3s-0.2-0.1-0.3-0.2s-0.2,0-0.3,0s-0.3,0-0.4,0.1
		s-0.3,0.2-0.4,0.3s-0.2,0.3-0.3,0.4s-0.1,0.3-0.1,0.5v3.6h-1.4v-3.9c0-0.2,0-0.3-0.1-0.5s-0.1-0.2-0.2-0.3s-0.2-0.1-0.2-0.2
		s-0.2,0-0.3,0c-0.2,0-0.3,0-0.5,0.1s-0.3,0.2-0.4,0.3s-0.2,0.3-0.3,0.4s-0.1,0.3-0.1,0.5v3.6h-1.4v-5.9H522.9z"/>
	<path d="M532.1,108.7c0-0.4,0.1-0.8,0.2-1.2s0.3-0.7,0.5-1s0.5-0.5,0.9-0.7s0.7-0.2,1.2-0.2s0.8,0.1,1.2,0.2s0.6,0.4,0.9,0.7
		s0.4,0.6,0.6,1s0.2,0.8,0.2,1.2s-0.1,0.8-0.2,1.2s-0.3,0.7-0.5,1s-0.5,0.5-0.9,0.7s-0.7,0.2-1.2,0.2s-0.8-0.1-1.2-0.2
		s-0.6-0.4-0.9-0.7s-0.4-0.6-0.5-1S532.1,109.2,532.1,108.7z M533.5,108.7c0,0.3,0,0.5,0.1,0.8s0.2,0.4,0.3,0.6s0.3,0.3,0.4,0.4
		s0.4,0.2,0.6,0.2s0.4-0.1,0.6-0.2s0.3-0.2,0.5-0.4s0.2-0.4,0.3-0.6s0.1-0.5,0.1-0.8s0-0.5-0.1-0.8s-0.2-0.4-0.3-0.6
		s-0.3-0.3-0.5-0.4s-0.4-0.2-0.6-0.2s-0.4,0.1-0.6,0.2s-0.3,0.2-0.4,0.4s-0.2,0.4-0.3,0.6S533.5,108.5,533.5,108.7z"/>
	<path d="M538.7,105.7h1l0.2,0.7c0.2-0.3,0.4-0.5,0.6-0.6s0.4-0.2,0.6-0.2c0.1,0,0.2,0,0.3,0s0.3,0.1,0.6,0.2v1.2
		c-0.1-0.1-0.3-0.1-0.4-0.1s-0.2-0.1-0.3-0.1s-0.1,0-0.2,0s-0.1,0-0.1,0c-0.2,0-0.3,0-0.5,0.1s-0.3,0.2-0.3,0.3s-0.2,0.3-0.2,0.4
		s-0.1,0.3-0.1,0.5v3.5h-1.4v-5.9H538.7z"/>
	<path d="M544.8,109.7l1.3-3.9h1.4l-2.5,7.1c-0.1,0.2-0.2,0.4-0.3,0.6s-0.3,0.3-0.4,0.4s-0.3,0.2-0.4,0.2s-0.3,0.1-0.4,0.1
		c-0.1,0-0.1,0-0.2,0s-0.2,0-0.2,0s-0.2,0-0.2-0.1s-0.2-0.1-0.2-0.1v-1.1c0.1,0.1,0.3,0.1,0.4,0.2s0.2,0,0.3,0s0.2,0,0.3-0.1
		s0.1-0.1,0.2-0.3s0.1-0.3,0.2-0.5s0.1-0.4,0.2-0.6c-0.1-0.1-0.1-0.3-0.2-0.4s-0.1-0.3-0.2-0.5s-0.2-0.4-0.3-0.7s-0.2-0.6-0.4-1
		s-0.3-0.8-0.5-1.4s-0.4-1.1-0.7-1.8h1.5L544.8,109.7z"/>
</g>
<g>
	<path d="M421.7,37.3c0,0.6,0.1,1,0.2,1.5s0.3,0.7,0.5,1s0.5,0.5,0.8,0.6s0.6,0.2,0.9,0.2s0.6-0.1,0.8-0.2s0.5-0.3,0.6-0.5
		s0.3-0.4,0.5-0.7s0.2-0.5,0.3-0.8h1.4c-0.1,0.5-0.2,0.9-0.4,1.3s-0.4,0.8-0.8,1s-0.7,0.5-1.1,0.7s-0.9,0.3-1.4,0.3
		c-0.6,0-1.1-0.1-1.6-0.3s-0.9-0.5-1.2-0.9s-0.6-0.8-0.8-1.4s-0.3-1.2-0.3-1.9c0-0.5,0.1-1.1,0.3-1.6s0.4-0.9,0.7-1.3
		s0.7-0.7,1.2-0.9s1-0.3,1.6-0.3c0.5,0,1,0.1,1.4,0.2s0.7,0.3,1,0.6s0.6,0.6,0.8,0.9s0.4,0.7,0.5,1.2h-1.4c-0.2-0.6-0.5-1-0.9-1.3
		s-0.8-0.4-1.4-0.4c-0.4,0-0.7,0.1-1,0.2s-0.5,0.4-0.8,0.7s-0.4,0.6-0.5,1S421.7,36.8,421.7,37.3z"/>
	<path d="M428.4,38.5c0-0.4,0.1-0.8,0.2-1.2s0.3-0.7,0.5-1s0.5-0.5,0.9-0.7s0.7-0.2,1.2-0.2s0.8,0.1,1.2,0.2s0.6,0.4,0.9,0.7
		s0.4,0.6,0.6,1s0.2,0.8,0.2,1.2c0,0.4-0.1,0.8-0.2,1.2s-0.3,0.7-0.5,1s-0.5,0.5-0.9,0.7s-0.7,0.2-1.2,0.2s-0.8-0.1-1.2-0.2
		s-0.6-0.4-0.9-0.7s-0.4-0.6-0.5-1S428.4,38.9,428.4,38.5z M429.8,38.5c0,0.3,0,0.5,0.1,0.8s0.2,0.4,0.3,0.6s0.3,0.3,0.4,0.4
		s0.4,0.2,0.6,0.2s0.4-0.1,0.6-0.2s0.3-0.2,0.5-0.4s0.2-0.4,0.3-0.6s0.1-0.5,0.1-0.8s0-0.5-0.1-0.8s-0.2-0.4-0.3-0.6
		s-0.3-0.3-0.5-0.4s-0.4-0.2-0.6-0.2s-0.4,0.1-0.6,0.2s-0.3,0.2-0.4,0.4s-0.2,0.4-0.3,0.6S429.8,38.2,429.8,38.5z"/>
	<path d="M435,35.5h1l0.2,0.7c0.2-0.3,0.4-0.5,0.6-0.6s0.4-0.2,0.6-0.2c0.1,0,0.2,0,0.3,0s0.3,0.1,0.6,0.2v1.2
		c-0.1-0.1-0.3-0.1-0.4-0.1s-0.2-0.1-0.3-0.1s-0.1,0-0.2,0s-0.1,0-0.1,0c-0.2,0-0.3,0-0.5,0.1s-0.3,0.2-0.3,0.3s-0.2,0.3-0.2,0.4
		s-0.1,0.3-0.1,0.5v3.5H435V35.5z"/>
	<path d="M440,38.8c0,0.2,0.1,0.4,0.2,0.6s0.2,0.4,0.3,0.5s0.3,0.3,0.4,0.3s0.3,0.1,0.5,0.1c0.3,0,0.6-0.1,0.8-0.3s0.4-0.5,0.5-0.8
		h1.3c-0.1,0.4-0.2,0.7-0.4,0.9s-0.4,0.5-0.6,0.7s-0.5,0.3-0.8,0.4s-0.6,0.2-0.9,0.2c-0.4,0-0.8-0.1-1.2-0.3s-0.6-0.4-0.9-0.7
		s-0.4-0.6-0.6-1s-0.2-0.8-0.2-1.2c0-0.4,0.1-0.8,0.2-1.1s0.3-0.7,0.6-1s0.5-0.5,0.9-0.7s0.7-0.2,1.2-0.2c0.4,0,0.8,0.1,1.1,0.2
		s0.6,0.4,0.9,0.6s0.4,0.6,0.5,0.9s0.2,0.7,0.2,1.2v0.5h-4V38.8z M442.7,37.8c0-0.2-0.1-0.4-0.1-0.5s-0.2-0.3-0.3-0.4
		s-0.3-0.2-0.4-0.3s-0.3-0.1-0.5-0.1s-0.3,0-0.5,0.1s-0.3,0.2-0.4,0.3s-0.2,0.2-0.3,0.4s-0.1,0.3-0.2,0.5H442.7z"/>
	<path d="M448.3,41.5v-5.8c-0.2,0.2-0.4,0.4-0.6,0.5s-0.4,0.2-0.6,0.3s-0.4,0.1-0.7,0.2s-0.5,0.1-0.8,0.1v-1.2c0.3,0,0.6,0,0.8-0.1
		s0.5-0.2,0.7-0.3s0.4-0.2,0.5-0.4s0.3-0.3,0.4-0.4s0.2-0.3,0.2-0.4s0.1-0.3,0.1-0.4h1.4v7.9C449.7,41.5,448.3,41.5,448.3,41.5z"/>
</g>
<g>
	<path d="M469.7,37.3c0,0.6,0.1,1,0.2,1.5s0.3,0.7,0.5,1s0.5,0.5,0.8,0.6s0.6,0.2,0.9,0.2s0.6-0.1,0.8-0.2s0.5-0.3,0.6-0.5
		s0.3-0.4,0.5-0.7s0.2-0.5,0.3-0.8h1.4c-0.1,0.5-0.2,0.9-0.4,1.3s-0.4,0.8-0.8,1s-0.7,0.5-1.1,0.7s-0.9,0.3-1.4,0.3
		c-0.6,0-1.1-0.1-1.6-0.3s-0.9-0.5-1.2-0.9s-0.6-0.8-0.8-1.4s-0.3-1.2-0.3-1.9c0-0.5,0.1-1.1,0.3-1.6s0.4-0.9,0.7-1.3
		s0.7-0.7,1.2-0.9s1-0.3,1.6-0.3c0.5,0,1,0.1,1.4,0.2s0.7,0.3,1,0.6s0.6,0.6,0.8,0.9s0.4,0.7,0.5,1.2h-1.4c-0.2-0.6-0.5-1-0.9-1.3
		s-0.8-0.4-1.4-0.4c-0.4,0-0.7,0.1-1,0.2s-0.5,0.4-0.8,0.7s-0.4,0.6-0.5,1S469.7,36.9,469.7,37.3z"/>
	<path d="M476.4,38.5c0-0.4,0.1-0.8,0.2-1.2s0.3-0.7,0.5-1s0.5-0.5,0.9-0.7s0.7-0.2,1.2-0.2s0.8,0.1,1.2,0.2s0.6,0.4,0.9,0.7
		s0.4,0.6,0.6,1s0.2,0.8,0.2,1.2c0,0.4-0.1,0.8-0.2,1.2s-0.3,0.7-0.5,1s-0.5,0.5-0.9,0.7s-0.7,0.2-1.2,0.2s-0.8-0.1-1.2-0.2
		s-0.6-0.4-0.9-0.7s-0.4-0.6-0.5-1S476.4,38.9,476.4,38.5z M477.8,38.5c0,0.3,0,0.5,0.1,0.8s0.2,0.4,0.3,0.6s0.3,0.3,0.4,0.4
		s0.4,0.2,0.6,0.2s0.4-0.1,0.6-0.2s0.3-0.2,0.5-0.4s0.2-0.4,0.3-0.6s0.1-0.5,0.1-0.8s0-0.5-0.1-0.8s-0.2-0.4-0.3-0.6
		s-0.3-0.3-0.5-0.4s-0.4-0.2-0.6-0.2s-0.4,0.1-0.6,0.2s-0.3,0.2-0.4,0.4s-0.2,0.4-0.3,0.6S477.8,38.3,477.8,38.5z"/>
	<path d="M483,35.5h1l0.2,0.7c0.2-0.3,0.4-0.5,0.6-0.6s0.4-0.2,0.6-0.2c0.1,0,0.2,0,0.3,0s0.3,0.1,0.6,0.2v1.2
		c-0.1-0.1-0.3-0.1-0.4-0.1s-0.2-0.1-0.3-0.1s-0.1,0-0.2,0s-0.1,0-0.1,0c-0.2,0-0.3,0-0.5,0.1s-0.3,0.2-0.3,0.3s-0.2,0.3-0.2,0.4
		s-0.1,0.3-0.1,0.5v3.5H483V35.5z"/>
	<path d="M488,38.9c0,0.2,0.1,0.4,0.2,0.6s0.2,0.4,0.3,0.5s0.3,0.3,0.4,0.3s0.3,0.1,0.5,0.1c0.3,0,0.6-0.1,0.8-0.3s0.4-0.5,0.5-0.8
		h1.3c-0.1,0.4-0.2,0.7-0.4,0.9s-0.4,0.5-0.6,0.7s-0.5,0.3-0.8,0.4s-0.6,0.2-0.9,0.2c-0.4,0-0.8-0.1-1.2-0.3s-0.6-0.4-0.9-0.7
		s-0.4-0.6-0.6-1s-0.2-0.8-0.2-1.2c0-0.4,0.1-0.8,0.2-1.1s0.3-0.7,0.6-1s0.5-0.5,0.9-0.7s0.7-0.2,1.2-0.2c0.4,0,0.8,0.1,1.1,0.2
		s0.6,0.4,0.9,0.6s0.4,0.6,0.5,0.9s0.2,0.7,0.2,1.2v0.5h-4V38.9z M490.7,37.8c0-0.2-0.1-0.4-0.1-0.5s-0.2-0.3-0.3-0.4
		s-0.3-0.2-0.4-0.3s-0.3-0.1-0.5-0.1s-0.3,0-0.5,0.1s-0.3,0.2-0.4,0.3s-0.2,0.2-0.3,0.4s-0.1,0.3-0.2,0.5H490.7z"/>
	<path d="M493.1,36.2c0-0.4,0.1-0.8,0.3-1.1s0.3-0.6,0.6-0.9s0.5-0.4,0.9-0.6s0.7-0.2,1.1-0.2c0.5,0,0.9,0.1,1.2,0.2
		s0.6,0.3,0.8,0.5s0.4,0.5,0.4,0.8s0.1,0.6,0.1,0.9c0,0.4-0.1,0.7-0.2,1s-0.4,0.6-0.6,0.8s-0.6,0.5-0.9,0.7s-0.6,0.4-0.9,0.6
		s-0.6,0.4-0.8,0.6s-0.5,0.4-0.6,0.7h4.1v1.2h-5.4v-1c0-0.3,0.1-0.5,0.2-0.7s0.3-0.4,0.5-0.6s0.4-0.4,0.7-0.5s0.5-0.3,0.8-0.5
		s0.5-0.3,0.8-0.5s0.5-0.3,0.7-0.5s0.3-0.4,0.5-0.5s0.2-0.4,0.2-0.6s0-0.4-0.1-0.6s-0.1-0.3-0.3-0.4s-0.2-0.2-0.4-0.3
		s-0.3-0.1-0.5-0.1s-0.4,0-0.6,0.1s-0.3,0.2-0.5,0.3s-0.2,0.3-0.3,0.5s-0.1,0.4-0.1,0.7C494.8,36.2,493.1,36.2,493.1,36.2z"/>
</g>
<g>
	<path d="M555.2,36.5c0,0.6,0.1,1,0.2,1.5s0.3,0.7,0.5,1s0.5,0.5,0.8,0.6s0.6,0.2,0.9,0.2c0.3,0,0.6-0.1,0.8-0.2s0.5-0.3,0.6-0.5
		s0.3-0.4,0.5-0.7s0.2-0.5,0.3-0.8h1.4c-0.1,0.5-0.2,0.9-0.4,1.3s-0.4,0.8-0.8,1s-0.7,0.5-1.1,0.7s-0.9,0.3-1.4,0.3
		c-0.6,0-1.1-0.1-1.6-0.3s-0.9-0.5-1.2-0.9s-0.6-0.8-0.8-1.4s-0.3-1.2-0.3-1.9c0-0.5,0.1-1.1,0.3-1.6s0.4-0.9,0.7-1.3
		s0.7-0.7,1.2-0.9s1-0.3,1.6-0.3c0.5,0,1,0.1,1.4,0.2s0.7,0.3,1,0.6s0.6,0.6,0.8,0.9s0.4,0.7,0.5,1.2h-1.4c-0.2-0.6-0.5-1-0.9-1.3
		s-0.8-0.4-1.4-0.4c-0.4,0-0.7,0.1-1,0.2s-0.5,0.4-0.8,0.7s-0.4,0.6-0.5,1C555,35.8,555.2,36.1,555.2,36.5z"/>
	<path d="M562,37.7c0-0.4,0.1-0.8,0.2-1.2s0.3-0.7,0.5-1s0.5-0.5,0.9-0.7s0.7-0.2,1.2-0.2s0.8,0.1,1.2,0.2s0.6,0.4,0.9,0.7
		s0.4,0.6,0.6,1s0.2,0.8,0.2,1.2c0,0.4-0.1,0.8-0.2,1.2s-0.3,0.7-0.5,1s-0.5,0.5-0.9,0.7s-0.7,0.2-1.2,0.2s-0.8-0.1-1.2-0.2
		s-0.6-0.4-0.9-0.7s-0.4-0.6-0.5-1S562,38.1,562,37.7z M563.4,37.7c0,0.3,0,0.5,0.1,0.8s0.2,0.4,0.3,0.6s0.3,0.3,0.4,0.4
		s0.4,0.2,0.6,0.2s0.4-0.1,0.6-0.2s0.3-0.2,0.5-0.4s0.2-0.4,0.3-0.6s0.1-0.5,0.1-0.8s0-0.5-0.1-0.8s-0.2-0.4-0.3-0.6
		s-0.3-0.3-0.5-0.4s-0.4-0.2-0.6-0.2s-0.4,0.1-0.6,0.2s-0.3,0.2-0.4,0.4s-0.2,0.4-0.3,0.6S563.4,37.4,563.4,37.7z"/>
	<path d="M568.6,34.7h1l0.2,0.7c0.2-0.3,0.4-0.5,0.6-0.6s0.4-0.2,0.6-0.2c0.1,0,0.2,0,0.3,0s0.3,0.1,0.6,0.2V36
		c-0.1-0.1-0.3-0.1-0.4-0.1s-0.2-0.1-0.3-0.1s-0.1,0-0.2,0s-0.1,0-0.1,0c-0.2,0-0.3,0-0.5,0.1s-0.3,0.2-0.3,0.3s-0.2,0.3-0.2,0.4
		s-0.1,0.3-0.1,0.5v3.5h-1.4v-5.9H568.6z"/>
	<path d="M573.6,38.1c0,0.2,0.1,0.4,0.2,0.6s0.2,0.4,0.3,0.5s0.3,0.3,0.4,0.3s0.3,0.1,0.5,0.1c0.3,0,0.6-0.1,0.8-0.3
		s0.4-0.5,0.5-0.8h1.3c-0.1,0.4-0.2,0.7-0.4,0.9s-0.4,0.5-0.6,0.7s-0.5,0.3-0.8,0.4s-0.6,0.2-0.9,0.2c-0.4,0-0.8-0.1-1.2-0.3
		s-0.6-0.4-0.9-0.7s-0.4-0.6-0.6-1s-0.2-0.8-0.2-1.2c0-0.4,0.1-0.8,0.2-1.1s0.3-0.7,0.6-1s0.5-0.5,0.9-0.7s0.7-0.2,1.2-0.2
		c0.4,0,0.8,0.1,1.1,0.2s0.6,0.4,0.9,0.6c0.3,0.2,0.4,0.6,0.5,0.9s0.2,0.7,0.2,1.2v0.5h-4V38.1z M576.3,37c0-0.2-0.1-0.4-0.1-0.5
		s-0.2-0.3-0.3-0.4s-0.3-0.2-0.4-0.3s-0.3-0.1-0.5-0.1s-0.3,0-0.5,0.1s-0.3,0.2-0.4,0.3s-0.2,0.2-0.3,0.4s-0.1,0.3-0.2,0.5H576.3z"
		/>
	<path d="M578.8,35.3c0.1-0.3,0.2-0.7,0.3-1s0.3-0.6,0.5-0.8s0.5-0.4,0.8-0.6s0.7-0.2,1.1-0.2c0.4,0,0.8,0.1,1.1,0.2
		s0.5,0.3,0.7,0.5s0.3,0.4,0.4,0.7s0.1,0.6,0.1,0.9s-0.1,0.6-0.2,0.9s-0.4,0.5-0.7,0.7c0.4,0.2,0.7,0.5,0.9,0.8s0.3,0.7,0.3,1.2
		c0,0.4-0.1,0.7-0.2,1s-0.3,0.5-0.6,0.7s-0.5,0.4-0.9,0.5s-0.7,0.2-1,0.2c-0.8,0-1.5-0.2-2-0.7s-0.8-1.2-1-2h1.4
		c0.1,0.3,0.1,0.6,0.3,0.8s0.2,0.4,0.4,0.5s0.3,0.2,0.5,0.3s0.3,0.1,0.5,0.1s0.3,0,0.5-0.1s0.3-0.2,0.4-0.3s0.2-0.3,0.3-0.4
		s0.1-0.3,0.1-0.5s0-0.4-0.1-0.5s-0.2-0.3-0.3-0.4s-0.3-0.2-0.5-0.3s-0.4-0.1-0.6-0.1h-0.8v-1.1h0.8c0.2,0,0.4,0,0.5-0.1
		s0.3-0.1,0.3-0.2s0.2-0.2,0.2-0.3s0.1-0.2,0.1-0.4c0-0.4-0.1-0.6-0.3-0.8s-0.5-0.3-0.8-0.3c-0.2,0-0.4,0-0.5,0.1s-0.3,0.2-0.4,0.3
		s-0.2,0.3-0.3,0.5s-0.1,0.4-0.1,0.5h-1.2V35.3z"/>
</g>
<g>
	<path d="M603.2,36.5c0,0.6,0.1,1,0.2,1.5s0.3,0.7,0.5,1s0.5,0.5,0.8,0.6s0.6,0.2,0.9,0.2c0.3,0,0.6-0.1,0.8-0.2s0.5-0.3,0.6-0.5
		s0.3-0.4,0.5-0.7s0.2-0.5,0.3-0.8h1.4c-0.1,0.5-0.2,0.9-0.4,1.3s-0.4,0.8-0.8,1s-0.7,0.5-1.1,0.7s-0.9,0.3-1.4,0.3
		c-0.6,0-1.1-0.1-1.6-0.3s-0.9-0.5-1.2-0.9s-0.6-0.8-0.8-1.4s-0.3-1.2-0.3-1.9c0-0.5,0.1-1.1,0.3-1.6s0.4-0.9,0.7-1.3
		s0.7-0.7,1.2-0.9s1-0.3,1.6-0.3c0.5,0,1,0.1,1.4,0.2s0.7,0.3,1,0.6s0.6,0.6,0.8,0.9s0.4,0.7,0.5,1.2h-1.4c-0.2-0.6-0.5-1-0.9-1.3
		s-0.8-0.4-1.4-0.4c-0.4,0-0.7,0.1-1,0.2s-0.5,0.4-0.8,0.7s-0.4,0.6-0.5,1C603,35.8,603.2,36.1,603.2,36.5z"/>
	<path d="M610,37.7c0-0.4,0.1-0.8,0.2-1.2s0.3-0.7,0.5-1s0.5-0.5,0.9-0.7s0.7-0.2,1.2-0.2s0.8,0.1,1.2,0.2s0.6,0.4,0.9,0.7
		s0.4,0.6,0.6,1s0.2,0.8,0.2,1.2c0,0.4-0.1,0.8-0.2,1.2s-0.3,0.7-0.5,1s-0.5,0.5-0.9,0.7s-0.7,0.2-1.2,0.2s-0.8-0.1-1.2-0.2
		s-0.6-0.4-0.9-0.7s-0.4-0.6-0.5-1S610,38.2,610,37.7z M611.4,37.7c0,0.3,0,0.5,0.1,0.8s0.2,0.4,0.3,0.6s0.3,0.3,0.4,0.4
		s0.4,0.2,0.6,0.2s0.4-0.1,0.6-0.2s0.3-0.2,0.5-0.4s0.2-0.4,0.3-0.6s0.1-0.5,0.1-0.8s0-0.5-0.1-0.8s-0.2-0.4-0.3-0.6
		s-0.3-0.3-0.5-0.4s-0.4-0.2-0.6-0.2s-0.4,0.1-0.6,0.2s-0.3,0.2-0.4,0.4s-0.2,0.4-0.3,0.6S611.4,37.5,611.4,37.7z"/>
	<path d="M616.6,34.7h1l0.2,0.7c0.2-0.3,0.4-0.5,0.6-0.6s0.4-0.2,0.6-0.2c0.1,0,0.2,0,0.3,0s0.3,0.1,0.6,0.2V36
		c-0.1-0.1-0.3-0.1-0.4-0.1s-0.2-0.1-0.3-0.1s-0.1,0-0.2,0s-0.1,0-0.1,0c-0.2,0-0.3,0-0.5,0.1s-0.3,0.2-0.3,0.3s-0.2,0.3-0.2,0.4
		s0.1,0.4,0.1,0.6v3.5h-1.4V34.7z"/>
	<path d="M621.6,38.1c0,0.2,0.1,0.4,0.2,0.6s0.2,0.4,0.3,0.5s0.3,0.3,0.4,0.3s0.3,0.1,0.5,0.1c0.3,0,0.6-0.1,0.8-0.3
		s0.4-0.5,0.5-0.8h1.3c-0.1,0.4-0.2,0.7-0.4,0.9s-0.4,0.5-0.6,0.7s-0.5,0.3-0.8,0.4s-0.6,0.2-0.9,0.2c-0.4,0-0.8-0.1-1.2-0.3
		s-0.6-0.4-0.9-0.7s-0.4-0.6-0.6-1s-0.2-0.8-0.2-1.2c0-0.4,0.1-0.8,0.2-1.1s0.3-0.7,0.6-1s0.5-0.5,0.9-0.7s0.7-0.2,1.2-0.2
		c0.4,0,0.8,0.1,1.1,0.2s0.6,0.4,0.9,0.6c0.3,0.2,0.4,0.6,0.5,0.9s0.2,0.7,0.2,1.2v0.5h-4V38.1z M624.3,37c0-0.2-0.1-0.4-0.1-0.5
		s-0.2-0.3-0.3-0.4s-0.3-0.2-0.4-0.3s-0.3-0.1-0.5-0.1s-0.3,0-0.5,0.1s-0.3,0.2-0.4,0.3s-0.2,0.2-0.3,0.4s-0.1,0.3-0.2,0.5H624.3z"
		/>
	<path d="M630,40.7v-1.9h-3.5v-1.2l3.5-4.9h1.3v5h1.1v1h-1.1v1.9L630,40.7L630,40.7z M627.9,37.8h2v-2.9L627.9,37.8z"/>
</g>
<g>
	<path d="M66.3,38.6c0,0.6,0.1,1,0.2,1.5s0.3,0.7,0.5,1s0.5,0.5,0.8,0.6s0.6,0.2,0.9,0.2s0.6-0.1,0.8-0.2s0.5-0.3,0.6-0.5
		s0.3-0.4,0.5-0.7s0.2-0.5,0.3-0.8h1.4c-0.1,0.5-0.2,0.9-0.4,1.3s-0.4,0.8-0.8,1s-0.7,0.5-1.1,0.7S69.1,43,68.6,43
		c-0.6,0-1.1-0.1-1.6-0.3s-0.9-0.5-1.2-0.9S65.2,41,65,40.4s-0.3-1.2-0.3-1.9c0-0.5,0.1-1.1,0.3-1.6s0.4-0.9,0.7-1.3
		s0.7-0.7,1.2-0.9s1-0.3,1.6-0.3c0.5,0,1,0.1,1.4,0.2s0.7,0.3,1,0.6c0.3,0.3,0.6,0.6,0.8,0.9s0.4,0.7,0.5,1.2h-1.4
		c-0.2-0.6-0.5-1-0.9-1.3s-0.8-0.4-1.4-0.4c-0.4,0-0.7,0.1-1,0.2s-0.3,0.4-0.5,0.7s-0.4,0.6-0.5,1S66.3,38.2,66.3,38.6z"/>
	<path d="M73.1,39.9c0-0.4,0.1-0.8,0.2-1.2s0.3-0.7,0.5-1s0.5-0.5,0.9-0.7s0.7-0.2,1.2-0.2s0.8,0.1,1.2,0.2s0.6,0.4,0.9,0.7
		s0.4,0.6,0.6,1s0.2,0.8,0.2,1.2c0,0.4-0.1,0.8-0.2,1.2s-0.3,0.7-0.5,1s-0.5,0.5-0.9,0.7S76.5,43,76,43s-0.8-0.1-1.2-0.2
		s-0.6-0.4-0.9-0.7s-0.4-0.6-0.5-1S73.1,40.3,73.1,39.9z M74.4,39.9c0,0.3,0,0.5,0.1,0.8s0.2,0.4,0.3,0.6s0.3,0.3,0.4,0.4
		s0.4,0.2,0.6,0.2s0.4-0.1,0.6-0.2s0.3-0.2,0.5-0.4s0.2-0.4,0.3-0.6s0.1-0.5,0.1-0.8s0-0.5-0.1-0.8s-0.2-0.4-0.3-0.6
		s-0.3-0.3-0.5-0.4s-0.4-0.2-0.6-0.2s-0.4,0.1-0.6,0.2s-0.3,0.2-0.4,0.4s-0.2,0.4-0.3,0.6S74.4,39.6,74.4,39.9z"/>
	<path d="M79.7,36.9h1l0.2,0.7c0.2-0.3,0.4-0.5,0.6-0.6s0.4-0.2,0.6-0.2c0.1,0,0.2,0,0.3,0s0.3,0.1,0.6,0.2v1.2
		c-0.1-0.1-0.3-0.1-0.4-0.1S82.4,38,82.3,38s-0.1,0-0.2,0S82,38,82,38c-0.2,0-0.3,0-0.5,0.1s-0.3,0.2-0.3,0.3S81,38.7,81,38.8
		s0,0.3,0,0.5v3.5h-1.4L79.7,36.9L79.7,36.9z"/>
	<path d="M84.7,40.2c0,0.2,0.1,0.4,0.2,0.6s0.2,0.4,0.3,0.5s0.3,0.3,0.4,0.3s0.3,0.1,0.5,0.1c0.3,0,0.6-0.1,0.8-0.3s0.4-0.5,0.5-0.8
		h1.3c-0.1,0.4-0.2,0.7-0.4,0.9s-0.3,0.7-0.6,0.9s-0.5,0.3-0.8,0.4S86.3,43,86,43c-0.4,0-0.8-0.1-1.2-0.3s-0.6-0.4-0.9-0.7
		s-0.4-0.6-0.6-1s-0.2-0.8-0.2-1.2c0-0.4,0.1-0.8,0.2-1.1s0.3-0.7,0.6-1s0.5-0.5,0.9-0.7s0.7-0.2,1.2-0.2c0.4,0,0.8,0.1,1.1,0.2
		s0.6,0.4,0.9,0.6s0.4,0.6,0.5,0.9s0.2,0.7,0.2,1.2v0.5H84.7z M87.4,39.2c0-0.2-0.1-0.4-0.1-0.5s-0.2-0.3-0.3-0.4s-0.3-0.2-0.4-0.3
		s-0.3-0.1-0.5-0.1s-0.3,0-0.5,0.1s-0.3,0.2-0.4,0.3s-0.2,0.2-0.3,0.4s-0.1,0.3-0.2,0.5H87.4z"/>
	<path d="M93,42.8V37c-0.2,0.2-0.4,0.4-0.6,0.5s-0.4,0.2-0.6,0.3s-0.4,0.1-0.7,0.2s-0.5,0.1-0.8,0.1v-1.2c0.3,0,0.6,0,0.8-0.1
		s0.5-0.2,0.7-0.3s0.4-0.2,0.5-0.4s0.3-0.3,0.4-0.4s0.2-0.3,0.2-0.4S93,35,93,34.9h1.4v7.9C94.4,42.8,93,42.8,93,42.8z"/>
</g>
<g>
	<path d="M114.3,38.7c0,0.6,0.1,1,0.2,1.5s0.3,0.7,0.5,1s0.5,0.5,0.8,0.6s0.6,0.2,0.9,0.2s0.6-0.1,0.8-0.2s0.5-0.3,0.6-0.5
		s0.3-0.4,0.5-0.7s0.2-0.5,0.3-0.8h1.4c-0.1,0.5-0.2,0.9-0.4,1.3s-0.4,0.8-0.8,1s-0.7,0.5-1.1,0.7s-0.9,0.3-1.4,0.3
		c-0.6,0-1.1-0.1-1.6-0.3s-0.9-0.5-1.2-0.9s-0.6-0.8-0.8-1.4s-0.3-1.2-0.3-1.9c0-0.5,0.1-1.1,0.3-1.6s0.4-0.9,0.7-1.3
		s0.7-0.7,1.2-0.9s1-0.3,1.6-0.3c0.5,0,1,0.1,1.4,0.2s0.7,0.3,1,0.6c0.3,0.3,0.6,0.6,0.8,0.9s0.4,0.7,0.5,1.2h-1.4
		c-0.2-0.6-0.5-1-0.9-1.3s-0.8-0.4-1.4-0.4c-0.4,0-0.7,0.1-1,0.2s-0.5,0.4-0.8,0.7s-0.4,0.6-0.5,1S114.3,38.2,114.3,38.7z"/>
	<path d="M121.1,39.9c0-0.4,0.1-0.8,0.2-1.2s0.3-0.7,0.5-1s0.5-0.5,0.9-0.7s0.7-0.2,1.2-0.2s0.8,0.1,1.2,0.2s0.6,0.4,0.9,0.7
		s0.4,0.6,0.6,1s0.2,0.8,0.2,1.2c0,0.4-0.1,0.8-0.2,1.2s-0.3,0.7-0.5,1s-0.5,0.5-0.9,0.7S124.5,43,124,43s-0.8-0.1-1.2-0.2
		s-0.6-0.4-0.9-0.7s-0.4-0.6-0.5-1S121.1,40.3,121.1,39.9z M122.4,39.9c0,0.3,0,0.5,0.1,0.8s0.2,0.4,0.3,0.6s0.3,0.3,0.4,0.4
		s0.4,0.2,0.6,0.2s0.4-0.1,0.6-0.2s0.3-0.2,0.5-0.4s0.2-0.4,0.3-0.6s0.1-0.5,0.1-0.8s0-0.5-0.1-0.8s-0.2-0.4-0.3-0.6
		s-0.3-0.3-0.5-0.4s-0.4-0.2-0.6-0.2s-0.4,0.1-0.6,0.2s-0.3,0.2-0.4,0.4s-0.2,0.4-0.3,0.6S122.4,39.6,122.4,39.9z"/>
	<path d="M127.7,36.9h1l0.2,0.7c0.2-0.3,0.4-0.5,0.6-0.6s0.4-0.2,0.6-0.2c0.1,0,0.2,0,0.3,0s0.3,0.1,0.6,0.2v1.2
		c-0.1-0.1-0.3-0.1-0.4-0.1s-0.2-0.1-0.3-0.1s-0.1,0-0.2,0s-0.1,0-0.1,0c-0.2,0-0.3,0-0.5,0.1s-0.3,0.2-0.3,0.3s-0.2,0.3-0.2,0.4
		s0,0.4,0,0.5v3.5h-1.4L127.7,36.9L127.7,36.9z"/>
	<path d="M132.7,40.3c0,0.2,0.1,0.4,0.2,0.6s0.2,0.4,0.3,0.5s0.3,0.3,0.4,0.3s0.3,0.1,0.5,0.1c0.3,0,0.6-0.1,0.8-0.3
		s0.4-0.5,0.5-0.8h1.3c-0.1,0.4-0.2,0.7-0.4,0.9s-0.4,0.5-0.6,0.7s-0.5,0.3-0.8,0.4s-0.6,0.2-0.9,0.2c-0.4,0-0.8-0.1-1.2-0.3
		s-0.6-0.4-0.9-0.7s-0.4-0.6-0.6-1s-0.2-0.8-0.2-1.2c0-0.4,0.1-0.8,0.2-1.1s0.3-0.7,0.6-1s0.5-0.5,0.9-0.7s0.7-0.2,1.2-0.2
		c0.4,0,0.8,0.1,1.1,0.2s0.6,0.4,0.9,0.6s0.4,0.6,0.5,0.9s0.2,0.7,0.2,1.2v0.5h-4V40.3z M135.4,39.2c0-0.2-0.1-0.4-0.1-0.5
		s-0.2-0.3-0.3-0.4s-0.3-0.2-0.4-0.3s-0.3-0.1-0.5-0.1s-0.3,0-0.5,0.1s-0.3,0.2-0.4,0.3s-0.2,0.2-0.3,0.4s-0.1,0.3-0.2,0.5H135.4z"
		/>
	<path d="M137.8,37.6c0-0.4,0.1-0.8,0.3-1.1s0.3-0.6,0.6-0.9s0.5-0.4,0.9-0.6s0.7-0.2,1.1-0.2c0.5,0,0.9,0.1,1.2,0.2
		s0.6,0.3,0.8,0.5s0.4,0.5,0.4,0.8s0.1,0.6,0.1,0.9c0,0.4-0.1,0.7-0.2,1s-0.4,0.6-0.6,0.8s-0.6,0.5-0.9,0.7s-0.6,0.4-0.9,0.6
		s-0.6,0.4-0.8,0.6s-0.5,0.4-0.6,0.7h4.1v1.2h-5.4v-1c0-0.3,0.1-0.5,0.2-0.7s0.3-0.4,0.5-0.6s0.4-0.4,0.7-0.5s0.5-0.3,0.8-0.5
		s0.5-0.3,0.8-0.5s0.5-0.3,0.7-0.5s0.3-0.4,0.5-0.5s0.2-0.4,0.2-0.6s0-0.4-0.1-0.6s-0.1-0.3-0.3-0.4s-0.2-0.2-0.4-0.3
		S141.2,36,141,36s-0.4,0-0.6,0.1s-0.3,0.2-0.5,0.3s-0.2,0.3-0.3,0.5s-0.1,0.4-0.1,0.7H137.8z"/>
</g>
<g>
	<path d="M199.9,37.9c0,0.6,0.1,1,0.2,1.5s0.3,0.7,0.5,1s0.5,0.5,0.8,0.6s0.6,0.2,0.9,0.2c0.3,0,0.6-0.1,0.8-0.2s0.5-0.3,0.6-0.5
		s0.3-0.4,0.5-0.7s0.2-0.5,0.3-0.8h1.4c-0.1,0.5-0.2,0.9-0.4,1.3s-0.4,0.8-0.8,1s-0.7,0.5-1.1,0.7s-0.9,0.3-1.4,0.3
		c-0.6,0-1.1-0.1-1.6-0.3s-0.9-0.5-1.2-0.9s-0.6-0.8-0.8-1.4s-0.3-1.2-0.3-1.9c0-0.5,0.1-1.1,0.3-1.6s0.4-0.9,0.7-1.3
		s0.7-0.7,1.2-0.9s1-0.3,1.6-0.3c0.5,0,1,0.1,1.4,0.2s0.7,0.3,1,0.6s0.6,0.6,0.8,0.9c0.2,0.3,0.4,0.7,0.5,1.2h-1.4
		c-0.2-0.6-0.5-1-0.9-1.3s-0.8-0.4-1.4-0.4c-0.4,0-0.7,0.1-1,0.2s-0.5,0.4-0.8,0.7s-0.4,0.6-0.5,1S199.9,37.4,199.9,37.9z"/>
	<path d="M206.6,39.1c0-0.4,0.1-0.8,0.2-1.2s0.3-0.7,0.5-1s0.5-0.5,0.9-0.7s0.7-0.2,1.2-0.2s0.8,0.1,1.2,0.2s0.6,0.4,0.9,0.7
		s0.4,0.6,0.6,1s0.2,0.8,0.2,1.2c0,0.4-0.1,0.8-0.2,1.2s-0.3,0.7-0.5,1s-0.5,0.5-0.9,0.7s-0.7,0.2-1.2,0.2s-0.8-0.1-1.2-0.2
		s-0.6-0.4-0.9-0.7s-0.4-0.6-0.5-1S206.6,39.5,206.6,39.1z M208,39.1c0,0.3,0,0.5,0.1,0.8s0.2,0.4,0.3,0.6s0.3,0.3,0.4,0.4
		s0.4,0.2,0.6,0.2s0.4-0.1,0.6-0.2s0.3-0.2,0.5-0.4s0.2-0.4,0.3-0.6s0.1-0.5,0.1-0.8s0-0.5-0.1-0.8s-0.2-0.4-0.3-0.6
		s-0.3-0.3-0.5-0.4s-0.4-0.2-0.6-0.2s-0.4,0.1-0.6,0.2s-0.3,0.2-0.4,0.4s-0.2,0.4-0.3,0.6S208,38.8,208,39.1z"/>
	<path d="M213.2,36.1h1l0.2,0.7c0.2-0.3,0.4-0.5,0.6-0.6s0.4-0.2,0.6-0.2c0.1,0,0.2,0,0.3,0s0.3,0.1,0.6,0.2v1.2
		c-0.1-0.1-0.3-0.1-0.4-0.1s-0.1,0-0.1-0.1s-0.1,0-0.2,0s-0.1,0-0.1,0c-0.2,0-0.3,0-0.5,0.1s-0.3,0.2-0.3,0.3s-0.2,0.3-0.2,0.4
		s-0.1,0.3-0.1,0.5V42h-1.4V36.1z"/>
	<path d="M218.2,39.4c0,0.2,0.1,0.4,0.2,0.6s0.2,0.4,0.3,0.5s0.3,0.3,0.4,0.3s0.3,0.1,0.5,0.1c0.3,0,0.6-0.1,0.8-0.3
		s0.4-0.5,0.5-0.8h1.3c-0.1,0.4-0.2,0.7-0.4,0.9s-0.4,0.5-0.6,0.7s-0.5,0.3-0.8,0.4s-0.6,0.2-0.9,0.2c-0.4,0-0.8-0.1-1.2-0.3
		s-0.6-0.4-0.9-0.7s-0.4-0.6-0.6-1s-0.2-0.8-0.2-1.2c0-0.4,0.1-0.8,0.2-1.1s0.3-0.7,0.6-1s0.5-0.5,0.9-0.7s0.7-0.2,1.2-0.2
		c0.4,0,0.8,0.1,1.1,0.2s0.6,0.4,0.9,0.6s0.4,0.6,0.5,0.9s0.2,0.7,0.2,1.2v0.5h-4V39.4z M220.9,38.4c0-0.2-0.1-0.4-0.1-0.5
		s-0.2-0.3-0.3-0.4s-0.3-0.2-0.4-0.3s-0.3-0.1-0.5-0.1s-0.3,0-0.5,0.1s-0.3,0.2-0.4,0.3s-0.2,0.2-0.3,0.4s-0.1,0.3-0.2,0.5H220.9z"
		/>
	<path d="M223.5,36.6c0.1-0.3,0.2-0.7,0.3-1s0.3-0.6,0.5-0.8s0.5-0.4,0.8-0.6s0.7-0.2,1.1-0.2c0.4,0,0.8,0.1,1.1,0.2
		s0.5,0.3,0.7,0.5s0.3,0.4,0.4,0.7c0.1,0.3,0.1,0.6,0.1,0.9s-0.1,0.6-0.2,0.9s-0.4,0.5-0.7,0.7c0.4,0.2,0.7,0.5,0.9,0.8
		s0.3,0.7,0.3,1.2c0,0.4-0.1,0.7-0.2,1s-0.3,0.5-0.6,0.7s-0.5,0.4-0.9,0.5s-0.7,0.2-1,0.2c-0.8,0-1.5-0.2-2-0.7s-0.8-1.2-1-2h1.4
		c0.1,0.3,0.1,0.6,0.3,0.8s0.2,0.4,0.4,0.5s0.3,0.2,0.5,0.3s0.3,0.1,0.5,0.1s0.3,0,0.5-0.1s0.3-0.2,0.4-0.3s0.2-0.3,0.3-0.4
		s0.1-0.3,0.1-0.5s0-0.4-0.1-0.5s-0.2-0.3-0.3-0.4s-0.3-0.2-0.5-0.3s-0.4-0.1-0.6-0.1h-0.8v-1.1h0.8c0.2,0,0.4,0,0.5-0.1
		s0.3-0.1,0.3-0.2s0.2-0.2,0.2-0.3s0.1-0.2,0.1-0.4c0-0.4-0.1-0.6-0.3-0.8s-0.5-0.3-0.8-0.3c-0.2,0-0.4,0-0.5,0.1s-0.3,0.2-0.4,0.3
		s-0.2,0.3-0.3,0.5s-0.1,0.4-0.1,0.5h-1.2V36.6z"/>
</g>
<g>
	<path d="M247.9,37.9c0,0.6,0.1,1,0.2,1.5s0.3,0.7,0.5,1s0.5,0.5,0.8,0.6s0.6,0.2,0.9,0.2c0.3,0,0.6-0.1,0.8-0.2s0.5-0.3,0.6-0.5
		s0.3-0.4,0.5-0.7s0.2-0.5,0.3-0.8h1.4c-0.1,0.5-0.2,0.9-0.4,1.3s-0.4,0.8-0.8,1s-0.7,0.5-1.1,0.7s-0.9,0.3-1.4,0.3
		c-0.6,0-1.1-0.1-1.6-0.3s-0.9-0.5-1.2-0.9s-0.6-0.8-0.8-1.4s-0.3-1.2-0.3-1.9c0-0.5,0.1-1.1,0.3-1.6s0.4-0.9,0.7-1.3
		s0.7-0.7,1.2-0.9s1-0.3,1.6-0.3c0.5,0,1,0.1,1.4,0.2s0.7,0.3,1,0.6s0.6,0.6,0.8,0.9c0.2,0.3,0.4,0.7,0.5,1.2h-1.4
		c-0.2-0.6-0.5-1-0.9-1.3s-0.8-0.4-1.4-0.4c-0.4,0-0.7,0.1-1,0.2s-0.5,0.4-0.8,0.7s-0.4,0.6-0.5,1S247.9,37.5,247.9,37.9z"/>
	<path d="M254.6,39.1c0-0.4,0.1-0.8,0.2-1.2s0.3-0.7,0.5-1s0.5-0.5,0.9-0.7c0.4-0.2,0.7-0.2,1.2-0.2s0.8,0.1,1.2,0.2
		s0.6,0.4,0.9,0.7s0.4,0.6,0.6,1s0.2,0.8,0.2,1.2c0,0.4-0.1,0.8-0.2,1.2s-0.3,0.7-0.5,1s-0.5,0.5-0.9,0.7s-0.7,0.2-1.2,0.2
		s-0.8-0.1-1.2-0.2s-0.6-0.4-0.9-0.7s-0.4-0.6-0.5-1S254.6,39.5,254.6,39.1z M256,39.1c0,0.3,0,0.5,0.1,0.8s0.2,0.4,0.3,0.6
		s0.3,0.3,0.4,0.4s0.4,0.2,0.6,0.2s0.4-0.1,0.6-0.2s0.3-0.2,0.5-0.4s0.2-0.4,0.3-0.6s0.1-0.5,0.1-0.8s0-0.5-0.1-0.8
		s-0.2-0.4-0.3-0.6s-0.3-0.3-0.5-0.4s-0.4-0.2-0.6-0.2s-0.4,0.1-0.6,0.2s-0.3,0.2-0.4,0.4s-0.2,0.4-0.3,0.6S256,38.8,256,39.1z"/>
	<path d="M261.2,36.1h1l0.2,0.7c0.2-0.3,0.4-0.5,0.6-0.6s0.4-0.2,0.6-0.2c0.1,0,0.2,0,0.3,0s0.3,0.1,0.6,0.2v1.2
		c-0.1-0.1-0.3-0.1-0.4-0.1s-0.2-0.1-0.3-0.1s-0.1,0-0.2,0s-0.1,0-0.1,0c-0.2,0-0.3,0-0.5,0.1s-0.3,0.2-0.3,0.3s-0.2,0.3-0.2,0.4
		s-0.1,0.3-0.1,0.5V42H261v-5.9H261.2z"/>
	<path d="M266.2,39.5c0,0.2,0.1,0.4,0.2,0.6s0.2,0.4,0.3,0.5s0.3,0.3,0.4,0.3s0.3,0.1,0.5,0.1c0.3,0,0.6-0.1,0.8-0.3
		s0.4-0.5,0.5-0.8h1.3c-0.1,0.4-0.2,0.7-0.4,0.9s-0.4,0.5-0.6,0.7s-0.5,0.3-0.8,0.4s-0.6,0.2-0.9,0.2c-0.4,0-0.8-0.1-1.2-0.3
		s-0.6-0.4-0.9-0.7s-0.4-0.6-0.6-1s-0.2-0.8-0.2-1.2c0-0.4,0.1-0.8,0.2-1.1s0.3-0.7,0.6-1s0.5-0.5,0.9-0.7s0.7-0.2,1.2-0.2
		c0.4,0,0.8,0.1,1.1,0.2s0.6,0.4,0.9,0.6s0.4,0.6,0.5,0.9s0.2,0.7,0.2,1.2v0.5h-4V39.5z M268.9,38.4c0-0.2-0.1-0.4-0.1-0.5
		s-0.2-0.3-0.3-0.4s-0.3-0.2-0.4-0.3s-0.3-0.1-0.5-0.1s-0.3,0-0.5,0.1s-0.3,0.2-0.4,0.3s-0.2,0.2-0.3,0.4s-0.1,0.3-0.2,0.5H268.9z"
		/>
	<path d="M274.6,42.1v-1.9h-3.5V39l3.5-4.9h1.3v5h1.1v1h-1V42L274.6,42.1L274.6,42.1z M272.6,39.2h2v-2.9L272.6,39.2z"/>
</g>
<g>
	<path d="M93,63.6c0,0.4,0.1,0.8,0.2,1.1s0.2,0.6,0.4,0.8c0.2,0.2,0.4,0.3,0.6,0.4s0.4,0.1,0.7,0.1c0.2,0,0.4,0,0.6-0.1
		s0.3-0.2,0.5-0.4s0.3-0.3,0.3-0.5c0.1-0.2,0.2-0.4,0.2-0.6h1.1c-0.1,0.3-0.2,0.7-0.3,1c-0.1,0.3-0.3,0.6-0.6,0.8
		c-0.2,0.2-0.5,0.4-0.8,0.5s-0.6,0.2-1,0.2s-0.8-0.1-1.2-0.2c-0.3-0.1-0.6-0.4-0.9-0.6c-0.2-0.3-0.4-0.6-0.6-1
		c-0.1-0.4-0.2-0.9-0.2-1.4c0-0.4,0.1-0.8,0.2-1.2c0.1-0.4,0.3-0.7,0.6-1c0.2-0.3,0.5-0.5,0.9-0.7c0.3-0.2,0.7-0.3,1.2-0.3
		c0.4,0,0.7,0.1,1,0.2s0.6,0.3,0.8,0.5c0.2,0.2,0.4,0.4,0.6,0.7c0.2,0.3,0.3,0.6,0.4,0.9h-1.1c-0.2-0.4-0.4-0.8-0.6-1
		c-0.3-0.2-0.6-0.3-1-0.3c-0.3,0-0.5,0.1-0.7,0.2s-0.4,0.3-0.6,0.5s-0.3,0.4-0.4,0.7S93,63.3,93,63.6z"/>
	<path d="M102.4,66.7c-0.1,0.1-0.2,0.1-0.2,0.1c-0.1,0-0.1,0-0.2,0.1c-0.1,0-0.1,0-0.1,0h-0.1c-0.1,0-0.2,0-0.3-0.1
		c-0.1,0-0.2-0.1-0.2-0.2c-0.1-0.1-0.1-0.1-0.2-0.2c0-0.1-0.1-0.2-0.1-0.3c-0.1,0.1-0.3,0.3-0.4,0.3c-0.1,0.1-0.2,0.2-0.3,0.2
		s-0.2,0.1-0.3,0.1s-0.2,0-0.4,0c-0.2,0-0.4,0-0.6-0.1s-0.3-0.2-0.5-0.3c-0.1-0.1-0.2-0.3-0.3-0.4s-0.1-0.3-0.1-0.5s0-0.3,0.1-0.4
		s0.2-0.2,0.3-0.3c0.1-0.1,0.3-0.2,0.4-0.2c0.2-0.1,0.3-0.1,0.5-0.2s0.3-0.1,0.5-0.2c0.2,0,0.3-0.1,0.4-0.2s0.2-0.1,0.3-0.2
		c0.1-0.1,0.1-0.2,0.1-0.2c0-0.1,0-0.2-0.1-0.2c0-0.1-0.1-0.1-0.2-0.2c-0.1,0-0.2-0.1-0.3-0.1c-0.1,0-0.2,0-0.3,0s-0.2,0-0.3,0
		c-0.1,0-0.2,0.1-0.2,0.1s-0.1,0.1-0.2,0.2c0,0.1-0.1,0.2-0.1,0.3h-1.1c0-0.3,0.1-0.5,0.2-0.7s0.2-0.4,0.4-0.5s0.4-0.2,0.6-0.3
		c0.5,0.1,0.7,0.1,0.9,0.1s0.5,0,0.7,0.1s0.4,0.1,0.6,0.2s0.3,0.3,0.4,0.4c0.1,0.2,0.1,0.4,0.1,0.6v2.2c0,0.1,0,0.1,0.1,0.2
		c0,0,0.1,0.1,0.2,0.1c0,0,0,0,0.1,0s0.1,0,0.2-0.1L102.4,66.7L102.4,66.7z M100.8,64.6c-0.1,0-0.2,0.1-0.3,0.1
		c-0.1,0-0.2,0.1-0.4,0.1c-0.1,0-0.3,0.1-0.4,0.1S99.5,65,99.4,65c-0.1,0.1-0.2,0.1-0.3,0.2C99,65.3,99,65.4,99,65.4
		c0,0.1,0,0.2,0,0.2s0.1,0.1,0.1,0.2c0,0,0.1,0.1,0.2,0.1s0.1,0,0.2,0c0.2,0,0.4-0.1,0.6-0.2s0.4-0.3,0.6-0.6v-0.5H100.8z"/>
	<path d="M105.5,63.9c-0.1-0.3-0.2-0.5-0.3-0.6c-0.1-0.1-0.3-0.2-0.5-0.2s-0.3,0-0.4,0.1s-0.2,0.2-0.3,0.3c-0.1,0.1-0.2,0.3-0.2,0.4
		s-0.1,0.3-0.1,0.5s0,0.4,0.1,0.6c0,0.2,0.1,0.4,0.2,0.5s0.2,0.3,0.3,0.3s0.3,0.1,0.4,0.1s0.2,0,0.3-0.1c0.1-0.1,0.2-0.1,0.3-0.2
		c0.1-0.1,0.1-0.2,0.2-0.3c0-0.1,0.1-0.3,0.1-0.4h1.1c0,0.3-0.1,0.5-0.2,0.8s-0.2,0.4-0.4,0.6s-0.4,0.3-0.6,0.4s-0.5,0.1-0.8,0.1
		c-0.2,0-0.4,0-0.6-0.1s-0.4-0.1-0.5-0.3c-0.1-0.1-0.3-0.2-0.4-0.4s-0.2-0.3-0.3-0.5c-0.1-0.2-0.1-0.4-0.2-0.6
		c0-0.2-0.1-0.4-0.1-0.6c0-0.3,0-0.6,0.1-0.9s0.2-0.5,0.4-0.7c0.2-0.2,0.4-0.4,0.6-0.5s0.5-0.2,0.8-0.2s0.5,0,0.7,0.1
		s0.4,0.2,0.6,0.4s0.3,0.3,0.4,0.5s0.2,0.4,0.2,0.7h-0.9V63.9z"/>
	<path d="M108.4,60.6v2.1c0.3-0.4,0.7-0.6,1.2-0.6c0.2,0,0.4,0,0.6,0.1s0.3,0.2,0.5,0.3c0.1,0.1,0.2,0.3,0.3,0.5s0.1,0.4,0.1,0.6
		v3.1h-1v-2.9c0-0.1,0-0.3-0.1-0.4c0-0.1-0.1-0.2-0.2-0.2c-0.1-0.1-0.1-0.1-0.2-0.1s-0.2,0-0.3,0c-0.1,0-0.2,0-0.4,0.1
		s-0.2,0.1-0.3,0.2s-0.2,0.2-0.2,0.3s-0.1,0.3-0.1,0.4v2.7h-1v-6.1L108.4,60.6L108.4,60.6z"/>
	<path d="M113,64.8c0,0.2,0.1,0.3,0.1,0.5c0.1,0.1,0.1,0.3,0.2,0.4s0.2,0.2,0.3,0.3c0.1,0.1,0.2,0.1,0.4,0.1c0.3,0,0.5-0.1,0.6-0.2
		c0.2-0.1,0.3-0.3,0.4-0.6h1c-0.1,0.3-0.2,0.5-0.3,0.7c-0.1,0.2-0.3,0.4-0.5,0.5s-0.4,0.3-0.6,0.3c-0.2,0.1-0.4,0.1-0.7,0.1
		c-0.3,0-0.6-0.1-0.9-0.2s-0.5-0.3-0.7-0.5s-0.3-0.5-0.4-0.8s-0.1-0.6-0.1-0.9s0-0.6,0.1-0.9s0.2-0.5,0.4-0.7
		c0.2-0.2,0.4-0.4,0.7-0.5c0.3-0.1,0.6-0.2,0.9-0.2s0.6,0.1,0.8,0.2s0.5,0.3,0.6,0.5c0.2,0.2,0.3,0.4,0.4,0.7
		c0.1,0.3,0.1,0.6,0.1,0.9v0.4H113V64.8z M115,64c0-0.1-0.1-0.3-0.1-0.4c-0.1-0.1-0.1-0.2-0.2-0.3c-0.1-0.1-0.2-0.1-0.3-0.2
		c-0.1,0-0.3-0.1-0.4-0.1s-0.3,0-0.4,0.1s-0.2,0.1-0.3,0.2s-0.2,0.2-0.2,0.3c-0.1,0.1-0.1,0.2-0.1,0.4H115z"/>
</g>
<g >
	<path d="M225.9,63.6c0,0.4,0.1,0.8,0.2,1.1s0.2,0.6,0.4,0.8c0.2,0.2,0.4,0.3,0.6,0.4c0.2,0.1,0.4,0.1,0.7,0.1c0.2,0,0.4,0,0.6-0.1
		c0.2-0.1,0.3-0.2,0.5-0.4s0.3-0.3,0.3-0.5c0.1-0.2,0.2-0.4,0.2-0.6h1.1c-0.1,0.3-0.2,0.7-0.3,1s-0.3,0.6-0.6,0.8
		c-0.2,0.2-0.5,0.4-0.8,0.5s-0.6,0.2-1,0.2s-0.8-0.1-1.2-0.2c-0.3-0.1-0.6-0.4-0.9-0.6c-0.2-0.3-0.4-0.6-0.6-1
		c-0.1-0.4-0.2-0.9-0.2-1.4c0-0.4,0.1-0.8,0.2-1.2c0.1-0.4,0.3-0.7,0.6-1c0.2-0.3,0.5-0.5,0.9-0.7c0.3-0.2,0.7-0.3,1.2-0.3
		c0.4,0,0.7,0.1,1,0.2s0.6,0.3,0.8,0.5s0.4,0.4,0.6,0.7c0.2,0.3,0.3,0.6,0.4,0.9h-1.1c-0.2-0.4-0.4-0.8-0.6-1
		c-0.3-0.2-0.6-0.3-1-0.3c-0.3,0-0.5,0.1-0.7,0.2s-0.4,0.3-0.6,0.5c-0.2,0.2-0.3,0.4-0.4,0.7S225.9,63.3,225.9,63.6z"/>
	<path d="M235.3,66.7c-0.1,0.1-0.2,0.1-0.2,0.1c-0.1,0-0.1,0-0.2,0.1c-0.1,0-0.1,0-0.1,0h-0.1c-0.1,0-0.2,0-0.3-0.1
		c-0.1,0-0.2-0.1-0.2-0.2c-0.1-0.1-0.1-0.1-0.2-0.2c0-0.1-0.1-0.2-0.1-0.3c-0.1,0.1-0.3,0.3-0.4,0.3c-0.1,0.1-0.2,0.2-0.3,0.2
		s-0.2,0.1-0.3,0.1s-0.2,0-0.4,0s-0.4,0-0.6-0.1c-0.2-0.1-0.3-0.2-0.5-0.3c-0.1-0.1-0.2-0.3-0.3-0.4s-0.1-0.3-0.1-0.5s0-0.3,0.1-0.4
		s0.2-0.2,0.3-0.3c0.1-0.1,0.3-0.2,0.4-0.2c0.2-0.1,0.3-0.1,0.5-0.2s0.3-0.1,0.5-0.2c0.2,0,0.3-0.1,0.4-0.2c0.1-0.1,0.2-0.1,0.3-0.2
		s0.1-0.2,0.1-0.2c0-0.1,0-0.2-0.1-0.2c0-0.1-0.1-0.1-0.2-0.2c-0.1,0-0.2-0.1-0.3-0.1s-0.2,0-0.3,0s-0.2,0-0.3,0s-0.2,0.1-0.2,0.1
		s-0.1,0.1-0.2,0.2c0,0.1-0.1,0.2-0.1,0.3h-1.1c0-0.3,0.1-0.5,0.2-0.7c0.1-0.2,0.2-0.4,0.4-0.5s0.4-0.2,0.6-0.3
		c0.2-0.1,0.4-0.1,0.6-0.1c0.2,0,0.5,0,0.7,0.1s0.4,0.1,0.6,0.2c0.2,0.1,0.3,0.3,0.4,0.4c0.1,0.2,0.1,0.4,0.1,0.6v2.2
		c0,0.1,0,0.1,0.1,0.2c0,0,0.1,0.1,0.2,0.1c0,0,0,0,0.1,0s0.1,0,0.2-0.1v1H235.3z M233.7,64.6c-0.1,0-0.2,0.1-0.3,0.1
		s-0.2,0.1-0.4,0.1c-0.1,0-0.3,0.1-0.4,0.1c-0.1,0-0.2,0.1-0.3,0.1c-0.1,0.1-0.2,0.1-0.3,0.2s-0.1,0.2-0.1,0.2c0,0.1,0,0.2,0,0.2
		s0.1,0.1,0.1,0.2c0,0,0.1,0.1,0.2,0.1c0.1,0,0.1,0,0.2,0c0.2,0,0.4-0.1,0.6-0.2c0.2-0.1,0.4-0.3,0.6-0.6L233.7,64.6L233.7,64.6z"/>
	<path d="M238.4,63.9c-0.1-0.3-0.2-0.5-0.3-0.6s-0.3-0.2-0.5-0.2s-0.3,0-0.4,0.1c-0.1,0.1-0.2,0.2-0.3,0.3c-0.1,0.1-0.2,0.3-0.2,0.4
		s-0.1,0.3-0.1,0.5s0,0.4,0.1,0.6c0,0.2,0.1,0.4,0.2,0.5c0.1,0.1,0.2,0.3,0.3,0.3s0.3,0.1,0.4,0.1c0.1,0,0.2,0,0.3-0.1
		s0.2-0.1,0.3-0.2s0.1-0.2,0.2-0.3c0-0.1,0.1-0.3,0.1-0.4h1.1c0,0.3-0.1,0.5-0.2,0.8s-0.2,0.4-0.4,0.6s-0.4,0.3-0.6,0.4
		c-0.2,0.1-0.5,0.1-0.8,0.1c-0.2,0-0.4,0-0.6-0.1c-0.2-0.1-0.4-0.1-0.5-0.3c-0.1-0.1-0.3-0.2-0.4-0.4s-0.2-0.3-0.3-0.5
		s-0.1-0.4-0.2-0.6c0-0.2-0.1-0.4-0.1-0.6c0-0.3,0-0.6,0.1-0.9s0.2-0.5,0.4-0.7s0.4-0.4,0.6-0.5s0.5-0.2,0.8-0.2s0.5,0,0.7,0.1
		s0.4,0.2,0.6,0.4s0.3,0.3,0.4,0.5c0.1,0.2,0.2,0.4,0.2,0.7h-0.9V63.9z"/>
	<path d="M241.2,60.7v2.1c0.3-0.4,0.7-0.6,1.2-0.6c0.2,0,0.4,0,0.6,0.1c0.2,0.1,0.3,0.2,0.5,0.3c0.1,0.1,0.2,0.3,0.3,0.5
		s0.1,0.4,0.1,0.6v3.1h-1v-2.9c0-0.1,0-0.3-0.1-0.4c0-0.1-0.1-0.2-0.2-0.2c-0.1-0.1-0.1-0.1-0.2-0.1s-0.2,0-0.3,0s-0.2,0-0.4,0.1
		s-0.2,0.1-0.3,0.2s-0.2,0.2-0.2,0.3s-0.1,0.3-0.1,0.4v2.7h-1v-6.1L241.2,60.7L241.2,60.7z"/>
	<path d="M245.8,64.8c0,0.2,0.1,0.3,0.1,0.5c0.1,0.1,0.1,0.3,0.2,0.4c0.1,0.1,0.2,0.2,0.3,0.3c0.1,0.1,0.2,0.1,0.4,0.1
		c0.3,0,0.5-0.1,0.6-0.2c0.2-0.1,0.3-0.3,0.4-0.6h1c-0.1,0.3-0.2,0.5-0.3,0.7s-0.3,0.4-0.5,0.5s-0.4,0.3-0.6,0.3
		c-0.2,0.1-0.4,0.1-0.7,0.1s-0.6-0.1-0.9-0.2s-0.5-0.3-0.7-0.5s-0.3-0.5-0.4-0.8c-0.1-0.3-0.1-0.6-0.1-0.9s0-0.6,0.1-0.9
		s0.2-0.5,0.4-0.7s0.4-0.4,0.7-0.5s0.6-0.2,0.9-0.2c0.3,0,0.6,0.1,0.8,0.2s0.5,0.3,0.6,0.5c0.2,0.2,0.3,0.4,0.4,0.7
		c0.1,0.3,0.1,0.6,0.1,0.9v0.4h-2.8V64.8z M247.9,64c0-0.1-0.1-0.3-0.1-0.4c-0.1-0.1-0.1-0.2-0.2-0.3c-0.1-0.1-0.2-0.1-0.3-0.2
		c-0.1,0-0.3-0.1-0.4-0.1c-0.1,0-0.3,0-0.4,0.1s-0.2,0.1-0.3,0.2s-0.2,0.2-0.2,0.3c-0.1,0.1-0.1,0.2-0.1,0.4H247.9z"/>
</g>
<g fill="#555">
	<path d="M149.4,103.5l2.3,6.4l2.3-6.4h1.6v8.2h-1.4v-5.4l-1.9,5.4h-1.2l-1.9-5.4v5.4h-1.4v-8.2H149.4z"/>
	<path d="M158.4,109.1c0,0.2,0.1,0.4,0.2,0.6s0.2,0.4,0.3,0.5s0.3,0.3,0.4,0.3s0.3,0.1,0.5,0.1c0.3,0,0.6-0.1,0.8-0.3
		s0.4-0.5,0.5-0.8h1.3c-0.1,0.4-0.2,0.7-0.4,0.9s-0.4,0.5-0.6,0.7s-0.5,0.3-0.8,0.4s-0.6,0.2-0.9,0.2c-0.4,0-0.8-0.1-1.2-0.3
		s-0.6-0.4-0.9-0.7s-0.4-0.6-0.6-1s-0.2-0.8-0.2-1.2s0.1-0.8,0.2-1.1s0.3-0.7,0.6-1s0.5-0.5,0.9-0.7s0.7-0.2,1.2-0.2
		c0.4,0,0.8,0.1,1.1,0.2s0.6,0.4,0.9,0.6s0.4,0.6,0.5,0.9s0.2,0.7,0.2,1.2v0.5h-4V109.1z M161.1,108c0-0.2-0.1-0.4-0.1-0.5
		s-0.2-0.3-0.3-0.4s-0.3-0.2-0.4-0.3s-0.3-0.1-0.5-0.1s-0.3,0-0.5,0.1s-0.3,0.2-0.4,0.3s-0.2,0.2-0.3,0.4s-0.1,0.3-0.2,0.5H161.1z"
		/>
	<path d="M163.7,105.7h1.4v0.6c0.2-0.3,0.5-0.5,0.7-0.6s0.5-0.2,0.7-0.2c0.1,0,0.3,0,0.4,0s0.3,0.1,0.4,0.2s0.2,0.2,0.4,0.3
		s0.2,0.3,0.4,0.5c0.1-0.2,0.3-0.4,0.4-0.5s0.3-0.2,0.5-0.3s0.3-0.1,0.5-0.2s0.3,0,0.5,0c0.3,0,0.6,0.1,0.8,0.2s0.5,0.3,0.6,0.4
		s0.3,0.4,0.4,0.7s0.1,0.5,0.1,0.8v4h-1.4v-3.9c0-0.2,0-0.3-0.1-0.5s-0.1-0.2-0.2-0.3s-0.2-0.1-0.3-0.2s-0.2,0-0.3,0s-0.3,0-0.4,0.1
		s-0.3,0.2-0.4,0.3s-0.2,0.3-0.3,0.4s-0.1,0.3-0.1,0.5v3.6H167v-3.9c0-0.2,0-0.3-0.1-0.5s-0.1-0.2-0.2-0.3s-0.2-0.1-0.2-0.2
		s-0.2,0-0.3,0c-0.2,0-0.3,0-0.5,0.1s-0.3,0.2-0.4,0.3s-0.2,0.3-0.3,0.4s-0.1,0.3-0.1,0.5v3.6h-1.4v-5.9H163.7z"/>
	<path d="M172.9,108.7c0-0.4,0.1-0.8,0.2-1.2s0.3-0.7,0.5-1s0.5-0.5,0.9-0.7s0.7-0.2,1.2-0.2s0.8,0.1,1.2,0.2s0.6,0.4,0.9,0.7
		s0.4,0.6,0.6,1s0.2,0.8,0.2,1.2s-0.1,0.8-0.2,1.2s-0.3,0.7-0.5,1s-0.5,0.5-0.9,0.7s-0.7,0.2-1.2,0.2s-0.8-0.1-1.2-0.2
		s-0.6-0.4-0.9-0.7s-0.4-0.6-0.5-1S172.9,109.2,172.9,108.7z M174.3,108.7c0,0.3,0,0.5,0.1,0.8s0.2,0.4,0.3,0.6s0.3,0.3,0.4,0.4
		s0.4,0.2,0.6,0.2s0.4-0.1,0.6-0.2s0.3-0.2,0.5-0.4s0.2-0.4,0.3-0.6s0.1-0.5,0.1-0.8s0-0.5-0.1-0.8s-0.2-0.4-0.3-0.6
		s-0.3-0.3-0.5-0.4s-0.4-0.2-0.6-0.2s-0.4,0.1-0.6,0.2s-0.3,0.2-0.4,0.4s-0.2,0.4-0.3,0.6S174.3,108.5,174.3,108.7z"/>
	<path d="M179.5,105.7h1l0.2,0.7c0.2-0.3,0.4-0.5,0.6-0.6s0.4-0.2,0.6-0.2c0.1,0,0.2,0,0.3,0s0.3,0.1,0.6,0.2v1.2
		c-0.1-0.1-0.3-0.1-0.4-0.1s-0.2-0.1-0.3-0.1s-0.1,0-0.2,0s-0.1,0-0.1,0c-0.2,0-0.3,0-0.5,0.1s-0.3,0.2-0.3,0.3s-0.2,0.3-0.2,0.4
		s-0.1,0.3-0.1,0.5v3.5h-1.4v-5.9H179.5z"/>
	<path d="M185.6,109.7l1.3-3.9h1.4l-2.5,7.1c-0.1,0.2-0.2,0.4-0.3,0.6s-0.3,0.3-0.4,0.4s-0.3,0.2-0.4,0.2s-0.3,0.1-0.4,0.1
		c-0.1,0-0.1,0-0.2,0s-0.2,0-0.2,0s-0.2,0-0.2-0.1s-0.2-0.1-0.2-0.1v-1.1c0.1,0.1,0.3,0.1,0.4,0.2s0.2,0,0.3,0s0.2,0,0.3-0.1
		s0.1-0.1,0.2-0.3s0.1-0.3,0.2-0.5s0.1-0.4,0.2-0.6c-0.1-0.1-0.1-0.3-0.2-0.4s-0.1-0.3-0.2-0.5s-0.2-0.4-0.3-0.7s-0.2-0.6-0.4-1
		s-0.3-0.8-0.5-1.4s-0.4-1.1-0.7-1.8h1.5L185.6,109.7z"/>
</g>
</svg>
