<?xml version="1.0" encoding="utf-8"?>
<svg xmlns="http://www.w3.org/2000/svg" xmlns:xlink="http://www.w3.org/1999/xlink"  viewBox="75 575 200 65">

  <symbol id="h">
    <path d="M.097.109C.097.034.084.022 0 .019V0h.297v.019C.215.022.199.036.199.109v.444c0 .073.014.086.098.09v.019H0V.643C.085.638.097.627.097.553V.109z"/>
  </symbol>
  <symbol id="y">
    <path d="M0 .662V.643C.084.638.096.627.096.553V.109C.096.035.083.022 0 .019V0h.334C.412 0 .483.021.52.055A.166.166 0 0 1 .576.18a.153.153 0 0 1-.049.113C.497.32.47.332.405.348c.052.013.073.023.097.044.025.022.04.059.04.1 0 .112-.089.17-.262.17H0M.198.326a.473.473 0 0 0 .179-.02C.434.282.461.242.461.179.461.125.44.086.4.063A.276.276 0 0 0 .261.037C.212.037.198.046.198.078v.248m0 .04v.229c0 .021.007.03.022.03h.044C.379.625.44.577.44.488.44.41.387.366.293.366H.198z"/>
  </symbol>
  <symbol id="ai">
    <path d="M.691.019C.646.022.636.032.601.106L.352.674h-.02L.124.183C.06.037.048.021 0 .019V0h.198v.019C.15.019.13.032.13.06c0 .012.003.026.008.039l.046.117h.262L.487.12A.198.198 0 0 0 .506.053C.506.028.489.02.436.019V0h.255v.019m-.49.238.115.275.116-.275H.201z"/>
  </symbol>

  <symbol id="al">
    <path d="M.592.464.583.69H.562C.556.669.54.657.52.657a.117.117 0 0 0-.039.009.475.475 0 0 1-.146.024.347.347 0 0 1-.227-.086A.344.344 0 0 1 0 .339C0 .246.03.16.081.103A.341.341 0 0 1 .332 0c.113 0 .212.046.273.127L.587.145C.513.074.447.044.364.044a.24.24 0 0 0-.162.058C.147.151.116.241.116.352c0 .181.093.298.238.298A.207.207 0 0 0 .503.589.249.249 0 0 0 .569.464h.023z"/>
  </symbol>
  <path d="M89.519 597.845h50v-10h-50z" fill="#91b94b"/>
  <path d="M139.519 597.845h10v-10h-10z" fill="#db6060"/>
  <path d="M149.519 597.845h40v-10h-40z" fill="#6091db"/>
  <path d="M189.519 597.845h50v-10h-50z" fill="#91b94b"/>
  <use xlink:href="#ai" transform="matrix(9.9626 0 0 -9.9626 111.071 596.173)"/>
  <use xlink:href="#h" transform="matrix(9.9626 0 0 -9.9626 143.041 596.173)"/>
  <use xlink:href="#y" transform="matrix(9.9626 0 0 -9.9626 166.364 596.173)"/>
  <use xlink:href="#al" transform="matrix(9.9626 0 0 -9.9626 211.475 596.313)"/>
  <path stroke-width=".7" stroke-linecap="round" stroke-linejoin="round" fill="none" stroke="#555" d="M144.519 587.845c12.426-12.426 32.574-12.426 45 0"/>
  <path d="M185.736 586.547c1.27.35 2.534.781 3.783 1.298a32.13 32.13 0 0 0-1.757-3.593z" fill="#555"/>
  <path stroke-width=".7" stroke-linecap="round" stroke-linejoin="round" fill="none" stroke="#555" d="M185.736 586.547c1.27.35 2.534.781 3.783 1.298a32.13 32.13 0 0 0-1.757-3.593z"/>
  <path d="M89.519 627.845h50v-10h-50z" fill="#91b94b"/>
  <path d="M139.519 627.845h10v-10h-10z" fill="#db6060"/>
  <path d="M149.519 627.845h50v-10h-50z" fill="#91b94b"/>
  <path d="M219.519 627.845h40v-10h-40z" fill="#6091db"/>
  <use xlink:href="#ai" transform="matrix(9.9626 0 0 -9.9626 111.071 626.173)"/>
  <use xlink:href="#h" transform="matrix(9.9626 0 0 -9.9626 143.041 626.173)"/>
  <use xlink:href="#al" transform="matrix(9.9626 0 0 -9.9626 171.475 626.313)"/>
  <use xlink:href="#y" transform="matrix(9.9626 0 0 -9.9626 236.361 626.173)"/>
  <path stroke-width=".7" stroke-linecap="round" stroke-linejoin="round" fill="none" stroke="#555" d="M144.519 627.845a83.853 83.853 0 0 0 75 0"/>
  <path d="M216.827 630.804a84.04 84.04 0 0 0 2.692-2.959 84.002 84.002 0 0 1-3.995.189z" fill="#555"/>
  <path stroke-width=".7" stroke-linecap="round" stroke-linejoin="round" fill="none" stroke="#555" d="M216.827 630.804a84.04 84.04 0 0 0 2.692-2.959 84.002 84.002 0 0 1-3.995.189zM259.519 617.845a173.925 173.925 0 0 0-110 0"/>
  <path d="M152.57 615.26c-1.026.85-2.043 1.711-3.051 2.585 1.331.095 2.66.205 3.986.33z" fill="#555"/>
  <path stroke-width=".7" stroke-linecap="round" stroke-linejoin="round" fill="none" stroke="#555" d="M152.57 615.26c-1.026.85-2.043 1.711-3.051 2.585 1.331.095 2.66.205 3.986.33z"/>

  
</svg>
