<?xml version="1.0" encoding="utf-8"?>
<svg xmlns="http://www.w3.org/2000/svg" xmlns:xlink="http://www.w3.org/1999/xlink" viewBox="85 525 180 125">
  <symbol id="E">
    <path d="M.15.691.145.693A1.45 1.45 0 0 0 .029.657L0 .649V.633l.017.001c.04 0 .049-.009.049-.051V.064C.066.033.151 0 .231 0c.132 0 .234.11.234.253C.465.376.389.47.289.47.228.47.17.434.15.385v.306m0-.359c0 .039.047.075.099.075.078 0 .128-.078.128-.2C.377.096.329.032.247.032.195.032.15.055.15.08v.252z"/>
  </symbol>
  <symbol id="F">
    <path d="M0 .063V0h.246v.063H0z"/>
  </symbol>
  <symbol id="G">
    <path d="M.247.853a.506.506 0 0 1-.141-.12A.464.464 0 0 1 0 .429C0 .302.037.204.125.102A.428.428 0 0 1 .244 0l.012.016C.176.079.148.114.121.189a.706.706 0 0 0-.035.243c0 .105.013.187.04.249a.382.382 0 0 0 .13.156L.247.853z"/>
  </symbol>
  <symbol id="H">
    <path d="M.009 0A.506.506 0 0 1 .15.12a.464.464 0 0 1 .106.304.464.464 0 0 1-.125.327.428.428 0 0 1-.119.102L0 .837A.339.339 0 0 0 .135.664.706.706 0 0 0 .17.421.626.626 0 0 0 .13.173.378.378 0 0 0 0 .016L.009 0z"/>
  </symbol>
  <symbol id="I">
    <path d="M.597.529c0 .102.012.118.094.128v.019H.459V.657C.537.651.553.629.553.529v-.27A.281.281 0 0 0 .53.123C.503.075.439.044.364.044c-.071 0-.12.024-.147.071a.255.255 0 0 0-.025.132v.32c0 .072.011.083.091.09v.019H0V.657C.079.651.09.64.09.567V.255C.09.082.171 0 .341 0 .45 0 .525.035.564.103a.311.311 0 0 1 .033.165v.261z"/>
  </symbol>
  <symbol id="J">
    <path d="M.186.291A.796.796 0 0 1 .255.288.35.35 0 0 1 .43.322a.18.18 0 0 1 .096.159c0 .042-.014.08-.041.109C.445.634.358.662.264.662H0V.643C.074.635.084.625.084.553V.12C.084.036.076.026 0 .019V0h.28v.019C.201.022.186.036.186.109v.182m0 .3c0 .027.007.034.034.034.135 0 .197-.047.197-.15C.417.378.358.328.243.328a.59.59 0 0 0-.057.003v.26z"/>
  </symbol>
  <symbol id="K">
    <path d="M.027 0c.067.033.112.094.112.154 0 .05-.035.089-.08.089C.024.243 0 .22 0 .186 0 .154.023.135.059.135l.019.002.008.002A.014.014 0 0 0 .1.125C.1.093.072.056.018.019L.027 0z"/>
  </symbol>
  <symbol id="L">
    <path d="M.927.673H.729V.654C.78.649.798.638.798.611A.235.235 0 0 0 .782.536L.657.197.525.538l-.012.03a.158.158 0 0 0-.015.051c0 .024.023.034.077.035v.019H.308V.654C.365.653.375.644.409.564L.442.482.335.2.191.576A.142.142 0 0 0 .18.622c0 .022.014.029.065.032v.019H0V.654C.051.649.066.631.103.537L.296 0h.015l.154.423L.625 0H.64c.085.261.095.289.204.583.019.052.03.061.083.071v.019z"/>
  </symbol>
  <symbol id="M">
    <path d="M.662.573V.12C.662.037.65.024.571.019V0h.28v.019C.778.024.764.038.764.109v.444c0 .071.013.084.087.09v.019H.652L.431.157.2.662H.002V.643C.084.638.097.626.097.553V.147C.097.044.083.025 0 .019V0h.235v.019C.158.023.141.046.141.147V.55L.392 0h.014l.256.573z"/>
  </symbol>
  <symbol id="N">
    <path d="M.585.169H.557C.507.061.464.037.321.037H.294C.245.037.203.042.196.049.191.052.189.063.189.08v.247h.154C.425.327.44.314.453.231h.023v.232H.453C.446.422.442.407.431.393.418.376.39.368.343.368H.189V.59c0 .028.006.034.033.034h.135C.47.624.492.609.509.519h.025L.531.662H0V.643C.074.637.087.623.087.553V.109C.087.039.073.024 0 .019V0h.54l.045.169z"/>
  </symbol>
  <symbol id="O">
    <path d="M.405.69H.384C.38.667.369.656.352.656a.117.117 0 0 0-.044.012.31.31 0 0 1-.106.022.185.185 0 0 1-.12-.046.16.16 0 0 1-.053-.125c0-.08.044-.136.156-.195A.409.409 0 0 0 .334.207.106.106 0 0 0 .348.149C.348.082.298.036.225.036.136.036.073.091.023.213H0L.03.001h.022C.053.02.065.034.08.034A.153.153 0 0 0 .127.023.322.322 0 0 1 .245 0C.36 0 .449.079.449.182.449.264.394.329.262.4.157.458.115.502.115.556c0 .055.042.093.104.093A.168.168 0 0 0 .341.594.228.228 0 0 0 .402.477h.025L.405.69z"/>
  </symbol>
  <symbol id="P">
    <path d="M.097.109C.097.034.084.022 0 .019V0h.297v.019C.215.022.199.036.199.109v.444c0 .073.014.086.098.09v.019H0V.643C.085.638.097.627.097.553V.109z"/>
  </symbol>
  <symbol id="Q">
    <path d="M0 .417h.068V.094C.068.03.057.017.001.015V0h.22v.015C.165.019.152.033.152.088v.329h.086C.334.417.339.414.339.361V.097C.339.029.332.02.27.015V0h.22v.015C.434.02.423.033.423.097v.262l.002.098L.421.46A.649.649 0 0 0 .308.45H.151v.043c0 .044.003.075.008.092a.104.104 0 0 0 .098.073C.285.658.304.645.328.611.347.584.36.574.377.574c.021 0 .036.017.036.039 0 .042-.05.07-.127.07C.21.683.152.657.116.608.086.567.075.53.069.45H0V.417z"/>
  </symbol>
  <symbol id="R">
    <path d="M.261 0h.201v.015C.431.015.411.031.38.075L.252.271l.083.12a.103.103 0 0 0 .081.044V.45H.258V.435c.03-.002.04-.008.04-.022C.298.401.286.379.261.348a.703.703 0 0 1-.03-.044l-.014.02a.268.268 0 0 0-.046.089c0 .014.013.021.043.022V.45H.007V.435h.009c.03 0 .046-.013.077-.06L.187.231.073.066C.043.025.033.018 0 .015V0h.145v.015c-.028 0-.04.005-.04.018 0 .006.007.021.02.041l.079.123.091-.14A.032.032 0 0 0 .301.039C.301.021.294.017.261.015V0z"/>
  </symbol>
  

  
  <symbol id="S">
    <path d="M.664.609V.1C.664.044.65.032.575.025V0h.332v.025C.829.035.819.046.819.117v.442c0 .072.015.087.088.092v.025H.655l-.2-.472-.2.472H.002V.651C.075.645.091.632.091.58V.105C.091.045.078.033 0 .025V0h.234v.025C.152.031.133.05.133.124v.47L.385 0h.027l.252.609z"/>
  </symbol>
  <symbol id="T">
    <path d="M.226.487C.099.487 0 .382 0 .246 0 .103.095 0 .226 0c.129 0 .225.104.225.243 0 .14-.096.244-.225.244M.227.456C.285.456.304.401.304.237.304.083.284.031.226.031.167.031.147.082.147.228c0 .176.018.228.08.228z"/>
  </symbol>
  <symbol id="U">
    <path d="M.314.001a.687.687 0 0 0 .133.025l.062.008v.023C.463.06.45.073.45.115V.69H.235V.666C.302.661.311.654.311.608V.425C.268.471.238.487.192.487.082.487 0 .38 0 .235 0 .099.076 0 .181 0c.053 0 .086.016.133.066V.001M.311.126C.311.12.301.103.289.09.269.067.248.056.226.056c-.053 0-.078.06-.078.187 0 .129.027.188.085.188.033 0 .064-.024.078-.062V.126z"/>
  </symbol>
  <symbol id="V">
    <path d="M.192.461H0V.437C.044.428.053.419.053.378V.084C.053.043.046.035 0 .024V0h.239v.024C.204.029.192.043.192.081v.38m-.07.23A.078.078 0 0 1 .044.614c0-.045.033-.078.077-.078s.078.033.078.077a.077.077 0 0 1-.077.078z"/>
  </symbol>
  <symbol id="W">
    <path d="M.196.417H.3C.326.417.334.409.334.383V.081C.334.041.323.028.287.024V0h.235v.024C.486.026.473.041.473.081v.392A1.82 1.82 0 0 0 .302.461H.196c0 .105.004.14.019.167.013.022.036.033.069.033.03 0 .054-.012.054-.027L.336.627A.08.08 0 0 1 .329.593c0-.032.026-.054.064-.054.038 0 .065.025.065.06C.458.656.39.691.28.691.207.691.151.673.114.637.074.597.059.55.057.461H0V.417h.057V.084C.057.041.047.03 0 .024V0h.243v.024C.207.029.196.042.196.081v.336z"/>
  </symbol>
  <symbol id="X">
    <path d="M.377.139C.337.09.306.072.263.072a.098.098 0 0 0-.089.053.284.284 0 0 0-.03.134h.252C.39.343.375.39.343.428a.169.169 0 0 1-.134.059C.084.487 0 .388 0 .242S.082 0 .206 0c.081 0 .13.032.195.125L.377.139M.139.296c.003.12.021.16.07.16C.237.456.256.44.264.409A.515.515 0 0 0 .273.311V.296H.139z"/>
  </symbol>
  <symbol id="Y">
    <path d="M.084.169A.085.085 0 0 1 0 .085C0 .037.036 0 .083 0c.048 0 .086.037.086.083a.086.086 0 0 1-.085.086m0 .316A.084.084 0 0 1 0 .402C0 .353.036.316.084.316.131.316.169.354.169.4a.085.085 0 0 1-.085.085z"/>
  </symbol>
  
  <symbol id="Z">
    <path d="M.577.676H0V.651C.069.647.088.631.088.58V.096C.088.044.074.033 0 .025V0h.585l.04.208H.597A.294.294 0 0 0 .51.084.265.265 0 0 0 .333.031C.269.031.25.044.25.087v.242C.359.329.4.29.412.174h.026v.338H.412C.397.398.358.362.25.363v.232c0 .038.013.047.065.047.163 0 .212-.034.237-.167h.025v.201z"/>
  </symbol>
  <symbol id="aa">
    <path d="M.472.024C.456.029.449.033.442.044L.294.272l.101.126a.103.103 0 0 0 .07.039v.024H.297V.437l.02-.002C.34.434.348.428.348.413S.338.381.31.349A.502.502 0 0 1 .274.303L.261.32a.316.316 0 0 0-.058.098c0 .012.014.018.047.019v.024H0V.437C.026.433.032.428.052.398L.18.201C.151.164.124.131.115.117.059.043.039.026.002.024V0h.169v.024C.135.026.121.033.121.048c0 .015.026.057.064.103l.016.02.042-.063C.266.075.276.056.276.044.276.032.262.026.231.024V0h.241v.024z"/>
  </symbol>
  <symbol id="ab">
    <path d="M.387.123C.35.081.324.067.283.067.196.067.141.154.141.29c0 .103.032.166.084.166.016 0 .031-.008.037-.019C.267.428.267.428.267.386.268.337.286.314.323.314c.042 0 .068.024.068.063 0 .062-.067.11-.155.11C.1.487 0 .381 0 .237 0 .099.09 0 .214 0c.077 0 .133.031.191.105L.387.123z"/>
  </symbol>
  <symbol id="ac">
    <path d="M.19.676H0V.652C.035.649.051.631.051.594v-.51C.051.047.034.027 0 .024V0h.239v.024C.206.025.19.044.19.084v.592z"/>
  </symbol>
  
  <symbol id="ah">
    <path d="M.449.494v.217h-.03C.412.685.404.677.387.677a.133.133 0 0 0-.042.011.337.337 0 0 1-.117.022C.092.71.009.633.009.507.009.419.061.356.18.299L.247.267C.335.225.359.199.359.147.359.078.31.033.233.033a.18.18 0 0 0-.146.074.348.348 0 0 0-.058.14H0V0h.029c.006.025.014.034.03.034A.159.159 0 0 0 .1.024.379.379 0 0 1 .23 0c.148 0 .248.085.248.211a.21.21 0 0 1-.11.182L.221.466C.14.506.118.531.118.579c0 .062.042.1.11.1A.17.17 0 0 0 .351.623a.272.272 0 0 0 .07-.129h.028z"/>
  </symbol>
  <symbol id="ai">
    <path d="M.192.676H0V.652C.046.643.053.635.053.594v-.51C.053.042.045.033 0 .024V0h.241v.024C.204.029.192.044.192.081v.267c0 .004.007.014.017.023.022.023.046.035.069.035C.313.406.33.379.33.323V.081C.33.044.317.028.283.024V0h.235v.024C.482.027.469.042.469.084v.248c0 .086-.053.141-.135.141-.053 0-.09-.02-.142-.078v.281z"/>
  </symbol>
  <symbol id="aj">
    <path d="m.448.078-.01-.01C.435.065.432.064.427.064.413.064.406.073.406.089V.35C.406.434.33.487.208.487.095.487.019.436.019.361.019.32.043.295.084.295c.04 0 .068.024.068.058C.152.367.146.38.134.396.125.406.122.412.122.418c0 .021.028.037.063.037.058 0 .084-.027.084-.088V.294A.757.757 0 0 1 .064.213C.021.183 0 .149 0 .106 0 .045.047 0 .111 0c.057 0 .103.02.158.07C.28.019.302 0 .351 0c.043 0 .074.016.112.057L.448.078m-.18.036C.241.083.221.071.197.071c-.03 0-.051.027-.051.067 0 .058.042.1.122.121V.114z"/>
  </symbol>
  <symbol id="ak">
    <path d="M.189.461H0V.437C.043.431.054.418.054.378V.084C.054.043.044.032 0 .024V0h.266v.024C.205.028.193.041.193.103v.189c0 .052.028.095.061.095C.262.387.271.38.282.364.301.337.316.328.342.328c.037 0 .063.028.063.067C.405.44.371.473.324.473.274.473.236.446.189.379v.082z"/>
  </symbol>


  <path stroke-width=".85" stroke-linecap="round" stroke-linejoin="round" fill="none" stroke="#a63657" d="M108.46 611.674a60.834 60.834 0 0 1 67.28 0"/>
  <path d="M171.79 611.036c1.32.169 2.638.382 3.95.638a60.854 60.854 0 0 0-2.341-3.244z" fill="#a63657"/>
  <path stroke-width=".85" stroke-linecap="round" stroke-linejoin="round" fill="none" stroke="#a63657" d="M171.79 611.036c1.32.169 2.638.382 3.95.638a60.854 60.854 0 0 0-2.341-3.244z"/>
  <path stroke-width=".85" stroke-linecap="round" stroke-linejoin="round" fill="none" stroke="#8057f2" d="M96.248 611.072a37.502 37.502 0 0 1 0-49.09"/>
  <path d="M95.19 565.84a37.503 37.503 0 0 1 1.058-3.858 37.506 37.506 0 0 0-3.476 1.98z" fill="#8057f2"/>
  <path stroke-width=".85" stroke-linecap="round" stroke-linejoin="round" fill="none" stroke="#8057f2" d="M95.19 565.84a37.503 37.503 0 0 1 1.058-3.858 37.506 37.506 0 0 0-3.476 1.98z"/>
  <path stroke-width=".85" stroke-linecap="round" stroke-linejoin="round" fill="none" stroke="#cc8a4f" d="M107.951 561.982a37.502 37.502 0 0 1 0 49.09"/>
  <path d="M109.009 607.214a37.5 37.5 0 0 1-1.058 3.858 37.507 37.507 0 0 0 3.476-1.98z" fill="#cc8a4f"/>
  <path stroke-width=".85" stroke-linecap="round" stroke-linejoin="round" fill="none" stroke="#cc8a4f" d="M109.009 607.214a37.5 37.5 0 0 1-1.058 3.858 37.507 37.507 0 0 0 3.476-1.98z"/>
  <path stroke-width=".85" stroke-linecap="round" stroke-linejoin="round" fill="none" stroke="#5496b3" d="M94.546 619.163c-7.811 6.945-2.899 19.864 7.554 19.864 10.452 0 15.365-12.919 7.553-19.864"/>
  <path d="M113.158 621.09c-.992-.801-2.16-1.46-3.505-1.927.62 1.28.981 2.573 1.116 3.841z" fill="#5496b3"/>
  <path stroke-width=".85" stroke-linecap="round" stroke-linejoin="round" fill="none" stroke="#5496b3" d="M113.158 621.09c-.992-.801-2.16-1.46-3.505-1.927.62 1.28.981 2.573 1.116 3.841z"/>
  <path stroke-width=".85" stroke-linecap="round" stroke-linejoin="round" fill="none" stroke="#cc8a4f" d="M109.873 618.418c13.17 7.887 7.578 28.109-7.773 28.11-15.352 0-20.944-20.223-7.774-28.11"/>
  <path d="M92.35 621.895a16.045 16.045 0 0 1 1.976-3.477c-1.392.206-2.679.568-3.856 1.06z" fill="#cc8a4f"/>
  <path stroke-width=".85" stroke-linecap="round" stroke-linejoin="round" fill="none" stroke="#cc8a4f" d="M92.35 621.895a16.045 16.045 0 0 1 1.976-3.477c-1.392.206-2.679.568-3.856 1.06zM175.7 561.327l-67.2 50.4"/>
  <path d="m110.538 608.285-2.038 3.442 3.875-.993z" fill="#cc8a4f"/>
  <path stroke-width=".85" stroke-linecap="round" stroke-linejoin="round" fill="none" stroke="#cc8a4f" d="m110.538 608.285-2.038 3.442 3.875-.993z"/>
  <path stroke-width=".85" stroke-linecap="round" stroke-linejoin="round" fill="none" stroke="#8057f2" d="M174.1 556.527h-64"/>
  <path d="m113.795 554.996-3.695 1.531 3.695 1.53z" fill="#8057f2"/>
  <path stroke-width=".85" stroke-linecap="round" stroke-linejoin="round" fill="none" stroke="#8057f2" d="m113.795 554.996-3.695 1.531 3.695 1.53z"/>
  <path stroke-width=".85" stroke-linecap="round" stroke-linejoin="round" fill="none" stroke="#5496b3" d="M94.546 553.89c-7.811-6.944-2.899-19.863 7.554-19.863 10.452 0 15.365 12.919 7.553 19.864"/>
  <path d="M110.77 550.05a11.604 11.604 0 0 1-1.117 3.841 11.604 11.604 0 0 0 3.505-1.926z" fill="#5496b3"/>
  <path stroke-width=".85" stroke-linecap="round" stroke-linejoin="round" fill="none" stroke="#5496b3" d="M110.77 550.05a11.604 11.604 0 0 1-1.117 3.841 11.604 11.604 0 0 0 3.505-1.926z"/>
  <path stroke-width=".85" stroke-linecap="round" stroke-linejoin="round" fill="none" stroke="#8057f2" d="M109.873 554.636c13.17-7.887 7.578-28.109-7.773-28.109-15.351 0-20.944 20.222-7.774 28.11"/>
  <path d="M90.47 553.575c1.177.493 2.463.855 3.856 1.061a16.045 16.045 0 0 1-1.977-3.477z" fill="#8057f2"/>
  <path stroke-width=".85" stroke-linecap="round" stroke-linejoin="round" fill="none" stroke="#8057f2" d="M90.47 553.575c1.177.493 2.463.855 3.856 1.061a16.045 16.045 0 0 1-1.977-3.477z"/>
  <path stroke-width=".85" stroke-linecap="round" stroke-linejoin="round" fill="none" stroke="#a63657" d="M109.828 558.595a124.242 124.242 0 0 1 39.772 20.432 124.155 124.155 0 0 1 28.352 30.66"/>
  <path d="M174.616 607.479c1.123.717 2.235 1.453 3.336 2.207-.245-1.311-.511-2.618-.798-3.92z" fill="#a63657"/>
  <path stroke-width=".85" stroke-linecap="round" stroke-linejoin="round" fill="none" stroke="#a63657" d="M174.616 607.479c1.123.717 2.235 1.453 3.336 2.207-.245-1.311-.511-2.618-.798-3.92z"/>
  <path stroke-width=".85" stroke-linecap="round" stroke-linejoin="round" fill="none" stroke="#5496b3" d="M174.546 553.89c-7.811-6.944-2.899-19.863 7.554-19.863 10.452 0 15.365 12.919 7.553 19.864"/>
  <path d="M190.77 550.05a11.604 11.604 0 0 1-1.117 3.841 11.604 11.604 0 0 0 3.505-1.926z" fill="#5496b3"/>
  <path stroke-width=".85" stroke-linecap="round" stroke-linejoin="round" fill="none" stroke="#5496b3" d="M190.77 550.05a11.604 11.604 0 0 1-1.117 3.841 11.604 11.604 0 0 0 3.505-1.926zM175.74 621.38a60.834 60.834 0 0 1-67.28 0"/>
  <path d="M112.409 622.018a60.859 60.859 0 0 1-3.95-.638 60.854 60.854 0 0 0 2.341 3.244z" fill="#5496b3"/>
  <path stroke-width=".85" stroke-linecap="round" stroke-linejoin="round" fill="none" stroke="#5496b3" d="M112.409 622.018a60.859 60.859 0 0 1-3.95-.638 60.854 60.854 0 0 0 2.341 3.244zM176.248 611.072a37.502 37.502 0 0 1 0-49.09"/>
  <path d="M175.19 565.84a37.503 37.503 0 0 1 1.058-3.858 37.506 37.506 0 0 0-3.476 1.98z" fill="#5496b3"/>
  <path stroke-width=".85" stroke-linecap="round" stroke-linejoin="round" fill="none" stroke="#5496b3" d="M175.19 565.84a37.503 37.503 0 0 1 1.058-3.858 37.506 37.506 0 0 0-3.476 1.98z"/>
  <path stroke-width=".85" stroke-linecap="round" stroke-linejoin="round" fill="none" stroke="#a63657" d="M187.951 561.982a37.502 37.502 0 0 1 0 49.09"/>
  <path d="M189.009 607.214a37.503 37.503 0 0 1-1.058 3.858 37.506 37.506 0 0 0 3.476-1.98z" fill="#a63657"/>
  <path stroke-width=".85" stroke-linecap="round" stroke-linejoin="round" fill="none" stroke="#a63657" d="M189.009 607.214a37.503 37.503 0 0 1-1.058 3.858 37.506 37.506 0 0 0 3.476-1.98z"/>
  <path stroke-width=".85" stroke-linecap="round" stroke-linejoin="round" fill="none" stroke="#8057f2" d="M174.372 614.46a124.242 124.242 0 0 1-39.772-20.433 124.155 124.155 0 0 1-28.352-30.66"/>
  <path d="M109.583 565.575a124.145 124.145 0 0 1-3.335-2.207c.245 1.311.51 2.618.797 3.92z" fill="#8057f2"/>
  <path stroke-width=".85" stroke-linecap="round" stroke-linejoin="round" fill="none" stroke="#8057f2" d="M109.583 565.575a124.145 124.145 0 0 1-3.335-2.207c.245 1.311.51 2.618.797 3.92z"/>
  <path stroke-width=".85" stroke-linecap="round" stroke-linejoin="round" fill="none" stroke="#a63657" d="M174.546 619.163c-7.811 6.945-2.899 19.864 7.554 19.864 10.452 0 15.365-12.919 7.553-19.864"/>
  <path d="M193.158 621.09c-.992-.801-2.16-1.46-3.505-1.927.62 1.28.981 2.573 1.116 3.841z" fill="#a63657"/>
  <path stroke-width=".85" stroke-linecap="round" stroke-linejoin="round" fill="none" stroke="#a63657" d="M193.158 621.09c-.992-.801-2.16-1.46-3.505-1.927.62 1.28.981 2.573 1.116 3.841z"/>
  <path d="M110.1 616.527a8 8 0 1 0-16 0 8 8 0 0 0 16 0z" fill="#e6e6e6"/>
  <path stroke-width=".85" stroke-linecap="round" stroke-linejoin="round" fill="none" stroke="#000" d="M110.1 616.527a8 8 0 1 0-16 0 8 8 0 0 0 16 0z"/>
  <use xlink:href="#O" transform="matrix(9.9626 0 0 -9.9626 99.748 619.995)"/>
  <path d="M110.1 556.527a8 8 0 1 0-16 0 8 8 0 0 0 16 0z" fill="#e6e6e6"/>
  <path stroke-width=".85" stroke-linecap="round" stroke-linejoin="round" fill="none" stroke="#000" d="M110.1 556.527a8 8 0 1 0-16 0 8 8 0 0 0 16 0z"/>
  <use xlink:href="#M" transform="matrix(9.9626 0 0 -9.9626 97.79 559.855)"/>
  <path d="M190.1 616.527a8 8 0 1 0-16 0 8 8 0 0 0 16 0z" fill="#e6e6e6"/>
  <path stroke-width=".85" stroke-linecap="round" stroke-linejoin="round" fill="none" stroke="#000" d="M190.1 616.527a8 8 0 1 0-16 0 8 8 0 0 0 16 0z"/>
  <use xlink:href="#P" transform="matrix(9.9626 0 0 -9.9626 180.62 619.855)"/>
  <path d="M190.1 556.527a8 8 0 1 0-16 0 8 8 0 0 0 16 0z" fill="#e6e6e6"/>
  <path stroke-width=".85" stroke-linecap="round" stroke-linejoin="round" fill="none" stroke="#000" d="M190.1 556.527a8 8 0 1 0-16 0 8 8 0 0 0 16 0z"/>
  <use xlink:href="#N" transform="matrix(9.9626 0 0 -9.9626 179.175 559.855)"/>
  <path stroke-width=".399" stroke-linejoin="round" fill="none" stroke="#000" d="M201.662 569.994h60.83M201.662 581.152v-10.959"/>
  <use xlink:href="#ac" transform="matrix(8.9663 0 0 -8.9663 207.783 577.864)" fill="#5496b3"/>
  <use xlink:href="#T" transform="matrix(8.9663 0 0 -8.9663 210.356 577.99)" fill="#5496b3"/>
  <use xlink:href="#ab" transform="matrix(8.9663 0 0 -8.9663 214.84 577.99)" fill="#5496b3"/>
  <use xlink:href="#aj" transform="matrix(8.9663 0 0 -8.9663 218.82 577.99)" fill="#5496b3"/>
  <use xlink:href="#ac" transform="matrix(8.9663 0 0 -8.9663 223.223 577.864)" fill="#5496b3"/>
  <use xlink:href="#ak" transform="matrix(8.9663 0 0 -8.9663 228.074 577.864)" fill="#5496b3"/>
  <use xlink:href="#X" transform="matrix(8.9663 0 0 -8.9663 231.858 577.99)" fill="#5496b3"/>
  <use xlink:href="#aj" transform="matrix(8.9663 0 0 -8.9663 235.839 577.99)" fill="#5496b3"/>
  <use xlink:href="#U" transform="matrix(8.9663 0 0 -8.9663 240.322 577.99)" fill="#5496b3"/>
  <path stroke-width=".399" stroke-linejoin="round" fill="none" stroke="#000" d="M262.493 581.152v-10.959M201.662 592.11v-10.958"/>
  <symbol id="an">
    <path d="M.684.475H.549V.451C.586.447.597.439.597.416A.678.678 0 0 0 .553.288 3.138 3.138 0 0 1 .518.194C.508.235.505.247.484.321a.71.71 0 0 0-.027.106c0 .016.01.021.048.024v.024H.271V.451C.31.447.311.446.33.38L.336.361.268.19.244.254a.93.93 0 0 0-.021.054.51.51 0 0 0-.039.115c0 .016.01.024.038.028v.024H0V.451C.026.446.03.44.057.374L.205 0h.024l.125.31L.456 0h.023l.155.401c.016.037.024.045.05.05v.024z"/>
  </symbol>
  <symbol id="ao">
    <path d="M.285.473H.191v.169H.166A.878.878 0 0 0 0 .456V.429h.052V.105C.052.04.095 0 .164 0c.067 0 .107.03.148.112L.287.123C.267.085.251.071.23.071.202.071.191.088.191.128v.301h.094v.044z"/>
  </symbol>
  <use xlink:href="#ac" transform="matrix(8.9663 0 0 -8.9663 207.783 588.823)" fill="#8057f2"/>
  <use xlink:href="#T" transform="matrix(8.9663 0 0 -8.9663 210.356 588.949)" fill="#8057f2"/>
  <use xlink:href="#ab" transform="matrix(8.9663 0 0 -8.9663 214.84 588.949)" fill="#8057f2"/>
  <use xlink:href="#aj" transform="matrix(8.9663 0 0 -8.9663 218.82 588.949)" fill="#8057f2"/>
  <use xlink:href="#ac" transform="matrix(8.9663 0 0 -8.9663 223.223 588.823)" fill="#8057f2"/>
  <use xlink:href="#an" transform="matrix(8.9663 0 0 -8.9663 228.02 588.949)" fill="#8057f2"/>
  <use xlink:href="#ak" transform="matrix(8.9663 0 0 -8.9663 234.548 588.823)" fill="#8057f2"/>
  <use xlink:href="#V" transform="matrix(8.9663 0 0 -8.9663 238.412 588.823)" fill="#8057f2"/>
  <use xlink:href="#ao" transform="matrix(8.9663 0 0 -8.9663 240.94 588.93)" fill="#8057f2"/>
  <use xlink:href="#X" transform="matrix(8.9663 0 0 -8.9663 243.971 588.949)" fill="#8057f2"/>
  <path stroke-width=".399" stroke-linejoin="round" fill="none" stroke="#000" d="M262.493 592.11v-10.958M201.662 603.07v-10.96"/>
  <symbol id="ap">
    <path d="M.191.461H0V.437C.044.431.055.419.055.378V.084C.055.043.044.032 0 .024V0h.24v.024C.205.029.194.043.194.081v.267c0 .006.016.025.029.035.021.016.038.023.055.023.039 0 .054-.023.054-.083V.081C.332.04.321.027.284.024V0h.234v.024C.483.028.471.043.471.081v.267c0 .005.016.024.029.034.022.017.039.024.056.024.038 0 .053-.024.053-.083V.081C.609.039.598.027.56.024V0h.238v.024C.759.026.748.038.748.081v.251c0 .086-.053.141-.135.141C.556.473.518.45.466.386.436.449.401.473.338.473S.229.446.191.386v.075z"/>
  </symbol>
  <use xlink:href="#ak" transform="matrix(8.9663 0 0 -8.9663 207.9 599.782)" fill="#cc8a4f"/>
  <use xlink:href="#X" transform="matrix(8.9663 0 0 -8.9663 211.683 599.908)" fill="#cc8a4f"/>
  <use xlink:href="#ap" transform="matrix(8.9663 0 0 -8.9663 215.584 599.782)" fill="#cc8a4f"/>
  <use xlink:href="#T" transform="matrix(8.9663 0 0 -8.9663 223.133 599.908)" fill="#cc8a4f"/>
  <use xlink:href="#ao" transform="matrix(8.9663 0 0 -8.9663 227.572 599.89)" fill="#cc8a4f"/>
  <use xlink:href="#X" transform="matrix(8.9663 0 0 -8.9663 230.602 599.908)" fill="#cc8a4f"/>
  <use xlink:href="#ak" transform="matrix(8.9663 0 0 -8.9663 236.86 599.782)" fill="#cc8a4f"/>
  <use xlink:href="#X" transform="matrix(8.9663 0 0 -8.9663 240.645 599.908)" fill="#cc8a4f"/>
  <use xlink:href="#aj" transform="matrix(8.9663 0 0 -8.9663 244.626 599.908)" fill="#cc8a4f"/>
  <use xlink:href="#U" transform="matrix(8.9663 0 0 -8.9663 249.109 599.908)" fill="#cc8a4f"/>
  <path stroke-width=".399" stroke-linejoin="round" fill="none" stroke="#000" d="M262.493 603.07v-10.96M201.662 614.029v-10.96"/>
  <use xlink:href="#ak" transform="matrix(8.9663 0 0 -8.9663 207.9 610.741)" fill="#a63657"/>
  <use xlink:href="#X" transform="matrix(8.9663 0 0 -8.9663 211.683 610.867)" fill="#a63657"/>
  <use xlink:href="#ap" transform="matrix(8.9663 0 0 -8.9663 215.584 610.741)" fill="#a63657"/>
  <use xlink:href="#T" transform="matrix(8.9663 0 0 -8.9663 223.133 610.867)" fill="#a63657"/>
  <use xlink:href="#ao" transform="matrix(8.9663 0 0 -8.9663 227.572 610.849)" fill="#a63657"/>
  <use xlink:href="#X" transform="matrix(8.9663 0 0 -8.9663 230.602 610.867)" fill="#a63657"/>
  <use xlink:href="#an" transform="matrix(8.9663 0 0 -8.9663 236.807 610.867)" fill="#a63657"/>
  <use xlink:href="#ak" transform="matrix(8.9663 0 0 -8.9663 243.334 610.741)" fill="#a63657"/>
  <use xlink:href="#V" transform="matrix(8.9663 0 0 -8.9663 247.199 610.741)" fill="#a63657"/>
  <use xlink:href="#ao" transform="matrix(8.9663 0 0 -8.9663 249.727 610.849)" fill="#a63657"/>
  <use xlink:href="#X" transform="matrix(8.9663 0 0 -8.9663 252.758 610.867)" fill="#a63657"/>
  <path stroke-width=".399" stroke-linejoin="round" fill="none" stroke="#000" d="M262.493 614.029v-10.96M201.662 614.228h60.83"/>
  
</svg>
