<?xml version="1.0" encoding="utf-8"?>
<svg xmlns="http://www.w3.org/2000/svg" xmlns:xlink="http://www.w3.org/1999/xlink" viewBox="30 530 300 100">
  
    <style> use { fill:#555 } </style>

  <symbol id="a">
    <path d="M.127.557h.278l.043.127H.126L.029.339a.734.734 0 0 0 .18-.027C.298.284.351.227.351.161c0-.056-.044-.1-.1-.1-.023 0-.05.012-.09.042C.118.135.088.148.062.148.026.148 0 .123 0 .088 0 .035.058 0 .147 0c.165 0 .282.1.282.241 0 .104-.064.184-.173.215a.633.633 0 0 1-.151.02l.022.081z"/>
  </symbol>
  <symbol id="Y">
    <path d="M.252.688 0 .579V.553a.114.114 0 0 1 .02.008c.027.01.052.017.065.017C.11.578.121.556.121.509V.124c0-.082-.02-.099-.119-.1V0h.375v.024C.286.026.269.041.269.118v.57H.252z"/>
  </symbol>
  <symbol id="Z">
    <path d="M.488.326v-.23C.488.047.471.033.398.025V0h.34v.025C.666.034.65.047.65.096V.58c0 .05.02.066.088.071v.025h-.34V.651C.468.646.488.63.488.58V.373H.247V.58c0 .05.02.066.09.071v.025H0V.651C.067.645.085.63.085.58V.096C.085.047.07.034 0 .025V0h.337v.025C.264.033.247.047.247.096v.23h.241z"/>
  </symbol>
  <path stroke-width="1.2" stroke-linecap="round" stroke-linejoin="round" fill="none" stroke="#bfbfbf" d="M85.438 594.077v-30"/>
  <path d="M87.438 594.077a2 2 0 1 0-4 0 2 2 0 0 0 4 0z"/>
  <use xlink:href="#Y" transform="matrix(9.9626 0 0 -9.9626 83.595 603.941)"/>
  <path stroke-width="3" stroke-linecap="round" stroke-linejoin="round" fill="none" stroke="#555" d="M85.438 594.077h0"/>
  <path d="M87.438 564.077a2 2 0 1 0-4 0 2 2 0 0 0 4 0z"/>
  <symbol id="as">
    <path d="M.461.211H.437C.408.139.396.133.294.133H.143l.162.154c.079.075.114.142.114.218a.177.177 0 0 1-.185.183.185.185 0 0 1-.133-.056.355.355 0 0 1-.087-.148h.028c.031.062.068.09.122.09A.11.11 0 0 0 .263.519a.156.156 0 0 0 .02-.072.29.29 0 0 0-.051-.148A1.806 1.806 0 0 0 0 .023V0h.416l.045.211z"/>
  </symbol>
  <use xlink:href="#as" transform="matrix(9.9626 0 0 -9.9626 83.117 561.077)"/>
  <path stroke-width="3" stroke-linecap="round" stroke-linejoin="round" fill="none" stroke="#555" d="M85.438 564.077h0"/>
  <symbol id="at">
    <path d="M.797.69C.798.695.8.7.8.706.8.72.786.72.775.72L.682.648A.241.241 0 0 1 .499.72C.177.72 0 .475 0 .27 0 .081.151 0 .326 0a.41.41 0 0 1 .245.082.285.285 0 0 1 .115.169c0 .014-.014.014-.023.014C.644.265.643.263.638.246A.303.303 0 0 0 .353.047a.249.249 0 0 0-.156.046C.143.134.139.202.139.229c0 .029.016.216.115.332a.346.346 0 0 0 .261.112c.122 0 .173-.092.173-.18L.685.458c0-.015.013-.015.027-.015.022 0 .023.001.028.022L.797.69z"/>
  </symbol>
  <use xlink:href="#at" transform="matrix(9.9626 0 0 -9.9626 71.066 622.664)"/>
  <symbol id="au">
    <path d="M.724.224c.012 0 .041 0 .041.03 0 .031-.031.031-.046.031H.046C.031.285 0 .285 0 .254c0-.03.029-.03.041-.03h.683M.719 0c.015 0 .046 0 .046.031 0 .03-.029.03-.041.03H.041C.029.061 0 .061 0 .031 0 0 .031 0 .046 0h.673z"/>
  </symbol>
  <symbol id="av">
    <path d="M.269.623c0 .022 0 .032-.026.032-.011 0-.013 0-.022-.007C.144.591.041.591.02.591H0V.544h.02c.016 0 .071.001.13.02V.047H.011V0c.044.003.15.003.199.003.049 0 .155 0 .199-.003v.047h-.14v.576z"/>
  </symbol>
  <use xlink:href="#au" transform="matrix(9.9626 0 0 -9.9626 83.173 621.418)"/>
  <use xlink:href="#av" transform="matrix(9.9626 0 0 -9.9626 95.467 622.494)"/>
  <path stroke-width="1.2" stroke-linecap="round" stroke-linejoin="round" fill="none" stroke="#bfbfbf" d="M135.438 594.077v-30M165.438 594.077v-30M135.438 594.077h30M135.438 564.077h30"/>
  <path d="M137.438 594.077a2 2 0 1 0-4 0 2 2 0 0 0 4 0z"/>
  <use xlink:href="#Y" transform="matrix(9.9626 0 0 -9.9626 133.595 603.941)"/>
  <path stroke-width="3" stroke-linecap="round" stroke-linejoin="round" fill="none" stroke="#555" d="M135.438 594.077h0"/>
  <path d="M137.438 564.077a2 2 0 1 0-4 0 2 2 0 0 0 4 0z"/>
  <use xlink:href="#as" transform="matrix(9.9626 0 0 -9.9626 133.117 561.077)"/>
  <path stroke-width="3" stroke-linecap="round" stroke-linejoin="round" fill="none" stroke="#555" d="M135.438 564.077h0"/>
  <path d="M167.438 594.077a2 2 0 1 0-4 0 2 2 0 0 0 4 0z"/>
  <symbol id="aw">
    <path d="M.042.537C.08.598.113.621.165.621c.063 0 .102-.04.102-.103C.267.452.232.417.137.387V.37A.368.368 0 0 0 .289.29.167.167 0 0 0 .338.168C.338.096.3.05.24.05.216.05.197.061.164.093.125.132.095.148.065.148.027.148 0 .124 0 .09 0 .036.061 0 .153 0 .32 0 .452.114.452.26a.192.192 0 0 1-.044.124.192.192 0 0 1-.078.054c.064.039.083.068.083.127C.413.651.352.702.25.702.151.702.076.652.021.549L.042.537z"/>
  </symbol>
  <use xlink:href="#aw" transform="matrix(9.9626 0 0 -9.9626 163.107 604.08)"/>
  <path stroke-width="3" stroke-linecap="round" stroke-linejoin="round" fill="none" stroke="#555" d="M165.438 594.077h0"/>
  <path d="M167.438 564.077a2 2 0 1 0-4 0 2 2 0 0 0 4 0z"/>
  <symbol id="ax">
    <path d="M.393.255v.433h-.08L.254.611A4.633 4.633 0 0 1 0 .257V.144h.248V0h.145v.144h.063v.111H.393m-.143 0H.041L.25.552V.255z"/>
  </symbol>
  <use xlink:href="#ax" transform="matrix(9.9626 0 0 -9.9626 163.137 561.077)"/>
  <path stroke-width="3" stroke-linecap="round" stroke-linejoin="round" fill="none" stroke="#555" d="M165.438 564.077h0"/>
  <use xlink:href="#at" transform="matrix(9.9626 0 0 -9.9626 136.066 622.664)"/>
  <symbol id="ay">
    <path d="M.46.222H.413C.41.202.401.138.387.131.376.125.301.125.285.125H.138C.185.164.237.207.282.24.396.324.46.371.46.466.46.581.356.655.215.655.094.655 0 .593 0 .503 0 .444.048.429.072.429c.032 0 .072.022.072.072 0 .052-.042.068-.057.072A.163.163 0 0 0 .19.608C.276.608.322.54.322.465.322.396.284.328.214.257L.013.052C0 .04 0 .038 0 .018V0h.429L.46.222z"/>
  </symbol>
  <use xlink:href="#au" transform="matrix(9.9626 0 0 -9.9626 148.173 621.418)"/>
  <use xlink:href="#ay" transform="matrix(9.9626 0 0 -9.9626 160.188 622.494)"/>
  <path stroke-width="1.2" stroke-linecap="round" stroke-linejoin="round" fill="none" stroke="#bfbfbf" d="M220.438 594.077h30M220.438 594.077l21-21M250.438 594.077l21-21M241.438 573.077h30M220.438 594.077v-30M250.438 594.077v-30M241.438 573.077v-30M271.438 573.077v-30M220.438 564.077h30M220.438 564.077l21-21M250.438 564.077l21-21M241.438 543.077h30"/>
  <path d="M222.438 594.077a2 2 0 1 0-4 0 2 2 0 0 0 4 0z"/>
  <use xlink:href="#Y" transform="matrix(9.9626 0 0 -9.9626 218.595 603.941)"/>
  <path stroke-width="3" stroke-linecap="round" stroke-linejoin="round" fill="none" stroke="#555" d="M220.438 594.077h0"/>
  <path d="M252.438 594.077a2 2 0 1 0-4 0 2 2 0 0 0 4 0z"/>
  <use xlink:href="#aw" transform="matrix(9.9626 0 0 -9.9626 248.107 604.08)"/>
  <path stroke-width="3" stroke-linecap="round" stroke-linejoin="round" fill="none" stroke="#555" d="M250.438 594.077h0"/>
  <path d="M243.438 573.077a2 2 0 1 0-4 0 2 2 0 0 0 4 0z"/>
  <use xlink:href="#as" transform="matrix(9.9626 0 0 -9.9626 231.136 576.452)"/>
  <path stroke-width="3" stroke-linecap="round" stroke-linejoin="round" fill="none" stroke="#555" d="M241.438 573.077h0"/>
  <path d="M273.438 573.077a2 2 0 1 0-4 0 2 2 0 0 0 4 0z"/>
  <use xlink:href="#ax" transform="matrix(9.9626 0 0 -9.9626 274.628 576.51)"/>
  <path stroke-width="3" stroke-linecap="round" stroke-linejoin="round" fill="none" stroke="#555" d="M271.438 573.077h0"/>
  <path d="M222.438 564.077a2 2 0 1 0-4 0 2 2 0 0 0 4 0z"/>
  <use xlink:href="#a" transform="matrix(9.9626 0 0 -9.9626 212.675 567.474)"/>
  <path stroke-width="3" stroke-linecap="round" stroke-linejoin="round" fill="none" stroke="#555" d="M220.438 564.077h0"/>
  <path d="M252.438 564.077a2 2 0 1 0-4 0 2 2 0 0 0 4 0z"/>
  <symbol id="az">
    <path d="M.46.676H.044L0 .454h.025c.019.064.043.085.098.085H.33L.13 0h.095L.46.676z"/>
  </symbol>
  <use xlink:href="#az" transform="matrix(9.9626 0 0 -9.9626 248.117 561.077)"/>
  <path stroke-width="3" stroke-linecap="round" stroke-linejoin="round" fill="none" stroke="#555" d="M250.438 564.077h0"/>
  <path d="M243.438 543.077a2 2 0 1 0-4 0 2 2 0 0 0 4 0z"/>
  <symbol id="aA">
    <path d="M.442.701A.553.553 0 0 1 .171.608.377.377 0 0 1 0 .286C0 .113.092 0 .232 0c.124 0 .215.099.215.235C.447.356.374.434.26.434A.189.189 0 0 1 .176.417c.037.147.12.228.266.258v.026M.205.389c.067 0 .09-.055.09-.214C.295.057.283.027.234.027a.054.054 0 0 0-.051.029.52.52 0 0 0-.027.199.36.36 0 0 0 .013.124c.008.006.022.01.036.01z"/>
  </symbol>
  <use xlink:href="#aA" transform="matrix(9.9626 0 0 -9.9626 239.226 540.067)"/>
  <path stroke-width="3" stroke-linecap="round" stroke-linejoin="round" fill="none" stroke="#555" d="M241.438 543.077h0"/>
  <path d="M273.438 543.077a2 2 0 1 0-4 0 2 2 0 0 0 4 0z"/>
  <symbol id="aB">
    <path d="M.15.337A.24.24 0 0 1 .044.28.148.148 0 0 1 0 .17C0 .068.085 0 .212 0c.139 0 .232.08.232.2 0 .087-.043.149-.15.217C.39.451.43.492.43.556.43.645.354.701.235.701.1.701.011.631.011.526c0-.075.04-.13.139-.189m.12.098C.186.478.14.533.14.589c0 .047.036.083.083.083.056 0 .088-.045.088-.123C.311.502.303.479.27.435M.172.319C.281.246.305.214.305.14.305.073.272.032.218.032.157.032.121.085.121.174c0 .055.011.086.051.145z"/>
  </symbol>
  <use xlink:href="#aB" transform="matrix(9.9626 0 0 -9.9626 269.226 540.067)"/>
  <path stroke-width="3" stroke-linecap="round" stroke-linejoin="round" fill="none" stroke="#555" d="M271.438 543.077h0"/>
  <use xlink:href="#at" transform="matrix(9.9626 0 0 -9.9626 231.066 622.664)"/>
  <symbol id="aC">
    <path d="M.304.363c.069.021.142.078.142.164C.446.604.37.666.229.666.11.666.032.602.032.522c0-.043.031-.07.069-.07.045 0 .07.032.07.069 0 .058-.054.069-.058.07a.18.18 0 0 0 .11.036C.306.627.309.563.309.53.309.517.308.386.204.38.163.378.161.377.156.376.146.375.144.365.144.359c0-.018.01-.018.028-.018h.044C.325.341.325.243.325.192c0-.047 0-.149-.104-.149a.242.242 0 0 0-.126.034.074.074 0 0 1 .058.075.073.073 0 0 1-.076.076C.035.228 0 .201 0 .15 0 .06.097 0 .226 0c.179 0 .252.1.252.191 0 .055-.029.141-.174.172z"/>
  </symbol>
  <use xlink:href="#au" transform="matrix(9.9626 0 0 -9.9626 243.173 621.418)"/>
  <use xlink:href="#aC" transform="matrix(9.9626 0 0 -9.9626 255.098 622.604)"/>
</svg>
