<?xml version="1.0" encoding="utf-8"?>
<svg xmlns="http://www.w3.org/2000/svg" xmlns:xlink="http://www.w3.org/1999/xlink" viewBox="50 430 250 120">
  
  <symbol id="a">
    <path d="M.619.227H.59A.348.348 0 0 0 .502.086C.461.049.405.031.328.031c-.061 0-.08.013-.08.056v.472c0 .075.014.088.101.092v.025H0V.651C.068.647.086.631.086.58V.096C.086.045.073.034 0 .025V0h.578l.041.227z"/>
  </symbol>
  <symbol id="b">
    <path d="M.252.688 0 .579V.553a.114.114 0 0 1 .02.008c.027.01.052.017.065.017C.11.578.121.556.121.509V.124c0-.082-.02-.099-.119-.1V0h.375v.024C.286.026.269.041.269.118v.57H.252z"/>
  </symbol>
  <symbol id="c">
    <path d="M.314.001a.687.687 0 0 0 .133.025l.062.008v.023C.463.06.45.073.45.115V.69H.235V.666C.302.661.311.654.311.608V.425C.268.471.238.487.192.487.082.487 0 .38 0 .235 0 .099.076 0 .181 0c.053 0 .086.016.133.066V.001M.311.126C.311.12.301.103.289.09.269.067.248.056.226.056c-.053 0-.078.06-.078.187 0 .129.027.188.085.188.033 0 .064-.024.078-.062V.126z"/>
  </symbol>
  <symbol id="d">
    <path d="M.608.171a.357.357 0 0 0-.14-.105.245.245 0 0 0-.09-.018.183.183 0 0 0-.158.087.468.468 0 0 0-.043.225c0 .207.064.317.184.317.047 0 .09-.018.133-.056A.39.39 0 0 0 .595.473H.62v.234H.593C.579.672.568.661.549.661a.127.127 0 0 0-.046.014.403.403 0 0 1-.155.035A.345.345 0 0 1 0 .352.34.34 0 0 1 .354 0c.071 0 .13.017.185.054a.511.511 0 0 1 .099.092l-.03.025z"/>
  </symbol>
  <symbol id="e">
    <path d="m.448.078-.01-.01C.435.065.432.064.427.064.413.064.406.073.406.089V.35C.406.434.33.487.208.487.095.487.019.436.019.361.019.32.043.295.084.295c.04 0 .068.024.068.058C.152.367.146.38.134.396.125.406.122.412.122.418c0 .021.028.037.063.037.058 0 .084-.027.084-.088V.294A.757.757 0 0 1 .064.213C.021.183 0 .149 0 .106 0 .045.047 0 .111 0c.057 0 .103.02.158.07C.28.019.302 0 .351 0c.043 0 .074.016.112.057L.448.078m-.18.036C.241.083.221.071.197.071c-.03 0-.051.027-.051.067 0 .058.042.1.122.121V.114z"/>
  </symbol>
  <symbol id="f">
    <path d="M.387.123C.35.081.324.067.283.067.196.067.141.154.141.29c0 .103.032.166.084.166.016 0 .031-.008.037-.019C.267.428.267.428.267.386.268.337.286.314.323.314c.042 0 .068.024.068.063 0 .062-.067.11-.155.11C.1.487 0 .381 0 .237 0 .099.09 0 .214 0c.077 0 .133.031.191.105L.387.123z"/>
  </symbol>
  <symbol id="g">
    <path d="M.192.676H0V.652C.046.643.053.635.053.594v-.51C.053.042.045.033 0 .024V0h.241v.024C.204.029.192.044.192.081v.267c0 .004.007.014.017.023.022.023.046.035.069.035C.313.406.33.379.33.323V.081C.33.044.317.028.283.024V0h.235v.024C.482.027.469.042.469.084v.248c0 .086-.053.141-.135.141-.053 0-.09-.02-.142-.078v.281z"/>
  </symbol>
  <symbol id="h">
    <path d="M.377.139C.337.09.306.072.263.072a.098.098 0 0 0-.089.053.284.284 0 0 0-.03.134h.252C.39.343.375.39.343.428a.169.169 0 0 1-.134.059C.084.487 0 .388 0 .242S.082 0 .206 0c.081 0 .13.032.195.125L.377.139M.139.296c.003.12.021.16.07.16C.237.456.256.44.264.409A.515.515 0 0 0 .273.311V.296H.139z"/>
  </symbol>
  <symbol id="k">
    <path d="M.226.487C.099.487 0 .382 0 .246 0 .103.095 0 .226 0c.129 0 .225.104.225.243 0 .14-.096.244-.225.244M.227.456C.285.456.304.401.304.237.304.083.284.031.226.031.167.031.147.082.147.228c0 .176.018.228.08.228z"/>
  </symbol>
  <symbol id="l">
    <path d="M.189.461H0V.437C.043.431.054.418.054.378V.084C.054.043.044.032 0 .024V0h.266v.024C.205.028.193.041.193.103v.189c0 .052.028.095.061.095C.262.387.271.38.282.364.301.337.316.328.342.328c.037 0 .063.028.063.067C.405.44.371.473.324.473.274.473.236.446.189.379v.082z"/>
  </symbol>
  <symbol id="m">
    <path d="M.461.211H.437C.408.139.396.133.294.133H.143l.162.154c.079.075.114.142.114.218a.177.177 0 0 1-.185.183.185.185 0 0 1-.133-.056.355.355 0 0 1-.087-.148h.028c.031.062.068.09.122.09A.11.11 0 0 0 .263.519a.156.156 0 0 0 .02-.072.29.29 0 0 0-.051-.148A1.806 1.806 0 0 0 0 .023V0h.416l.045.211z"/>
  </symbol>
  <symbol id="n">
    <path d="M.192.461H0V.437C.044.428.053.419.053.378V.084C.053.043.046.035 0 .024V0h.239v.024C.204.029.192.043.192.081v.38m-.07.23A.078.078 0 0 1 .044.614c0-.045.033-.078.077-.078s.078.033.078.077a.077.077 0 0 1-.077.078z"/>
  </symbol>
  <symbol id="s">
    <path d="M.664.609V.1C.664.044.65.032.575.025V0h.332v.025C.829.035.819.046.819.117v.442c0 .072.015.087.088.092v.025H.655l-.2-.472-.2.472H.002V.651C.075.645.091.632.091.58V.105C.091.045.078.033 0 .025V0h.234v.025C.152.031.133.05.133.124v.47L.385 0h.027l.252.609z"/>
  </symbol>
  <symbol id="t">
    <path d="M.191.461H0V.437C.044.43.053.42.053.378V.084C.053.042.045.033 0 .024V0h.241v.024C.204.029.192.044.192.081v.267c0 .004.007.014.017.023.022.023.046.035.069.035C.313.406.33.379.33.323V.081C.33.044.317.028.283.024V0h.235v.024C.479.027.469.039.469.081v.251c0 .086-.053.141-.135.141C.274.473.228.445.191.386v.075z"/>
  </symbol>
  <symbol id="u">
    <path d="M.191.461H0V.437C.044.431.055.419.055.378V.084C.055.043.044.032 0 .024V0h.24v.024C.205.029.194.043.194.081v.267c0 .006.016.025.029.035.021.016.038.023.055.023.039 0 .054-.023.054-.083V.081C.332.04.321.027.284.024V0h.234v.024C.483.028.471.043.471.081v.267c0 .005.016.024.029.034.022.017.039.024.056.024.038 0 .053-.024.053-.083V.081C.609.039.598.027.56.024V0h.238v.024C.759.026.748.038.748.081v.251c0 .086-.053.141-.135.141C.556.473.518.45.466.386.436.449.401.473.338.473S.229.446.191.386v.075z"/>
  </symbol>
  <symbol id="v">
    <path d="M.464.666H.313V.642C.356.64.368.633.368.609A.125.125 0 0 0 .357.564L.289.372.217.557c-.02.051-.02.051-.02.059 0 .014.012.023.037.025L.25.642v.024H0V.642C.023.639.029.636.035.627.038.627.083.529.1.487L.22.192.202.139C.185.089.159.057.136.057a.018.018 0 0 0-.017.017L.12.08l.002.014c0 .029-.024.049-.058.049A.061.061 0 0 1 0 .079C0 .033.04 0 .097 0 .131 0 .16.012.181.033A.507.507 0 0 1 .257.19l.149.397c.017.042.027.052.058.055v.024z"/>
  </symbol>
  <path d="M63.362 528.175h110v-57.833h-110zM178.362 528.175h110v-57.833h-110z" fill="#b3b3b3"/>
  <path d="M66.362 525.175h50.5v-25.833h-50.5zM119.862 525.175h50.5v-25.833h-50.5zM181.362 525.175h50.5v-25.833h-50.5zM234.862 525.175h50.5v-25.833h-50.5z" fill="#666"/>
  <path d="M69.362 522.175h20.75v-6.917h-20.75zM93.112 522.175h20.75v-6.917h-20.75zM122.862 522.175h20.75v-6.917h-20.75zM146.612 522.175h20.75v-6.917h-20.75zM184.362 522.175h20.75v-6.917h-20.75zM208.112 522.175h20.75v-6.917h-20.75zM237.862 522.175h20.75v-6.917h-20.75zM261.612 522.175h20.75v-6.917h-20.75z" fill="#ff9973"/>
  <path d="M69.362 509.258h20.75v-6.916h-20.75zM93.112 509.258h20.75v-6.916h-20.75zM122.862 509.258h20.75v-6.916h-20.75zM146.612 509.258h20.75v-6.916h-20.75zM184.362 509.258h20.75v-6.916h-20.75zM208.112 509.258h20.75v-6.916h-20.75zM237.862 509.258h20.75v-6.916h-20.75zM261.612 509.258h20.75v-6.916h-20.75z" fill="#b3ff73"/>
  <path stroke-width=".5" stroke-linecap="round" stroke-linejoin="round" fill="none" stroke="#000" d="M79.737 515.258v-6M103.487 515.258v-6M133.237 515.258v-6M156.987 515.258v-6M194.737 515.258v-6M218.487 515.258v-6M248.237 515.258v-6M271.987 515.258v-6M79.737 515.258l23.75-6M103.487 515.258l-23.75-6M133.237 515.258l23.75-6M156.987 515.258l-23.75-6M194.737 515.258l23.75-6M218.487 515.258l-23.75-6M248.237 515.258l23.75-6M271.987 515.258l-23.75-6M79.737 502.342l38.625-11M103.487 502.342l14.875-11M133.237 502.342l-14.875-11M156.987 502.342l-38.625-11M194.737 502.342l38.625-11M218.487 502.342l14.875-11M248.237 502.342l-14.875-11M271.987 502.342l-38.625-11"/>
  <path d="M103.362 496.342h30v-10h-30zM218.362 496.342h30v-10h-30z" fill="#7db350"/>
  <path d="M103.362 483.342h30v-10h-30zM218.362 483.342h30v-10h-30z" fill="#577d38"/>
  <path stroke-width=".5" stroke-linecap="round" stroke-linejoin="round" fill="none" stroke="#000" d="M118.362 486.342v-3M233.362 486.342v-3M118.362 473.342v-8M233.362 473.342v-8"/>
  <path d="M142.862 459.342h76v-20h-76z" fill="#ccc"/>
  <path d="M137.862 454.342h76v-20h-76z" fill="#1a8cff"/>
  <use xlink:href="#s" transform="matrix(9.9626 0 0 -9.9626 145.152 446.76)" fill="#fff"/>
  <use xlink:href="#e" transform="matrix(9.9626 0 0 -9.9626 154.667 446.9)" fill="#fff"/>
  <use xlink:href="#n" transform="matrix(9.9626 0 0 -9.9626 159.558 446.76)" fill="#fff"/>
  <use xlink:href="#t" transform="matrix(9.9626 0 0 -9.9626 162.378 446.76)" fill="#fff"/>
  <use xlink:href="#s" transform="matrix(9.9626 0 0 -9.9626 170.338 446.76)" fill="#fff"/>
  <use xlink:href="#h" transform="matrix(9.9626 0 0 -9.9626 179.852 446.9)" fill="#fff"/>
  <use xlink:href="#u" transform="matrix(9.9626 0 0 -9.9626 184.186 446.76)" fill="#fff"/>
  <use xlink:href="#k" transform="matrix(9.9626 0 0 -9.9626 192.574 446.9)" fill="#fff"/>
  <use xlink:href="#l" transform="matrix(9.9626 0 0 -9.9626 197.596 446.76)" fill="#fff"/>
  <use xlink:href="#v" transform="matrix(9.9626 0 0 -9.9626 201.89 448.802)" fill="#fff"/>
  <path stroke-width=".5" stroke-linecap="round" stroke-linejoin="round" fill="none" stroke="#000" d="M175.862 464.342v-10"/>
  <path d="m177.393 458.037-1.531-3.695-1.53 3.695z"/>
  <path stroke-width=".5" stroke-linecap="round" stroke-linejoin="round" fill="none" stroke="#000" d="m177.393 458.037-1.531-3.695-1.53 3.695z"/>
  <path d="m174.331 460.646 1.531 3.696 1.53-3.696z"/>
  <path stroke-width=".5" stroke-linecap="round" stroke-linejoin="round" fill="none" stroke="#000" d="m174.331 460.646 1.531 3.696 1.53-3.696z"/>
  <path stroke-width="2" stroke-linecap="round" stroke-linejoin="round" fill="none" stroke="#000" d="M63.362 465.342h225"/>
  <path d="m284.667 466.872 3.695-1.53-3.695-1.531z"/>
  <path stroke-width="2" stroke-linecap="round" stroke-linejoin="round" fill="none" stroke="#000" d="m284.667 466.872 3.695-1.53-3.695-1.531z"/>
  <path d="m67.057 463.811-3.695 1.53 3.695 1.531z"/>
  <path stroke-width="2" stroke-linecap="round" stroke-linejoin="round" fill="none" stroke="#000" d="m67.057 463.811-3.695 1.53 3.695 1.531z"/>
  <use xlink:href="#p" transform="matrix(9.9626 0 0 -9.9626 270.362 461.102)"/>
  <use xlink:href="#q" transform="matrix(9.9626 0 0 -9.9626 277.007 461.241)"/>
  <use xlink:href="#r" transform="matrix(9.9626 0 0 -9.9626 282.636 461.241)"/>
  <symbol id="an">
    <path d="M.662.573V.12C.662.037.65.024.571.019V0h.28v.019C.778.024.764.038.764.109v.444c0 .071.013.084.087.09v.019H.652L.431.157.2.662H.002V.643C.084.638.097.626.097.553V.147C.097.044.083.025 0 .019V0h.235v.019C.158.023.141.046.141.147V.55L.392 0h.014l.256.573z"/>
  </symbol>
    <symbol id="p">
    <path d="M0 .676V.651C.069.647.088.631.088.58V.096C.088.045.073.033 0 .025V0h.322c.169 0 .281.075.281.188a.154.154 0 0 1-.054.117.277.277 0 0 1-.139.06C.526.399.569.44.569.516c0 .103-.093.16-.26.16H0M.248.343h.03C.381.343.431.289.431.179.431.082.39.032.309.032.265.032.248.049.248.093v.25m0 .254c0 .036.015.049.054.049.07 0 .102-.043.102-.137C.404.404.371.376.248.373v.224z"/>
  </symbol>
  <symbol id="q">
    <path d="M.327.001a.495.495 0 0 0 .132.026l.062.007v.023C.477.059.465.072.465.115v.36H.264V.451C.314.447.326.435.326.392V.109C.293.076.272.065.244.065c-.041 0-.056.02-.056.071v.339H0V.451C.041.443.049.434.049.392V.14c0-.088.05-.14.133-.14.052 0 .087.016.145.066V.001z"/>
  </symbol>
  <symbol id="r">
    <path d="M.315.34v.145H.293C.287.47.281.465.269.465a.123.123 0 0 0-.032.007.24.24 0 0 1-.078.015C.068.487.002.425.002.341c0-.066.041-.112.142-.155C.212.156.24.131.24.099.24.06.21.034.165.034c-.07 0-.116.045-.137.132H0V.001h.025c.011.021.017.028.026.028A.07.07 0 0 0 .074.023.342.342 0 0 1 .182 0c.091 0 .154.062.154.152 0 .071-.039.114-.138.156C.13.337.102.362.102.396c0 .033.028.058.066.058A.11.11 0 0 0 .243.422.174.174 0 0 0 .29.34h.025z"/>
  </symbol>
  
</svg>
