<?xml version="1.0" encoding="utf-8"?>
<svg xmlns="http://www.w3.org/2000/svg" xmlns:xlink="http://www.w3.org/1999/xlink" viewBox="70 30 450 170">
  
  <style> use { fill:#555 } </style>

  <symbol id="a">
    <path d="M.561.174A.3.3 0 0 0 .515.096C.48.057.425.039.342.039H.275C.202.039.189.045.189.08v.473c0 .071.014.085.093.09v.019H0V.643C.074.637.087.623.087.553V.109C.087.039.073.024 0 .019V0h.538l.048.174H.561z"/>
  </symbol>
  <symbol id="b">
    <path d="M.383.174C.335.098.292.069.228.069c-.057 0-.1.029-.129.086a.299.299 0 0 0-.027.132H.38C.372.352.362.381.337.413A.164.164 0 0 1 .209.47.2.2 0 0 1 .074.418C.027.377 0 .306 0 .224 0 .086.072 0 .187 0c.095 0 .17.059.212.167L.383.174M.074.319C.085.397.119.434.18.434S.265.406.278.319H.074z"/>
  </symbol>
  <symbol id="c">
    <path d="M.458.464H.319V.449C.351.446.366.436.366.417A.08.08 0 0 0 .36.387L.261.128.159.384A.103.103 0 0 0 .15.421c0 .018.011.025.046.028v.015H0V.449C.038.447.045.437.091.334l.12-.287.008-.021C.225.008.231 0 .237 0 .243 0 .25.013.265.05l.128.321c.029.068.035.075.065.078v.015z"/>
  </symbol>
  <symbol id="d">
    <path d="M0 .623h.006a.398.398 0 0 0 .031.002C.069.625.079.611.079.564V.087C.079.033.065.02.002.015V0h.236v.015C.175.019.163.029.163.084v.597L.159.683A1.99 1.99 0 0 0 0 .639V.623z"/>
  </symbol>
  <symbol id="e">
    <path d="M.46.231H.358v.445H.314L0 .231V.167h.281V0h.077v.167H.46v.064m-.18 0H.04l.24.343V.231z"/>
  </symbol>
  <symbol id="f">
    <path d="M.097.109C.097.034.084.022 0 .019V0h.297v.019C.215.022.199.036.199.109v.444c0 .073.014.086.098.09v.019H0V.643C.085.638.097.627.097.553V.109z"/>
  </symbol>
  <symbol id="g">
    <path d="M0 .398a.067.067 0 0 0 .027.004C.055.402.064.387.064.338V.09C.064.033.053.019.002.015V0h.212v.015C.163.019.148.031.148.067v.281c.048.045.07.057.103.057C.3.405.324.374.324.308V.099C.324.036.311.019.261.015V0h.208v.015C.42.02.408.032.408.081V.31C.408.404.364.46.29.46.244.46.213.443.145.379v.079L.138.46A1.866 1.866 0 0 0 0 .415V.398z"/>
  </symbol>
  <symbol id="h">
    <path d="m.317 0 .147.052v.016L.441.067C.405.067.397.078.397.124v.567L.392.693A1.702 1.702 0 0 0 .245.649V.633a.162.162 0 0 0 .022.001c.037 0 .046-.01.046-.051V.427C.275.459.248.47.208.47.093.47 0 .357 0 .215 0 .087.075 0 .185 0c.056 0 .094.02.128.067V.003L.317 0M.313.112C.313.105.306.093.296.082a.094.094 0 0 0-.072-.03c-.083 0-.138.08-.138.203 0 .113.049.187.125.187a.105.105 0 0 0 .102-.1v-.23z"/>
  </symbol>
  <symbol id="i">
    <path d="M.261 0h.201v.015C.431.015.411.031.38.075L.252.271l.083.12a.103.103 0 0 0 .081.044V.45H.258V.435c.03-.002.04-.008.04-.022C.298.401.286.379.261.348a.703.703 0 0 1-.03-.044l-.014.02a.268.268 0 0 0-.046.089c0 .014.013.021.043.022V.45H.007V.435h.009c.03 0 .046-.013.077-.06L.187.231.073.066C.043.025.033.018 0 .015V0h.145v.015c-.028 0-.04.005-.04.018 0 .006.007.021.02.041l.079.123.091-.14A.032.032 0 0 0 .301.039C.301.021.294.017.261.015V0z"/>
  </symbol>
  
  <use xlink:href="#a" transform="matrix(6.9738 0 0 -6.9738 140.922 50.217)"/>
  <use xlink:href="#b" transform="matrix(6.9738 0 0 -6.9738 145.273 50.287)"/>
  <use xlink:href="#c" transform="matrix(6.9738 0 0 -6.9738 148.154 50.315)"/>
  <use xlink:href="#b" transform="matrix(6.9738 0 0 -6.9738 151.578 50.287)"/>
  <use xlink:href="#d" transform="matrix(6.9738 0 0 -6.9738 154.632 50.217)"/>
  <use xlink:href="#e" transform="matrix(6.9738 0 0 -6.9738 158.266 50.217)"/>
  <use xlink:href="#f" transform="matrix(6.9738 0 0 -6.9738 163.538 50.217)"/>
  <use xlink:href="#g" transform="matrix(6.9738 0 0 -6.9738 165.846 50.217)"/>
  <use xlink:href="#h" transform="matrix(6.9738 0 0 -6.9738 169.41 50.287)"/>
  <use xlink:href="#b" transform="matrix(6.9738 0 0 -6.9738 172.883 50.287)"/>
  <use xlink:href="#i" transform="matrix(6.9738 0 0 -6.9738 175.819 50.217)"/>
  <path stroke-width=".75" stroke-linecap="round" stroke-linejoin="round" fill="none" stroke="#000" d="M160.013 55.888v9h-60v100h9"/>
  <path d="m105.318 166.419 3.695-1.531-3.695-1.53z"/>
  <path stroke-width=".75" stroke-linecap="round" stroke-linejoin="round" fill="none" stroke="#000" d="m105.318 166.419 3.695-1.531-3.695-1.53z"/>
  <symbol id="j">
    <path d="M.11.344A.287.287 0 0 0 .216.333.152.152 0 0 0 .317.185C.317.101.26.036.186.036.159.036.139.043.102.067.072.085.055.092.038.092.015.092 0 .078 0 .057 0 .022.043 0 .113 0 .19 0 .269.026.316.067a.215.215 0 0 1 .073.166.19.19 0 0 1-.045.129.208.208 0 0 1-.083.053C.33.462.355.499.355.553.355.634.291.69.199.69a.191.191 0 0 1-.13-.049C.039.614.024.588.002.528L.017.524C.058.597.103.63.166.63c.065 0 .11-.044.11-.107a.14.14 0 0 0-.04-.097A.29.29 0 0 0 .11.357V.344z"/>
  </symbol>
  <use xlink:href="#a" transform="matrix(6.9738 0 0 -6.9738 200.922 50.217)"/>
  <use xlink:href="#b" transform="matrix(6.9738 0 0 -6.9738 205.273 50.287)"/>
  <use xlink:href="#c" transform="matrix(6.9738 0 0 -6.9738 208.154 50.315)"/>
  <use xlink:href="#b" transform="matrix(6.9738 0 0 -6.9738 211.578 50.287)"/>
  <use xlink:href="#d" transform="matrix(6.9738 0 0 -6.9738 214.632 50.217)"/>
  <use xlink:href="#j" transform="matrix(6.9738 0 0 -6.9738 218.482 50.315)"/>
  <use xlink:href="#f" transform="matrix(6.9738 0 0 -6.9738 223.538 50.217)"/>
  <use xlink:href="#g" transform="matrix(6.9738 0 0 -6.9738 225.846 50.217)"/>
  <use xlink:href="#h" transform="matrix(6.9738 0 0 -6.9738 229.41 50.287)"/>
  <use xlink:href="#b" transform="matrix(6.9738 0 0 -6.9738 232.883 50.287)"/>
  <use xlink:href="#i" transform="matrix(6.9738 0 0 -6.9738 235.819 50.217)"/>
  <path stroke-width=".75" stroke-linecap="round" stroke-linejoin="round" fill="none" stroke="#000" d="M220.013 55.888v19h-40v80h9"/>
  <path d="m185.318 156.419 3.695-1.531-3.695-1.53z"/>
  <path stroke-width=".75" stroke-linecap="round" stroke-linejoin="round" fill="none" stroke="#000" d="m185.318 156.419 3.695-1.531-3.695-1.53z"/>
  <symbol id="k">
    <path d="M.445.137.432.142C.395.085.382.076.337.076H.098l.168.176c.089.093.128.169.128.247 0 .1-.081.177-.185.177A.195.195 0 0 1 .065.614C.033.58.018.548.001.477L.022.472c.04.098.076.13.145.13A.134.134 0 0 0 .308.461C.308.383.262.29.178.201L0 .012V0h.39l.055.137z"/>
  </symbol>
  <use xlink:href="#a" transform="matrix(6.9738 0 0 -6.9738 260.922 50.217)"/>
  <use xlink:href="#b" transform="matrix(6.9738 0 0 -6.9738 265.273 50.287)"/>
  <use xlink:href="#c" transform="matrix(6.9738 0 0 -6.9738 268.154 50.315)"/>
  <use xlink:href="#b" transform="matrix(6.9738 0 0 -6.9738 271.578 50.287)"/>
  <use xlink:href="#d" transform="matrix(6.9738 0 0 -6.9738 274.632 50.217)"/>
  <use xlink:href="#k" transform="matrix(6.9738 0 0 -6.9738 278.391 50.217)"/>
  <use xlink:href="#f" transform="matrix(6.9738 0 0 -6.9738 283.538 50.217)"/>
  <use xlink:href="#g" transform="matrix(6.9738 0 0 -6.9738 285.846 50.217)"/>
  <use xlink:href="#h" transform="matrix(6.9738 0 0 -6.9738 289.41 50.287)"/>
  <use xlink:href="#b" transform="matrix(6.9738 0 0 -6.9738 292.883 50.287)"/>
  <use xlink:href="#i" transform="matrix(6.9738 0 0 -6.9738 295.819 50.217)"/>
  <path stroke-width=".75" stroke-linecap="round" stroke-linejoin="round" fill="none" stroke="#000" d="M280.013 55.888v29h-20v60h9"/>
  <path d="m265.318 146.419 3.695-1.531-3.695-1.53z"/>
  <path stroke-width=".75" stroke-linecap="round" stroke-linejoin="round" fill="none" stroke="#000" d="m265.318 146.419 3.695-1.531-3.695-1.53z"/>
  <symbol id="l">
    <path d="M.18.676 0 .585V.571l.027.011a.144.144 0 0 0 .045.011c.021 0 .03-.015.03-.047V.093C.102.06.094.037.078.028.063.019.049.016.007.015V0h.276v.015C.204.016.188.026.188.074v.6L.18.676z"/>
  </symbol>
  <use xlink:href="#a" transform="matrix(6.9738 0 0 -6.9738 320.922 50.217)"/>
  <use xlink:href="#b" transform="matrix(6.9738 0 0 -6.9738 325.273 50.287)"/>
  <use xlink:href="#c" transform="matrix(6.9738 0 0 -6.9738 328.154 50.315)"/>
  <use xlink:href="#b" transform="matrix(6.9738 0 0 -6.9738 331.578 50.287)"/>
  <use xlink:href="#d" transform="matrix(6.9738 0 0 -6.9738 334.632 50.217)"/>
  <use xlink:href="#l" transform="matrix(6.9738 0 0 -6.9738 338.956 50.217)"/>
  <use xlink:href="#f" transform="matrix(6.9738 0 0 -6.9738 343.538 50.217)"/>
  <use xlink:href="#g" transform="matrix(6.9738 0 0 -6.9738 345.846 50.217)"/>
  <use xlink:href="#h" transform="matrix(6.9738 0 0 -6.9738 349.41 50.287)"/>
  <use xlink:href="#b" transform="matrix(6.9738 0 0 -6.9738 352.883 50.287)"/>
  <use xlink:href="#i" transform="matrix(6.9738 0 0 -6.9738 355.819 50.217)"/>
  <path stroke-width=".75" stroke-linecap="round" stroke-linejoin="round" fill="none" stroke="#000" d="M340.013 55.888v79h9"/>
  <path d="m345.318 136.419 3.695-1.531-3.695-1.53z"/>
  <path stroke-width=".75" stroke-linecap="round" stroke-linejoin="round" fill="none" stroke="#000" d="m345.318 136.419 3.695-1.531-3.695-1.53z"/>
  <symbol id="m">
    <path d="M.327.69C.136.69 0 .546 0 .345 0 .251.032.16.086.102A.327.327 0 0 1 .321 0c.197 0 .333.14.333.341A.354.354 0 0 1 .57.585.32.32 0 0 1 .327.69m0-.036a.194.194 0 0 0 .128-.05C.509.555.54.461.54.342a.537.537 0 0 0-.033-.18.204.204 0 0 0-.049-.073.191.191 0 0 0-.259-.004C.147.131.114.232.114.343c0 .102.028.199.07.246a.188.188 0 0 0 .143.065z"/>
  </symbol>
  <symbol id="n">
    <path d="M.289.45H.166v.116c0 .058.019.089.057.089.021 0 .035-.01.053-.039C.292.59.304.58.321.58c.023 0 .042.018.042.041 0 .036-.044.062-.104.062C.197.683.144.656.118.61.092.566.084.53.083.45H.001V.418h.082V.104C.083.031.072.019 0 .015V0h.26v.015C.178.018.167.029.167.104v.314h.122V.45z"/>
  </symbol>
  <symbol id="o">
    <path d="M.264.324.26.46H.249L.247.458C.238.451.237.45.233.45a.071.071 0 0 0-.027.007.198.198 0 0 1-.07.012C.057.469 0 .418 0 .346 0 .29.032.25.117.202L.175.169C.21.149.227.125.227.094.227.05.195.022.144.022A.11.11 0 0 0 .06.057C.039.082.03.105.017.162H.001V.006h.013c.007.01.011.012.023.012A.196.196 0 0 0 .083.01.39.39 0 0 1 .156 0c.077 0 .141.058.141.128 0 .05-.024.083-.084.119L.105.311a.078.078 0 0 0-.043.068c0 .04.031.068.077.068.057 0 .087-.034.11-.123h.015z"/>
  </symbol>
  <symbol id="p">
    <path d="M.242.46H.141v.116c0 .01-.001.013-.007.013L.114.561A.362.362 0 0 0 .017.454C.006.447 0 .44 0 .435 0 .432.001.43.004.428h.053V.127C.057.043.087 0 .146 0c.049 0 .087.024.12.076L.253.087C.232.062.215.052.193.052c-.037 0-.052.027-.052.09v.286h.101V.46z"/>
  </symbol>
  <use xlink:href="#m" transform="matrix(6.9738 0 0 -6.9738 396.623 50.315)"/>
  <use xlink:href="#n" transform="matrix(6.9738 0 0 -6.9738 401.56 50.217)"/>
  <use xlink:href="#n" transform="matrix(6.9738 0 0 -6.9738 403.708 50.217)"/>
  <use xlink:href="#o" transform="matrix(6.9738 0 0 -6.9738 406.247 50.287)"/>
  <use xlink:href="#b" transform="matrix(6.9738 0 0 -6.9738 408.778 50.287)"/>
  <use xlink:href="#p" transform="matrix(6.9738 0 0 -6.9738 411.791 50.287)"/>
  <path stroke-width=".75" stroke-linecap="round" stroke-linejoin="round" fill="none" stroke="#000" d="M405.013 55.888v9h15v25h9"/>
  <path d="m425.318 91.419 3.695-1.531-3.695-1.53z"/>
  <path stroke-width=".75" stroke-linecap="round" stroke-linejoin="round" fill="none" stroke="#000" d="m425.318 91.419 3.695-1.531-3.695-1.53z"/>
  <path d="M115.013 179.888h60v-40h-60z" fill="#ccc"/>
  <path d="M110.013 174.888h60v-40h-60z" fill="#66e64d"/>
  <path d="M110.013 169.888h60v-10h-60z" fill="#eed8d8"/>
  <symbol id="q">
    <path d="M.585.169H.557C.507.061.464.037.321.037H.294C.245.037.203.042.196.049.191.052.189.063.189.08v.247h.154C.425.327.44.314.453.231h.023v.232H.453C.446.422.442.407.431.393.418.376.39.368.343.368H.189V.59c0 .028.006.034.033.034h.135C.47.624.492.609.509.519h.025L.531.662H0V.643C.074.637.087.623.087.553V.109C.087.039.073.024 0 .019V0h.54l.045.169z"/>
  </symbol>
  <symbol id="r">
    <path d="M.002.39a.15.15 0 0 0 .035.004c.025 0 .034-.016.034-.06v-.25C.071.034.064.027 0 .015V0h.24v.015C.172.018.155.033.155.09v.225c0 .032.043.082.07.082C.231.397.24.392.251.382c.016-.014.027-.02.04-.02.024 0 .039.017.039.045C.33.44.309.46.275.46.233.46.204.437.155.366v.092L.15.46A1.697 1.697 0 0 0 .002.406V.39z"/>
  </symbol>
  <symbol id="s">
    <path d="M.461.668H.326V.653C.358.653.374.644.374.628A.045.045 0 0 0 .37.611L.273.335.158.588a.102.102 0 0 0-.01.038c0 .018.015.025.058.027v.015H0V.654C.026.65.043.639.051.622L.165.376.168.368l.015-.03A.319.319 0 0 0 .227.237a.407.407 0 0 0-.04-.108C.173.103.151.084.137.084a.06.06 0 0 0-.025.007.152.152 0 0 1-.053.011.044.044 0 0 1-.043-.044C.016.025.048 0 .09 0c.067 0 .115.056.169.2l.154.408C.426.64.437.65.461.653v.015z"/>
  </symbol>
  <symbol id="t">
    <path d="M.088.109C.088.037.076.024 0 .019V0h.284C.4 0 .505.033.567.089a.328.328 0 0 1 .102.245c0 .09-.03.168-.085.223C.516.626.407.662.27.662H0V.643C.079.636.088.627.088.553V.109M.19.586c0 .031.011.039.052.039a.337.337 0 0 0 .199-.05A.286.286 0 0 0 .56.327C.56.209.519.125.438.078A.376.376 0 0 0 .242.037C.202.037.19.046.19.078v.508z"/>
  </symbol>
  <symbol id="u">
    <path d="M.159.46.004.405V.39l.008.001a.224.224 0 0 0 .034.003C.07.394.079.378.079.334V.102C.079.03.069.019 0 .015V0h.237v.015C.171.02.163.03.163.102v.355L.159.46M.112.683a.051.051 0 0 1-.05-.051.05.05 0 0 1 .05-.051.05.05 0 0 1 .052.051.051.051 0 0 1-.052.051z"/>
  </symbol>
  <symbol id="v">
    <path d="M.373.166C.325.096.289.072.232.072c-.091 0-.155.08-.155.195 0 .103.055.174.136.174C.249.441.262.43.272.393L.278.371C.286.343.304.325.325.325c.026 0 .048.019.048.042C.373.423.303.47.219.47.17.47.119.45.078.414A.249.249 0 0 1 0 .223C0 .093.079 0 .19 0a.18.18 0 0 1 .121.047.335.335 0 0 1 .076.11L.373.166z"/>
  </symbol>
  <symbol id="w">
    <path d="M.221.47C.091.47 0 .374 0 .236 0 .101.093 0 .219 0s.222.106.222.244C.441.375.349.47.221.47M.208.442C.292.442.351.346.351.209.351.096.306.028.231.028a.112.112 0 0 0-.097.064.42.42 0 0 0-.044.193c0 .095.047.157.118.157z"/>
  </symbol>
  <use xlink:href="#a" transform="matrix(6.9738 0 0 -6.9738 121.062 166.511)"/>
  <use xlink:href="#b" transform="matrix(6.9738 0 0 -6.9738 125.413 166.58)"/>
  <use xlink:href="#c" transform="matrix(6.9738 0 0 -6.9738 128.294 166.609)"/>
  <use xlink:href="#b" transform="matrix(6.9738 0 0 -6.9738 131.718 166.58)"/>
  <use xlink:href="#d" transform="matrix(6.9738 0 0 -6.9738 134.772 166.511)"/>
  <use xlink:href="#e" transform="matrix(6.9738 0 0 -6.9738 138.406 166.511)"/>
  <use xlink:href="#q" transform="matrix(6.9738 0 0 -6.9738 143.636 166.511)"/>
  <use xlink:href="#g" transform="matrix(6.9738 0 0 -6.9738 147.925 166.511)"/>
  <use xlink:href="#p" transform="matrix(6.9738 0 0 -6.9738 151.39 166.58)"/>
  <use xlink:href="#r" transform="matrix(6.9738 0 0 -6.9738 153.274 166.511)"/>
  <use xlink:href="#s" transform="matrix(6.9738 0 0 -6.9738 155.659 168.031)"/>
  <use xlink:href="#a" transform="matrix(6.9738 0 0 -6.9738 115.448 131.511)"/>
  <use xlink:href="#b" transform="matrix(6.9738 0 0 -6.9738 119.8 131.58)"/>
  <use xlink:href="#c" transform="matrix(6.9738 0 0 -6.9738 122.68 131.609)"/>
  <use xlink:href="#b" transform="matrix(6.9738 0 0 -6.9738 126.104 131.58)"/>
  <use xlink:href="#d" transform="matrix(6.9738 0 0 -6.9738 129.158 131.511)"/>
  <use xlink:href="#e" transform="matrix(6.9738 0 0 -6.9738 132.792 131.511)"/>
  <use xlink:href="#t" transform="matrix(6.9738 0 0 -6.9738 138.05 131.511)"/>
  <use xlink:href="#u" transform="matrix(6.9738 0 0 -6.9738 143.085 131.511)"/>
  <use xlink:href="#r" transform="matrix(6.9738 0 0 -6.9738 144.947 131.511)"/>
  <use xlink:href="#b" transform="matrix(6.9738 0 0 -6.9738 147.409 131.58)"/>
  <use xlink:href="#v" transform="matrix(6.9738 0 0 -6.9738 150.505 131.58)"/>
  <use xlink:href="#p" transform="matrix(6.9738 0 0 -6.9738 153.518 131.58)"/>
  <use xlink:href="#w" transform="matrix(6.9738 0 0 -6.9738 155.568 131.58)"/>
  <use xlink:href="#r" transform="matrix(6.9738 0 0 -6.9738 158.887 131.511)"/>
  <use xlink:href="#s" transform="matrix(6.9738 0 0 -6.9738 161.273 133.031)"/>
  <path stroke-width=".75" stroke-linecap="round" stroke-linejoin="round" fill="none" stroke="#000" d="M170.013 164.888h19"/>
  <path d="m185.318 166.419 3.695-1.531-3.695-1.53z"/>
  <path stroke-width=".75" stroke-linecap="round" stroke-linejoin="round" fill="none" stroke="#000" d="m185.318 166.419 3.695-1.531-3.695-1.53z"/>
  <path d="M195.013 169.888h60v-40h-60z" fill="#ccc"/>
  <path d="M190.013 164.888h60v-40h-60z" fill="#52b83d"/>
  <path d="M190.013 159.888h60v-10h-60z" fill="#eed8d8"/>
  <use xlink:href="#a" transform="matrix(6.9738 0 0 -6.9738 201.062 156.511)"/>
  <use xlink:href="#b" transform="matrix(6.9738 0 0 -6.9738 205.413 156.58)"/>
  <use xlink:href="#c" transform="matrix(6.9738 0 0 -6.9738 208.294 156.609)"/>
  <use xlink:href="#b" transform="matrix(6.9738 0 0 -6.9738 211.718 156.58)"/>
  <use xlink:href="#d" transform="matrix(6.9738 0 0 -6.9738 214.772 156.511)"/>
  <use xlink:href="#j" transform="matrix(6.9738 0 0 -6.9738 218.622 156.609)"/>
  <use xlink:href="#q" transform="matrix(6.9738 0 0 -6.9738 223.636 156.511)"/>
  <use xlink:href="#g" transform="matrix(6.9738 0 0 -6.9738 227.925 156.511)"/>
  <use xlink:href="#p" transform="matrix(6.9738 0 0 -6.9738 231.39 156.58)"/>
  <use xlink:href="#r" transform="matrix(6.9738 0 0 -6.9738 233.274 156.511)"/>
  <use xlink:href="#s" transform="matrix(6.9738 0 0 -6.9738 235.659 158.031)"/>
  <use xlink:href="#a" transform="matrix(6.9738 0 0 -6.9738 195.448 121.511)"/>
  <use xlink:href="#b" transform="matrix(6.9738 0 0 -6.9738 199.8 121.58)"/>
  <use xlink:href="#c" transform="matrix(6.9738 0 0 -6.9738 202.68 121.609)"/>
  <use xlink:href="#b" transform="matrix(6.9738 0 0 -6.9738 206.104 121.58)"/>
  <use xlink:href="#d" transform="matrix(6.9738 0 0 -6.9738 209.158 121.511)"/>
  <use xlink:href="#j" transform="matrix(6.9738 0 0 -6.9738 213.008 121.609)"/>
  <use xlink:href="#t" transform="matrix(6.9738 0 0 -6.9738 218.05 121.511)"/>
  <use xlink:href="#u" transform="matrix(6.9738 0 0 -6.9738 223.085 121.511)"/>
  <use xlink:href="#r" transform="matrix(6.9738 0 0 -6.9738 224.947 121.511)"/>
  <use xlink:href="#b" transform="matrix(6.9738 0 0 -6.9738 227.409 121.58)"/>
  <use xlink:href="#v" transform="matrix(6.9738 0 0 -6.9738 230.505 121.58)"/>
  <use xlink:href="#p" transform="matrix(6.9738 0 0 -6.9738 233.518 121.58)"/>
  <use xlink:href="#w" transform="matrix(6.9738 0 0 -6.9738 235.568 121.58)"/>
  <use xlink:href="#r" transform="matrix(6.9738 0 0 -6.9738 238.887 121.511)"/>
  <use xlink:href="#s" transform="matrix(6.9738 0 0 -6.9738 241.273 123.031)"/>
  <path stroke-width=".75" stroke-linecap="round" stroke-linejoin="round" fill="none" stroke="#000" d="M250.013 154.888h19"/>
  <path d="m265.318 156.419 3.695-1.531-3.695-1.53z"/>
  <path stroke-width=".75" stroke-linecap="round" stroke-linejoin="round" fill="none" stroke="#000" d="m265.318 156.419 3.695-1.531-3.695-1.53z"/>
  <path d="M275.013 159.888h60v-40h-60z" fill="#ccc"/>
  <path d="M270.013 154.888h60v-40h-60z" fill="#3d8a2e"/>
  <path d="M270.013 149.888h60v-10h-60z" fill="#eed8d8"/>
  <use xlink:href="#a" transform="matrix(6.9738 0 0 -6.9738 281.062 146.511)"/>
  <use xlink:href="#b" transform="matrix(6.9738 0 0 -6.9738 285.413 146.58)"/>
  <use xlink:href="#c" transform="matrix(6.9738 0 0 -6.9738 288.294 146.609)"/>
  <use xlink:href="#b" transform="matrix(6.9738 0 0 -6.9738 291.718 146.58)"/>
  <use xlink:href="#d" transform="matrix(6.9738 0 0 -6.9738 294.772 146.511)"/>
  <use xlink:href="#k" transform="matrix(6.9738 0 0 -6.9738 298.531 146.511)"/>
  <use xlink:href="#q" transform="matrix(6.9738 0 0 -6.9738 303.636 146.511)"/>
  <use xlink:href="#g" transform="matrix(6.9738 0 0 -6.9738 307.925 146.511)"/>
  <use xlink:href="#p" transform="matrix(6.9738 0 0 -6.9738 311.39 146.58)"/>
  <use xlink:href="#r" transform="matrix(6.9738 0 0 -6.9738 313.274 146.511)"/>
  <use xlink:href="#s" transform="matrix(6.9738 0 0 -6.9738 315.659 148.031)"/>
  <use xlink:href="#a" transform="matrix(6.9738 0 0 -6.9738 275.448 111.511)"/>
  <use xlink:href="#b" transform="matrix(6.9738 0 0 -6.9738 279.8 111.58)"/>
  <use xlink:href="#c" transform="matrix(6.9738 0 0 -6.9738 282.68 111.609)"/>
  <use xlink:href="#b" transform="matrix(6.9738 0 0 -6.9738 286.104 111.58)"/>
  <use xlink:href="#d" transform="matrix(6.9738 0 0 -6.9738 289.158 111.511)"/>
  <use xlink:href="#k" transform="matrix(6.9738 0 0 -6.9738 292.917 111.511)"/>
  <use xlink:href="#t" transform="matrix(6.9738 0 0 -6.9738 298.05 111.511)"/>
  <use xlink:href="#u" transform="matrix(6.9738 0 0 -6.9738 303.085 111.511)"/>
  <use xlink:href="#r" transform="matrix(6.9738 0 0 -6.9738 304.947 111.511)"/>
  <use xlink:href="#b" transform="matrix(6.9738 0 0 -6.9738 307.409 111.58)"/>
  <use xlink:href="#v" transform="matrix(6.9738 0 0 -6.9738 310.505 111.58)"/>
  <use xlink:href="#p" transform="matrix(6.9738 0 0 -6.9738 313.518 111.58)"/>
  <use xlink:href="#w" transform="matrix(6.9738 0 0 -6.9738 315.568 111.58)"/>
  <use xlink:href="#r" transform="matrix(6.9738 0 0 -6.9738 318.887 111.511)"/>
  <use xlink:href="#s" transform="matrix(6.9738 0 0 -6.9738 321.273 113.031)"/>
  <path stroke-width=".75" stroke-linecap="round" stroke-linejoin="round" fill="none" stroke="#000" d="M330.013 144.888h19"/>
  <path d="m345.318 146.419 3.695-1.531-3.695-1.53z"/>
  <path stroke-width=".75" stroke-linecap="round" stroke-linejoin="round" fill="none" stroke="#000" d="m345.318 146.419 3.695-1.531-3.695-1.53z"/>
  <path d="M355.013 149.888h60v-40h-60z" fill="#ccc"/>
  <path d="M350.013 144.888h60v-40h-60z" fill="#295c1f"/>
  <path d="M350.013 139.888h60v-10h-60z" fill="#eed8d8"/>
  <use xlink:href="#a" transform="matrix(6.9738 0 0 -6.9738 361.062 136.511)"/>
  <use xlink:href="#b" transform="matrix(6.9738 0 0 -6.9738 365.413 136.58)"/>
  <use xlink:href="#c" transform="matrix(6.9738 0 0 -6.9738 368.294 136.609)"/>
  <use xlink:href="#b" transform="matrix(6.9738 0 0 -6.9738 371.718 136.58)"/>
  <use xlink:href="#d" transform="matrix(6.9738 0 0 -6.9738 374.772 136.511)"/>
  <use xlink:href="#l" transform="matrix(6.9738 0 0 -6.9738 379.096 136.511)"/>
  <use xlink:href="#q" transform="matrix(6.9738 0 0 -6.9738 383.636 136.511)"/>
  <use xlink:href="#g" transform="matrix(6.9738 0 0 -6.9738 387.925 136.511)"/>
  <use xlink:href="#p" transform="matrix(6.9738 0 0 -6.9738 391.39 136.58)"/>
  <use xlink:href="#r" transform="matrix(6.9738 0 0 -6.9738 393.274 136.511)"/>
  <use xlink:href="#s" transform="matrix(6.9738 0 0 -6.9738 395.659 138.031)"/>
  <use xlink:href="#a" transform="matrix(6.9738 0 0 -6.9738 355.448 101.511)"/>
  <use xlink:href="#b" transform="matrix(6.9738 0 0 -6.9738 359.8 101.58)"/>
  <use xlink:href="#c" transform="matrix(6.9738 0 0 -6.9738 362.68 101.609)"/>
  <use xlink:href="#b" transform="matrix(6.9738 0 0 -6.9738 366.104 101.58)"/>
  <use xlink:href="#d" transform="matrix(6.9738 0 0 -6.9738 369.158 101.511)"/>
  <use xlink:href="#l" transform="matrix(6.9738 0 0 -6.9738 373.482 101.511)"/>
  <use xlink:href="#t" transform="matrix(6.9738 0 0 -6.9738 378.05 101.511)"/>
  <use xlink:href="#u" transform="matrix(6.9738 0 0 -6.9738 383.085 101.511)"/>
  <use xlink:href="#r" transform="matrix(6.9738 0 0 -6.9738 384.947 101.511)"/>
  <use xlink:href="#b" transform="matrix(6.9738 0 0 -6.9738 387.409 101.58)"/>
  <use xlink:href="#v" transform="matrix(6.9738 0 0 -6.9738 390.505 101.58)"/>
  <use xlink:href="#p" transform="matrix(6.9738 0 0 -6.9738 393.518 101.58)"/>
  <use xlink:href="#w" transform="matrix(6.9738 0 0 -6.9738 395.568 101.58)"/>
  <use xlink:href="#r" transform="matrix(6.9738 0 0 -6.9738 398.887 101.511)"/>
  <use xlink:href="#s" transform="matrix(6.9738 0 0 -6.9738 401.273 103.031)"/>
  <path stroke-width=".75" stroke-linecap="round" stroke-linejoin="round" fill="none" stroke="#000" d="M410.013 134.888h19"/>
  <path d="m425.318 136.419 3.695-1.531-3.695-1.53z"/>
  <path stroke-width=".75" stroke-linecap="round" stroke-linejoin="round" fill="none" stroke="#000" d="m425.318 136.419 3.695-1.531-3.695-1.53z"/>
  <path d="M435.013 139.888h60v-55h-60z" fill="#ccc"/>
  <path d="M430.013 134.888h60v-55h-60z" fill="#658ff3"/>
  <path d="M430.013 94.888h60v-10h-60z" fill="#eed8d8"/>
  <symbol id="x">
    <path d="M.186.291A.796.796 0 0 1 .255.288.35.35 0 0 1 .43.322a.18.18 0 0 1 .096.159c0 .042-.014.08-.041.109C.445.634.358.662.264.662H0V.643C.074.635.084.625.084.553V.12C.084.036.076.026 0 .019V0h.28v.019C.201.022.186.036.186.109v.182m0 .3c0 .027.007.034.034.034.135 0 .197-.047.197-.15C.417.378.358.328.243.328a.59.59 0 0 0-.057.003v.26z"/>
  </symbol>
  <symbol id="y">
    <path d="M.148.343C.19.389.22.406.259.406.309.406.334.37.334.3V.102C.334.034.324.021.266.015V0h.212v.015c-.054.01-.06.018-.06.087v.199C.418.406.376.46.295.46.236.46.194.436.148.376V.68L.143.683A1.724 1.724 0 0 0 .028.647L.001.639V.623a.045.045 0 0 0 .012.001C.056.624.064.616.064.573V.102C.064.032.058.023 0 .015V0h.216v.015C.158.021.148.033.148.102v.241z"/>
  </symbol>
  <symbol id="z">
    <path d="M.405.076C.388.062.376.057.361.057c-.023 0-.03.014-.03.058V.31c0 .052-.005.081-.02.105C.289.451.246.47.187.47.093.47.019.421.019.358c0-.023.02-.043.043-.043.024 0 .045.02.045.042L.105.373a.112.112 0 0 0-.003.024c0 .027.032.049.072.049C.223.446.25.417.25.363V.302C.096.24.079.232.036.194A.121.121 0 0 1 0 .107C0 .044.044 0 .105 0 .149 0 .19.021.251.073.256.021.274 0 .315 0c.034 0 .055.012.09.05v.026M.25.133C.25.102.245.093.224.081A.158.158 0 0 0 .151.058C.116.058.088.092.088.135v.004c0 .059.041.095.162.139V.133z"/>
  </symbol>
  <symbol id="A">
    <path d="M.691.019C.646.022.636.032.601.106L.352.674h-.02L.124.183C.06.037.048.021 0 .019V0h.198v.019C.15.019.13.032.13.06c0 .012.003.026.008.039l.046.117h.262L.487.12A.198.198 0 0 0 .506.053C.506.028.489.02.436.019V0h.255v.019m-.49.238.115.275.116-.275H.201z"/>
  </symbol>
  <symbol id="B">
    <path d="M.442.606v.039H.365a.152.152 0 0 0-.055.01L.288.663a.23.23 0 0 1-.08.015.164.164 0 0 1-.167-.163c0-.063.027-.101.093-.134a1.636 1.636 0 0 0-.043-.04C.058.312.045.292.045.272c0-.021.012-.033.053-.053C.027.167 0 .134 0 .097 0 .044.078 0 .173 0c.075 0 .153.026.205.068.038.031.055.063.055.101 0 .062-.047.104-.121.107L.183.282C.13.284.105.293.105.309c0 .02.033.055.06.063L.184.37A.169.169 0 0 1 .33.409c.033.028.048.063.048.113a.192.192 0 0 1-.019.084h.083M.119.216C.152.209.232.203.281.203.372.203.405.19.405.154.405.096.329.057.216.057.128.057.07.086.07.13c0 .023.007.036.049.086m.005.34c0 .059.028.094.074.094C.229.65.255.633.271.603a.28.28 0 0 0 .03-.12C.301.427.272.392.226.392c-.06 0-.102.065-.102.161v.003z"/>
  </symbol>
  <use xlink:href="#x" transform="matrix(6.9738 0 0 -6.9738 436.027 91.511)"/>
  <use xlink:href="#y" transform="matrix(6.9738 0 0 -6.9738 439.855 91.511)"/>
  <use xlink:href="#s" transform="matrix(6.9738 0 0 -6.9738 443.342 93.031)"/>
  <use xlink:href="#o" transform="matrix(6.9738 0 0 -6.9738 447.087 91.58)"/>
  <use xlink:href="#u" transform="matrix(6.9738 0 0 -6.9738 449.556 91.511)"/>
  <use xlink:href="#v" transform="matrix(6.9738 0 0 -6.9738 451.557 91.58)"/>
  <use xlink:href="#z" transform="matrix(6.9738 0 0 -6.9738 454.737 91.58)"/>
  <use xlink:href="#d" transform="matrix(6.9738 0 0 -6.9738 457.708 91.511)"/>
  <use xlink:href="#A" transform="matrix(6.9738 0 0 -6.9738 461.362 91.511)"/>
  <use xlink:href="#h" transform="matrix(6.9738 0 0 -6.9738 466.481 91.58)"/>
  <use xlink:href="#h" transform="matrix(6.9738 0 0 -6.9738 469.968 91.58)"/>
  <use xlink:href="#r" transform="matrix(6.9738 0 0 -6.9738 473.302 91.511)"/>
  <use xlink:href="#b" transform="matrix(6.9738 0 0 -6.9738 475.763 91.58)"/>
  <use xlink:href="#o" transform="matrix(6.9738 0 0 -6.9738 479.041 91.58)"/>
  <use xlink:href="#o" transform="matrix(6.9738 0 0 -6.9738 481.754 91.58)"/>
  <use xlink:href="#x" transform="matrix(6.9738 0 0 -6.9738 440.727 76.511)"/>
  <use xlink:href="#y" transform="matrix(6.9738 0 0 -6.9738 444.555 76.511)"/>
  <use xlink:href="#s" transform="matrix(6.9738 0 0 -6.9738 448.042 78.031)"/>
  <use xlink:href="#o" transform="matrix(6.9738 0 0 -6.9738 451.787 76.58)"/>
  <use xlink:href="#u" transform="matrix(6.9738 0 0 -6.9738 454.256 76.511)"/>
  <use xlink:href="#v" transform="matrix(6.9738 0 0 -6.9738 456.257 76.58)"/>
  <use xlink:href="#z" transform="matrix(6.9738 0 0 -6.9738 459.437 76.58)"/>
  <use xlink:href="#d" transform="matrix(6.9738 0 0 -6.9738 462.408 76.511)"/>
  <use xlink:href="#x" transform="matrix(6.9738 0 0 -6.9738 466.07 76.511)"/>
  <use xlink:href="#z" transform="matrix(6.9738 0 0 -6.9738 469.989 76.58)"/>
  <use xlink:href="#B" transform="matrix(6.9738 0 0 -6.9738 473.022 78.031)"/>
  <use xlink:href="#b" transform="matrix(6.9738 0 0 -6.9738 476.488 76.58)"/>
  <path stroke-width=".5" stroke-linecap="round" stroke-linejoin="round" fill="none" stroke="#000" d="M130.013 54.888h310v-15h-310zM190.013 54.888v-15M250.013 54.888v-15M310.013 54.888v-15M370.013 54.888v-15"/>
  <symbol id="C">
    <path d="M.681.673H.476V.654C.531.651.549.64.549.612A.23.23 0 0 0 .53.539L.383.172.232.51a.358.358 0 0 0-.041.111c0 .019.014.029.046.031l.029.002v.019H0V.654C.049.652.063.638.106.549L.352 0h.015l.222.561c.033.079.044.09.092.093v.019z"/>
  </symbol>
  <symbol id="D">
    <path d="M.47.06H.465C.419.06.408.071.408.117V.46H.25V.443C.312.44.324.43.324.38V.145C.324.117.319.103.305.092A.141.141 0 0 0 .217.058C.178.058.146.092.146.134V.46H0V.446C.048.443.062.428.062.382V.13C.062.051.11 0 .183 0a.15.15 0 0 1 .103.043l.043.043V.003L.333.001c.05.02.086.031.137.045V.06z"/>
  </symbol>
  <use xlink:href="#C" transform="matrix(7.9701 0 0 -7.9701 260.035 37.648)"/>
  <use xlink:href="#u" transform="matrix(7.9701 0 0 -7.9701 265.31 37.56)"/>
  <use xlink:href="#r" transform="matrix(7.9701 0 0 -7.9701 267.439 37.56)"/>
  <use xlink:href="#p" transform="matrix(7.9701 0 0 -7.9701 270.157 37.64)"/>
  <use xlink:href="#D" transform="matrix(7.9701 0 0 -7.9701 272.34 37.64)"/>
  <use xlink:href="#z" transform="matrix(7.9701 0 0 -7.9701 276.549 37.64)"/>
  <use xlink:href="#d" transform="matrix(7.9701 0 0 -7.9701 279.944 37.56)"/>
  <use xlink:href="#A" transform="matrix(7.9701 0 0 -7.9701 284.12 37.56)"/>
  <use xlink:href="#h" transform="matrix(7.9701 0 0 -7.9701 289.97 37.64)"/>
  <use xlink:href="#h" transform="matrix(7.9701 0 0 -7.9701 293.955 37.64)"/>
  <use xlink:href="#r" transform="matrix(7.9701 0 0 -7.9701 297.765 37.56)"/>
  <use xlink:href="#b" transform="matrix(7.9701 0 0 -7.9701 300.578 37.64)"/>
  <use xlink:href="#o" transform="matrix(7.9701 0 0 -7.9701 304.324 37.64)"/>
  <use xlink:href="#o" transform="matrix(7.9701 0 0 -7.9701 307.425 37.64)"/>
</svg>
