<?xml version="1.0" encoding="utf-8"?>
<svg version="1.1" xmlns="http://www.w3.org/2000/svg" xmlns:xlink="http://www.w3.org/1999/xlink" x="0px" y="0px"  viewBox="0 0 500 220" width="100%" height="220"><g><g><rect x="390" y="24" width="18" height="18" rx="4" fill="rgba(37,99,235,0.48)" stroke="#2563eb33"></rect><text x="414" y="38" font-size="14" fill="#888" font-weight="bold">68%</text></g><g><rect x="390" y="48" width="18" height="18" rx="4" fill="rgba(37,99,235,0.32)" stroke="#2563eb33"></rect><text x="414" y="62" font-size="14" fill="#888" font-weight="bold">95%</text></g><g><rect x="390" y="72" width="18" height="18" rx="4" fill="rgba(37,99,235,0.18)" stroke="#2563eb33"></rect><text x="414" y="86" font-size="14" fill="#888" font-weight="bold">99.7%</text></g></g><polygon fill="rgba(37,99,235,0.48)" stroke="none" points="197.5,95.08570764023132 199.6,91.69096512336004 201.70000000000002,88.30733173197635 203.8,84.94625935960048 205.9,81.61951879842432 208,78.33913480968326 210.10000000000002,75.11731680450097 212.2,71.96638565756635 214.29999999999998,68.89869723779266 216.4,65.92656329637789 218.5,63.06217040242191 220.6,60.31749765854627 222.7,57.704233962961 224.8,55.233695609414184 226.9,52.91674503184386 229,50.76371150587096 231.1,48.78431461422511 233.20000000000002,46.98759126763221 235.3,45.38182704664226 237.39999999999998,43.974492593522825 239.5,42.77218573705426 241.6,41.78057997735934 243.7,41.00437989346614 245.79999999999998,40.447283963975394 247.9,40.11195521194426 250,40 252.1,40.11195521194426 254.20000000000002,40.447283963975394 256.3,41.00437989346614 258.4,41.78057997735934 260.5,42.77218573705426 262.6,43.974492593522825 264.70000000000005,45.381827046642286 266.8,46.98759126763224 268.9,48.78431461422514 271,50.763711505871015 273.1,52.916745031843874 275.20000000000005,55.2336956094142 277.29999999999995,57.704233962960956 279.4,60.31749765854623 281.5,63.062170402421884 283.6,65.92656329637785 285.7,68.89869723779263 287.79999999999995,71.96638565756632 289.9,75.11731680450097 292,78.33913480968326 294.1,81.61951879842432 296.2,84.94625935960048 298.3,88.30733173197635 300.4,91.69096512336004 302.5,95.08570764023132 302.5,180 197.5,180"></polygon><polygon fill="rgba(37,99,235,0.32)" stroke="none" points="145,161.05306034687422 147.10000000000002,159.4914387152688 149.2,157.83659683292856 151.3,156.0865174667709 153.4,154.23949712451923 155.5,152.29418212829393 157.60000000000002,150.2496046014969 159.7,148.10521800427875 161.8,145.86093183028657 163.89999999999998,143.51714505822352 166,141.07477793655283 168.1,138.53530166896266 170.2,135.90076556245313 172.3,133.17382119954104 174.4,130.35774320147414 176.5,127.45644616080406 178.6,124.4744973394049 180.70000000000002,121.41712475217501 182.8,118.29022028725456 184.89999999999998,115.10033755056023 187,111.85468416560398 189.1,108.56110830862949 191.2,105.22807931366762 193.29999999999998,101.86466224166443 195.4,98.48048637174614 197.5,95.08570764023132 199.6,91.69096512336004 201.70000000000002,88.30733173197635 203.8,84.94625935960048 205.9,81.61951879842432 208,78.33913480968326 210.10000000000002,75.11731680450097 212.2,71.96638565756635 214.29999999999998,68.89869723779266 216.4,65.92656329637789 218.5,63.06217040242191 220.6,60.31749765854627 222.7,57.704233962961 224.8,55.233695609414184 226.9,52.91674503184386 229,50.76371150587096 231.1,48.78431461422511 233.20000000000002,46.98759126763221 235.3,45.38182704664226 237.39999999999998,43.974492593522825 239.5,42.77218573705426 241.6,41.78057997735934 243.7,41.00437989346614 245.79999999999998,40.447283963975394 247.9,40.11195521194426 250,40 252.1,40.11195521194426 254.20000000000002,40.447283963975394 256.3,41.00437989346614 258.4,41.78057997735934 260.5,42.77218573705426 262.6,43.974492593522825 264.70000000000005,45.381827046642286 266.8,46.98759126763224 268.9,48.78431461422514 271,50.763711505871015 273.1,52.916745031843874 275.20000000000005,55.2336956094142 277.29999999999995,57.704233962960956 279.4,60.31749765854623 281.5,63.062170402421884 283.6,65.92656329637785 285.7,68.89869723779263 287.79999999999995,71.96638565756632 289.9,75.11731680450097 292,78.33913480968326 294.1,81.61951879842432 296.2,84.94625935960048 298.3,88.30733173197635 300.4,91.69096512336004 302.5,95.08570764023132 304.6,98.48048637174614 306.7,101.86466224166443 308.8,105.22807931366762 310.90000000000003,108.56110830862949 313,111.85468416560398 315.1,115.10033755056023 317.2,118.29022028725458 319.3,121.41712475217507 321.40000000000003,124.47449733940493 323.5,127.45644616080409 325.6,130.3577432014742 327.70000000000005,133.17382119954107 329.79999999999995,135.9007655624531 331.9,138.53530166896263 334,141.0747779365528 336.09999999999997,143.5171450582235 338.2,145.86093183028652 340.3,148.10521800427873 342.4,150.2496046014969 344.5,152.29418212829393 346.59999999999997,154.23949712451923 348.7,156.0865174667709 350.8,157.83659683292856 352.9,159.4914387152688 355,161.05306034687422 355,180 145,180"></polygon><polygon fill="rgba(37,99,235,0.18)" stroke="none" points="92.5,178.44474048464608 94.6,178.24785207222868 96.7,178.02919434197952 98.80000000000001,177.78679338126614 100.9,177.51855159837513 103,177.22224673578816 105.10000000000001,176.89553181852028 107.20000000000002,176.5359361512784 109.30000000000001,176.14086747945692 111.40000000000002,175.70761542883895 113.5,175.2333563371561 115.6,174.71515958721815 117.7,174.1499955460099 119.8,173.53474520683713 121.9,172.8662116221728 124,172.14113320322127 126.09999999999998,171.35619894831993 128.2,170.5080656461053 130.29999999999998,169.59337708088947 132.39999999999998,168.60878524696648 134.5,167.5509735556859 136.6,166.41668199421983 138.7,165.2027341681916 140.8,163.9060661319551 142.89999999999998,162.5237568805834 145,161.05306034687422 147.10000000000002,159.4914387152688 149.2,157.83659683292856 151.3,156.0865174667709 153.4,154.23949712451923 155.5,152.29418212829393 157.60000000000002,150.2496046014969 159.7,148.10521800427875 161.8,145.86093183028657 163.89999999999998,143.51714505822352 166,141.07477793655283 168.1,138.53530166896266 170.2,135.90076556245313 172.3,133.17382119954104 174.4,130.35774320147414 176.5,127.45644616080406 178.6,124.4744973394049 180.70000000000002,121.41712475217501 182.8,118.29022028725456 184.89999999999998,115.10033755056023 187,111.85468416560398 189.1,108.56110830862949 191.2,105.22807931366762 193.29999999999998,101.86466224166443 195.4,98.48048637174614 197.5,95.08570764023132 199.6,91.69096512336004 201.70000000000002,88.30733173197635 203.8,84.94625935960048 205.9,81.61951879842432 208,78.33913480968326 210.10000000000002,75.11731680450097 212.2,71.96638565756635 214.29999999999998,68.89869723779266 216.4,65.92656329637789 218.5,63.06217040242191 220.6,60.31749765854627 222.7,57.704233962961 224.8,55.233695609414184 226.9,52.91674503184386 229,50.76371150587096 231.1,48.78431461422511 233.20000000000002,46.98759126763221 235.3,45.38182704664226 237.39999999999998,43.974492593522825 239.5,42.77218573705426 241.6,41.78057997735934 243.7,41.00437989346614 245.79999999999998,40.447283963975394 247.9,40.11195521194426 250,40 252.1,40.11195521194426 254.20000000000002,40.447283963975394 256.3,41.00437989346614 258.4,41.78057997735934 260.5,42.77218573705426 262.6,43.974492593522825 264.70000000000005,45.381827046642286 266.8,46.98759126763224 268.9,48.78431461422514 271,50.763711505871015 273.1,52.916745031843874 275.20000000000005,55.2336956094142 277.29999999999995,57.704233962960956 279.4,60.31749765854623 281.5,63.062170402421884 283.6,65.92656329637785 285.7,68.89869723779263 287.79999999999995,71.96638565756632 289.9,75.11731680450097 292,78.33913480968326 294.1,81.61951879842432 296.2,84.94625935960048 298.3,88.30733173197635 300.4,91.69096512336004 302.5,95.08570764023132 304.6,98.48048637174614 306.7,101.86466224166443 308.8,105.22807931366762 310.90000000000003,108.56110830862949 313,111.85468416560398 315.1,115.10033755056023 317.2,118.29022028725458 319.3,121.41712475217507 321.40000000000003,124.47449733940493 323.5,127.45644616080409 325.6,130.3577432014742 327.70000000000005,133.17382119954107 329.79999999999995,135.9007655624531 331.9,138.53530166896263 334,141.0747779365528 336.09999999999997,143.5171450582235 338.2,145.86093183028652 340.3,148.10521800427873 342.4,150.2496046014969 344.5,152.29418212829393 346.59999999999997,154.23949712451923 348.7,156.0865174667709 350.8,157.83659683292856 352.9,159.4914387152688 355,161.05306034687422 357.1,162.5237568805834 359.2,163.9060661319551 361.3,165.2027341681916 363.40000000000003,166.41668199421983 365.5,167.5509735556859 367.6,168.60878524696648 369.7,169.59337708088947 371.8,170.5080656461053 373.90000000000003,171.35619894831993 376,172.14113320322127 378.1,172.8662116221728 380.20000000000005,173.53474520683713 382.29999999999995,174.1499955460099 384.4,174.71515958721812 386.5,175.2333563371561 388.59999999999997,175.70761542883895 390.7,176.14086747945692 392.8,176.5359361512784 394.9,176.89553181852028 397,177.22224673578816 399.09999999999997,177.51855159837513 401.2,177.78679338126614 403.3,178.02919434197952 405.4,178.24785207222868 407.5,178.44474048464608 407.5,180 92.5,180"></polygon><line x1="40" y1="180" x2="460" y2="180" stroke="#888" stroke-width="2"></line><g><line x1="92.5" y1="180" x2="92.5" y2="185" stroke="#888" stroke-width="1"></line><text x="92.5" y="200" text-anchor="middle" fill="#888" class="text-xs">μ-3σ</text></g><g><line x1="145" y1="180" x2="145" y2="185" stroke="#888" stroke-width="1"></line><text x="145" y="200" text-anchor="middle" fill="#888" class="text-xs">μ-2σ</text></g><g><line x1="197.5" y1="180" x2="197.5" y2="185" stroke="#888" stroke-width="1"></line><text x="197.5" y="200" text-anchor="middle" fill="#888" class="text-xs">μ-σ</text></g><g><line x1="250" y1="180" x2="250" y2="185" stroke="#888" stroke-width="1"></line><text x="250" y="200" text-anchor="middle" fill="#888" class="text-xs">μ</text></g><g><line x1="302.5" y1="180" x2="302.5" y2="185" stroke="#888" stroke-width="1"></line><text x="302.5" y="200" text-anchor="middle" fill="#888" class="text-xs">μ+σ</text></g><g><line x1="355" y1="180" x2="355" y2="185" stroke="#888" stroke-width="1"></line><text x="355" y="200" text-anchor="middle" fill="#888" class="text-xs">μ+2σ</text></g><g><line x1="407.5" y1="180" x2="407.5" y2="185" stroke="#888" stroke-width="1"></line><text x="407.5" y="200" text-anchor="middle" fill="#888" class="text-xs">μ+3σ</text><polyline fill="none" stroke="#2563eb" stroke-width="2" points="40,179.95303523209364 42.1,179.94493040760918 44.2,179.93553014813455 46.300000000000004,179.92464594783036 48.400000000000006,179.9120650179033 50.50000000000001,179.89754766135673 52.60000000000001,179.88082443981654 54.70000000000002,179.8615931271057 56.79999999999999,179.83951544593378 58.89999999999999,179.81421358608893 61,179.78526650489457 63.099999999999994,179.7522060134392 65.2,179.71451265522208 67.3,179.67161138739664 69.4,179.622867078741 71.5,179.56757984284684 73.60000000000001,179.50498022978894 75.70000000000002,179.43422430470474 77.79999999999998,179.35438864725938 79.89999999999999,179.26446531186204 82,179.16335679469915 84.1,179.04987106010353 86.19999999999999,178.92271668542574 88.3,178.78049819033936 90.4,178.62171162330506 92.5,178.44474048464608 94.6,178.24785207222868 96.7,178.02919434197952 98.80000000000001,177.78679338126614 100.9,177.51855159837513 103,177.22224673578816 105.10000000000001,176.89553181852028 107.20000000000002,176.5359361512784 109.30000000000001,176.14086747945692 111.40000000000002,175.70761542883895 113.5,175.2333563371561 115.6,174.71515958721815 117.7,174.1499955460099 119.8,173.53474520683713 121.9,172.8662116221728 124,172.14113320322127 126.09999999999998,171.35619894831993 128.2,170.5080656461053 130.29999999999998,169.59337708088947 132.39999999999998,168.60878524696648 134.5,167.5509735556859 136.6,166.41668199421983 138.7,165.2027341681916 140.8,163.9060661319551 142.89999999999998,162.5237568805834 145,161.05306034687422 147.10000000000002,159.4914387152688 149.2,157.83659683292856 151.3,156.0865174667709 153.4,154.23949712451923 155.5,152.29418212829393 157.60000000000002,150.2496046014969 159.7,148.10521800427875 161.8,145.86093183028657 163.89999999999998,143.51714505822352 166,141.07477793655283 168.1,138.53530166896266 170.2,135.90076556245313 172.3,133.17382119954104 174.4,130.35774320147414 176.5,127.45644616080406 178.6,124.4744973394049 180.70000000000002,121.41712475217501 182.8,118.29022028725456 184.89999999999998,115.10033755056023 187,111.85468416560398 189.1,108.56110830862949 191.2,105.22807931366762 193.29999999999998,101.86466224166443 195.4,98.48048637174614 197.5,95.08570764023132 199.6,91.69096512336004 201.70000000000002,88.30733173197635 203.8,84.94625935960048 205.9,81.61951879842432 208,78.33913480968326 210.10000000000002,75.11731680450097 212.2,71.96638565756635 214.29999999999998,68.89869723779266 216.4,65.92656329637789 218.5,63.06217040242191 220.6,60.31749765854627 222.7,57.704233962961 224.8,55.233695609414184 226.9,52.91674503184386 229,50.76371150587096 231.1,48.78431461422511 233.20000000000002,46.98759126763221 235.3,45.38182704664226 237.39999999999998,43.974492593522825 239.5,42.77218573705426 241.6,41.78057997735934 243.7,41.00437989346614 245.79999999999998,40.447283963975394 247.9,40.11195521194426 250,40 252.1,40.11195521194426 254.20000000000002,40.447283963975394 256.3,41.00437989346614 258.4,41.78057997735934 260.5,42.77218573705426 262.6,43.974492593522825 264.70000000000005,45.381827046642286 266.8,46.98759126763224 268.9,48.78431461422514 271,50.763711505871015 273.1,52.916745031843874 275.20000000000005,55.2336956094142 277.29999999999995,57.704233962960956 279.4,60.31749765854623 281.5,63.062170402421884 283.6,65.92656329637785 285.7,68.89869723779263 287.79999999999995,71.96638565756632 289.9,75.11731680450097 292,78.33913480968326 294.1,81.61951879842432 296.2,84.94625935960048 298.3,88.30733173197635 300.4,91.69096512336004 302.5,95.08570764023132 304.6,98.48048637174614 306.7,101.86466224166443 308.8,105.22807931366762 310.90000000000003,108.56110830862949 313,111.85468416560398 315.1,115.10033755056023 317.2,118.29022028725458 319.3,121.41712475217507 321.40000000000003,124.47449733940493 323.5,127.45644616080409 325.6,130.3577432014742 327.70000000000005,133.17382119954107 329.79999999999995,135.9007655624531 331.9,138.53530166896263 334,141.0747779365528 336.09999999999997,143.5171450582235 338.2,145.86093183028652 340.3,148.10521800427873 342.4,150.2496046014969 344.5,152.29418212829393 346.59999999999997,154.23949712451923 348.7,156.0865174667709 350.8,157.83659683292856 352.9,159.4914387152688 355,161.05306034687422 357.1,162.5237568805834 359.2,163.9060661319551 361.3,165.2027341681916 363.40000000000003,166.41668199421983 365.5,167.5509735556859 367.6,168.60878524696648 369.7,169.59337708088947 371.8,170.5080656461053 373.90000000000003,171.35619894831993 376,172.14113320322127 378.1,172.8662116221728 380.20000000000005,173.53474520683713 382.29999999999995,174.1499955460099 384.4,174.71515958721812 386.5,175.2333563371561 388.59999999999997,175.70761542883895 390.7,176.14086747945692 392.8,176.5359361512784 394.9,176.89553181852028 397,177.22224673578816 399.09999999999997,177.51855159837513 401.2,177.78679338126614 403.3,178.02919434197952 405.4,178.24785207222868 407.5,178.44474048464608 409.6,178.62171162330506 411.7,178.78049819033936 413.8,178.92271668542574 415.90000000000003,179.04987106010353 418,179.16335679469915 420.1,179.26446531186204 422.2,179.35438864725938 424.3,179.43422430470474 426.40000000000003,179.50498022978894 428.5,179.56757984284684 430.6,179.622867078741 432.70000000000005,179.67161138739664 434.79999999999995,179.71451265522208 436.9,179.7522060134392 439,179.78526650489457 441.09999999999997,179.81421358608893 443.2,179.83951544593378 445.3,179.8615931271057 447.4,179.88082443981654 449.5,179.89754766135673 451.59999999999997,179.9120650179033 453.7,179.92464594783036 455.8,179.93553014813455 457.9,179.94493040760918 460,179.95303523209364"></polyline></g></svg>